<?xml version="1.0" encoding="utf-8" standalone="no"?>
<!DOCTYPE svg PUBLIC "-//W3C//DTD SVG 1.1//EN"
  "http://www.w3.org/Graphics/SVG/1.1/DTD/svg11.dtd">
<svg xmlns:xlink="http://www.w3.org/1999/xlink" width="864pt" height="230.4pt" viewBox="0 0 864 230.4" xmlns="http://www.w3.org/2000/svg" version="1.1">
 <metadata>
  <rdf:RDF xmlns:dc="http://purl.org/dc/elements/1.1/" xmlns:cc="http://creativecommons.org/ns#" xmlns:rdf="http://www.w3.org/1999/02/22-rdf-syntax-ns#">
   <cc:Work>
    <dc:type rdf:resource="http://purl.org/dc/dcmitype/StillImage"/>
    <dc:date>2023-10-26T16:56:27.436817</dc:date>
    <dc:format>image/svg+xml</dc:format>
    <dc:creator>
     <cc:Agent>
      <dc:title>Matplotlib v3.8.0, https://matplotlib.org/</dc:title>
     </cc:Agent>
    </dc:creator>
   </cc:Work>
  </rdf:RDF>
 </metadata>
 <defs>
  <style type="text/css">*{stroke-linejoin: round; stroke-linecap: butt}</style>
 </defs>
 <g id="figure_1">
  <g id="patch_1">
   <path d="M 0 230.4 
L 864 230.4 
L 864 0 
L 0 0 
z
" style="fill: #ffffff"/>
  </g>
  <g id="axes_1">
   <g id="patch_2">
    <path d="M 108 184.32 
L 412.363636 184.32 
L 412.363636 27.648 
L 108 27.648 
z
" style="fill: #ffffff"/>
   </g>
   <g id="patch_3">
    <path d="M 108 184.32 
L 135.669421 184.32 
L 135.669421 183.584451 
L 108 183.584451 
z
" clip-path="url(#p584efa4952)" style="fill: #808080; stroke: #000000; stroke-linejoin: miter"/>
   </g>
   <g id="patch_4">
    <path d="M 135.669421 184.32 
L 163.338843 184.32 
L 163.338843 183.584451 
L 135.669421 183.584451 
z
" clip-path="url(#p584efa4952)" style="fill: #808080; stroke: #000000; stroke-linejoin: miter"/>
   </g>
   <g id="patch_5">
    <path d="M 163.338843 184.32 
L 191.008264 184.32 
L 191.008264 179.171155 
L 163.338843 179.171155 
z
" clip-path="url(#p584efa4952)" style="fill: #808080; stroke: #000000; stroke-linejoin: miter"/>
   </g>
   <g id="patch_6">
    <path d="M 191.008264 184.32 
L 218.677686 184.32 
L 218.677686 162.98907 
L 191.008264 162.98907 
z
" clip-path="url(#p584efa4952)" style="fill: #808080; stroke: #000000; stroke-linejoin: miter"/>
   </g>
   <g id="patch_7">
    <path d="M 218.677686 184.32 
L 246.347107 184.32 
L 246.347107 84.285296 
L 218.677686 84.285296 
z
" clip-path="url(#p584efa4952)" style="fill: #808080; stroke: #000000; stroke-linejoin: miter"/>
   </g>
   <g id="patch_8">
    <path d="M 246.347107 184.32 
L 274.016529 184.32 
L 274.016529 42.358986 
L 246.347107 42.358986 
z
" clip-path="url(#p584efa4952)" style="fill: #808080; stroke: #000000; stroke-linejoin: miter"/>
   </g>
   <g id="patch_9">
    <path d="M 274.016529 184.32 
L 301.68595 184.32 
L 301.68595 113.707268 
L 274.016529 113.707268 
z
" clip-path="url(#p584efa4952)" style="fill: #808080; stroke: #000000; stroke-linejoin: miter"/>
   </g>
   <g id="patch_10">
    <path d="M 301.68595 184.32 
L 329.355372 184.32 
L 329.355372 165.195718 
L 301.68595 165.195718 
z
" clip-path="url(#p584efa4952)" style="fill: #808080; stroke: #000000; stroke-linejoin: miter"/>
   </g>
   <g id="patch_11">
    <path d="M 329.355372 184.32 
L 357.024793 184.32 
L 357.024793 178.435606 
L 329.355372 178.435606 
z
" clip-path="url(#p584efa4952)" style="fill: #808080; stroke: #000000; stroke-linejoin: miter"/>
   </g>
   <g id="patch_12">
    <path d="M 357.024793 184.32 
L 384.694215 184.32 
L 384.694215 182.848901 
L 357.024793 182.848901 
z
" clip-path="url(#p584efa4952)" style="fill: #808080; stroke: #000000; stroke-linejoin: miter"/>
   </g>
   <g id="patch_13">
    <path d="M 384.694215 184.32 
L 412.363636 184.32 
L 412.363636 183.584451 
L 384.694215 183.584451 
z
" clip-path="url(#p584efa4952)" style="fill: #808080; stroke: #000000; stroke-linejoin: miter"/>
   </g>
   <g id="matplotlib.axis_1">
    <g id="xtick_1">
     <g id="line2d_1">
      <defs>
       <path id="ma6330fd9ed" d="M 0 0 
L 0 3.5 
" style="stroke: #000000; stroke-width: 0.8"/>
      </defs>
      <g>
       <use xlink:href="#ma6330fd9ed" x="149.504132" y="184.32" style="stroke: #000000; stroke-width: 0.8"/>
      </g>
     </g>
     <g id="text_1">
      <!-- −4 -->
      <g transform="translate(142.133038 198.918437) scale(0.1 -0.1)">
       <defs>
        <path id="DejaVuSans-2212" d="M 678 2272 
L 4684 2272 
L 4684 1741 
L 678 1741 
L 678 2272 
z
" transform="scale(0.015625)"/>
        <path id="DejaVuSans-34" d="M 2419 4116 
L 825 1625 
L 2419 1625 
L 2419 4116 
z
M 2253 4666 
L 3047 4666 
L 3047 1625 
L 3713 1625 
L 3713 1100 
L 3047 1100 
L 3047 0 
L 2419 0 
L 2419 1100 
L 313 1100 
L 313 1709 
L 2253 4666 
z
" transform="scale(0.015625)"/>
       </defs>
       <use xlink:href="#DejaVuSans-2212"/>
       <use xlink:href="#DejaVuSans-34" x="83.789062"/>
      </g>
     </g>
    </g>
    <g id="xtick_2">
     <g id="line2d_2">
      <g>
       <use xlink:href="#ma6330fd9ed" x="204.842975" y="184.32" style="stroke: #000000; stroke-width: 0.8"/>
      </g>
     </g>
     <g id="text_2">
      <!-- −2 -->
      <g transform="translate(197.471881 198.918437) scale(0.1 -0.1)">
       <defs>
        <path id="DejaVuSans-32" d="M 1228 531 
L 3431 531 
L 3431 0 
L 469 0 
L 469 531 
Q 828 903 1448 1529 
Q 2069 2156 2228 2338 
Q 2531 2678 2651 2914 
Q 2772 3150 2772 3378 
Q 2772 3750 2511 3984 
Q 2250 4219 1831 4219 
Q 1534 4219 1204 4116 
Q 875 4013 500 3803 
L 500 4441 
Q 881 4594 1212 4672 
Q 1544 4750 1819 4750 
Q 2544 4750 2975 4387 
Q 3406 4025 3406 3419 
Q 3406 3131 3298 2873 
Q 3191 2616 2906 2266 
Q 2828 2175 2409 1742 
Q 1991 1309 1228 531 
z
" transform="scale(0.015625)"/>
       </defs>
       <use xlink:href="#DejaVuSans-2212"/>
       <use xlink:href="#DejaVuSans-32" x="83.789062"/>
      </g>
     </g>
    </g>
    <g id="xtick_3">
     <g id="line2d_3">
      <g>
       <use xlink:href="#ma6330fd9ed" x="260.181818" y="184.32" style="stroke: #000000; stroke-width: 0.8"/>
      </g>
     </g>
     <g id="text_3">
      <!-- 0 -->
      <g transform="translate(257.000568 198.918437) scale(0.1 -0.1)">
       <defs>
        <path id="DejaVuSans-30" d="M 2034 4250 
Q 1547 4250 1301 3770 
Q 1056 3291 1056 2328 
Q 1056 1369 1301 889 
Q 1547 409 2034 409 
Q 2525 409 2770 889 
Q 3016 1369 3016 2328 
Q 3016 3291 2770 3770 
Q 2525 4250 2034 4250 
z
M 2034 4750 
Q 2819 4750 3233 4129 
Q 3647 3509 3647 2328 
Q 3647 1150 3233 529 
Q 2819 -91 2034 -91 
Q 1250 -91 836 529 
Q 422 1150 422 2328 
Q 422 3509 836 4129 
Q 1250 4750 2034 4750 
z
" transform="scale(0.015625)"/>
       </defs>
       <use xlink:href="#DejaVuSans-30"/>
      </g>
     </g>
    </g>
    <g id="xtick_4">
     <g id="line2d_4">
      <g>
       <use xlink:href="#ma6330fd9ed" x="315.520661" y="184.32" style="stroke: #000000; stroke-width: 0.8"/>
      </g>
     </g>
     <g id="text_4">
      <!-- 2 -->
      <g transform="translate(312.339411 198.918437) scale(0.1 -0.1)">
       <use xlink:href="#DejaVuSans-32"/>
      </g>
     </g>
    </g>
    <g id="xtick_5">
     <g id="line2d_5">
      <g>
       <use xlink:href="#ma6330fd9ed" x="370.859504" y="184.32" style="stroke: #000000; stroke-width: 0.8"/>
      </g>
     </g>
     <g id="text_5">
      <!-- 4 -->
      <g transform="translate(367.678254 198.918437) scale(0.1 -0.1)">
       <use xlink:href="#DejaVuSans-34"/>
      </g>
     </g>
    </g>
    <g id="text_6">
     <!-- Как далеко стрела отклонилась влево или впарво, метры -->
     <g transform="translate(106.803693 212.596563) scale(0.1 -0.1)">
      <defs>
       <path id="DejaVuSans-41a" d="M 628 4666 
L 1259 4666 
L 1259 2359 
L 3516 4666 
L 4325 4666 
L 2522 2822 
L 4419 0 
L 3731 0 
L 2113 2403 
L 1259 1531 
L 1259 0 
L 628 0 
L 628 4666 
z
" transform="scale(0.015625)"/>
       <path id="DejaVuSans-430" d="M 2194 1759 
Q 1497 1759 1228 1600 
Q 959 1441 959 1056 
Q 959 750 1161 570 
Q 1363 391 1709 391 
Q 2188 391 2477 730 
Q 2766 1069 2766 1631 
L 2766 1759 
L 2194 1759 
z
M 3341 1997 
L 3341 0 
L 2766 0 
L 2766 531 
Q 2569 213 2275 61 
Q 1981 -91 1556 -91 
Q 1019 -91 701 211 
Q 384 513 384 1019 
Q 384 1609 779 1909 
Q 1175 2209 1959 2209 
L 2766 2209 
L 2766 2266 
Q 2766 2663 2505 2880 
Q 2244 3097 1772 3097 
Q 1472 3097 1187 3025 
Q 903 2953 641 2809 
L 641 3341 
Q 956 3463 1253 3523 
Q 1550 3584 1831 3584 
Q 2591 3584 2966 3190 
Q 3341 2797 3341 1997 
z
" transform="scale(0.015625)"/>
       <path id="DejaVuSans-43a" d="M 581 3500 
L 1153 3500 
L 1153 1856 
L 2775 3500 
L 3481 3500 
L 2144 2147 
L 3653 0 
L 3009 0 
L 1769 1766 
L 1153 1141 
L 1153 0 
L 581 0 
L 581 3500 
z
" transform="scale(0.015625)"/>
       <path id="DejaVuSans-20" transform="scale(0.015625)"/>
       <path id="DejaVuSans-434" d="M 1384 459 
L 3053 459 
L 3053 3041 
L 1844 3041 
L 1844 2603 
Q 1844 1316 1475 628 
L 1384 459 
z
M 550 459 
Q 834 584 959 850 
Q 1266 1509 1266 2838 
L 1266 3500 
L 3631 3500 
L 3631 459 
L 4091 459 
L 4091 -884 
L 3631 -884 
L 3631 0 
L 794 0 
L 794 -884 
L 334 -884 
L 334 459 
L 550 459 
z
" transform="scale(0.015625)"/>
       <path id="DejaVuSans-43b" d="M 238 0 
L 238 478 
Q 806 566 981 959 
Q 1194 1513 1194 2928 
L 1194 3500 
L 3559 3500 
L 3559 0 
L 2984 0 
L 2984 3041 
L 1769 3041 
L 1769 2694 
Q 1769 1344 1494 738 
Q 1200 91 238 0 
z
" transform="scale(0.015625)"/>
       <path id="DejaVuSans-435" d="M 3597 1894 
L 3597 1613 
L 953 1613 
Q 991 1019 1311 708 
Q 1631 397 2203 397 
Q 2534 397 2845 478 
Q 3156 559 3463 722 
L 3463 178 
Q 3153 47 2828 -22 
Q 2503 -91 2169 -91 
Q 1331 -91 842 396 
Q 353 884 353 1716 
Q 353 2575 817 3079 
Q 1281 3584 2069 3584 
Q 2775 3584 3186 3129 
Q 3597 2675 3597 1894 
z
M 3022 2063 
Q 3016 2534 2758 2815 
Q 2500 3097 2075 3097 
Q 1594 3097 1305 2825 
Q 1016 2553 972 2059 
L 3022 2063 
z
" transform="scale(0.015625)"/>
       <path id="DejaVuSans-43e" d="M 1959 3097 
Q 1497 3097 1228 2736 
Q 959 2375 959 1747 
Q 959 1119 1226 758 
Q 1494 397 1959 397 
Q 2419 397 2687 759 
Q 2956 1122 2956 1747 
Q 2956 2369 2687 2733 
Q 2419 3097 1959 3097 
z
M 1959 3584 
Q 2709 3584 3137 3096 
Q 3566 2609 3566 1747 
Q 3566 888 3137 398 
Q 2709 -91 1959 -91 
Q 1206 -91 779 398 
Q 353 888 353 1747 
Q 353 2609 779 3096 
Q 1206 3584 1959 3584 
z
" transform="scale(0.015625)"/>
       <path id="DejaVuSans-441" d="M 3122 3366 
L 3122 2828 
Q 2878 2963 2633 3030 
Q 2388 3097 2138 3097 
Q 1578 3097 1268 2742 
Q 959 2388 959 1747 
Q 959 1106 1268 751 
Q 1578 397 2138 397 
Q 2388 397 2633 464 
Q 2878 531 3122 666 
L 3122 134 
Q 2881 22 2623 -34 
Q 2366 -91 2075 -91 
Q 1284 -91 818 406 
Q 353 903 353 1747 
Q 353 2603 823 3093 
Q 1294 3584 2113 3584 
Q 2378 3584 2631 3529 
Q 2884 3475 3122 3366 
z
" transform="scale(0.015625)"/>
       <path id="DejaVuSans-442" d="M 188 3500 
L 3541 3500 
L 3541 3041 
L 2147 3041 
L 2147 0 
L 1581 0 
L 1581 3041 
L 188 3041 
L 188 3500 
z
" transform="scale(0.015625)"/>
       <path id="DejaVuSans-440" d="M 1159 525 
L 1159 -1331 
L 581 -1331 
L 581 3500 
L 1159 3500 
L 1159 2969 
Q 1341 3281 1617 3432 
Q 1894 3584 2278 3584 
Q 2916 3584 3314 3078 
Q 3713 2572 3713 1747 
Q 3713 922 3314 415 
Q 2916 -91 2278 -91 
Q 1894 -91 1617 61 
Q 1341 213 1159 525 
z
M 3116 1747 
Q 3116 2381 2855 2742 
Q 2594 3103 2138 3103 
Q 1681 3103 1420 2742 
Q 1159 2381 1159 1747 
Q 1159 1113 1420 752 
Q 1681 391 2138 391 
Q 2594 391 2855 752 
Q 3116 1113 3116 1747 
z
" transform="scale(0.015625)"/>
       <path id="DejaVuSans-43d" d="M 581 3500 
L 1159 3500 
L 1159 2072 
L 3025 2072 
L 3025 3500 
L 3603 3500 
L 3603 0 
L 3025 0 
L 3025 1613 
L 1159 1613 
L 1159 0 
L 581 0 
L 581 3500 
z
" transform="scale(0.015625)"/>
       <path id="DejaVuSans-438" d="M 3578 3500 
L 3578 0 
L 3006 0 
L 3006 2809 
L 1319 0 
L 581 0 
L 581 3500 
L 1153 3500 
L 1153 697 
L 2838 3500 
L 3578 3500 
z
" transform="scale(0.015625)"/>
       <path id="DejaVuSans-44c" d="M 2781 1038 
Q 2781 1319 2576 1466 
Q 2372 1613 1978 1613 
L 1159 1613 
L 1159 459 
L 1978 459 
Q 2372 459 2576 607 
Q 2781 756 2781 1038 
z
M 581 3500 
L 1159 3500 
L 1159 2072 
L 2003 2072 
Q 2672 2072 3033 1817 
Q 3394 1563 3394 1038 
Q 3394 513 3033 256 
Q 2672 0 2003 0 
L 581 0 
L 581 3500 
z
" transform="scale(0.015625)"/>
       <path id="DejaVuSans-432" d="M 1156 1613 
L 1156 459 
L 1975 459 
Q 2369 459 2575 607 
Q 2781 756 2781 1038 
Q 2781 1319 2575 1466 
Q 2369 1613 1975 1613 
L 1156 1613 
z
M 1156 3041 
L 1156 2072 
L 1913 2072 
Q 2238 2072 2444 2201 
Q 2650 2331 2650 2563 
Q 2650 2794 2444 2917 
Q 2238 3041 1913 3041 
L 1156 3041 
z
M 581 3500 
L 1950 3500 
Q 2566 3500 2897 3275 
Q 3228 3050 3228 2634 
Q 3228 2313 3059 2123 
Q 2891 1934 2559 1888 
Q 2956 1813 3175 1575 
Q 3394 1338 3394 981 
Q 3394 513 3033 256 
Q 2672 0 2003 0 
L 581 0 
L 581 3500 
z
" transform="scale(0.015625)"/>
       <path id="DejaVuSans-43f" d="M 3603 3500 
L 3603 0 
L 3025 0 
L 3025 3041 
L 1159 3041 
L 1159 0 
L 581 0 
L 581 3500 
L 3603 3500 
z
" transform="scale(0.015625)"/>
       <path id="DejaVuSans-2c" d="M 750 794 
L 1409 794 
L 1409 256 
L 897 -744 
L 494 -744 
L 750 256 
L 750 794 
z
" transform="scale(0.015625)"/>
       <path id="DejaVuSans-43c" d="M 581 3500 
L 1422 3500 
L 2416 1156 
L 3413 3500 
L 4247 3500 
L 4247 0 
L 3669 0 
L 3669 2950 
L 2703 672 
L 2128 672 
L 1159 2950 
L 1159 0 
L 581 0 
L 581 3500 
z
" transform="scale(0.015625)"/>
       <path id="DejaVuSans-44b" d="M 3907 3500 
L 4482 3500 
L 4482 0 
L 3907 0 
L 3907 3500 
z
M 4195 3584 
L 4195 3584 
z
M 2781 1038 
Q 2781 1319 2576 1466 
Q 2372 1613 1978 1613 
L 1159 1613 
L 1159 459 
L 1978 459 
Q 2372 459 2576 607 
Q 2781 756 2781 1038 
z
M 581 3500 
L 1159 3500 
L 1159 2072 
L 2003 2072 
Q 2672 2072 3033 1817 
Q 3394 1563 3394 1038 
Q 3394 513 3033 256 
Q 2672 0 2003 0 
L 581 0 
L 581 3500 
z
" transform="scale(0.015625)"/>
      </defs>
      <use xlink:href="#DejaVuSans-41a"/>
      <use xlink:href="#DejaVuSans-430" x="70.996094"/>
      <use xlink:href="#DejaVuSans-43a" x="132.275391"/>
      <use xlink:href="#DejaVuSans-20" x="192.675781"/>
      <use xlink:href="#DejaVuSans-434" x="224.462891"/>
      <use xlink:href="#DejaVuSans-430" x="293.603516"/>
      <use xlink:href="#DejaVuSans-43b" x="354.882812"/>
      <use xlink:href="#DejaVuSans-435" x="418.798828"/>
      <use xlink:href="#DejaVuSans-43a" x="480.322266"/>
      <use xlink:href="#DejaVuSans-43e" x="540.722656"/>
      <use xlink:href="#DejaVuSans-20" x="601.904297"/>
      <use xlink:href="#DejaVuSans-441" x="633.691406"/>
      <use xlink:href="#DejaVuSans-442" x="688.671875"/>
      <use xlink:href="#DejaVuSans-440" x="746.923828"/>
      <use xlink:href="#DejaVuSans-435" x="810.400391"/>
      <use xlink:href="#DejaVuSans-43b" x="871.923828"/>
      <use xlink:href="#DejaVuSans-430" x="935.839844"/>
      <use xlink:href="#DejaVuSans-20" x="997.119141"/>
      <use xlink:href="#DejaVuSans-43e" x="1028.90625"/>
      <use xlink:href="#DejaVuSans-442" x="1090.087891"/>
      <use xlink:href="#DejaVuSans-43a" x="1148.339844"/>
      <use xlink:href="#DejaVuSans-43b" x="1208.740234"/>
      <use xlink:href="#DejaVuSans-43e" x="1272.65625"/>
      <use xlink:href="#DejaVuSans-43d" x="1333.837891"/>
      <use xlink:href="#DejaVuSans-438" x="1399.21875"/>
      <use xlink:href="#DejaVuSans-43b" x="1464.208984"/>
      <use xlink:href="#DejaVuSans-430" x="1528.125"/>
      <use xlink:href="#DejaVuSans-441" x="1589.404297"/>
      <use xlink:href="#DejaVuSans-44c" x="1644.384766"/>
      <use xlink:href="#DejaVuSans-20" x="1703.320312"/>
      <use xlink:href="#DejaVuSans-432" x="1735.107422"/>
      <use xlink:href="#DejaVuSans-43b" x="1794.042969"/>
      <use xlink:href="#DejaVuSans-435" x="1857.958984"/>
      <use xlink:href="#DejaVuSans-432" x="1919.482422"/>
      <use xlink:href="#DejaVuSans-43e" x="1978.417969"/>
      <use xlink:href="#DejaVuSans-20" x="2039.599609"/>
      <use xlink:href="#DejaVuSans-438" x="2071.386719"/>
      <use xlink:href="#DejaVuSans-43b" x="2136.376953"/>
      <use xlink:href="#DejaVuSans-438" x="2200.292969"/>
      <use xlink:href="#DejaVuSans-20" x="2265.283203"/>
      <use xlink:href="#DejaVuSans-432" x="2297.070312"/>
      <use xlink:href="#DejaVuSans-43f" x="2356.005859"/>
      <use xlink:href="#DejaVuSans-430" x="2421.386719"/>
      <use xlink:href="#DejaVuSans-440" x="2482.666016"/>
      <use xlink:href="#DejaVuSans-432" x="2546.142578"/>
      <use xlink:href="#DejaVuSans-43e" x="2605.078125"/>
      <use xlink:href="#DejaVuSans-2c" x="2666.259766"/>
      <use xlink:href="#DejaVuSans-20" x="2698.046875"/>
      <use xlink:href="#DejaVuSans-43c" x="2729.833984"/>
      <use xlink:href="#DejaVuSans-435" x="2805.273438"/>
      <use xlink:href="#DejaVuSans-442" x="2866.796875"/>
      <use xlink:href="#DejaVuSans-440" x="2925.048828"/>
      <use xlink:href="#DejaVuSans-44b" x="2988.525391"/>
     </g>
    </g>
   </g>
   <g id="matplotlib.axis_2">
    <g id="ytick_1">
     <g id="line2d_6">
      <defs>
       <path id="mbee27fc7f5" d="M 0 0 
L -3.5 0 
" style="stroke: #000000; stroke-width: 0.8"/>
      </defs>
      <g>
       <use xlink:href="#mbee27fc7f5" x="108" y="184.32" style="stroke: #000000; stroke-width: 0.8"/>
      </g>
     </g>
     <g id="text_7">
      <!-- 0 -->
      <g transform="translate(94.6375 188.119219) scale(0.1 -0.1)">
       <use xlink:href="#DejaVuSans-30"/>
      </g>
     </g>
    </g>
    <g id="ytick_2">
     <g id="line2d_7">
      <g>
       <use xlink:href="#mbee27fc7f5" x="108" y="147.542535" style="stroke: #000000; stroke-width: 0.8"/>
      </g>
     </g>
     <g id="text_8">
      <!-- 50 -->
      <g transform="translate(88.275 151.341754) scale(0.1 -0.1)">
       <defs>
        <path id="DejaVuSans-35" d="M 691 4666 
L 3169 4666 
L 3169 4134 
L 1269 4134 
L 1269 2991 
Q 1406 3038 1543 3061 
Q 1681 3084 1819 3084 
Q 2600 3084 3056 2656 
Q 3513 2228 3513 1497 
Q 3513 744 3044 326 
Q 2575 -91 1722 -91 
Q 1428 -91 1123 -41 
Q 819 9 494 109 
L 494 744 
Q 775 591 1075 516 
Q 1375 441 1709 441 
Q 2250 441 2565 725 
Q 2881 1009 2881 1497 
Q 2881 1984 2565 2268 
Q 2250 2553 1709 2553 
Q 1456 2553 1204 2497 
Q 953 2441 691 2322 
L 691 4666 
z
" transform="scale(0.015625)"/>
       </defs>
       <use xlink:href="#DejaVuSans-35"/>
       <use xlink:href="#DejaVuSans-30" x="63.623047"/>
      </g>
     </g>
    </g>
    <g id="ytick_3">
     <g id="line2d_8">
      <g>
       <use xlink:href="#mbee27fc7f5" x="108" y="110.76507" style="stroke: #000000; stroke-width: 0.8"/>
      </g>
     </g>
     <g id="text_9">
      <!-- 100 -->
      <g transform="translate(81.9125 114.564289) scale(0.1 -0.1)">
       <defs>
        <path id="DejaVuSans-31" d="M 794 531 
L 1825 531 
L 1825 4091 
L 703 3866 
L 703 4441 
L 1819 4666 
L 2450 4666 
L 2450 531 
L 3481 531 
L 3481 0 
L 794 0 
L 794 531 
z
" transform="scale(0.015625)"/>
       </defs>
       <use xlink:href="#DejaVuSans-31"/>
       <use xlink:href="#DejaVuSans-30" x="63.623047"/>
       <use xlink:href="#DejaVuSans-30" x="127.246094"/>
      </g>
     </g>
    </g>
    <g id="ytick_4">
     <g id="line2d_9">
      <g>
       <use xlink:href="#mbee27fc7f5" x="108" y="73.987606" style="stroke: #000000; stroke-width: 0.8"/>
      </g>
     </g>
     <g id="text_10">
      <!-- 150 -->
      <g transform="translate(81.9125 77.786824) scale(0.1 -0.1)">
       <use xlink:href="#DejaVuSans-31"/>
       <use xlink:href="#DejaVuSans-35" x="63.623047"/>
       <use xlink:href="#DejaVuSans-30" x="127.246094"/>
      </g>
     </g>
    </g>
    <g id="ytick_5">
     <g id="line2d_10">
      <g>
       <use xlink:href="#mbee27fc7f5" x="108" y="37.210141" style="stroke: #000000; stroke-width: 0.8"/>
      </g>
     </g>
     <g id="text_11">
      <!-- 200 -->
      <g transform="translate(81.9125 41.00936) scale(0.1 -0.1)">
       <use xlink:href="#DejaVuSans-32"/>
       <use xlink:href="#DejaVuSans-30" x="63.623047"/>
       <use xlink:href="#DejaVuSans-30" x="127.246094"/>
      </g>
     </g>
    </g>
    <g id="text_12">
     <!-- частота -->
     <g transform="translate(75.832812 126.699625) rotate(-90) scale(0.1 -0.1)">
      <defs>
       <path id="DejaVuSans-447" d="M 2625 0 
L 2625 1472 
L 1553 1472 
Q 1075 1472 756 1769 
Q 469 2038 469 2613 
L 469 3500 
L 1044 3500 
L 1044 2666 
Q 1044 2300 1206 2116 
Q 1372 1931 1697 1931 
L 2625 1931 
L 2625 3500 
L 3200 3500 
L 3200 0 
L 2625 0 
z
" transform="scale(0.015625)"/>
      </defs>
      <use xlink:href="#DejaVuSans-447"/>
      <use xlink:href="#DejaVuSans-430" x="59.082031"/>
      <use xlink:href="#DejaVuSans-441" x="120.361328"/>
      <use xlink:href="#DejaVuSans-442" x="175.341797"/>
      <use xlink:href="#DejaVuSans-43e" x="233.59375"/>
      <use xlink:href="#DejaVuSans-442" x="294.775391"/>
      <use xlink:href="#DejaVuSans-430" x="353.027344"/>
     </g>
    </g>
   </g>
   <g id="patch_14">
    <path d="M 108 184.32 
L 108 27.648 
" style="fill: none; stroke: #000000; stroke-width: 0.8; stroke-linejoin: miter; stroke-linecap: square"/>
   </g>
   <g id="patch_15">
    <path d="M 412.363636 184.32 
L 412.363636 27.648 
" style="fill: none; stroke: #000000; stroke-width: 0.8; stroke-linejoin: miter; stroke-linecap: square"/>
   </g>
   <g id="patch_16">
    <path d="M 108 184.32 
L 412.363636 184.32 
" style="fill: none; stroke: #000000; stroke-width: 0.8; stroke-linejoin: miter; stroke-linecap: square"/>
   </g>
   <g id="patch_17">
    <path d="M 108 27.648 
L 412.363636 27.648 
" style="fill: none; stroke: #000000; stroke-width: 0.8; stroke-linejoin: miter; stroke-linecap: square"/>
   </g>
   <g id="text_13">
    <!-- 1 -->
    <g transform="translate(118.653461 181.504763) scale(0.1 -0.1)">
     <use xlink:href="#DejaVuSans-31"/>
    </g>
   </g>
   <g id="text_14">
    <!-- 1 -->
    <g transform="translate(146.322882 181.504763) scale(0.1 -0.1)">
     <use xlink:href="#DejaVuSans-31"/>
    </g>
   </g>
   <g id="text_15">
    <!-- 7 -->
    <g transform="translate(173.992304 177.091467) scale(0.1 -0.1)">
     <defs>
      <path id="DejaVuSans-37" d="M 525 4666 
L 3525 4666 
L 3525 4397 
L 1831 0 
L 1172 0 
L 2766 4134 
L 525 4134 
L 525 4666 
z
" transform="scale(0.015625)"/>
     </defs>
     <use xlink:href="#DejaVuSans-37"/>
    </g>
   </g>
   <g id="text_16">
    <!-- 29 -->
    <g transform="translate(198.480475 160.909383) scale(0.1 -0.1)">
     <defs>
      <path id="DejaVuSans-39" d="M 703 97 
L 703 672 
Q 941 559 1184 500 
Q 1428 441 1663 441 
Q 2288 441 2617 861 
Q 2947 1281 2994 2138 
Q 2813 1869 2534 1725 
Q 2256 1581 1919 1581 
Q 1219 1581 811 2004 
Q 403 2428 403 3163 
Q 403 3881 828 4315 
Q 1253 4750 1959 4750 
Q 2769 4750 3195 4129 
Q 3622 3509 3622 2328 
Q 3622 1225 3098 567 
Q 2575 -91 1691 -91 
Q 1453 -91 1209 -44 
Q 966 3 703 97 
z
M 1959 2075 
Q 2384 2075 2632 2365 
Q 2881 2656 2881 3163 
Q 2881 3666 2632 3958 
Q 2384 4250 1959 4250 
Q 1534 4250 1286 3958 
Q 1038 3666 1038 3163 
Q 1038 2656 1286 2365 
Q 1534 2075 1959 2075 
z
" transform="scale(0.015625)"/>
     </defs>
     <use xlink:href="#DejaVuSans-32"/>
     <use xlink:href="#DejaVuSans-39" x="63.623047"/>
    </g>
   </g>
   <g id="text_17">
    <!-- 136 -->
    <g transform="translate(222.968647 82.205608) scale(0.1 -0.1)">
     <defs>
      <path id="DejaVuSans-33" d="M 2597 2516 
Q 3050 2419 3304 2112 
Q 3559 1806 3559 1356 
Q 3559 666 3084 287 
Q 2609 -91 1734 -91 
Q 1441 -91 1130 -33 
Q 819 25 488 141 
L 488 750 
Q 750 597 1062 519 
Q 1375 441 1716 441 
Q 2309 441 2620 675 
Q 2931 909 2931 1356 
Q 2931 1769 2642 2001 
Q 2353 2234 1838 2234 
L 1294 2234 
L 1294 2753 
L 1863 2753 
Q 2328 2753 2575 2939 
Q 2822 3125 2822 3475 
Q 2822 3834 2567 4026 
Q 2313 4219 1838 4219 
Q 1578 4219 1281 4162 
Q 984 4106 628 3988 
L 628 4550 
Q 988 4650 1302 4700 
Q 1616 4750 1894 4750 
Q 2613 4750 3031 4423 
Q 3450 4097 3450 3541 
Q 3450 3153 3228 2886 
Q 3006 2619 2597 2516 
z
" transform="scale(0.015625)"/>
      <path id="DejaVuSans-36" d="M 2113 2584 
Q 1688 2584 1439 2293 
Q 1191 2003 1191 1497 
Q 1191 994 1439 701 
Q 1688 409 2113 409 
Q 2538 409 2786 701 
Q 3034 994 3034 1497 
Q 3034 2003 2786 2293 
Q 2538 2584 2113 2584 
z
M 3366 4563 
L 3366 3988 
Q 3128 4100 2886 4159 
Q 2644 4219 2406 4219 
Q 1781 4219 1451 3797 
Q 1122 3375 1075 2522 
Q 1259 2794 1537 2939 
Q 1816 3084 2150 3084 
Q 2853 3084 3261 2657 
Q 3669 2231 3669 1497 
Q 3669 778 3244 343 
Q 2819 -91 2113 -91 
Q 1303 -91 875 529 
Q 447 1150 447 2328 
Q 447 3434 972 4092 
Q 1497 4750 2381 4750 
Q 2619 4750 2861 4703 
Q 3103 4656 3366 4563 
z
" transform="scale(0.015625)"/>
     </defs>
     <use xlink:href="#DejaVuSans-31"/>
     <use xlink:href="#DejaVuSans-33" x="63.623047"/>
     <use xlink:href="#DejaVuSans-36" x="127.246094"/>
    </g>
   </g>
   <g id="text_18">
    <!-- 193 -->
    <g transform="translate(250.638068 40.279298) scale(0.1 -0.1)">
     <use xlink:href="#DejaVuSans-31"/>
     <use xlink:href="#DejaVuSans-39" x="63.623047"/>
     <use xlink:href="#DejaVuSans-33" x="127.246094"/>
    </g>
   </g>
   <g id="text_19">
    <!-- 96 -->
    <g transform="translate(281.48874 111.62758) scale(0.1 -0.1)">
     <use xlink:href="#DejaVuSans-39"/>
     <use xlink:href="#DejaVuSans-36" x="63.623047"/>
    </g>
   </g>
   <g id="text_20">
    <!-- 26 -->
    <g transform="translate(309.158161 163.116031) scale(0.1 -0.1)">
     <use xlink:href="#DejaVuSans-32"/>
     <use xlink:href="#DejaVuSans-36" x="63.623047"/>
    </g>
   </g>
   <g id="text_21">
    <!-- 8 -->
    <g transform="translate(340.008833 176.355918) scale(0.1 -0.1)">
     <defs>
      <path id="DejaVuSans-38" d="M 2034 2216 
Q 1584 2216 1326 1975 
Q 1069 1734 1069 1313 
Q 1069 891 1326 650 
Q 1584 409 2034 409 
Q 2484 409 2743 651 
Q 3003 894 3003 1313 
Q 3003 1734 2745 1975 
Q 2488 2216 2034 2216 
z
M 1403 2484 
Q 997 2584 770 2862 
Q 544 3141 544 3541 
Q 544 4100 942 4425 
Q 1341 4750 2034 4750 
Q 2731 4750 3128 4425 
Q 3525 4100 3525 3541 
Q 3525 3141 3298 2862 
Q 3072 2584 2669 2484 
Q 3125 2378 3379 2068 
Q 3634 1759 3634 1313 
Q 3634 634 3220 271 
Q 2806 -91 2034 -91 
Q 1263 -91 848 271 
Q 434 634 434 1313 
Q 434 1759 690 2068 
Q 947 2378 1403 2484 
z
M 1172 3481 
Q 1172 3119 1398 2916 
Q 1625 2713 2034 2713 
Q 2441 2713 2670 2916 
Q 2900 3119 2900 3481 
Q 2900 3844 2670 4047 
Q 2441 4250 2034 4250 
Q 1625 4250 1398 4047 
Q 1172 3844 1172 3481 
z
" transform="scale(0.015625)"/>
     </defs>
     <use xlink:href="#DejaVuSans-38"/>
    </g>
   </g>
   <g id="text_22">
    <!-- 2 -->
    <g transform="translate(367.678254 180.769214) scale(0.1 -0.1)">
     <use xlink:href="#DejaVuSans-32"/>
    </g>
   </g>
   <g id="text_23">
    <!-- 1 -->
    <g transform="translate(395.347676 181.504763) scale(0.1 -0.1)">
     <use xlink:href="#DejaVuSans-31"/>
    </g>
   </g>
   <g id="text_24">
    <!-- Распределение отклонений Ивана -->
    <g transform="translate(141.399396 17.648) scale(0.13 -0.13)">
     <defs>
      <path id="DejaVuSans-420" d="M 1259 4147 
L 1259 2394 
L 2053 2394 
Q 2494 2394 2734 2622 
Q 2975 2850 2975 3272 
Q 2975 3691 2734 3919 
Q 2494 4147 2053 4147 
L 1259 4147 
z
M 628 4666 
L 2053 4666 
Q 2838 4666 3239 4311 
Q 3641 3956 3641 3272 
Q 3641 2581 3239 2228 
Q 2838 1875 2053 1875 
L 1259 1875 
L 1259 0 
L 628 0 
L 628 4666 
z
" transform="scale(0.015625)"/>
      <path id="DejaVuSans-439" d="M 3578 3500 
L 3578 0 
L 3006 0 
L 3006 2809 
L 1319 0 
L 581 0 
L 581 3500 
L 1153 3500 
L 1153 697 
L 2838 3500 
L 3578 3500 
z
M 1102 4833 
L 1471 4833 
Q 1505 4599 1656 4481 
Q 1808 4364 2080 4364 
Q 2349 4364 2499 4480 
Q 2649 4596 2689 4833 
L 3058 4833 
Q 3027 4386 2780 4161 
Q 2533 3936 2080 3936 
Q 1627 3936 1380 4161 
Q 1133 4386 1102 4833 
z
" transform="scale(0.015625)"/>
      <path id="DejaVuSans-418" d="M 4159 4666 
L 4159 0 
L 3547 0 
L 3547 3903 
L 1478 0 
L 628 0 
L 628 4666 
L 1241 4666 
L 1241 763 
L 3309 4666 
L 4159 4666 
z
" transform="scale(0.015625)"/>
     </defs>
     <use xlink:href="#DejaVuSans-420"/>
     <use xlink:href="#DejaVuSans-430" x="60.302734"/>
     <use xlink:href="#DejaVuSans-441" x="121.582031"/>
     <use xlink:href="#DejaVuSans-43f" x="176.5625"/>
     <use xlink:href="#DejaVuSans-440" x="241.943359"/>
     <use xlink:href="#DejaVuSans-435" x="305.419922"/>
     <use xlink:href="#DejaVuSans-434" x="366.943359"/>
     <use xlink:href="#DejaVuSans-435" x="436.083984"/>
     <use xlink:href="#DejaVuSans-43b" x="497.607422"/>
     <use xlink:href="#DejaVuSans-435" x="561.523438"/>
     <use xlink:href="#DejaVuSans-43d" x="623.046875"/>
     <use xlink:href="#DejaVuSans-438" x="688.427734"/>
     <use xlink:href="#DejaVuSans-435" x="753.417969"/>
     <use xlink:href="#DejaVuSans-20" x="814.941406"/>
     <use xlink:href="#DejaVuSans-43e" x="846.728516"/>
     <use xlink:href="#DejaVuSans-442" x="907.910156"/>
     <use xlink:href="#DejaVuSans-43a" x="966.162109"/>
     <use xlink:href="#DejaVuSans-43b" x="1026.5625"/>
     <use xlink:href="#DejaVuSans-43e" x="1090.478516"/>
     <use xlink:href="#DejaVuSans-43d" x="1151.660156"/>
     <use xlink:href="#DejaVuSans-435" x="1217.041016"/>
     <use xlink:href="#DejaVuSans-43d" x="1278.564453"/>
     <use xlink:href="#DejaVuSans-438" x="1343.945312"/>
     <use xlink:href="#DejaVuSans-439" x="1408.935547"/>
     <use xlink:href="#DejaVuSans-20" x="1473.925781"/>
     <use xlink:href="#DejaVuSans-418" x="1505.712891"/>
     <use xlink:href="#DejaVuSans-432" x="1580.517578"/>
     <use xlink:href="#DejaVuSans-430" x="1639.453125"/>
     <use xlink:href="#DejaVuSans-43d" x="1700.732422"/>
     <use xlink:href="#DejaVuSans-430" x="1766.113281"/>
    </g>
   </g>
  </g>
  <g id="axes_2">
   <g id="patch_18">
    <path d="M 473.236364 184.32 
L 777.6 184.32 
L 777.6 27.648 
L 473.236364 27.648 
z
" style="fill: #ffffff"/>
   </g>
   <g id="patch_19">
    <path d="M 473.236364 184.32 
L 500.905785 184.32 
L 500.905785 182.848901 
L 473.236364 182.848901 
z
" clip-path="url(#p946dcc1ce5)" style="fill: #808080; stroke: #000000; stroke-linejoin: miter"/>
   </g>
   <g id="patch_20">
    <path d="M 500.905785 184.32 
L 528.575207 184.32 
L 528.575207 174.757859 
L 500.905785 174.757859 
z
" clip-path="url(#p946dcc1ce5)" style="fill: #808080; stroke: #000000; stroke-linejoin: miter"/>
   </g>
   <g id="patch_21">
    <path d="M 528.575207 184.32 
L 556.244628 184.32 
L 556.244628 166.666817 
L 528.575207 166.666817 
z
" clip-path="url(#p946dcc1ce5)" style="fill: #808080; stroke: #000000; stroke-linejoin: miter"/>
   </g>
   <g id="patch_22">
    <path d="M 556.244628 184.32 
L 583.91405 184.32 
L 583.91405 152.69138 
L 556.244628 152.69138 
z
" clip-path="url(#p946dcc1ce5)" style="fill: #808080; stroke: #000000; stroke-linejoin: miter"/>
   </g>
   <g id="patch_23">
    <path d="M 583.91405 184.32 
L 611.583471 184.32 
L 611.583471 109.293972 
L 583.91405 109.293972 
z
" clip-path="url(#p946dcc1ce5)" style="fill: #808080; stroke: #000000; stroke-linejoin: miter"/>
   </g>
   <g id="patch_24">
    <path d="M 611.583471 184.32 
L 639.252893 184.32 
L 639.252893 85.756394 
L 611.583471 85.756394 
z
" clip-path="url(#p946dcc1ce5)" style="fill: #808080; stroke: #000000; stroke-linejoin: miter"/>
   </g>
   <g id="patch_25">
    <path d="M 639.252893 184.32 
L 666.922314 184.32 
L 666.922314 122.533859 
L 639.252893 122.533859 
z
" clip-path="url(#p946dcc1ce5)" style="fill: #808080; stroke: #000000; stroke-linejoin: miter"/>
   </g>
   <g id="patch_26">
    <path d="M 666.922314 184.32 
L 694.591736 184.32 
L 694.591736 143.129239 
L 666.922314 143.129239 
z
" clip-path="url(#p946dcc1ce5)" style="fill: #808080; stroke: #000000; stroke-linejoin: miter"/>
   </g>
   <g id="patch_27">
    <path d="M 694.591736 184.32 
L 722.261157 184.32 
L 722.261157 164.460169 
L 694.591736 164.460169 
z
" clip-path="url(#p946dcc1ce5)" style="fill: #808080; stroke: #000000; stroke-linejoin: miter"/>
   </g>
   <g id="patch_28">
    <path d="M 722.261157 184.32 
L 749.930579 184.32 
L 749.930579 175.493408 
L 722.261157 175.493408 
z
" clip-path="url(#p946dcc1ce5)" style="fill: #808080; stroke: #000000; stroke-linejoin: miter"/>
   </g>
   <g id="patch_29">
    <path d="M 749.930579 184.32 
L 777.6 184.32 
L 777.6 182.113352 
L 749.930579 182.113352 
z
" clip-path="url(#p946dcc1ce5)" style="fill: #808080; stroke: #000000; stroke-linejoin: miter"/>
   </g>
   <g id="matplotlib.axis_3">
    <g id="xtick_6">
     <g id="line2d_11">
      <g>
       <use xlink:href="#ma6330fd9ed" x="514.740496" y="184.32" style="stroke: #000000; stroke-width: 0.8"/>
      </g>
     </g>
     <g id="text_25">
      <!-- −4 -->
      <g transform="translate(507.369402 198.918437) scale(0.1 -0.1)">
       <use xlink:href="#DejaVuSans-2212"/>
       <use xlink:href="#DejaVuSans-34" x="83.789062"/>
      </g>
     </g>
    </g>
    <g id="xtick_7">
     <g id="line2d_12">
      <g>
       <use xlink:href="#ma6330fd9ed" x="570.079339" y="184.32" style="stroke: #000000; stroke-width: 0.8"/>
      </g>
     </g>
     <g id="text_26">
      <!-- −2 -->
      <g transform="translate(562.708245 198.918437) scale(0.1 -0.1)">
       <use xlink:href="#DejaVuSans-2212"/>
       <use xlink:href="#DejaVuSans-32" x="83.789062"/>
      </g>
     </g>
    </g>
    <g id="xtick_8">
     <g id="line2d_13">
      <g>
       <use xlink:href="#ma6330fd9ed" x="625.418182" y="184.32" style="stroke: #000000; stroke-width: 0.8"/>
      </g>
     </g>
     <g id="text_27">
      <!-- 0 -->
      <g transform="translate(622.236932 198.918437) scale(0.1 -0.1)">
       <use xlink:href="#DejaVuSans-30"/>
      </g>
     </g>
    </g>
    <g id="xtick_9">
     <g id="line2d_14">
      <g>
       <use xlink:href="#ma6330fd9ed" x="680.757025" y="184.32" style="stroke: #000000; stroke-width: 0.8"/>
      </g>
     </g>
     <g id="text_28">
      <!-- 2 -->
      <g transform="translate(677.575775 198.918437) scale(0.1 -0.1)">
       <use xlink:href="#DejaVuSans-32"/>
      </g>
     </g>
    </g>
    <g id="xtick_10">
     <g id="line2d_15">
      <g>
       <use xlink:href="#ma6330fd9ed" x="736.095868" y="184.32" style="stroke: #000000; stroke-width: 0.8"/>
      </g>
     </g>
     <g id="text_29">
      <!-- 4 -->
      <g transform="translate(732.914618 198.918437) scale(0.1 -0.1)">
       <use xlink:href="#DejaVuSans-34"/>
      </g>
     </g>
    </g>
    <g id="text_30">
     <!-- отклонение от цели (влево или вправо), метры -->
     <g transform="translate(500.045526 212.596563) scale(0.1 -0.1)">
      <defs>
       <path id="DejaVuSans-446" d="M 3603 0 
L 581 0 
L 581 3500 
L 1159 3500 
L 1159 459 
L 3025 459 
L 3025 3500 
L 3603 3500 
L 3603 459 
L 4063 459 
L 4063 -884 
L 3603 -884 
L 3603 0 
z
" transform="scale(0.015625)"/>
       <path id="DejaVuSans-28" d="M 1984 4856 
Q 1566 4138 1362 3434 
Q 1159 2731 1159 2009 
Q 1159 1288 1364 580 
Q 1569 -128 1984 -844 
L 1484 -844 
Q 1016 -109 783 600 
Q 550 1309 550 2009 
Q 550 2706 781 3412 
Q 1013 4119 1484 4856 
L 1984 4856 
z
" transform="scale(0.015625)"/>
       <path id="DejaVuSans-29" d="M 513 4856 
L 1013 4856 
Q 1481 4119 1714 3412 
Q 1947 2706 1947 2009 
Q 1947 1309 1714 600 
Q 1481 -109 1013 -844 
L 513 -844 
Q 928 -128 1133 580 
Q 1338 1288 1338 2009 
Q 1338 2731 1133 3434 
Q 928 4138 513 4856 
z
" transform="scale(0.015625)"/>
      </defs>
      <use xlink:href="#DejaVuSans-43e"/>
      <use xlink:href="#DejaVuSans-442" x="61.181641"/>
      <use xlink:href="#DejaVuSans-43a" x="119.433594"/>
      <use xlink:href="#DejaVuSans-43b" x="179.833984"/>
      <use xlink:href="#DejaVuSans-43e" x="243.75"/>
      <use xlink:href="#DejaVuSans-43d" x="304.931641"/>
      <use xlink:href="#DejaVuSans-435" x="370.3125"/>
      <use xlink:href="#DejaVuSans-43d" x="431.835938"/>
      <use xlink:href="#DejaVuSans-438" x="497.216797"/>
      <use xlink:href="#DejaVuSans-435" x="562.207031"/>
      <use xlink:href="#DejaVuSans-20" x="623.730469"/>
      <use xlink:href="#DejaVuSans-43e" x="655.517578"/>
      <use xlink:href="#DejaVuSans-442" x="716.699219"/>
      <use xlink:href="#DejaVuSans-20" x="774.951172"/>
      <use xlink:href="#DejaVuSans-446" x="806.738281"/>
      <use xlink:href="#DejaVuSans-435" x="874.804688"/>
      <use xlink:href="#DejaVuSans-43b" x="936.328125"/>
      <use xlink:href="#DejaVuSans-438" x="1000.244141"/>
      <use xlink:href="#DejaVuSans-20" x="1065.234375"/>
      <use xlink:href="#DejaVuSans-28" x="1097.021484"/>
      <use xlink:href="#DejaVuSans-432" x="1136.035156"/>
      <use xlink:href="#DejaVuSans-43b" x="1194.970703"/>
      <use xlink:href="#DejaVuSans-435" x="1258.886719"/>
      <use xlink:href="#DejaVuSans-432" x="1320.410156"/>
      <use xlink:href="#DejaVuSans-43e" x="1379.345703"/>
      <use xlink:href="#DejaVuSans-20" x="1440.527344"/>
      <use xlink:href="#DejaVuSans-438" x="1472.314453"/>
      <use xlink:href="#DejaVuSans-43b" x="1537.304688"/>
      <use xlink:href="#DejaVuSans-438" x="1601.220703"/>
      <use xlink:href="#DejaVuSans-20" x="1666.210938"/>
      <use xlink:href="#DejaVuSans-432" x="1697.998047"/>
      <use xlink:href="#DejaVuSans-43f" x="1756.933594"/>
      <use xlink:href="#DejaVuSans-440" x="1822.314453"/>
      <use xlink:href="#DejaVuSans-430" x="1885.791016"/>
      <use xlink:href="#DejaVuSans-432" x="1947.070312"/>
      <use xlink:href="#DejaVuSans-43e" x="2006.005859"/>
      <use xlink:href="#DejaVuSans-29" x="2067.1875"/>
      <use xlink:href="#DejaVuSans-2c" x="2106.201172"/>
      <use xlink:href="#DejaVuSans-20" x="2137.988281"/>
      <use xlink:href="#DejaVuSans-43c" x="2169.775391"/>
      <use xlink:href="#DejaVuSans-435" x="2245.214844"/>
      <use xlink:href="#DejaVuSans-442" x="2306.738281"/>
      <use xlink:href="#DejaVuSans-440" x="2364.990234"/>
      <use xlink:href="#DejaVuSans-44b" x="2428.466797"/>
     </g>
    </g>
   </g>
   <g id="matplotlib.axis_4">
    <g id="ytick_6">
     <g id="line2d_16">
      <g>
       <use xlink:href="#mbee27fc7f5" x="473.236364" y="184.32" style="stroke: #000000; stroke-width: 0.8"/>
      </g>
     </g>
     <g id="text_31">
      <!-- 0 -->
      <g transform="translate(459.873864 188.119219) scale(0.1 -0.1)">
       <use xlink:href="#DejaVuSans-30"/>
      </g>
     </g>
    </g>
    <g id="ytick_7">
     <g id="line2d_17">
      <g>
       <use xlink:href="#mbee27fc7f5" x="473.236364" y="147.542535" style="stroke: #000000; stroke-width: 0.8"/>
      </g>
     </g>
     <g id="text_32">
      <!-- 50 -->
      <g transform="translate(453.511364 151.341754) scale(0.1 -0.1)">
       <use xlink:href="#DejaVuSans-35"/>
       <use xlink:href="#DejaVuSans-30" x="63.623047"/>
      </g>
     </g>
    </g>
    <g id="ytick_8">
     <g id="line2d_18">
      <g>
       <use xlink:href="#mbee27fc7f5" x="473.236364" y="110.76507" style="stroke: #000000; stroke-width: 0.8"/>
      </g>
     </g>
     <g id="text_33">
      <!-- 100 -->
      <g transform="translate(447.148864 114.564289) scale(0.1 -0.1)">
       <use xlink:href="#DejaVuSans-31"/>
       <use xlink:href="#DejaVuSans-30" x="63.623047"/>
       <use xlink:href="#DejaVuSans-30" x="127.246094"/>
      </g>
     </g>
    </g>
    <g id="ytick_9">
     <g id="line2d_19">
      <g>
       <use xlink:href="#mbee27fc7f5" x="473.236364" y="73.987606" style="stroke: #000000; stroke-width: 0.8"/>
      </g>
     </g>
     <g id="text_34">
      <!-- 150 -->
      <g transform="translate(447.148864 77.786824) scale(0.1 -0.1)">
       <use xlink:href="#DejaVuSans-31"/>
       <use xlink:href="#DejaVuSans-35" x="63.623047"/>
       <use xlink:href="#DejaVuSans-30" x="127.246094"/>
      </g>
     </g>
    </g>
    <g id="ytick_10">
     <g id="line2d_20">
      <g>
       <use xlink:href="#mbee27fc7f5" x="473.236364" y="37.210141" style="stroke: #000000; stroke-width: 0.8"/>
      </g>
     </g>
     <g id="text_35">
      <!-- 200 -->
      <g transform="translate(447.148864 41.00936) scale(0.1 -0.1)">
       <use xlink:href="#DejaVuSans-32"/>
       <use xlink:href="#DejaVuSans-30" x="63.623047"/>
       <use xlink:href="#DejaVuSans-30" x="127.246094"/>
      </g>
     </g>
    </g>
   </g>
   <g id="patch_30">
    <path d="M 473.236364 184.32 
L 473.236364 27.648 
" style="fill: none; stroke: #000000; stroke-width: 0.8; stroke-linejoin: miter; stroke-linecap: square"/>
   </g>
   <g id="patch_31">
    <path d="M 777.6 184.32 
L 777.6 27.648 
" style="fill: none; stroke: #000000; stroke-width: 0.8; stroke-linejoin: miter; stroke-linecap: square"/>
   </g>
   <g id="patch_32">
    <path d="M 473.236364 184.32 
L 777.6 184.32 
" style="fill: none; stroke: #000000; stroke-width: 0.8; stroke-linejoin: miter; stroke-linecap: square"/>
   </g>
   <g id="patch_33">
    <path d="M 473.236364 27.648 
L 777.6 27.648 
" style="fill: none; stroke: #000000; stroke-width: 0.8; stroke-linejoin: miter; stroke-linecap: square"/>
   </g>
   <g id="text_36">
    <!-- 2 -->
    <g transform="translate(483.889824 180.769214) scale(0.1 -0.1)">
     <use xlink:href="#DejaVuSans-32"/>
    </g>
   </g>
   <g id="text_37">
    <!-- 13 -->
    <g transform="translate(508.377996 172.678172) scale(0.1 -0.1)">
     <use xlink:href="#DejaVuSans-31"/>
     <use xlink:href="#DejaVuSans-33" x="63.623047"/>
    </g>
   </g>
   <g id="text_38">
    <!-- 24 -->
    <g transform="translate(536.047417 164.587129) scale(0.1 -0.1)">
     <use xlink:href="#DejaVuSans-32"/>
     <use xlink:href="#DejaVuSans-34" x="63.623047"/>
    </g>
   </g>
   <g id="text_39">
    <!-- 43 -->
    <g transform="translate(563.716839 150.611693) scale(0.1 -0.1)">
     <use xlink:href="#DejaVuSans-34"/>
     <use xlink:href="#DejaVuSans-33" x="63.623047"/>
    </g>
   </g>
   <g id="text_40">
    <!-- 102 -->
    <g transform="translate(588.20501 107.214284) scale(0.1 -0.1)">
     <use xlink:href="#DejaVuSans-31"/>
     <use xlink:href="#DejaVuSans-30" x="63.623047"/>
     <use xlink:href="#DejaVuSans-32" x="127.246094"/>
    </g>
   </g>
   <g id="text_41">
    <!-- 134 -->
    <g transform="translate(615.874432 83.676707) scale(0.1 -0.1)">
     <use xlink:href="#DejaVuSans-31"/>
     <use xlink:href="#DejaVuSans-33" x="63.623047"/>
     <use xlink:href="#DejaVuSans-34" x="127.246094"/>
    </g>
   </g>
   <g id="text_42">
    <!-- 84 -->
    <g transform="translate(646.725103 120.454172) scale(0.1 -0.1)">
     <use xlink:href="#DejaVuSans-38"/>
     <use xlink:href="#DejaVuSans-34" x="63.623047"/>
    </g>
   </g>
   <g id="text_43">
    <!-- 56 -->
    <g transform="translate(674.394525 141.049552) scale(0.1 -0.1)">
     <use xlink:href="#DejaVuSans-35"/>
     <use xlink:href="#DejaVuSans-36" x="63.623047"/>
    </g>
   </g>
   <g id="text_44">
    <!-- 27 -->
    <g transform="translate(702.063946 162.380482) scale(0.1 -0.1)">
     <use xlink:href="#DejaVuSans-32"/>
     <use xlink:href="#DejaVuSans-37" x="63.623047"/>
    </g>
   </g>
   <g id="text_45">
    <!-- 12 -->
    <g transform="translate(729.733368 173.413721) scale(0.1 -0.1)">
     <use xlink:href="#DejaVuSans-31"/>
     <use xlink:href="#DejaVuSans-32" x="63.623047"/>
    </g>
   </g>
   <g id="text_46">
    <!-- 3 -->
    <g transform="translate(760.584039 180.033665) scale(0.1 -0.1)">
     <use xlink:href="#DejaVuSans-33"/>
    </g>
   </g>
   <g id="text_47">
    <!-- Распределение отклонений Арсения -->
    <g transform="translate(499.015526 17.648) scale(0.13 -0.13)">
     <defs>
      <path id="DejaVuSans-410" d="M 2188 4044 
L 1331 1722 
L 3047 1722 
L 2188 4044 
z
M 1831 4666 
L 2547 4666 
L 4325 0 
L 3669 0 
L 3244 1197 
L 1141 1197 
L 716 0 
L 50 0 
L 1831 4666 
z
" transform="scale(0.015625)"/>
      <path id="DejaVuSans-44f" d="M 1181 2491 
Q 1181 2231 1381 2084 
Q 1581 1938 1953 1938 
L 2728 1938 
L 2728 3041 
L 1953 3041 
Q 1581 3041 1381 2897 
Q 1181 2753 1181 2491 
z
M 363 0 
L 1431 1534 
Q 1069 1616 828 1830 
Q 588 2044 588 2491 
Q 588 2997 923 3248 
Q 1259 3500 1938 3500 
L 3306 3500 
L 3306 0 
L 2728 0 
L 2728 1478 
L 2013 1478 
L 981 0 
L 363 0 
z
" transform="scale(0.015625)"/>
     </defs>
     <use xlink:href="#DejaVuSans-420"/>
     <use xlink:href="#DejaVuSans-430" x="60.302734"/>
     <use xlink:href="#DejaVuSans-441" x="121.582031"/>
     <use xlink:href="#DejaVuSans-43f" x="176.5625"/>
     <use xlink:href="#DejaVuSans-440" x="241.943359"/>
     <use xlink:href="#DejaVuSans-435" x="305.419922"/>
     <use xlink:href="#DejaVuSans-434" x="366.943359"/>
     <use xlink:href="#DejaVuSans-435" x="436.083984"/>
     <use xlink:href="#DejaVuSans-43b" x="497.607422"/>
     <use xlink:href="#DejaVuSans-435" x="561.523438"/>
     <use xlink:href="#DejaVuSans-43d" x="623.046875"/>
     <use xlink:href="#DejaVuSans-438" x="688.427734"/>
     <use xlink:href="#DejaVuSans-435" x="753.417969"/>
     <use xlink:href="#DejaVuSans-20" x="814.941406"/>
     <use xlink:href="#DejaVuSans-43e" x="846.728516"/>
     <use xlink:href="#DejaVuSans-442" x="907.910156"/>
     <use xlink:href="#DejaVuSans-43a" x="966.162109"/>
     <use xlink:href="#DejaVuSans-43b" x="1026.5625"/>
     <use xlink:href="#DejaVuSans-43e" x="1090.478516"/>
     <use xlink:href="#DejaVuSans-43d" x="1151.660156"/>
     <use xlink:href="#DejaVuSans-435" x="1217.041016"/>
     <use xlink:href="#DejaVuSans-43d" x="1278.564453"/>
     <use xlink:href="#DejaVuSans-438" x="1343.945312"/>
     <use xlink:href="#DejaVuSans-439" x="1408.935547"/>
     <use xlink:href="#DejaVuSans-20" x="1473.925781"/>
     <use xlink:href="#DejaVuSans-410" x="1505.712891"/>
     <use xlink:href="#DejaVuSans-440" x="1574.121094"/>
     <use xlink:href="#DejaVuSans-441" x="1637.597656"/>
     <use xlink:href="#DejaVuSans-435" x="1692.578125"/>
     <use xlink:href="#DejaVuSans-43d" x="1754.101562"/>
     <use xlink:href="#DejaVuSans-438" x="1819.482422"/>
     <use xlink:href="#DejaVuSans-44f" x="1884.472656"/>
    </g>
   </g>
  </g>
 </g>
 <defs>
  <clipPath id="p584efa4952">
   <rect x="108" y="27.648" width="304.363636" height="156.672"/>
  </clipPath>
  <clipPath id="p946dcc1ce5">
   <rect x="473.236364" y="27.648" width="304.363636" height="156.672"/>
  </clipPath>
 </defs>
</svg>
