<?xml version="1.0" encoding="utf-8" standalone="no"?>
<!DOCTYPE svg PUBLIC "-//W3C//DTD SVG 1.1//EN"
  "http://www.w3.org/Graphics/SVG/1.1/DTD/svg11.dtd">
<svg xmlns:xlink="http://www.w3.org/1999/xlink" width="360pt" height="360pt" viewBox="0 0 360 360" xmlns="http://www.w3.org/2000/svg" version="1.1">
 <metadata>
  <rdf:RDF xmlns:dc="http://purl.org/dc/elements/1.1/" xmlns:cc="http://creativecommons.org/ns#" xmlns:rdf="http://www.w3.org/1999/02/22-rdf-syntax-ns#">
   <cc:Work>
    <dc:type rdf:resource="http://purl.org/dc/dcmitype/StillImage"/>
    <dc:date>2023-11-21T18:50:57.927103</dc:date>
    <dc:format>image/svg+xml</dc:format>
    <dc:creator>
     <cc:Agent>
      <dc:title>Matplotlib v3.8.0, https://matplotlib.org/</dc:title>
     </cc:Agent>
    </dc:creator>
   </cc:Work>
  </rdf:RDF>
 </metadata>
 <defs>
  <style type="text/css">*{stroke-linejoin: round; stroke-linecap: butt}</style>
 </defs>
 <g id="figure_1">
  <g id="patch_1">
   <path d="M 0 360 
L 360 360 
L 360 0 
L 0 0 
z
" style="fill: #ffffff"/>
  </g>
  <g id="axes_1">
   <g id="patch_2">
    <path d="M 45 320.4 
L 324 320.4 
L 324 43.2 
L 45 43.2 
z
" style="fill: #ffffff"/>
   </g>
   <g id="PathCollection_1">
    <defs>
     <path id="m0879292ad5" d="M 0 1.870829 
C 0.49615 1.870829 0.972045 1.673706 1.322876 1.322876 
C 1.673706 0.972045 1.870829 0.49615 1.870829 0 
C 1.870829 -0.49615 1.673706 -0.972045 1.322876 -1.322876 
C 0.972045 -1.673706 0.49615 -1.870829 0 -1.870829 
C -0.49615 -1.870829 -0.972045 -1.673706 -1.322876 -1.322876 
C -1.673706 -0.972045 -1.870829 -0.49615 -1.870829 0 
C -1.870829 0.49615 -1.673706 0.972045 -1.322876 1.322876 
C -0.972045 1.673706 -0.49615 1.870829 0 1.870829 
z
" style="stroke: #000000"/>
    </defs>
    <g clip-path="url(#p937c7ac026)">
     <use xlink:href="#m0879292ad5" x="152.853906" y="231.613706" style="stroke: #000000"/>
     <use xlink:href="#m0879292ad5" x="125.351882" y="219.930838" style="stroke: #000000"/>
     <use xlink:href="#m0879292ad5" x="123.463654" y="212.268101" style="stroke: #000000"/>
     <use xlink:href="#m0879292ad5" x="182.708671" y="162.194017" style="stroke: #000000"/>
     <use xlink:href="#m0879292ad5" x="208.613518" y="133.28718" style="stroke: #000000"/>
     <use xlink:href="#m0879292ad5" x="140.847582" y="138.130609" style="stroke: #000000"/>
     <use xlink:href="#m0879292ad5" x="232.707487" y="140.854574" style="stroke: #000000"/>
     <use xlink:href="#m0879292ad5" x="80.686797" y="178.947056" style="stroke: #000000"/>
     <use xlink:href="#m0879292ad5" x="195.313146" y="191.227969" style="stroke: #000000"/>
     <use xlink:href="#m0879292ad5" x="148.809495" y="166.07381" style="stroke: #000000"/>
     <use xlink:href="#m0879292ad5" x="180.09259" y="104.253344" style="stroke: #000000"/>
     <use xlink:href="#m0879292ad5" x="158.888955" y="124.369415" style="stroke: #000000"/>
     <use xlink:href="#m0879292ad5" x="140.02128" y="190.652589" style="stroke: #000000"/>
     <use xlink:href="#m0879292ad5" x="228.381677" y="122.511904" style="stroke: #000000"/>
     <use xlink:href="#m0879292ad5" x="164.426484" y="172.611899" style="stroke: #000000"/>
     <use xlink:href="#m0879292ad5" x="147.585147" y="193.081762" style="stroke: #000000"/>
     <use xlink:href="#m0879292ad5" x="252.404115" y="176.726586" style="stroke: #000000"/>
     <use xlink:href="#m0879292ad5" x="233.6459" y="99.063891" style="stroke: #000000"/>
     <use xlink:href="#m0879292ad5" x="191.00587" y="191.79438" style="stroke: #000000"/>
     <use xlink:href="#m0879292ad5" x="170.862718" y="204.827643" style="stroke: #000000"/>
     <use xlink:href="#m0879292ad5" x="135.739105" y="192.296838" style="stroke: #000000"/>
     <use xlink:href="#m0879292ad5" x="233.695207" y="157.340562" style="stroke: #000000"/>
     <use xlink:href="#m0879292ad5" x="283.897551" y="110.126892" style="stroke: #000000"/>
     <use xlink:href="#m0879292ad5" x="225.647548" y="140.55724" style="stroke: #000000"/>
     <use xlink:href="#m0879292ad5" x="189.67032" y="118.454321" style="stroke: #000000"/>
     <use xlink:href="#m0879292ad5" x="208.197853" y="147.690874" style="stroke: #000000"/>
     <use xlink:href="#m0879292ad5" x="225.903843" y="121.616523" style="stroke: #000000"/>
     <use xlink:href="#m0879292ad5" x="173.449913" y="155.483255" style="stroke: #000000"/>
     <use xlink:href="#m0879292ad5" x="138.180377" y="214.03868" style="stroke: #000000"/>
     <use xlink:href="#m0879292ad5" x="252.404248" y="95.069462" style="stroke: #000000"/>
     <use xlink:href="#m0879292ad5" x="142.99757" y="165.804714" style="stroke: #000000"/>
     <use xlink:href="#m0879292ad5" x="156.546911" y="160.818083" style="stroke: #000000"/>
     <use xlink:href="#m0879292ad5" x="123.572077" y="187.083697" style="stroke: #000000"/>
     <use xlink:href="#m0879292ad5" x="188.815432" y="119.637281" style="stroke: #000000"/>
     <use xlink:href="#m0879292ad5" x="196.763969" y="110.723758" style="stroke: #000000"/>
     <use xlink:href="#m0879292ad5" x="90.820934" y="238.58688" style="stroke: #000000"/>
     <use xlink:href="#m0879292ad5" x="147.196873" y="165.332694" style="stroke: #000000"/>
     <use xlink:href="#m0879292ad5" x="138.138178" y="179.222213" style="stroke: #000000"/>
     <use xlink:href="#m0879292ad5" x="232.879462" y="131.588025" style="stroke: #000000"/>
     <use xlink:href="#m0879292ad5" x="213.808228" y="157.66763" style="stroke: #000000"/>
     <use xlink:href="#m0879292ad5" x="200.710586" y="178.459486" style="stroke: #000000"/>
     <use xlink:href="#m0879292ad5" x="262.262936" y="141.032778" style="stroke: #000000"/>
     <use xlink:href="#m0879292ad5" x="116.207793" y="196.900993" style="stroke: #000000"/>
     <use xlink:href="#m0879292ad5" x="164.288638" y="192.413402" style="stroke: #000000"/>
     <use xlink:href="#m0879292ad5" x="174.47259" y="173.835174" style="stroke: #000000"/>
     <use xlink:href="#m0879292ad5" x="144.999556" y="211.441823" style="stroke: #000000"/>
     <use xlink:href="#m0879292ad5" x="129.02916" y="167.58498" style="stroke: #000000"/>
     <use xlink:href="#m0879292ad5" x="99.317676" y="240.51158" style="stroke: #000000"/>
     <use xlink:href="#m0879292ad5" x="182.830764" y="191.985836" style="stroke: #000000"/>
     <use xlink:href="#m0879292ad5" x="206.740572" y="125.045103" style="stroke: #000000"/>
     <use xlink:href="#m0879292ad5" x="163.481392" y="143.005999" style="stroke: #000000"/>
     <use xlink:href="#m0879292ad5" x="129.607999" y="223.022932" style="stroke: #000000"/>
     <use xlink:href="#m0879292ad5" x="195.974318" y="188.071917" style="stroke: #000000"/>
     <use xlink:href="#m0879292ad5" x="219.820327" y="183.805575" style="stroke: #000000"/>
     <use xlink:href="#m0879292ad5" x="149.04841" y="178.685229" style="stroke: #000000"/>
     <use xlink:href="#m0879292ad5" x="192.414871" y="150.074307" style="stroke: #000000"/>
     <use xlink:href="#m0879292ad5" x="134.821542" y="201.223374" style="stroke: #000000"/>
     <use xlink:href="#m0879292ad5" x="201.513315" y="144.437559" style="stroke: #000000"/>
     <use xlink:href="#m0879292ad5" x="140.863432" y="203.992599" style="stroke: #000000"/>
     <use xlink:href="#m0879292ad5" x="298.814731" y="77.868711" style="stroke: #000000"/>
     <use xlink:href="#m0879292ad5" x="153.476251" y="164.062689" style="stroke: #000000"/>
     <use xlink:href="#m0879292ad5" x="287.676463" y="70.762873" style="stroke: #000000"/>
     <use xlink:href="#m0879292ad5" x="177.531726" y="188.258969" style="stroke: #000000"/>
     <use xlink:href="#m0879292ad5" x="204.017561" y="137.030512" style="stroke: #000000"/>
     <use xlink:href="#m0879292ad5" x="184.735922" y="180.302385" style="stroke: #000000"/>
     <use xlink:href="#m0879292ad5" x="162.555127" y="161.286661" style="stroke: #000000"/>
     <use xlink:href="#m0879292ad5" x="229.801573" y="159.548621" style="stroke: #000000"/>
     <use xlink:href="#m0879292ad5" x="311.318182" y="87.342569" style="stroke: #000000"/>
     <use xlink:href="#m0879292ad5" x="131.531695" y="131.014845" style="stroke: #000000"/>
     <use xlink:href="#m0879292ad5" x="217.902334" y="123.520525" style="stroke: #000000"/>
     <use xlink:href="#m0879292ad5" x="190.945651" y="122.987343" style="stroke: #000000"/>
     <use xlink:href="#m0879292ad5" x="160.392924" y="132.609569" style="stroke: #000000"/>
     <use xlink:href="#m0879292ad5" x="167.616949" y="152.618074" style="stroke: #000000"/>
     <use xlink:href="#m0879292ad5" x="188.864273" y="147.48919" style="stroke: #000000"/>
     <use xlink:href="#m0879292ad5" x="188.817779" y="187.70451" style="stroke: #000000"/>
     <use xlink:href="#m0879292ad5" x="231.857694" y="143.042725" style="stroke: #000000"/>
     <use xlink:href="#m0879292ad5" x="207.123922" y="131.892261" style="stroke: #000000"/>
     <use xlink:href="#m0879292ad5" x="149.677484" y="150.708495" style="stroke: #000000"/>
     <use xlink:href="#m0879292ad5" x="62.353096" y="245.634339" style="stroke: #000000"/>
     <use xlink:href="#m0879292ad5" x="122.938921" y="172.455865" style="stroke: #000000"/>
     <use xlink:href="#m0879292ad5" x="190.039511" y="160.219515" style="stroke: #000000"/>
     <use xlink:href="#m0879292ad5" x="180.452058" y="157.42413" style="stroke: #000000"/>
     <use xlink:href="#m0879292ad5" x="230.251424" y="152.515038" style="stroke: #000000"/>
     <use xlink:href="#m0879292ad5" x="152.237782" y="201.81287" style="stroke: #000000"/>
     <use xlink:href="#m0879292ad5" x="231.045015" y="215.317317" style="stroke: #000000"/>
     <use xlink:href="#m0879292ad5" x="175.143541" y="155.146282" style="stroke: #000000"/>
     <use xlink:href="#m0879292ad5" x="200.418913" y="148.397299" style="stroke: #000000"/>
     <use xlink:href="#m0879292ad5" x="292.615963" y="90.287883" style="stroke: #000000"/>
     <use xlink:href="#m0879292ad5" x="126.327078" y="199.582062" style="stroke: #000000"/>
     <use xlink:href="#m0879292ad5" x="156.10636" y="248.834818" style="stroke: #000000"/>
     <use xlink:href="#m0879292ad5" x="251.722769" y="134.362894" style="stroke: #000000"/>
     <use xlink:href="#m0879292ad5" x="226.736704" y="153.508927" style="stroke: #000000"/>
     <use xlink:href="#m0879292ad5" x="57.681818" y="228.386075" style="stroke: #000000"/>
     <use xlink:href="#m0879292ad5" x="244.465536" y="114.758757" style="stroke: #000000"/>
     <use xlink:href="#m0879292ad5" x="178.811626" y="192.927608" style="stroke: #000000"/>
     <use xlink:href="#m0879292ad5" x="152.965847" y="178.970394" style="stroke: #000000"/>
     <use xlink:href="#m0879292ad5" x="223.47441" y="75.385702" style="stroke: #000000"/>
     <use xlink:href="#m0879292ad5" x="206.908973" y="126.643619" style="stroke: #000000"/>
     <use xlink:href="#m0879292ad5" x="193.959162" y="191.13534" style="stroke: #000000"/>
     <use xlink:href="#m0879292ad5" x="199.465013" y="131.009417" style="stroke: #000000"/>
     <use xlink:href="#m0879292ad5" x="186.661987" y="134.965809" style="stroke: #000000"/>
     <use xlink:href="#m0879292ad5" x="166.212227" y="186.349348" style="stroke: #000000"/>
     <use xlink:href="#m0879292ad5" x="128.53219" y="212.420485" style="stroke: #000000"/>
     <use xlink:href="#m0879292ad5" x="238.164357" y="94.224299" style="stroke: #000000"/>
     <use xlink:href="#m0879292ad5" x="135.261265" y="121.967871" style="stroke: #000000"/>
     <use xlink:href="#m0879292ad5" x="211.424367" y="181.518575" style="stroke: #000000"/>
     <use xlink:href="#m0879292ad5" x="189.332529" y="144.90556" style="stroke: #000000"/>
     <use xlink:href="#m0879292ad5" x="191.816341" y="117.823646" style="stroke: #000000"/>
     <use xlink:href="#m0879292ad5" x="106.02525" y="269.739548" style="stroke: #000000"/>
     <use xlink:href="#m0879292ad5" x="213.924706" y="134.781807" style="stroke: #000000"/>
     <use xlink:href="#m0879292ad5" x="116.508148" y="254.188664" style="stroke: #000000"/>
     <use xlink:href="#m0879292ad5" x="196.08367" y="191.231166" style="stroke: #000000"/>
     <use xlink:href="#m0879292ad5" x="164.073155" y="256.244289" style="stroke: #000000"/>
     <use xlink:href="#m0879292ad5" x="145.367985" y="153.008237" style="stroke: #000000"/>
     <use xlink:href="#m0879292ad5" x="130.839883" y="119.537292" style="stroke: #000000"/>
     <use xlink:href="#m0879292ad5" x="99.298334" y="181.849929" style="stroke: #000000"/>
     <use xlink:href="#m0879292ad5" x="109.049241" y="204.886721" style="stroke: #000000"/>
     <use xlink:href="#m0879292ad5" x="192.563873" y="176.414195" style="stroke: #000000"/>
     <use xlink:href="#m0879292ad5" x="177.653933" y="111.606908" style="stroke: #000000"/>
     <use xlink:href="#m0879292ad5" x="241.676652" y="178.024797" style="stroke: #000000"/>
     <use xlink:href="#m0879292ad5" x="210.981833" y="97.653802" style="stroke: #000000"/>
     <use xlink:href="#m0879292ad5" x="142.172508" y="173.446478" style="stroke: #000000"/>
     <use xlink:href="#m0879292ad5" x="134.123553" y="154.374096" style="stroke: #000000"/>
     <use xlink:href="#m0879292ad5" x="177.094835" y="195.48282" style="stroke: #000000"/>
     <use xlink:href="#m0879292ad5" x="164.354002" y="224.555132" style="stroke: #000000"/>
     <use xlink:href="#m0879292ad5" x="200.67462" y="148.721282" style="stroke: #000000"/>
     <use xlink:href="#m0879292ad5" x="198.7489" y="137.489102" style="stroke: #000000"/>
     <use xlink:href="#m0879292ad5" x="172.938666" y="209.857417" style="stroke: #000000"/>
     <use xlink:href="#m0879292ad5" x="199.201309" y="201.376069" style="stroke: #000000"/>
     <use xlink:href="#m0879292ad5" x="167.451289" y="202.094302" style="stroke: #000000"/>
     <use xlink:href="#m0879292ad5" x="210.466333" y="123.607017" style="stroke: #000000"/>
     <use xlink:href="#m0879292ad5" x="214.779164" y="133.955867" style="stroke: #000000"/>
     <use xlink:href="#m0879292ad5" x="211.61325" y="185.553246" style="stroke: #000000"/>
     <use xlink:href="#m0879292ad5" x="169.350718" y="124.04236" style="stroke: #000000"/>
     <use xlink:href="#m0879292ad5" x="293.671256" y="55.8" style="stroke: #000000"/>
     <use xlink:href="#m0879292ad5" x="173.469308" y="202.830999" style="stroke: #000000"/>
     <use xlink:href="#m0879292ad5" x="152.340089" y="121.614777" style="stroke: #000000"/>
     <use xlink:href="#m0879292ad5" x="174.59097" y="195.989661" style="stroke: #000000"/>
     <use xlink:href="#m0879292ad5" x="238.414796" y="93.711263" style="stroke: #000000"/>
     <use xlink:href="#m0879292ad5" x="123.476291" y="254.610509" style="stroke: #000000"/>
     <use xlink:href="#m0879292ad5" x="244.522337" y="188.005335" style="stroke: #000000"/>
     <use xlink:href="#m0879292ad5" x="226.21569" y="161.709418" style="stroke: #000000"/>
     <use xlink:href="#m0879292ad5" x="219.01169" y="97.255028" style="stroke: #000000"/>
     <use xlink:href="#m0879292ad5" x="251.849624" y="100.789243" style="stroke: #000000"/>
     <use xlink:href="#m0879292ad5" x="124.132785" y="236.021689" style="stroke: #000000"/>
     <use xlink:href="#m0879292ad5" x="193.865272" y="164.553896" style="stroke: #000000"/>
     <use xlink:href="#m0879292ad5" x="231.554943" y="164.386855" style="stroke: #000000"/>
     <use xlink:href="#m0879292ad5" x="158.464109" y="164.176727" style="stroke: #000000"/>
     <use xlink:href="#m0879292ad5" x="158.027477" y="189.760169" style="stroke: #000000"/>
     <use xlink:href="#m0879292ad5" x="188.036252" y="131.475392" style="stroke: #000000"/>
     <use xlink:href="#m0879292ad5" x="248.105862" y="166.423515" style="stroke: #000000"/>
     <use xlink:href="#m0879292ad5" x="208.05616" y="135.626509" style="stroke: #000000"/>
     <use xlink:href="#m0879292ad5" x="213.18683" y="160.798281" style="stroke: #000000"/>
     <use xlink:href="#m0879292ad5" x="269.53372" y="114.499873" style="stroke: #000000"/>
     <use xlink:href="#m0879292ad5" x="98.448476" y="181.216555" style="stroke: #000000"/>
     <use xlink:href="#m0879292ad5" x="149.00017" y="169.63422" style="stroke: #000000"/>
     <use xlink:href="#m0879292ad5" x="199.687729" y="115.885373" style="stroke: #000000"/>
     <use xlink:href="#m0879292ad5" x="236.682692" y="95.478121" style="stroke: #000000"/>
     <use xlink:href="#m0879292ad5" x="237.995434" y="136.632493" style="stroke: #000000"/>
     <use xlink:href="#m0879292ad5" x="155.139519" y="167.80961" style="stroke: #000000"/>
     <use xlink:href="#m0879292ad5" x="146.184899" y="150.270306" style="stroke: #000000"/>
     <use xlink:href="#m0879292ad5" x="245.96612" y="70.427486" style="stroke: #000000"/>
     <use xlink:href="#m0879292ad5" x="170.587917" y="180.723068" style="stroke: #000000"/>
     <use xlink:href="#m0879292ad5" x="296.252808" y="127.258891" style="stroke: #000000"/>
     <use xlink:href="#m0879292ad5" x="149.557735" y="205.654434" style="stroke: #000000"/>
     <use xlink:href="#m0879292ad5" x="160.447441" y="135.759704" style="stroke: #000000"/>
     <use xlink:href="#m0879292ad5" x="121.001213" y="232.976879" style="stroke: #000000"/>
     <use xlink:href="#m0879292ad5" x="172.419334" y="164.485314" style="stroke: #000000"/>
     <use xlink:href="#m0879292ad5" x="180.650354" y="166.385098" style="stroke: #000000"/>
     <use xlink:href="#m0879292ad5" x="121.112471" y="172.23671" style="stroke: #000000"/>
     <use xlink:href="#m0879292ad5" x="250.336204" y="151.912093" style="stroke: #000000"/>
     <use xlink:href="#m0879292ad5" x="226.199532" y="159.061243" style="stroke: #000000"/>
     <use xlink:href="#m0879292ad5" x="63.230656" y="298.004077" style="stroke: #000000"/>
     <use xlink:href="#m0879292ad5" x="220.193643" y="242.920694" style="stroke: #000000"/>
     <use xlink:href="#m0879292ad5" x="176.455782" y="145.815406" style="stroke: #000000"/>
     <use xlink:href="#m0879292ad5" x="130.572931" y="198.789337" style="stroke: #000000"/>
     <use xlink:href="#m0879292ad5" x="161.620064" y="151.71633" style="stroke: #000000"/>
     <use xlink:href="#m0879292ad5" x="111.076408" y="186.286413" style="stroke: #000000"/>
     <use xlink:href="#m0879292ad5" x="210.724398" y="146.539024" style="stroke: #000000"/>
     <use xlink:href="#m0879292ad5" x="240.807354" y="127.242128" style="stroke: #000000"/>
     <use xlink:href="#m0879292ad5" x="189.052095" y="193.808314" style="stroke: #000000"/>
     <use xlink:href="#m0879292ad5" x="298.511296" y="98.337138" style="stroke: #000000"/>
     <use xlink:href="#m0879292ad5" x="217.601772" y="114.612642" style="stroke: #000000"/>
     <use xlink:href="#m0879292ad5" x="182.278887" y="142.332745" style="stroke: #000000"/>
     <use xlink:href="#m0879292ad5" x="91.71953" y="144.843532" style="stroke: #000000"/>
     <use xlink:href="#m0879292ad5" x="116.130663" y="214.739644" style="stroke: #000000"/>
     <use xlink:href="#m0879292ad5" x="172.090487" y="159.997075" style="stroke: #000000"/>
     <use xlink:href="#m0879292ad5" x="118.171907" y="174.290984" style="stroke: #000000"/>
     <use xlink:href="#m0879292ad5" x="172.088644" y="175.152312" style="stroke: #000000"/>
     <use xlink:href="#m0879292ad5" x="299.950102" y="62.758589" style="stroke: #000000"/>
     <use xlink:href="#m0879292ad5" x="279.393067" y="81.734744" style="stroke: #000000"/>
     <use xlink:href="#m0879292ad5" x="203.282995" y="156.754126" style="stroke: #000000"/>
     <use xlink:href="#m0879292ad5" x="165.260618" y="194.706966" style="stroke: #000000"/>
     <use xlink:href="#m0879292ad5" x="136.788639" y="235.330762" style="stroke: #000000"/>
     <use xlink:href="#m0879292ad5" x="183.962487" y="159.329878" style="stroke: #000000"/>
     <use xlink:href="#m0879292ad5" x="258.590892" y="147.271167" style="stroke: #000000"/>
     <use xlink:href="#m0879292ad5" x="219.303018" y="102.232975" style="stroke: #000000"/>
     <use xlink:href="#m0879292ad5" x="189.908837" y="154.944545" style="stroke: #000000"/>
     <use xlink:href="#m0879292ad5" x="222.95877" y="129.429715" style="stroke: #000000"/>
     <use xlink:href="#m0879292ad5" x="118.898031" y="223.378989" style="stroke: #000000"/>
     <use xlink:href="#m0879292ad5" x="299.291492" y="70.306685" style="stroke: #000000"/>
     <use xlink:href="#m0879292ad5" x="155.110303" y="171.198541" style="stroke: #000000"/>
     <use xlink:href="#m0879292ad5" x="241.216467" y="90.30678" style="stroke: #000000"/>
     <use xlink:href="#m0879292ad5" x="77.809614" y="272.577056" style="stroke: #000000"/>
     <use xlink:href="#m0879292ad5" x="180.124802" y="171.065044" style="stroke: #000000"/>
     <use xlink:href="#m0879292ad5" x="111.254762" y="213.542395" style="stroke: #000000"/>
     <use xlink:href="#m0879292ad5" x="216.964789" y="190.030372" style="stroke: #000000"/>
     <use xlink:href="#m0879292ad5" x="179.866857" y="198.009454" style="stroke: #000000"/>
     <use xlink:href="#m0879292ad5" x="195.176702" y="109.289045" style="stroke: #000000"/>
     <use xlink:href="#m0879292ad5" x="149.912281" y="238.368096" style="stroke: #000000"/>
     <use xlink:href="#m0879292ad5" x="126.952877" y="236.638847" style="stroke: #000000"/>
     <use xlink:href="#m0879292ad5" x="216.701974" y="179.808944" style="stroke: #000000"/>
     <use xlink:href="#m0879292ad5" x="183.64287" y="191.127942" style="stroke: #000000"/>
     <use xlink:href="#m0879292ad5" x="212.38945" y="138.506673" style="stroke: #000000"/>
     <use xlink:href="#m0879292ad5" x="185.174846" y="152.440079" style="stroke: #000000"/>
     <use xlink:href="#m0879292ad5" x="116.755664" y="193.972282" style="stroke: #000000"/>
     <use xlink:href="#m0879292ad5" x="137.749046" y="307.8" style="stroke: #000000"/>
     <use xlink:href="#m0879292ad5" x="200.105433" y="162.217507" style="stroke: #000000"/>
     <use xlink:href="#m0879292ad5" x="110.189291" y="200.932774" style="stroke: #000000"/>
     <use xlink:href="#m0879292ad5" x="121.797158" y="132.164011" style="stroke: #000000"/>
     <use xlink:href="#m0879292ad5" x="199.955766" y="186.298416" style="stroke: #000000"/>
     <use xlink:href="#m0879292ad5" x="162.323904" y="203.595245" style="stroke: #000000"/>
     <use xlink:href="#m0879292ad5" x="131.057979" y="204.871348" style="stroke: #000000"/>
     <use xlink:href="#m0879292ad5" x="174.240382" y="192.475294" style="stroke: #000000"/>
     <use xlink:href="#m0879292ad5" x="115.890851" y="178.008579" style="stroke: #000000"/>
     <use xlink:href="#m0879292ad5" x="166.938176" y="148.205283" style="stroke: #000000"/>
     <use xlink:href="#m0879292ad5" x="143.5996" y="192.993917" style="stroke: #000000"/>
     <use xlink:href="#m0879292ad5" x="170.642699" y="174.562538" style="stroke: #000000"/>
     <use xlink:href="#m0879292ad5" x="210.194156" y="134.591397" style="stroke: #000000"/>
     <use xlink:href="#m0879292ad5" x="169.049546" y="186.804956" style="stroke: #000000"/>
     <use xlink:href="#m0879292ad5" x="172.255828" y="139.637" style="stroke: #000000"/>
     <use xlink:href="#m0879292ad5" x="213.240131" y="174.711267" style="stroke: #000000"/>
     <use xlink:href="#m0879292ad5" x="194.119485" y="203.745547" style="stroke: #000000"/>
     <use xlink:href="#m0879292ad5" x="130.105811" y="201.55793" style="stroke: #000000"/>
     <use xlink:href="#m0879292ad5" x="133.377058" y="175.052112" style="stroke: #000000"/>
     <use xlink:href="#m0879292ad5" x="237.07432" y="146.010395" style="stroke: #000000"/>
     <use xlink:href="#m0879292ad5" x="142.596506" y="170.501318" style="stroke: #000000"/>
     <use xlink:href="#m0879292ad5" x="178.378688" y="179.442364" style="stroke: #000000"/>
     <use xlink:href="#m0879292ad5" x="200.523437" y="182.403205" style="stroke: #000000"/>
     <use xlink:href="#m0879292ad5" x="188.745843" y="206.211233" style="stroke: #000000"/>
     <use xlink:href="#m0879292ad5" x="175.703232" y="184.042603" style="stroke: #000000"/>
     <use xlink:href="#m0879292ad5" x="194.212483" y="216.579765" style="stroke: #000000"/>
     <use xlink:href="#m0879292ad5" x="215.939441" y="119.64791" style="stroke: #000000"/>
     <use xlink:href="#m0879292ad5" x="209.440827" y="100.521525" style="stroke: #000000"/>
     <use xlink:href="#m0879292ad5" x="159.362582" y="175.257481" style="stroke: #000000"/>
     <use xlink:href="#m0879292ad5" x="197.811928" y="186.850086" style="stroke: #000000"/>
     <use xlink:href="#m0879292ad5" x="150.880055" y="182.367355" style="stroke: #000000"/>
     <use xlink:href="#m0879292ad5" x="199.415207" y="167.195637" style="stroke: #000000"/>
     <use xlink:href="#m0879292ad5" x="118.592448" y="184.593935" style="stroke: #000000"/>
     <use xlink:href="#m0879292ad5" x="230.895306" y="82.658798" style="stroke: #000000"/>
     <use xlink:href="#m0879292ad5" x="120.535965" y="219.742431" style="stroke: #000000"/>
     <use xlink:href="#m0879292ad5" x="211.089519" y="97.466384" style="stroke: #000000"/>
     <use xlink:href="#m0879292ad5" x="165.001364" y="216.593451" style="stroke: #000000"/>
     <use xlink:href="#m0879292ad5" x="231.643845" y="137.452159" style="stroke: #000000"/>
     <use xlink:href="#m0879292ad5" x="183.323408" y="164.54111" style="stroke: #000000"/>
     <use xlink:href="#m0879292ad5" x="197.630054" y="115.161734" style="stroke: #000000"/>
     <use xlink:href="#m0879292ad5" x="234.74771" y="153.914062" style="stroke: #000000"/>
     <use xlink:href="#m0879292ad5" x="181.469137" y="170.9855" style="stroke: #000000"/>
     <use xlink:href="#m0879292ad5" x="202.440178" y="136.71396" style="stroke: #000000"/>
     <use xlink:href="#m0879292ad5" x="100.648284" y="263.872431" style="stroke: #000000"/>
     <use xlink:href="#m0879292ad5" x="218.045275" y="140.371507" style="stroke: #000000"/>
     <use xlink:href="#m0879292ad5" x="137.415726" y="266.351458" style="stroke: #000000"/>
     <use xlink:href="#m0879292ad5" x="164.220698" y="114.427706" style="stroke: #000000"/>
     <use xlink:href="#m0879292ad5" x="241.180106" y="195.600149" style="stroke: #000000"/>
     <use xlink:href="#m0879292ad5" x="202.332161" y="108.432225" style="stroke: #000000"/>
     <use xlink:href="#m0879292ad5" x="178.227648" y="151.689117" style="stroke: #000000"/>
     <use xlink:href="#m0879292ad5" x="251.50989" y="139.236044" style="stroke: #000000"/>
     <use xlink:href="#m0879292ad5" x="170.905705" y="147.99871" style="stroke: #000000"/>
     <use xlink:href="#m0879292ad5" x="113.904981" y="208.634713" style="stroke: #000000"/>
     <use xlink:href="#m0879292ad5" x="227.238075" y="145.217167" style="stroke: #000000"/>
     <use xlink:href="#m0879292ad5" x="208.76229" y="135.076839" style="stroke: #000000"/>
     <use xlink:href="#m0879292ad5" x="171.752342" y="143.215624" style="stroke: #000000"/>
     <use xlink:href="#m0879292ad5" x="162.216461" y="160.201198" style="stroke: #000000"/>
     <use xlink:href="#m0879292ad5" x="228.173806" y="142.175622" style="stroke: #000000"/>
     <use xlink:href="#m0879292ad5" x="173.123711" y="120.615142" style="stroke: #000000"/>
     <use xlink:href="#m0879292ad5" x="165.255377" y="174.510734" style="stroke: #000000"/>
     <use xlink:href="#m0879292ad5" x="118.00739" y="184.261659" style="stroke: #000000"/>
     <use xlink:href="#m0879292ad5" x="138.327093" y="159.887974" style="stroke: #000000"/>
     <use xlink:href="#m0879292ad5" x="218.913537" y="131.517365" style="stroke: #000000"/>
     <use xlink:href="#m0879292ad5" x="157.44657" y="125.877008" style="stroke: #000000"/>
     <use xlink:href="#m0879292ad5" x="177.028149" y="171.654004" style="stroke: #000000"/>
     <use xlink:href="#m0879292ad5" x="137.727492" y="241.855571" style="stroke: #000000"/>
     <use xlink:href="#m0879292ad5" x="171.410426" y="123.942039" style="stroke: #000000"/>
     <use xlink:href="#m0879292ad5" x="212.291885" y="179.60641" style="stroke: #000000"/>
     <use xlink:href="#m0879292ad5" x="152.909167" y="170.326934" style="stroke: #000000"/>
     <use xlink:href="#m0879292ad5" x="216.219377" y="155.694087" style="stroke: #000000"/>
     <use xlink:href="#m0879292ad5" x="203.068358" y="158.295067" style="stroke: #000000"/>
     <use xlink:href="#m0879292ad5" x="287.07234" y="64.781654" style="stroke: #000000"/>
     <use xlink:href="#m0879292ad5" x="166.729826" y="194.595841" style="stroke: #000000"/>
     <use xlink:href="#m0879292ad5" x="92.464646" y="240.027584" style="stroke: #000000"/>
     <use xlink:href="#m0879292ad5" x="197.758358" y="191.73686" style="stroke: #000000"/>
     <use xlink:href="#m0879292ad5" x="119.706949" y="179.987324" style="stroke: #000000"/>
     <use xlink:href="#m0879292ad5" x="111.15058" y="175.212845" style="stroke: #000000"/>
     <use xlink:href="#m0879292ad5" x="268.389946" y="114.575153" style="stroke: #000000"/>
     <use xlink:href="#m0879292ad5" x="170.204389" y="249.016283" style="stroke: #000000"/>
     <use xlink:href="#m0879292ad5" x="198.501817" y="167.710792" style="stroke: #000000"/>
     <use xlink:href="#m0879292ad5" x="121.321829" y="185.267929" style="stroke: #000000"/>
     <use xlink:href="#m0879292ad5" x="243.204319" y="94.740622" style="stroke: #000000"/>
     <use xlink:href="#m0879292ad5" x="198.564024" y="208.261721" style="stroke: #000000"/>
     <use xlink:href="#m0879292ad5" x="161.290872" y="166.556729" style="stroke: #000000"/>
    </g>
   </g>
   <g id="matplotlib.axis_1">
    <g id="xtick_1">
     <g id="line2d_1">
      <defs>
       <path id="me4a1345687" d="M 0 0 
L 0 3.5 
" style="stroke: #000000; stroke-width: 0.8"/>
      </defs>
      <g>
       <use xlink:href="#me4a1345687" x="57.175892" y="320.4" style="stroke: #000000; stroke-width: 0.8"/>
      </g>
     </g>
     <g id="text_1">
      <!-- −30 -->
      <g transform="translate(48.600111 334.998438) scale(0.1 -0.1)">
       <defs>
        <path id="OpenSans-Regular-2212" d="M 322 2044 
L 322 2469 
L 3331 2469 
L 3331 2044 
L 322 2044 
z
" transform="scale(0.015625)"/>
        <path id="OpenSans-Regular-33" d="M 3141 3503 
Q 3141 3197 3022 2972 
Q 2903 2747 2690 2605 
Q 2478 2463 2191 2406 
L 2191 2381 
Q 2734 2313 3007 2031 
Q 3281 1750 3281 1294 
Q 3281 897 3095 590 
Q 2909 284 2526 110 
Q 2144 -63 1547 -63 
Q 1184 -63 876 -5 
Q 569 53 288 188 
L 288 675 
Q 572 534 906 454 
Q 1241 375 1553 375 
Q 2178 375 2456 623 
Q 2734 872 2734 1303 
Q 2734 1600 2579 1783 
Q 2425 1966 2136 2052 
Q 1847 2138 1441 2138 
L 984 2138 
L 984 2581 
L 1444 2581 
Q 1816 2581 2075 2690 
Q 2334 2800 2470 2998 
Q 2606 3197 2606 3469 
Q 2606 3816 2375 4005 
Q 2144 4194 1747 4194 
Q 1503 4194 1303 4144 
Q 1103 4094 928 4006 
Q 753 3919 578 3803 
L 316 4159 
Q 566 4353 925 4493 
Q 1284 4634 1741 4634 
Q 2441 4634 2791 4315 
Q 3141 3997 3141 3503 
z
" transform="scale(0.015625)"/>
        <path id="OpenSans-Regular-30" d="M 3334 2291 
Q 3334 1734 3250 1296 
Q 3166 859 2984 556 
Q 2803 253 2515 95 
Q 2228 -63 1825 -63 
Q 1316 -63 983 215 
Q 650 494 486 1020 
Q 322 1547 322 2291 
Q 322 3022 470 3548 
Q 619 4075 950 4358 
Q 1281 4641 1825 4641 
Q 2341 4641 2675 4361 
Q 3009 4081 3171 3554 
Q 3334 3028 3334 2291 
z
M 844 2291 
Q 844 1653 941 1228 
Q 1038 803 1255 592 
Q 1472 381 1825 381 
Q 2178 381 2395 590 
Q 2613 800 2711 1225 
Q 2809 1650 2809 2291 
Q 2809 2919 2712 3342 
Q 2616 3766 2400 3980 
Q 2184 4194 1825 4194 
Q 1466 4194 1250 3980 
Q 1034 3766 939 3342 
Q 844 2919 844 2291 
z
" transform="scale(0.015625)"/>
       </defs>
       <use xlink:href="#OpenSans-Regular-2212"/>
       <use xlink:href="#OpenSans-Regular-33" x="57.177734"/>
       <use xlink:href="#OpenSans-Regular-30" x="114.355469"/>
      </g>
     </g>
    </g>
    <g id="xtick_2">
     <g id="line2d_2">
      <g>
       <use xlink:href="#me4a1345687" x="102.393814" y="320.4" style="stroke: #000000; stroke-width: 0.8"/>
      </g>
     </g>
     <g id="text_2">
      <!-- −20 -->
      <g transform="translate(93.818033 334.998438) scale(0.1 -0.1)">
       <defs>
        <path id="OpenSans-Regular-32" d="M 3309 0 
L 316 0 
L 316 434 
L 1538 1675 
Q 1878 2019 2111 2287 
Q 2344 2556 2466 2817 
Q 2588 3078 2588 3391 
Q 2588 3778 2358 3983 
Q 2128 4188 1753 4188 
Q 1425 4188 1172 4075 
Q 919 3963 653 3756 
L 375 4106 
Q 556 4259 770 4378 
Q 984 4497 1229 4565 
Q 1475 4634 1753 4634 
Q 2175 4634 2481 4487 
Q 2788 4341 2955 4069 
Q 3122 3797 3122 3422 
Q 3122 3059 2978 2748 
Q 2834 2438 2575 2133 
Q 2316 1828 1969 1488 
L 975 497 
L 975 475 
L 3309 475 
L 3309 0 
z
" transform="scale(0.015625)"/>
       </defs>
       <use xlink:href="#OpenSans-Regular-2212"/>
       <use xlink:href="#OpenSans-Regular-32" x="57.177734"/>
       <use xlink:href="#OpenSans-Regular-30" x="114.355469"/>
      </g>
     </g>
    </g>
    <g id="xtick_3">
     <g id="line2d_3">
      <g>
       <use xlink:href="#me4a1345687" x="147.611736" y="320.4" style="stroke: #000000; stroke-width: 0.8"/>
      </g>
     </g>
     <g id="text_3">
      <!-- −10 -->
      <g transform="translate(139.035955 334.998438) scale(0.1 -0.1)">
       <defs>
        <path id="OpenSans-Regular-31" d="M 2247 0 
L 1741 0 
L 1741 3238 
Q 1741 3422 1742 3555 
Q 1744 3688 1748 3798 
Q 1753 3909 1763 4025 
Q 1666 3925 1581 3854 
Q 1497 3784 1372 3681 
L 850 3263 
L 578 3616 
L 1816 4569 
L 2247 4569 
L 2247 0 
z
" transform="scale(0.015625)"/>
       </defs>
       <use xlink:href="#OpenSans-Regular-2212"/>
       <use xlink:href="#OpenSans-Regular-31" x="57.177734"/>
       <use xlink:href="#OpenSans-Regular-30" x="114.355469"/>
      </g>
     </g>
    </g>
    <g id="xtick_4">
     <g id="line2d_4">
      <g>
       <use xlink:href="#me4a1345687" x="192.829658" y="320.4" style="stroke: #000000; stroke-width: 0.8"/>
      </g>
     </g>
     <g id="text_4">
      <!-- 0 -->
      <g transform="translate(189.971064 334.998438) scale(0.1 -0.1)">
       <use xlink:href="#OpenSans-Regular-30"/>
      </g>
     </g>
    </g>
    <g id="xtick_5">
     <g id="line2d_5">
      <g>
       <use xlink:href="#me4a1345687" x="238.04758" y="320.4" style="stroke: #000000; stroke-width: 0.8"/>
      </g>
     </g>
     <g id="text_5">
      <!-- 10 -->
      <g transform="translate(232.330392 334.998438) scale(0.1 -0.1)">
       <use xlink:href="#OpenSans-Regular-31"/>
       <use xlink:href="#OpenSans-Regular-30" x="57.177734"/>
      </g>
     </g>
    </g>
    <g id="xtick_6">
     <g id="line2d_6">
      <g>
       <use xlink:href="#me4a1345687" x="283.265501" y="320.4" style="stroke: #000000; stroke-width: 0.8"/>
      </g>
     </g>
     <g id="text_6">
      <!-- 20 -->
      <g transform="translate(277.548314 334.998438) scale(0.1 -0.1)">
       <use xlink:href="#OpenSans-Regular-32"/>
       <use xlink:href="#OpenSans-Regular-30" x="57.177734"/>
      </g>
     </g>
    </g>
    <g id="text_7">
     <!-- x -->
     <g transform="translate(181.882812 348.989062) scale(0.1 -0.1)">
      <defs>
       <path id="OpenSans-Regular-78" d="M 1363 1753 
L 178 3425 
L 772 3425 
L 1675 2106 
L 2575 3425 
L 3163 3425 
L 1978 1753 
L 3228 0 
L 2634 0 
L 1675 1397 
L 709 0 
L 122 0 
L 1363 1753 
z
" transform="scale(0.015625)"/>
      </defs>
      <use xlink:href="#OpenSans-Regular-78"/>
     </g>
    </g>
   </g>
   <g id="matplotlib.axis_2">
    <g id="ytick_1">
     <g id="line2d_7">
      <defs>
       <path id="m825d561f44" d="M 0 0 
L -3.5 0 
" style="stroke: #000000; stroke-width: 0.8"/>
      </defs>
      <g>
       <use xlink:href="#m825d561f44" x="45" y="301.755525" style="stroke: #000000; stroke-width: 0.8"/>
      </g>
     </g>
     <g id="text_8">
      <!-- −5 -->
      <g transform="translate(26.565625 305.554744) scale(0.1 -0.1)">
       <defs>
        <path id="OpenSans-Regular-35" d="M 1759 2794 
Q 2225 2794 2569 2636 
Q 2913 2478 3102 2178 
Q 3291 1878 3291 1450 
Q 3291 981 3087 642 
Q 2884 303 2503 120 
Q 2122 -63 1591 -63 
Q 1234 -63 928 0 
Q 622 63 413 188 
L 413 681 
Q 641 544 966 462 
Q 1291 381 1597 381 
Q 1944 381 2205 492 
Q 2466 603 2611 829 
Q 2756 1056 2756 1400 
Q 2756 1856 2476 2104 
Q 2197 2353 1594 2353 
Q 1400 2353 1169 2322 
Q 938 2291 788 2253 
L 525 2425 
L 700 4569 
L 2972 4569 
L 2972 4094 
L 1144 4094 
L 1028 2716 
Q 1147 2741 1334 2767 
Q 1522 2794 1759 2794 
z
" transform="scale(0.015625)"/>
       </defs>
       <use xlink:href="#OpenSans-Regular-2212"/>
       <use xlink:href="#OpenSans-Regular-35" x="57.177734"/>
      </g>
     </g>
    </g>
    <g id="ytick_2">
     <g id="line2d_8">
      <g>
       <use xlink:href="#m825d561f44" x="45" y="246.970396" style="stroke: #000000; stroke-width: 0.8"/>
      </g>
     </g>
     <g id="text_9">
      <!-- 0 -->
      <g transform="translate(32.282812 250.769615) scale(0.1 -0.1)">
       <use xlink:href="#OpenSans-Regular-30"/>
      </g>
     </g>
    </g>
    <g id="ytick_3">
     <g id="line2d_9">
      <g>
       <use xlink:href="#m825d561f44" x="45" y="192.185267" style="stroke: #000000; stroke-width: 0.8"/>
      </g>
     </g>
     <g id="text_10">
      <!-- 5 -->
      <g transform="translate(32.282812 195.984486) scale(0.1 -0.1)">
       <use xlink:href="#OpenSans-Regular-35"/>
      </g>
     </g>
    </g>
    <g id="ytick_4">
     <g id="line2d_10">
      <g>
       <use xlink:href="#m825d561f44" x="45" y="137.400138" style="stroke: #000000; stroke-width: 0.8"/>
      </g>
     </g>
     <g id="text_11">
      <!-- 10 -->
      <g transform="translate(26.565625 141.199356) scale(0.1 -0.1)">
       <use xlink:href="#OpenSans-Regular-31"/>
       <use xlink:href="#OpenSans-Regular-30" x="57.177734"/>
      </g>
     </g>
    </g>
    <g id="ytick_5">
     <g id="line2d_11">
      <g>
       <use xlink:href="#m825d561f44" x="45" y="82.615008" style="stroke: #000000; stroke-width: 0.8"/>
      </g>
     </g>
     <g id="text_12">
      <!-- 15 -->
      <g transform="translate(26.565625 86.414227) scale(0.1 -0.1)">
       <use xlink:href="#OpenSans-Regular-31"/>
       <use xlink:href="#OpenSans-Regular-35" x="57.177734"/>
      </g>
     </g>
    </g>
    <g id="text_13">
     <!-- y -->
     <g transform="translate(20.157812 184.304687) rotate(-90) scale(0.1 -0.1)">
      <defs>
       <path id="OpenSans-Regular-79" d="M 6 3425 
L 563 3425 
L 1319 1438 
Q 1384 1263 1440 1102 
Q 1497 941 1540 794 
Q 1584 647 1609 509 
L 1631 509 
Q 1675 666 1756 920 
Q 1838 1175 1931 1441 
L 2647 3425 
L 3206 3425 
L 1716 -503 
Q 1597 -819 1439 -1053 
Q 1281 -1288 1056 -1414 
Q 831 -1541 513 -1541 
Q 366 -1541 253 -1523 
Q 141 -1506 59 -1484 
L 59 -1069 
Q 128 -1084 226 -1096 
Q 325 -1109 431 -1109 
Q 625 -1109 767 -1036 
Q 909 -963 1012 -822 
Q 1116 -681 1191 -488 
L 1378 -6 
L 6 3425 
z
" transform="scale(0.015625)"/>
      </defs>
      <use xlink:href="#OpenSans-Regular-79"/>
     </g>
    </g>
   </g>
   <g id="patch_3">
    <path d="M 45 320.4 
L 45 43.2 
" style="fill: none; stroke: #000000; stroke-width: 0.8; stroke-linejoin: miter; stroke-linecap: square"/>
   </g>
   <g id="patch_4">
    <path d="M 324 320.4 
L 324 43.2 
" style="fill: none; stroke: #000000; stroke-width: 0.8; stroke-linejoin: miter; stroke-linecap: square"/>
   </g>
   <g id="patch_5">
    <path d="M 45 320.4 
L 324 320.4 
" style="fill: none; stroke: #000000; stroke-width: 0.8; stroke-linejoin: miter; stroke-linecap: square"/>
   </g>
   <g id="patch_6">
    <path d="M 45 43.2 
L 324 43.2 
" style="fill: none; stroke: #000000; stroke-width: 0.8; stroke-linejoin: miter; stroke-linecap: square"/>
   </g>
   <g id="text_14">
    <!-- Диаграмма рассеяния -->
    <g transform="translate(119.581875 37.2) scale(0.12 -0.12)">
     <defs>
      <path id="OpenSans-Regular-414" d="M 3669 4569 
L 3669 475 
L 4231 475 
L 4231 -1194 
L 3722 -1194 
L 3722 0 
L 547 0 
L 547 -1194 
L 38 -1194 
L 38 475 
L 388 475 
Q 622 875 826 1373 
Q 1031 1872 1192 2417 
Q 1353 2963 1454 3513 
Q 1556 4063 1584 4569 
L 3669 4569 
z
M 3141 4091 
L 2053 4091 
Q 2025 3703 1928 3226 
Q 1831 2750 1679 2250 
Q 1528 1750 1342 1290 
Q 1156 831 950 475 
L 3141 475 
L 3141 4091 
z
" transform="scale(0.015625)"/>
      <path id="OpenSans-Regular-438" d="M 1041 3425 
L 1041 1272 
Q 1041 1209 1037 1111 
Q 1034 1013 1028 902 
Q 1022 791 1017 689 
Q 1013 588 1006 522 
L 2875 3425 
L 3513 3425 
L 3513 0 
L 3028 0 
L 3028 2100 
Q 3028 2200 3031 2356 
Q 3034 2513 3040 2664 
Q 3047 2816 3050 2900 
L 1188 0 
L 547 0 
L 547 3425 
L 1041 3425 
z
" transform="scale(0.015625)"/>
      <path id="OpenSans-Regular-430" d="M 1828 3481 
Q 2441 3481 2737 3206 
Q 3034 2931 3034 2328 
L 3034 0 
L 2656 0 
L 2556 506 
L 2531 506 
Q 2388 319 2231 192 
Q 2075 66 1870 1 
Q 1666 -63 1369 -63 
Q 1056 -63 814 46 
Q 572 156 433 378 
Q 294 600 294 941 
Q 294 1453 700 1728 
Q 1106 2003 1938 2028 
L 2528 2053 
L 2528 2263 
Q 2528 2706 2337 2884 
Q 2147 3063 1800 3063 
Q 1531 3063 1287 2984 
Q 1044 2906 825 2800 
L 666 3194 
Q 897 3313 1197 3397 
Q 1497 3481 1828 3481 
z
M 2522 1688 
L 2000 1666 
Q 1359 1641 1096 1456 
Q 834 1272 834 934 
Q 834 641 1012 500 
Q 1191 359 1484 359 
Q 1941 359 2231 612 
Q 2522 866 2522 1372 
L 2522 1688 
z
" transform="scale(0.015625)"/>
      <path id="OpenSans-Regular-433" d="M 2625 3425 
L 2625 2984 
L 1069 2984 
L 1069 0 
L 547 0 
L 547 3425 
L 2625 3425 
z
" transform="scale(0.015625)"/>
      <path id="OpenSans-Regular-440" d="M 2156 3488 
Q 2797 3488 3178 3047 
Q 3559 2606 3559 1722 
Q 3559 1138 3384 741 
Q 3209 344 2892 140 
Q 2575 -63 2144 -63 
Q 1872 -63 1665 9 
Q 1459 81 1312 203 
Q 1166 325 1069 469 
L 1031 469 
Q 1041 347 1055 175 
Q 1069 3 1069 -125 
L 1069 -1531 
L 547 -1531 
L 547 3425 
L 975 3425 
L 1044 2919 
L 1069 2919 
Q 1169 3075 1312 3204 
Q 1456 3334 1664 3411 
Q 1872 3488 2156 3488 
z
M 2066 3050 
Q 1709 3050 1492 2912 
Q 1275 2775 1175 2501 
Q 1075 2228 1069 1816 
L 1069 1716 
Q 1069 1281 1164 981 
Q 1259 681 1479 525 
Q 1700 369 2072 369 
Q 2391 369 2603 541 
Q 2816 713 2920 1020 
Q 3025 1328 3025 1728 
Q 3025 2334 2789 2692 
Q 2553 3050 2066 3050 
z
" transform="scale(0.015625)"/>
      <path id="OpenSans-Regular-43c" d="M 4163 3425 
L 4163 0 
L 3694 0 
L 3694 2231 
Q 3694 2369 3701 2511 
Q 3709 2653 3722 2797 
L 3703 2797 
L 2566 0 
L 2125 0 
L 1016 2797 
L 997 2797 
Q 1006 2653 1011 2511 
Q 1016 2369 1016 2213 
L 1016 0 
L 544 0 
L 544 3425 
L 1241 3425 
L 2347 625 
L 3469 3425 
L 4163 3425 
z
" transform="scale(0.015625)"/>
      <path id="OpenSans-Regular-20" transform="scale(0.015625)"/>
      <path id="OpenSans-Regular-441" d="M 1919 -63 
Q 1456 -63 1103 128 
Q 750 319 553 709 
Q 356 1100 356 1694 
Q 356 2316 564 2711 
Q 772 3106 1137 3297 
Q 1503 3488 1969 3488 
Q 2225 3488 2464 3436 
Q 2703 3384 2856 3306 
L 2700 2872 
Q 2544 2934 2339 2984 
Q 2134 3034 1956 3034 
Q 1600 3034 1364 2881 
Q 1128 2728 1011 2431 
Q 894 2134 894 1700 
Q 894 1284 1008 990 
Q 1122 697 1348 542 
Q 1575 388 1916 388 
Q 2188 388 2406 445 
Q 2625 503 2803 581 
L 2803 119 
Q 2631 31 2420 -16 
Q 2209 -63 1919 -63 
z
" transform="scale(0.015625)"/>
      <path id="OpenSans-Regular-435" d="M 1866 3488 
Q 2303 3488 2615 3294 
Q 2928 3100 3093 2751 
Q 3259 2403 3259 1938 
L 3259 1616 
L 894 1616 
Q 903 1013 1193 697 
Q 1484 381 2013 381 
Q 2338 381 2588 440 
Q 2838 500 3106 616 
L 3106 159 
Q 2847 44 2592 -9 
Q 2338 -63 1991 -63 
Q 1497 -63 1130 139 
Q 763 341 559 731 
Q 356 1122 356 1688 
Q 356 2241 542 2645 
Q 728 3050 1067 3269 
Q 1406 3488 1866 3488 
z
M 1859 3063 
Q 1444 3063 1197 2791 
Q 950 2519 903 2031 
L 2716 2031 
Q 2713 2338 2620 2570 
Q 2528 2803 2340 2933 
Q 2153 3063 1859 3063 
z
" transform="scale(0.015625)"/>
      <path id="OpenSans-Regular-44f" d="M 713 0 
L 106 0 
L 1094 1444 
Q 878 1491 693 1605 
Q 509 1719 395 1919 
Q 281 2119 281 2416 
Q 281 2909 611 3167 
Q 941 3425 1481 3425 
L 2997 3425 
L 2997 0 
L 2478 0 
L 2478 1375 
L 1609 1375 
L 713 0 
z
M 784 2413 
Q 784 2106 1003 1957 
Q 1222 1809 1628 1809 
L 2478 1809 
L 2478 2991 
L 1538 2991 
Q 1138 2991 961 2830 
Q 784 2669 784 2413 
z
" transform="scale(0.015625)"/>
      <path id="OpenSans-Regular-43d" d="M 1069 3425 
L 1069 1988 
L 2978 1988 
L 2978 3425 
L 3497 3425 
L 3497 0 
L 2978 0 
L 2978 1547 
L 1069 1547 
L 1069 0 
L 547 0 
L 547 3425 
L 1069 3425 
z
" transform="scale(0.015625)"/>
     </defs>
     <use xlink:href="#OpenSans-Regular-414"/>
     <use xlink:href="#OpenSans-Regular-438" x="68.408203"/>
     <use xlink:href="#OpenSans-Regular-430" x="131.982422"/>
     <use xlink:href="#OpenSans-Regular-433" x="187.548828"/>
     <use xlink:href="#OpenSans-Regular-440" x="230.664062"/>
     <use xlink:href="#OpenSans-Regular-430" x="291.845703"/>
     <use xlink:href="#OpenSans-Regular-43c" x="347.412109"/>
     <use xlink:href="#OpenSans-Regular-43c" x="420.751953"/>
     <use xlink:href="#OpenSans-Regular-430" x="494.091797"/>
     <use xlink:href="#OpenSans-Regular-20" x="549.658203"/>
     <use xlink:href="#OpenSans-Regular-440" x="575.634766"/>
     <use xlink:href="#OpenSans-Regular-430" x="636.816406"/>
     <use xlink:href="#OpenSans-Regular-441" x="692.382812"/>
     <use xlink:href="#OpenSans-Regular-441" x="740.283203"/>
     <use xlink:href="#OpenSans-Regular-435" x="788.183594"/>
     <use xlink:href="#OpenSans-Regular-44f" x="844.335938"/>
     <use xlink:href="#OpenSans-Regular-43d" x="899.707031"/>
     <use xlink:href="#OpenSans-Regular-438" x="962.988281"/>
     <use xlink:href="#OpenSans-Regular-44f" x="1026.5625"/>
    </g>
   </g>
  </g>
 </g>
 <defs>
  <clipPath id="p937c7ac026">
   <rect x="45" y="43.2" width="279" height="277.2"/>
  </clipPath>
 </defs>
</svg>
