<?xml version="1.0" encoding="utf-8" standalone="no"?>
<!DOCTYPE svg PUBLIC "-//W3C//DTD SVG 1.1//EN"
  "http://www.w3.org/Graphics/SVG/1.1/DTD/svg11.dtd">
<svg xmlns:xlink="http://www.w3.org/1999/xlink" width="360pt" height="360pt" viewBox="0 0 360 360" xmlns="http://www.w3.org/2000/svg" version="1.1">
 <metadata>
  <rdf:RDF xmlns:dc="http://purl.org/dc/elements/1.1/" xmlns:cc="http://creativecommons.org/ns#" xmlns:rdf="http://www.w3.org/1999/02/22-rdf-syntax-ns#">
   <cc:Work>
    <dc:type rdf:resource="http://purl.org/dc/dcmitype/StillImage"/>
    <dc:date>2023-11-21T18:56:39.824764</dc:date>
    <dc:format>image/svg+xml</dc:format>
    <dc:creator>
     <cc:Agent>
      <dc:title>Matplotlib v3.8.0, https://matplotlib.org/</dc:title>
     </cc:Agent>
    </dc:creator>
   </cc:Work>
  </rdf:RDF>
 </metadata>
 <defs>
  <style type="text/css">*{stroke-linejoin: round; stroke-linecap: butt}</style>
 </defs>
 <g id="figure_1">
  <g id="patch_1">
   <path d="M 0 360 
L 360 360 
L 360 0 
L 0 0 
z
" style="fill: #ffffff"/>
  </g>
  <g id="axes_1">
   <g id="patch_2">
    <path d="M 45 320.4 
L 324 320.4 
L 324 43.2 
L 45 43.2 
z
" style="fill: #ffffff"/>
   </g>
   <g id="PathCollection_1">
    <defs>
     <path id="m827a1e6db7" d="M 0 1.870829 
C 0.49615 1.870829 0.972045 1.673706 1.322876 1.322876 
C 1.673706 0.972045 1.870829 0.49615 1.870829 0 
C 1.870829 -0.49615 1.673706 -0.972045 1.322876 -1.322876 
C 0.972045 -1.673706 0.49615 -1.870829 0 -1.870829 
C -0.49615 -1.870829 -0.972045 -1.673706 -1.322876 -1.322876 
C -1.673706 -0.972045 -1.870829 -0.49615 -1.870829 0 
C -1.870829 0.49615 -1.673706 0.972045 -1.322876 1.322876 
C -0.972045 1.673706 -0.49615 1.870829 0 1.870829 
z
" style="stroke: #000000"/>
    </defs>
    <g clip-path="url(#pff39801893)">
     <use xlink:href="#m827a1e6db7" x="238.931593" y="297.414546" style="stroke: #000000"/>
     <use xlink:href="#m827a1e6db7" x="208.497617" y="235.175371" style="stroke: #000000"/>
     <use xlink:href="#m827a1e6db7" x="160.669835" y="217.369619" style="stroke: #000000"/>
     <use xlink:href="#m827a1e6db7" x="140.921275" y="232.91543" style="stroke: #000000"/>
     <use xlink:href="#m827a1e6db7" x="159.448462" y="215.643821" style="stroke: #000000"/>
     <use xlink:href="#m827a1e6db7" x="146.721814" y="164.273513" style="stroke: #000000"/>
     <use xlink:href="#m827a1e6db7" x="147.975177" y="240.84254" style="stroke: #000000"/>
     <use xlink:href="#m827a1e6db7" x="124.21361" y="108.97016" style="stroke: #000000"/>
     <use xlink:href="#m827a1e6db7" x="159.707047" y="245.622739" style="stroke: #000000"/>
     <use xlink:href="#m827a1e6db7" x="154.61243" y="125.997279" style="stroke: #000000"/>
     <use xlink:href="#m827a1e6db7" x="89.401918" y="137.518885" style="stroke: #000000"/>
     <use xlink:href="#m827a1e6db7" x="237.477354" y="168.422092" style="stroke: #000000"/>
     <use xlink:href="#m827a1e6db7" x="127.930339" y="153.9825" style="stroke: #000000"/>
     <use xlink:href="#m827a1e6db7" x="150.405431" y="162.825683" style="stroke: #000000"/>
     <use xlink:href="#m827a1e6db7" x="104.497117" y="127.451344" style="stroke: #000000"/>
     <use xlink:href="#m827a1e6db7" x="126.386837" y="166.943971" style="stroke: #000000"/>
     <use xlink:href="#m827a1e6db7" x="264.37123" y="221.709333" style="stroke: #000000"/>
     <use xlink:href="#m827a1e6db7" x="124.915532" y="159.518687" style="stroke: #000000"/>
     <use xlink:href="#m827a1e6db7" x="194.656416" y="193.6455" style="stroke: #000000"/>
     <use xlink:href="#m827a1e6db7" x="104.264296" y="152.741589" style="stroke: #000000"/>
     <use xlink:href="#m827a1e6db7" x="216.33511" y="160.340167" style="stroke: #000000"/>
     <use xlink:href="#m827a1e6db7" x="173.435701" y="168.604321" style="stroke: #000000"/>
     <use xlink:href="#m827a1e6db7" x="178.200905" y="211.47427" style="stroke: #000000"/>
     <use xlink:href="#m827a1e6db7" x="247.116287" y="274.62792" style="stroke: #000000"/>
     <use xlink:href="#m827a1e6db7" x="141.745757" y="87.080221" style="stroke: #000000"/>
     <use xlink:href="#m827a1e6db7" x="163.17802" y="214.208001" style="stroke: #000000"/>
     <use xlink:href="#m827a1e6db7" x="197.986804" y="209.036173" style="stroke: #000000"/>
     <use xlink:href="#m827a1e6db7" x="228.294978" y="231.035453" style="stroke: #000000"/>
     <use xlink:href="#m827a1e6db7" x="185.648024" y="186.13058" style="stroke: #000000"/>
     <use xlink:href="#m827a1e6db7" x="113.018893" y="151.153072" style="stroke: #000000"/>
     <use xlink:href="#m827a1e6db7" x="173.890492" y="257.983844" style="stroke: #000000"/>
     <use xlink:href="#m827a1e6db7" x="254.374371" y="289.866842" style="stroke: #000000"/>
     <use xlink:href="#m827a1e6db7" x="214.534343" y="307.465863" style="stroke: #000000"/>
     <use xlink:href="#m827a1e6db7" x="145.765145" y="191.295227" style="stroke: #000000"/>
     <use xlink:href="#m827a1e6db7" x="189.788179" y="177.316483" style="stroke: #000000"/>
     <use xlink:href="#m827a1e6db7" x="248.152568" y="237.666123" style="stroke: #000000"/>
     <use xlink:href="#m827a1e6db7" x="128.346041" y="90.580999" style="stroke: #000000"/>
     <use xlink:href="#m827a1e6db7" x="153.10153" y="117.828905" style="stroke: #000000"/>
     <use xlink:href="#m827a1e6db7" x="170.522261" y="169.752652" style="stroke: #000000"/>
     <use xlink:href="#m827a1e6db7" x="171.843419" y="175.226844" style="stroke: #000000"/>
     <use xlink:href="#m827a1e6db7" x="179.906389" y="206.375768" style="stroke: #000000"/>
     <use xlink:href="#m827a1e6db7" x="181.421642" y="190.530178" style="stroke: #000000"/>
     <use xlink:href="#m827a1e6db7" x="176.659439" y="187.195388" style="stroke: #000000"/>
     <use xlink:href="#m827a1e6db7" x="152.261622" y="144.388486" style="stroke: #000000"/>
     <use xlink:href="#m827a1e6db7" x="144.043694" y="137.072803" style="stroke: #000000"/>
     <use xlink:href="#m827a1e6db7" x="178.129609" y="171.438155" style="stroke: #000000"/>
     <use xlink:href="#m827a1e6db7" x="214.868293" y="167.334158" style="stroke: #000000"/>
     <use xlink:href="#m827a1e6db7" x="302.333717" y="240.281307" style="stroke: #000000"/>
     <use xlink:href="#m827a1e6db7" x="180.89992" y="169.806142" style="stroke: #000000"/>
     <use xlink:href="#m827a1e6db7" x="131.416849" y="223.498388" style="stroke: #000000"/>
     <use xlink:href="#m827a1e6db7" x="194.180343" y="200.490332" style="stroke: #000000"/>
     <use xlink:href="#m827a1e6db7" x="192.443428" y="274.285772" style="stroke: #000000"/>
     <use xlink:href="#m827a1e6db7" x="218.58585" y="224.000853" style="stroke: #000000"/>
     <use xlink:href="#m827a1e6db7" x="151.320839" y="202.486827" style="stroke: #000000"/>
     <use xlink:href="#m827a1e6db7" x="131.688173" y="189.225608" style="stroke: #000000"/>
     <use xlink:href="#m827a1e6db7" x="233.556612" y="188.391635" style="stroke: #000000"/>
     <use xlink:href="#m827a1e6db7" x="148.006112" y="207.56469" style="stroke: #000000"/>
     <use xlink:href="#m827a1e6db7" x="178.226208" y="230.564791" style="stroke: #000000"/>
     <use xlink:href="#m827a1e6db7" x="142.062342" y="223.489189" style="stroke: #000000"/>
     <use xlink:href="#m827a1e6db7" x="117.966473" y="186.923716" style="stroke: #000000"/>
     <use xlink:href="#m827a1e6db7" x="166.598851" y="187.898568" style="stroke: #000000"/>
     <use xlink:href="#m827a1e6db7" x="152.125725" y="193.9791" style="stroke: #000000"/>
     <use xlink:href="#m827a1e6db7" x="188.85679" y="164.442784" style="stroke: #000000"/>
     <use xlink:href="#m827a1e6db7" x="206.663585" y="185.211354" style="stroke: #000000"/>
     <use xlink:href="#m827a1e6db7" x="211.744867" y="147.401851" style="stroke: #000000"/>
     <use xlink:href="#m827a1e6db7" x="214.373935" y="269.717938" style="stroke: #000000"/>
     <use xlink:href="#m827a1e6db7" x="144.658339" y="186.18068" style="stroke: #000000"/>
     <use xlink:href="#m827a1e6db7" x="182.896729" y="224.539614" style="stroke: #000000"/>
     <use xlink:href="#m827a1e6db7" x="188.797461" y="147.19489" style="stroke: #000000"/>
     <use xlink:href="#m827a1e6db7" x="121.112288" y="202.030302" style="stroke: #000000"/>
     <use xlink:href="#m827a1e6db7" x="210.780884" y="201.624037" style="stroke: #000000"/>
     <use xlink:href="#m827a1e6db7" x="142.144757" y="213.515246" style="stroke: #000000"/>
     <use xlink:href="#m827a1e6db7" x="133.831514" y="87.833537" style="stroke: #000000"/>
     <use xlink:href="#m827a1e6db7" x="140.323019" y="187.742921" style="stroke: #000000"/>
     <use xlink:href="#m827a1e6db7" x="167.686878" y="164.802162" style="stroke: #000000"/>
     <use xlink:href="#m827a1e6db7" x="141.28194" y="198.022341" style="stroke: #000000"/>
     <use xlink:href="#m827a1e6db7" x="162.692629" y="175.128927" style="stroke: #000000"/>
     <use xlink:href="#m827a1e6db7" x="163.910128" y="128.272451" style="stroke: #000000"/>
     <use xlink:href="#m827a1e6db7" x="200.611023" y="198.653062" style="stroke: #000000"/>
     <use xlink:href="#m827a1e6db7" x="163.352324" y="187.676191" style="stroke: #000000"/>
     <use xlink:href="#m827a1e6db7" x="171.452761" y="139.090337" style="stroke: #000000"/>
     <use xlink:href="#m827a1e6db7" x="163.797997" y="179.844153" style="stroke: #000000"/>
     <use xlink:href="#m827a1e6db7" x="191.62252" y="283.496792" style="stroke: #000000"/>
     <use xlink:href="#m827a1e6db7" x="162.738459" y="160.860103" style="stroke: #000000"/>
     <use xlink:href="#m827a1e6db7" x="223.960824" y="152.648278" style="stroke: #000000"/>
     <use xlink:href="#m827a1e6db7" x="139.898203" y="163.008077" style="stroke: #000000"/>
     <use xlink:href="#m827a1e6db7" x="185.732903" y="168.383437" style="stroke: #000000"/>
     <use xlink:href="#m827a1e6db7" x="156.087298" y="213.352608" style="stroke: #000000"/>
     <use xlink:href="#m827a1e6db7" x="190.093292" y="179.403469" style="stroke: #000000"/>
     <use xlink:href="#m827a1e6db7" x="105.781661" y="153.457459" style="stroke: #000000"/>
     <use xlink:href="#m827a1e6db7" x="124.903339" y="139.121691" style="stroke: #000000"/>
     <use xlink:href="#m827a1e6db7" x="183.673344" y="252.857512" style="stroke: #000000"/>
     <use xlink:href="#m827a1e6db7" x="193.722999" y="177.760235" style="stroke: #000000"/>
     <use xlink:href="#m827a1e6db7" x="224.159932" y="248.105195" style="stroke: #000000"/>
     <use xlink:href="#m827a1e6db7" x="161.058817" y="225.957969" style="stroke: #000000"/>
     <use xlink:href="#m827a1e6db7" x="170.408302" y="218.745678" style="stroke: #000000"/>
     <use xlink:href="#m827a1e6db7" x="154.434984" y="171.241147" style="stroke: #000000"/>
     <use xlink:href="#m827a1e6db7" x="230.851168" y="198.159776" style="stroke: #000000"/>
     <use xlink:href="#m827a1e6db7" x="211.89859" y="154.619463" style="stroke: #000000"/>
     <use xlink:href="#m827a1e6db7" x="164.572978" y="160.448162" style="stroke: #000000"/>
     <use xlink:href="#m827a1e6db7" x="204.837253" y="173.252919" style="stroke: #000000"/>
     <use xlink:href="#m827a1e6db7" x="175.689402" y="241.58768" style="stroke: #000000"/>
     <use xlink:href="#m827a1e6db7" x="232.235576" y="255.240026" style="stroke: #000000"/>
     <use xlink:href="#m827a1e6db7" x="198.951075" y="212.20454" style="stroke: #000000"/>
     <use xlink:href="#m827a1e6db7" x="57.681818" y="99.917518" style="stroke: #000000"/>
     <use xlink:href="#m827a1e6db7" x="211.439985" y="146.32377" style="stroke: #000000"/>
     <use xlink:href="#m827a1e6db7" x="205.986891" y="174.213355" style="stroke: #000000"/>
     <use xlink:href="#m827a1e6db7" x="163.517645" y="224.251553" style="stroke: #000000"/>
     <use xlink:href="#m827a1e6db7" x="158.288155" y="200.33047" style="stroke: #000000"/>
     <use xlink:href="#m827a1e6db7" x="99.56363" y="166.301239" style="stroke: #000000"/>
     <use xlink:href="#m827a1e6db7" x="186.684437" y="168.054405" style="stroke: #000000"/>
     <use xlink:href="#m827a1e6db7" x="149.484227" y="140.602655" style="stroke: #000000"/>
     <use xlink:href="#m827a1e6db7" x="90.754828" y="69.140761" style="stroke: #000000"/>
     <use xlink:href="#m827a1e6db7" x="207.625865" y="215.740086" style="stroke: #000000"/>
     <use xlink:href="#m827a1e6db7" x="102.904182" y="265.258509" style="stroke: #000000"/>
     <use xlink:href="#m827a1e6db7" x="208.574771" y="246.85802" style="stroke: #000000"/>
     <use xlink:href="#m827a1e6db7" x="185.85804" y="189.779886" style="stroke: #000000"/>
     <use xlink:href="#m827a1e6db7" x="160.599878" y="213.104896" style="stroke: #000000"/>
     <use xlink:href="#m827a1e6db7" x="216.174808" y="246.309321" style="stroke: #000000"/>
     <use xlink:href="#m827a1e6db7" x="265.962994" y="224.550435" style="stroke: #000000"/>
     <use xlink:href="#m827a1e6db7" x="99.004512" y="108.518757" style="stroke: #000000"/>
     <use xlink:href="#m827a1e6db7" x="105.179329" y="185.99864" style="stroke: #000000"/>
     <use xlink:href="#m827a1e6db7" x="252.254656" y="251.266064" style="stroke: #000000"/>
     <use xlink:href="#m827a1e6db7" x="161.029969" y="208.903485" style="stroke: #000000"/>
     <use xlink:href="#m827a1e6db7" x="208.989942" y="193.404344" style="stroke: #000000"/>
     <use xlink:href="#m827a1e6db7" x="201.987005" y="125.98726" style="stroke: #000000"/>
     <use xlink:href="#m827a1e6db7" x="151.000526" y="190.614955" style="stroke: #000000"/>
     <use xlink:href="#m827a1e6db7" x="297.703117" y="274.579168" style="stroke: #000000"/>
     <use xlink:href="#m827a1e6db7" x="103.747829" y="111.640079" style="stroke: #000000"/>
     <use xlink:href="#m827a1e6db7" x="148.777897" y="172.139911" style="stroke: #000000"/>
     <use xlink:href="#m827a1e6db7" x="181.235111" y="268.497756" style="stroke: #000000"/>
     <use xlink:href="#m827a1e6db7" x="165.80171" y="201.985906" style="stroke: #000000"/>
     <use xlink:href="#m827a1e6db7" x="284.314097" y="229.875281" style="stroke: #000000"/>
     <use xlink:href="#m827a1e6db7" x="160.514072" y="146.323695" style="stroke: #000000"/>
     <use xlink:href="#m827a1e6db7" x="269.024112" y="278.013143" style="stroke: #000000"/>
     <use xlink:href="#m827a1e6db7" x="137.653289" y="216.352421" style="stroke: #000000"/>
     <use xlink:href="#m827a1e6db7" x="96.762845" y="97.043613" style="stroke: #000000"/>
     <use xlink:href="#m827a1e6db7" x="195.340959" y="201.711143" style="stroke: #000000"/>
     <use xlink:href="#m827a1e6db7" x="166.293549" y="215.733576" style="stroke: #000000"/>
     <use xlink:href="#m827a1e6db7" x="163.582017" y="208.652896" style="stroke: #000000"/>
     <use xlink:href="#m827a1e6db7" x="155.990986" y="207.55815" style="stroke: #000000"/>
     <use xlink:href="#m827a1e6db7" x="274.655473" y="255.380356" style="stroke: #000000"/>
     <use xlink:href="#m827a1e6db7" x="119.932241" y="149.769428" style="stroke: #000000"/>
     <use xlink:href="#m827a1e6db7" x="137.357369" y="175.758752" style="stroke: #000000"/>
     <use xlink:href="#m827a1e6db7" x="88.254828" y="55.8" style="stroke: #000000"/>
     <use xlink:href="#m827a1e6db7" x="110.614505" y="221.770277" style="stroke: #000000"/>
     <use xlink:href="#m827a1e6db7" x="148.534635" y="189.699751" style="stroke: #000000"/>
     <use xlink:href="#m827a1e6db7" x="217.187559" y="266.617493" style="stroke: #000000"/>
     <use xlink:href="#m827a1e6db7" x="110.266108" y="169.675193" style="stroke: #000000"/>
     <use xlink:href="#m827a1e6db7" x="147.114178" y="190.558766" style="stroke: #000000"/>
     <use xlink:href="#m827a1e6db7" x="175.746117" y="149.777824" style="stroke: #000000"/>
     <use xlink:href="#m827a1e6db7" x="181.50615" y="152.318169" style="stroke: #000000"/>
     <use xlink:href="#m827a1e6db7" x="170.012106" y="178.470154" style="stroke: #000000"/>
     <use xlink:href="#m827a1e6db7" x="166.487575" y="195.927933" style="stroke: #000000"/>
     <use xlink:href="#m827a1e6db7" x="186.856153" y="222.674027" style="stroke: #000000"/>
     <use xlink:href="#m827a1e6db7" x="153.75567" y="157.418708" style="stroke: #000000"/>
     <use xlink:href="#m827a1e6db7" x="137.661251" y="154.491053" style="stroke: #000000"/>
     <use xlink:href="#m827a1e6db7" x="280.727192" y="296.311666" style="stroke: #000000"/>
     <use xlink:href="#m827a1e6db7" x="138.961238" y="137.405091" style="stroke: #000000"/>
     <use xlink:href="#m827a1e6db7" x="208.113134" y="261.127279" style="stroke: #000000"/>
     <use xlink:href="#m827a1e6db7" x="123.773856" y="266.425339" style="stroke: #000000"/>
     <use xlink:href="#m827a1e6db7" x="140.026597" y="196.914152" style="stroke: #000000"/>
     <use xlink:href="#m827a1e6db7" x="159.250237" y="166.084525" style="stroke: #000000"/>
     <use xlink:href="#m827a1e6db7" x="179.165184" y="213.702453" style="stroke: #000000"/>
     <use xlink:href="#m827a1e6db7" x="185.916641" y="179.174045" style="stroke: #000000"/>
     <use xlink:href="#m827a1e6db7" x="236.480112" y="158.773242" style="stroke: #000000"/>
     <use xlink:href="#m827a1e6db7" x="129.816955" y="173.023272" style="stroke: #000000"/>
     <use xlink:href="#m827a1e6db7" x="136.665923" y="189.142298" style="stroke: #000000"/>
     <use xlink:href="#m827a1e6db7" x="134.854876" y="194.560088" style="stroke: #000000"/>
     <use xlink:href="#m827a1e6db7" x="223.017074" y="201.669881" style="stroke: #000000"/>
     <use xlink:href="#m827a1e6db7" x="176.955397" y="248.445765" style="stroke: #000000"/>
     <use xlink:href="#m827a1e6db7" x="98.861776" y="71.665091" style="stroke: #000000"/>
     <use xlink:href="#m827a1e6db7" x="147.630126" y="163.036527" style="stroke: #000000"/>
     <use xlink:href="#m827a1e6db7" x="143.169728" y="158.300205" style="stroke: #000000"/>
     <use xlink:href="#m827a1e6db7" x="97.755512" y="117.033802" style="stroke: #000000"/>
     <use xlink:href="#m827a1e6db7" x="201.334636" y="267.457757" style="stroke: #000000"/>
     <use xlink:href="#m827a1e6db7" x="185.590635" y="215.071022" style="stroke: #000000"/>
     <use xlink:href="#m827a1e6db7" x="206.251789" y="162.285776" style="stroke: #000000"/>
     <use xlink:href="#m827a1e6db7" x="226.435203" y="206.413039" style="stroke: #000000"/>
     <use xlink:href="#m827a1e6db7" x="130.605247" y="108.223248" style="stroke: #000000"/>
     <use xlink:href="#m827a1e6db7" x="142.649571" y="198.346862" style="stroke: #000000"/>
     <use xlink:href="#m827a1e6db7" x="143.802389" y="160.409862" style="stroke: #000000"/>
     <use xlink:href="#m827a1e6db7" x="181.358253" y="171.838383" style="stroke: #000000"/>
     <use xlink:href="#m827a1e6db7" x="179.38851" y="106.47951" style="stroke: #000000"/>
     <use xlink:href="#m827a1e6db7" x="130.581328" y="120.841012" style="stroke: #000000"/>
     <use xlink:href="#m827a1e6db7" x="95.709047" y="158.503621" style="stroke: #000000"/>
     <use xlink:href="#m827a1e6db7" x="230.117717" y="307.213545" style="stroke: #000000"/>
     <use xlink:href="#m827a1e6db7" x="243.730496" y="247.566093" style="stroke: #000000"/>
     <use xlink:href="#m827a1e6db7" x="182.061168" y="138.94947" style="stroke: #000000"/>
     <use xlink:href="#m827a1e6db7" x="202.719189" y="248.290425" style="stroke: #000000"/>
     <use xlink:href="#m827a1e6db7" x="133.866601" y="229.979906" style="stroke: #000000"/>
     <use xlink:href="#m827a1e6db7" x="179.531207" y="248.697382" style="stroke: #000000"/>
     <use xlink:href="#m827a1e6db7" x="103.026052" y="147.994589" style="stroke: #000000"/>
     <use xlink:href="#m827a1e6db7" x="228.058638" y="216.180781" style="stroke: #000000"/>
     <use xlink:href="#m827a1e6db7" x="111.078821" y="99.292239" style="stroke: #000000"/>
     <use xlink:href="#m827a1e6db7" x="174.008947" y="130.341285" style="stroke: #000000"/>
     <use xlink:href="#m827a1e6db7" x="152.411365" y="220.979449" style="stroke: #000000"/>
     <use xlink:href="#m827a1e6db7" x="78.600594" y="128.775531" style="stroke: #000000"/>
     <use xlink:href="#m827a1e6db7" x="172.746079" y="182.128611" style="stroke: #000000"/>
     <use xlink:href="#m827a1e6db7" x="116.850333" y="172.635472" style="stroke: #000000"/>
     <use xlink:href="#m827a1e6db7" x="254.129424" y="202.782134" style="stroke: #000000"/>
     <use xlink:href="#m827a1e6db7" x="187.663764" y="166.060976" style="stroke: #000000"/>
     <use xlink:href="#m827a1e6db7" x="234.423439" y="307.8" style="stroke: #000000"/>
     <use xlink:href="#m827a1e6db7" x="179.483157" y="182.748453" style="stroke: #000000"/>
     <use xlink:href="#m827a1e6db7" x="191.125612" y="179.358815" style="stroke: #000000"/>
     <use xlink:href="#m827a1e6db7" x="263.598577" y="194.119306" style="stroke: #000000"/>
     <use xlink:href="#m827a1e6db7" x="169.944181" y="281.128323" style="stroke: #000000"/>
     <use xlink:href="#m827a1e6db7" x="149.166039" y="202.935712" style="stroke: #000000"/>
     <use xlink:href="#m827a1e6db7" x="196.458641" y="207.904449" style="stroke: #000000"/>
     <use xlink:href="#m827a1e6db7" x="184.366891" y="223.972413" style="stroke: #000000"/>
     <use xlink:href="#m827a1e6db7" x="133.23924" y="196.937697" style="stroke: #000000"/>
     <use xlink:href="#m827a1e6db7" x="137.498785" y="155.108938" style="stroke: #000000"/>
     <use xlink:href="#m827a1e6db7" x="154.565275" y="148.96044" style="stroke: #000000"/>
     <use xlink:href="#m827a1e6db7" x="124.900659" y="201.280759" style="stroke: #000000"/>
     <use xlink:href="#m827a1e6db7" x="206.8369" y="234.840854" style="stroke: #000000"/>
     <use xlink:href="#m827a1e6db7" x="230.94788" y="213.372759" style="stroke: #000000"/>
     <use xlink:href="#m827a1e6db7" x="145.646096" y="142.185918" style="stroke: #000000"/>
     <use xlink:href="#m827a1e6db7" x="267.111084" y="237.607761" style="stroke: #000000"/>
     <use xlink:href="#m827a1e6db7" x="145.514381" y="182.475034" style="stroke: #000000"/>
     <use xlink:href="#m827a1e6db7" x="126.365025" y="208.145658" style="stroke: #000000"/>
     <use xlink:href="#m827a1e6db7" x="104.469338" y="119.525359" style="stroke: #000000"/>
     <use xlink:href="#m827a1e6db7" x="135.612333" y="193.139414" style="stroke: #000000"/>
     <use xlink:href="#m827a1e6db7" x="187.687808" y="187.354731" style="stroke: #000000"/>
     <use xlink:href="#m827a1e6db7" x="154.995107" y="156.541218" style="stroke: #000000"/>
     <use xlink:href="#m827a1e6db7" x="224.367328" y="253.801119" style="stroke: #000000"/>
     <use xlink:href="#m827a1e6db7" x="192.714486" y="193.148605" style="stroke: #000000"/>
     <use xlink:href="#m827a1e6db7" x="151.788075" y="204.755433" style="stroke: #000000"/>
     <use xlink:href="#m827a1e6db7" x="127.929959" y="150.130925" style="stroke: #000000"/>
     <use xlink:href="#m827a1e6db7" x="237.538179" y="199.220955" style="stroke: #000000"/>
     <use xlink:href="#m827a1e6db7" x="205.751917" y="220.930475" style="stroke: #000000"/>
     <use xlink:href="#m827a1e6db7" x="240.745113" y="226.396865" style="stroke: #000000"/>
     <use xlink:href="#m827a1e6db7" x="93.465359" y="181.53055" style="stroke: #000000"/>
     <use xlink:href="#m827a1e6db7" x="131.171311" y="233.858186" style="stroke: #000000"/>
     <use xlink:href="#m827a1e6db7" x="184.642563" y="223.467317" style="stroke: #000000"/>
     <use xlink:href="#m827a1e6db7" x="171.738581" y="135.660444" style="stroke: #000000"/>
     <use xlink:href="#m827a1e6db7" x="149.591523" y="199.412965" style="stroke: #000000"/>
     <use xlink:href="#m827a1e6db7" x="172.34944" y="194.666942" style="stroke: #000000"/>
     <use xlink:href="#m827a1e6db7" x="145.509098" y="160.48081" style="stroke: #000000"/>
     <use xlink:href="#m827a1e6db7" x="145.767717" y="159.420527" style="stroke: #000000"/>
     <use xlink:href="#m827a1e6db7" x="311.318182" y="250.703607" style="stroke: #000000"/>
     <use xlink:href="#m827a1e6db7" x="132.132735" y="216.764018" style="stroke: #000000"/>
     <use xlink:href="#m827a1e6db7" x="214.486475" y="269.957535" style="stroke: #000000"/>
     <use xlink:href="#m827a1e6db7" x="127.983832" y="133.406331" style="stroke: #000000"/>
     <use xlink:href="#m827a1e6db7" x="181.022801" y="200.047768" style="stroke: #000000"/>
     <use xlink:href="#m827a1e6db7" x="175.815345" y="178.251961" style="stroke: #000000"/>
     <use xlink:href="#m827a1e6db7" x="166.700995" y="213.31351" style="stroke: #000000"/>
     <use xlink:href="#m827a1e6db7" x="180.683349" y="165.137608" style="stroke: #000000"/>
     <use xlink:href="#m827a1e6db7" x="113.243608" y="136.093692" style="stroke: #000000"/>
     <use xlink:href="#m827a1e6db7" x="151.803682" y="151.052851" style="stroke: #000000"/>
     <use xlink:href="#m827a1e6db7" x="181.714671" y="154.764031" style="stroke: #000000"/>
     <use xlink:href="#m827a1e6db7" x="127.157903" y="92.874473" style="stroke: #000000"/>
     <use xlink:href="#m827a1e6db7" x="173.269265" y="232.978044" style="stroke: #000000"/>
     <use xlink:href="#m827a1e6db7" x="208.8519" y="170.693749" style="stroke: #000000"/>
     <use xlink:href="#m827a1e6db7" x="182.779151" y="219.464573" style="stroke: #000000"/>
     <use xlink:href="#m827a1e6db7" x="136.207317" y="182.545025" style="stroke: #000000"/>
     <use xlink:href="#m827a1e6db7" x="152.583117" y="193.977796" style="stroke: #000000"/>
     <use xlink:href="#m827a1e6db7" x="164.528138" y="90.292257" style="stroke: #000000"/>
     <use xlink:href="#m827a1e6db7" x="258.214419" y="262.690586" style="stroke: #000000"/>
     <use xlink:href="#m827a1e6db7" x="143.907566" y="146.894059" style="stroke: #000000"/>
     <use xlink:href="#m827a1e6db7" x="192.980329" y="214.778488" style="stroke: #000000"/>
     <use xlink:href="#m827a1e6db7" x="175.682778" y="247.75748" style="stroke: #000000"/>
     <use xlink:href="#m827a1e6db7" x="219.102302" y="198.915129" style="stroke: #000000"/>
     <use xlink:href="#m827a1e6db7" x="153.396267" y="220.453716" style="stroke: #000000"/>
     <use xlink:href="#m827a1e6db7" x="157.272077" y="214.158699" style="stroke: #000000"/>
     <use xlink:href="#m827a1e6db7" x="144.736255" y="172.069203" style="stroke: #000000"/>
     <use xlink:href="#m827a1e6db7" x="217.264681" y="250.72341" style="stroke: #000000"/>
     <use xlink:href="#m827a1e6db7" x="145.316265" y="161.852408" style="stroke: #000000"/>
     <use xlink:href="#m827a1e6db7" x="173.948619" y="220.303366" style="stroke: #000000"/>
     <use xlink:href="#m827a1e6db7" x="176.819242" y="165.10445" style="stroke: #000000"/>
     <use xlink:href="#m827a1e6db7" x="75.440542" y="151.476953" style="stroke: #000000"/>
     <use xlink:href="#m827a1e6db7" x="145.475009" y="234.516467" style="stroke: #000000"/>
     <use xlink:href="#m827a1e6db7" x="171.976909" y="167.538944" style="stroke: #000000"/>
     <use xlink:href="#m827a1e6db7" x="178.299157" y="180.55564" style="stroke: #000000"/>
     <use xlink:href="#m827a1e6db7" x="209.571871" y="215.23522" style="stroke: #000000"/>
     <use xlink:href="#m827a1e6db7" x="142.838847" y="205.069108" style="stroke: #000000"/>
     <use xlink:href="#m827a1e6db7" x="220.189847" y="230.252477" style="stroke: #000000"/>
     <use xlink:href="#m827a1e6db7" x="132.900545" y="248.415222" style="stroke: #000000"/>
     <use xlink:href="#m827a1e6db7" x="197.820437" y="204.446466" style="stroke: #000000"/>
     <use xlink:href="#m827a1e6db7" x="192.784505" y="248.218933" style="stroke: #000000"/>
     <use xlink:href="#m827a1e6db7" x="201.466323" y="204.487012" style="stroke: #000000"/>
     <use xlink:href="#m827a1e6db7" x="214.770289" y="255.184019" style="stroke: #000000"/>
     <use xlink:href="#m827a1e6db7" x="114.961541" y="226.563277" style="stroke: #000000"/>
     <use xlink:href="#m827a1e6db7" x="140.995584" y="154.456543" style="stroke: #000000"/>
     <use xlink:href="#m827a1e6db7" x="71.307176" y="73.639345" style="stroke: #000000"/>
     <use xlink:href="#m827a1e6db7" x="170.185466" y="201.123144" style="stroke: #000000"/>
     <use xlink:href="#m827a1e6db7" x="133.060143" y="197.062281" style="stroke: #000000"/>
     <use xlink:href="#m827a1e6db7" x="232.679503" y="190.805971" style="stroke: #000000"/>
     <use xlink:href="#m827a1e6db7" x="176.807764" y="231.195022" style="stroke: #000000"/>
     <use xlink:href="#m827a1e6db7" x="205.708488" y="144.024072" style="stroke: #000000"/>
     <use xlink:href="#m827a1e6db7" x="218.437017" y="237.050694" style="stroke: #000000"/>
     <use xlink:href="#m827a1e6db7" x="143.663739" y="216.600566" style="stroke: #000000"/>
     <use xlink:href="#m827a1e6db7" x="106.916873" y="176.403038" style="stroke: #000000"/>
     <use xlink:href="#m827a1e6db7" x="143.50406" y="188.572183" style="stroke: #000000"/>
     <use xlink:href="#m827a1e6db7" x="152.710264" y="180.827617" style="stroke: #000000"/>
     <use xlink:href="#m827a1e6db7" x="165.626729" y="149.315784" style="stroke: #000000"/>
     <use xlink:href="#m827a1e6db7" x="115.694459" y="111.447138" style="stroke: #000000"/>
     <use xlink:href="#m827a1e6db7" x="208.06032" y="210.296045" style="stroke: #000000"/>
     <use xlink:href="#m827a1e6db7" x="218.118834" y="192.662777" style="stroke: #000000"/>
     <use xlink:href="#m827a1e6db7" x="185.080294" y="210.192883" style="stroke: #000000"/>
     <use xlink:href="#m827a1e6db7" x="187.918199" y="242.77906" style="stroke: #000000"/>
    </g>
   </g>
   <g id="matplotlib.axis_1">
    <g id="xtick_1">
     <g id="line2d_1">
      <defs>
       <path id="m7c1dfa7af9" d="M 0 0 
L 0 3.5 
" style="stroke: #000000; stroke-width: 0.8"/>
      </defs>
      <g>
       <use xlink:href="#m7c1dfa7af9" x="78.036073" y="320.4" style="stroke: #000000; stroke-width: 0.8"/>
      </g>
     </g>
     <g id="text_1">
      <!-- −30 -->
      <g transform="translate(69.460292 334.998438) scale(0.1 -0.1)">
       <defs>
        <path id="OpenSans-Regular-2212" d="M 322 2044 
L 322 2469 
L 3331 2469 
L 3331 2044 
L 322 2044 
z
" transform="scale(0.015625)"/>
        <path id="OpenSans-Regular-33" d="M 3141 3503 
Q 3141 3197 3022 2972 
Q 2903 2747 2690 2605 
Q 2478 2463 2191 2406 
L 2191 2381 
Q 2734 2313 3007 2031 
Q 3281 1750 3281 1294 
Q 3281 897 3095 590 
Q 2909 284 2526 110 
Q 2144 -63 1547 -63 
Q 1184 -63 876 -5 
Q 569 53 288 188 
L 288 675 
Q 572 534 906 454 
Q 1241 375 1553 375 
Q 2178 375 2456 623 
Q 2734 872 2734 1303 
Q 2734 1600 2579 1783 
Q 2425 1966 2136 2052 
Q 1847 2138 1441 2138 
L 984 2138 
L 984 2581 
L 1444 2581 
Q 1816 2581 2075 2690 
Q 2334 2800 2470 2998 
Q 2606 3197 2606 3469 
Q 2606 3816 2375 4005 
Q 2144 4194 1747 4194 
Q 1503 4194 1303 4144 
Q 1103 4094 928 4006 
Q 753 3919 578 3803 
L 316 4159 
Q 566 4353 925 4493 
Q 1284 4634 1741 4634 
Q 2441 4634 2791 4315 
Q 3141 3997 3141 3503 
z
" transform="scale(0.015625)"/>
        <path id="OpenSans-Regular-30" d="M 3334 2291 
Q 3334 1734 3250 1296 
Q 3166 859 2984 556 
Q 2803 253 2515 95 
Q 2228 -63 1825 -63 
Q 1316 -63 983 215 
Q 650 494 486 1020 
Q 322 1547 322 2291 
Q 322 3022 470 3548 
Q 619 4075 950 4358 
Q 1281 4641 1825 4641 
Q 2341 4641 2675 4361 
Q 3009 4081 3171 3554 
Q 3334 3028 3334 2291 
z
M 844 2291 
Q 844 1653 941 1228 
Q 1038 803 1255 592 
Q 1472 381 1825 381 
Q 2178 381 2395 590 
Q 2613 800 2711 1225 
Q 2809 1650 2809 2291 
Q 2809 2919 2712 3342 
Q 2616 3766 2400 3980 
Q 2184 4194 1825 4194 
Q 1466 4194 1250 3980 
Q 1034 3766 939 3342 
Q 844 2919 844 2291 
z
" transform="scale(0.015625)"/>
       </defs>
       <use xlink:href="#OpenSans-Regular-2212"/>
       <use xlink:href="#OpenSans-Regular-33" x="57.177734"/>
       <use xlink:href="#OpenSans-Regular-30" x="114.355469"/>
      </g>
     </g>
    </g>
    <g id="xtick_2">
     <g id="line2d_2">
      <g>
       <use xlink:href="#m7c1dfa7af9" x="120.940637" y="320.4" style="stroke: #000000; stroke-width: 0.8"/>
      </g>
     </g>
     <g id="text_2">
      <!-- −20 -->
      <g transform="translate(112.364856 334.998438) scale(0.1 -0.1)">
       <defs>
        <path id="OpenSans-Regular-32" d="M 3309 0 
L 316 0 
L 316 434 
L 1538 1675 
Q 1878 2019 2111 2287 
Q 2344 2556 2466 2817 
Q 2588 3078 2588 3391 
Q 2588 3778 2358 3983 
Q 2128 4188 1753 4188 
Q 1425 4188 1172 4075 
Q 919 3963 653 3756 
L 375 4106 
Q 556 4259 770 4378 
Q 984 4497 1229 4565 
Q 1475 4634 1753 4634 
Q 2175 4634 2481 4487 
Q 2788 4341 2955 4069 
Q 3122 3797 3122 3422 
Q 3122 3059 2978 2748 
Q 2834 2438 2575 2133 
Q 2316 1828 1969 1488 
L 975 497 
L 975 475 
L 3309 475 
L 3309 0 
z
" transform="scale(0.015625)"/>
       </defs>
       <use xlink:href="#OpenSans-Regular-2212"/>
       <use xlink:href="#OpenSans-Regular-32" x="57.177734"/>
       <use xlink:href="#OpenSans-Regular-30" x="114.355469"/>
      </g>
     </g>
    </g>
    <g id="xtick_3">
     <g id="line2d_3">
      <g>
       <use xlink:href="#m7c1dfa7af9" x="163.845201" y="320.4" style="stroke: #000000; stroke-width: 0.8"/>
      </g>
     </g>
     <g id="text_3">
      <!-- −10 -->
      <g transform="translate(155.26942 334.998438) scale(0.1 -0.1)">
       <defs>
        <path id="OpenSans-Regular-31" d="M 2247 0 
L 1741 0 
L 1741 3238 
Q 1741 3422 1742 3555 
Q 1744 3688 1748 3798 
Q 1753 3909 1763 4025 
Q 1666 3925 1581 3854 
Q 1497 3784 1372 3681 
L 850 3263 
L 578 3616 
L 1816 4569 
L 2247 4569 
L 2247 0 
z
" transform="scale(0.015625)"/>
       </defs>
       <use xlink:href="#OpenSans-Regular-2212"/>
       <use xlink:href="#OpenSans-Regular-31" x="57.177734"/>
       <use xlink:href="#OpenSans-Regular-30" x="114.355469"/>
      </g>
     </g>
    </g>
    <g id="xtick_4">
     <g id="line2d_4">
      <g>
       <use xlink:href="#m7c1dfa7af9" x="206.749765" y="320.4" style="stroke: #000000; stroke-width: 0.8"/>
      </g>
     </g>
     <g id="text_4">
      <!-- 0 -->
      <g transform="translate(203.891171 334.998438) scale(0.1 -0.1)">
       <use xlink:href="#OpenSans-Regular-30"/>
      </g>
     </g>
    </g>
    <g id="xtick_5">
     <g id="line2d_5">
      <g>
       <use xlink:href="#m7c1dfa7af9" x="249.654328" y="320.4" style="stroke: #000000; stroke-width: 0.8"/>
      </g>
     </g>
     <g id="text_5">
      <!-- 10 -->
      <g transform="translate(243.937141 334.998438) scale(0.1 -0.1)">
       <use xlink:href="#OpenSans-Regular-31"/>
       <use xlink:href="#OpenSans-Regular-30" x="57.177734"/>
      </g>
     </g>
    </g>
    <g id="xtick_6">
     <g id="line2d_6">
      <g>
       <use xlink:href="#m7c1dfa7af9" x="292.558892" y="320.4" style="stroke: #000000; stroke-width: 0.8"/>
      </g>
     </g>
     <g id="text_6">
      <!-- 20 -->
      <g transform="translate(286.841705 334.998438) scale(0.1 -0.1)">
       <use xlink:href="#OpenSans-Regular-32"/>
       <use xlink:href="#OpenSans-Regular-30" x="57.177734"/>
      </g>
     </g>
    </g>
    <g id="text_7">
     <!-- x -->
     <g transform="translate(181.882812 348.989062) scale(0.1 -0.1)">
      <defs>
       <path id="OpenSans-Regular-78" d="M 1363 1753 
L 178 3425 
L 772 3425 
L 1675 2106 
L 2575 3425 
L 3163 3425 
L 1978 1753 
L 3228 0 
L 2634 0 
L 1675 1397 
L 709 0 
L 122 0 
L 1363 1753 
z
" transform="scale(0.015625)"/>
      </defs>
      <use xlink:href="#OpenSans-Regular-78"/>
     </g>
    </g>
   </g>
   <g id="matplotlib.axis_2">
    <g id="ytick_1">
     <g id="line2d_7">
      <defs>
       <path id="mc2350440d6" d="M 0 0 
L -3.5 0 
" style="stroke: #000000; stroke-width: 0.8"/>
      </defs>
      <g>
       <use xlink:href="#mc2350440d6" x="45" y="305.17177" style="stroke: #000000; stroke-width: 0.8"/>
      </g>
     </g>
     <g id="text_8">
      <!-- −20 -->
      <g transform="translate(20.848437 308.970989) scale(0.1 -0.1)">
       <use xlink:href="#OpenSans-Regular-2212"/>
       <use xlink:href="#OpenSans-Regular-32" x="57.177734"/>
       <use xlink:href="#OpenSans-Regular-30" x="114.355469"/>
      </g>
     </g>
    </g>
    <g id="ytick_2">
     <g id="line2d_8">
      <g>
       <use xlink:href="#mc2350440d6" x="45" y="265.744978" style="stroke: #000000; stroke-width: 0.8"/>
      </g>
     </g>
     <g id="text_9">
      <!-- −15 -->
      <g transform="translate(20.848437 269.544197) scale(0.1 -0.1)">
       <defs>
        <path id="OpenSans-Regular-35" d="M 1759 2794 
Q 2225 2794 2569 2636 
Q 2913 2478 3102 2178 
Q 3291 1878 3291 1450 
Q 3291 981 3087 642 
Q 2884 303 2503 120 
Q 2122 -63 1591 -63 
Q 1234 -63 928 0 
Q 622 63 413 188 
L 413 681 
Q 641 544 966 462 
Q 1291 381 1597 381 
Q 1944 381 2205 492 
Q 2466 603 2611 829 
Q 2756 1056 2756 1400 
Q 2756 1856 2476 2104 
Q 2197 2353 1594 2353 
Q 1400 2353 1169 2322 
Q 938 2291 788 2253 
L 525 2425 
L 700 4569 
L 2972 4569 
L 2972 4094 
L 1144 4094 
L 1028 2716 
Q 1147 2741 1334 2767 
Q 1522 2794 1759 2794 
z
" transform="scale(0.015625)"/>
       </defs>
       <use xlink:href="#OpenSans-Regular-2212"/>
       <use xlink:href="#OpenSans-Regular-31" x="57.177734"/>
       <use xlink:href="#OpenSans-Regular-35" x="114.355469"/>
      </g>
     </g>
    </g>
    <g id="ytick_3">
     <g id="line2d_9">
      <g>
       <use xlink:href="#mc2350440d6" x="45" y="226.318186" style="stroke: #000000; stroke-width: 0.8"/>
      </g>
     </g>
     <g id="text_10">
      <!-- −10 -->
      <g transform="translate(20.848437 230.117405) scale(0.1 -0.1)">
       <use xlink:href="#OpenSans-Regular-2212"/>
       <use xlink:href="#OpenSans-Regular-31" x="57.177734"/>
       <use xlink:href="#OpenSans-Regular-30" x="114.355469"/>
      </g>
     </g>
    </g>
    <g id="ytick_4">
     <g id="line2d_10">
      <g>
       <use xlink:href="#mc2350440d6" x="45" y="186.891394" style="stroke: #000000; stroke-width: 0.8"/>
      </g>
     </g>
     <g id="text_11">
      <!-- −5 -->
      <g transform="translate(26.565625 190.690613) scale(0.1 -0.1)">
       <use xlink:href="#OpenSans-Regular-2212"/>
       <use xlink:href="#OpenSans-Regular-35" x="57.177734"/>
      </g>
     </g>
    </g>
    <g id="ytick_5">
     <g id="line2d_11">
      <g>
       <use xlink:href="#mc2350440d6" x="45" y="147.464602" style="stroke: #000000; stroke-width: 0.8"/>
      </g>
     </g>
     <g id="text_12">
      <!-- 0 -->
      <g transform="translate(32.282812 151.263821) scale(0.1 -0.1)">
       <use xlink:href="#OpenSans-Regular-30"/>
      </g>
     </g>
    </g>
    <g id="ytick_6">
     <g id="line2d_12">
      <g>
       <use xlink:href="#mc2350440d6" x="45" y="108.03781" style="stroke: #000000; stroke-width: 0.8"/>
      </g>
     </g>
     <g id="text_13">
      <!-- 5 -->
      <g transform="translate(32.282812 111.837028) scale(0.1 -0.1)">
       <use xlink:href="#OpenSans-Regular-35"/>
      </g>
     </g>
    </g>
    <g id="ytick_7">
     <g id="line2d_13">
      <g>
       <use xlink:href="#mc2350440d6" x="45" y="68.611018" style="stroke: #000000; stroke-width: 0.8"/>
      </g>
     </g>
     <g id="text_14">
      <!-- 10 -->
      <g transform="translate(26.565625 72.410236) scale(0.1 -0.1)">
       <use xlink:href="#OpenSans-Regular-31"/>
       <use xlink:href="#OpenSans-Regular-30" x="57.177734"/>
      </g>
     </g>
    </g>
    <g id="text_15">
     <!-- y -->
     <g transform="translate(14.440625 184.304687) rotate(-90) scale(0.1 -0.1)">
      <defs>
       <path id="OpenSans-Regular-79" d="M 6 3425 
L 563 3425 
L 1319 1438 
Q 1384 1263 1440 1102 
Q 1497 941 1540 794 
Q 1584 647 1609 509 
L 1631 509 
Q 1675 666 1756 920 
Q 1838 1175 1931 1441 
L 2647 3425 
L 3206 3425 
L 1716 -503 
Q 1597 -819 1439 -1053 
Q 1281 -1288 1056 -1414 
Q 831 -1541 513 -1541 
Q 366 -1541 253 -1523 
Q 141 -1506 59 -1484 
L 59 -1069 
Q 128 -1084 226 -1096 
Q 325 -1109 431 -1109 
Q 625 -1109 767 -1036 
Q 909 -963 1012 -822 
Q 1116 -681 1191 -488 
L 1378 -6 
L 6 3425 
z
" transform="scale(0.015625)"/>
      </defs>
      <use xlink:href="#OpenSans-Regular-79"/>
     </g>
    </g>
   </g>
   <g id="patch_3">
    <path d="M 45 320.4 
L 45 43.2 
" style="fill: none; stroke: #000000; stroke-width: 0.8; stroke-linejoin: miter; stroke-linecap: square"/>
   </g>
   <g id="patch_4">
    <path d="M 324 320.4 
L 324 43.2 
" style="fill: none; stroke: #000000; stroke-width: 0.8; stroke-linejoin: miter; stroke-linecap: square"/>
   </g>
   <g id="patch_5">
    <path d="M 45 320.4 
L 324 320.4 
" style="fill: none; stroke: #000000; stroke-width: 0.8; stroke-linejoin: miter; stroke-linecap: square"/>
   </g>
   <g id="patch_6">
    <path d="M 45 43.2 
L 324 43.2 
" style="fill: none; stroke: #000000; stroke-width: 0.8; stroke-linejoin: miter; stroke-linecap: square"/>
   </g>
   <g id="text_16">
    <!-- Точечная диаграмма -->
    <g transform="translate(122.59875 37.2) scale(0.12 -0.12)">
     <defs>
      <path id="OpenSans-Regular-422" d="M 2028 0 
L 1494 0 
L 1494 4100 
L 56 4100 
L 56 4569 
L 3459 4569 
L 3459 4100 
L 2028 4100 
L 2028 0 
z
" transform="scale(0.015625)"/>
      <path id="OpenSans-Regular-43e" d="M 3500 1719 
Q 3500 1297 3390 965 
Q 3281 634 3075 406 
Q 2869 178 2576 57 
Q 2284 -63 1916 -63 
Q 1572 -63 1286 57 
Q 1000 178 792 406 
Q 584 634 470 965 
Q 356 1297 356 1719 
Q 356 2281 547 2676 
Q 738 3072 1092 3280 
Q 1447 3488 1938 3488 
Q 2406 3488 2757 3278 
Q 3109 3069 3304 2673 
Q 3500 2278 3500 1719 
z
M 894 1719 
Q 894 1306 1003 1003 
Q 1113 700 1341 534 
Q 1569 369 1928 369 
Q 2284 369 2514 534 
Q 2744 700 2853 1003 
Q 2963 1306 2963 1719 
Q 2963 2128 2853 2426 
Q 2744 2725 2516 2887 
Q 2288 3050 1925 3050 
Q 1391 3050 1142 2697 
Q 894 2344 894 1719 
z
" transform="scale(0.015625)"/>
      <path id="OpenSans-Regular-447" d="M 1000 3425 
L 1000 2194 
Q 1000 1872 1176 1719 
Q 1353 1566 1691 1566 
Q 2016 1566 2281 1666 
Q 2547 1766 2819 1938 
L 2819 3425 
L 3338 3425 
L 3338 0 
L 2819 0 
L 2819 1534 
Q 2531 1350 2253 1244 
Q 1975 1138 1588 1138 
Q 1059 1138 770 1413 
Q 481 1688 481 2156 
L 481 3425 
L 1000 3425 
z
" transform="scale(0.015625)"/>
      <path id="OpenSans-Regular-435" d="M 1866 3488 
Q 2303 3488 2615 3294 
Q 2928 3100 3093 2751 
Q 3259 2403 3259 1938 
L 3259 1616 
L 894 1616 
Q 903 1013 1193 697 
Q 1484 381 2013 381 
Q 2338 381 2588 440 
Q 2838 500 3106 616 
L 3106 159 
Q 2847 44 2592 -9 
Q 2338 -63 1991 -63 
Q 1497 -63 1130 139 
Q 763 341 559 731 
Q 356 1122 356 1688 
Q 356 2241 542 2645 
Q 728 3050 1067 3269 
Q 1406 3488 1866 3488 
z
M 1859 3063 
Q 1444 3063 1197 2791 
Q 950 2519 903 2031 
L 2716 2031 
Q 2713 2338 2620 2570 
Q 2528 2803 2340 2933 
Q 2153 3063 1859 3063 
z
" transform="scale(0.015625)"/>
      <path id="OpenSans-Regular-43d" d="M 1069 3425 
L 1069 1988 
L 2978 1988 
L 2978 3425 
L 3497 3425 
L 3497 0 
L 2978 0 
L 2978 1547 
L 1069 1547 
L 1069 0 
L 547 0 
L 547 3425 
L 1069 3425 
z
" transform="scale(0.015625)"/>
      <path id="OpenSans-Regular-430" d="M 1828 3481 
Q 2441 3481 2737 3206 
Q 3034 2931 3034 2328 
L 3034 0 
L 2656 0 
L 2556 506 
L 2531 506 
Q 2388 319 2231 192 
Q 2075 66 1870 1 
Q 1666 -63 1369 -63 
Q 1056 -63 814 46 
Q 572 156 433 378 
Q 294 600 294 941 
Q 294 1453 700 1728 
Q 1106 2003 1938 2028 
L 2528 2053 
L 2528 2263 
Q 2528 2706 2337 2884 
Q 2147 3063 1800 3063 
Q 1531 3063 1287 2984 
Q 1044 2906 825 2800 
L 666 3194 
Q 897 3313 1197 3397 
Q 1497 3481 1828 3481 
z
M 2522 1688 
L 2000 1666 
Q 1359 1641 1096 1456 
Q 834 1272 834 934 
Q 834 641 1012 500 
Q 1191 359 1484 359 
Q 1941 359 2231 612 
Q 2522 866 2522 1372 
L 2522 1688 
z
" transform="scale(0.015625)"/>
      <path id="OpenSans-Regular-44f" d="M 713 0 
L 106 0 
L 1094 1444 
Q 878 1491 693 1605 
Q 509 1719 395 1919 
Q 281 2119 281 2416 
Q 281 2909 611 3167 
Q 941 3425 1481 3425 
L 2997 3425 
L 2997 0 
L 2478 0 
L 2478 1375 
L 1609 1375 
L 713 0 
z
M 784 2413 
Q 784 2106 1003 1957 
Q 1222 1809 1628 1809 
L 2478 1809 
L 2478 2991 
L 1538 2991 
Q 1138 2991 961 2830 
Q 784 2669 784 2413 
z
" transform="scale(0.015625)"/>
      <path id="OpenSans-Regular-20" transform="scale(0.015625)"/>
      <path id="OpenSans-Regular-434" d="M 3056 3425 
L 3056 441 
L 3547 441 
L 3547 -1184 
L 3044 -1184 
L 3044 0 
L 619 0 
L 619 -1184 
L 122 -1184 
L 122 441 
L 391 441 
Q 684 847 878 1331 
Q 1072 1816 1172 2348 
Q 1272 2881 1278 3425 
L 3056 3425 
z
M 2553 3013 
L 1741 3013 
Q 1713 2556 1608 2084 
Q 1503 1613 1331 1186 
Q 1159 759 931 441 
L 2553 441 
L 2553 3013 
z
" transform="scale(0.015625)"/>
      <path id="OpenSans-Regular-438" d="M 1041 3425 
L 1041 1272 
Q 1041 1209 1037 1111 
Q 1034 1013 1028 902 
Q 1022 791 1017 689 
Q 1013 588 1006 522 
L 2875 3425 
L 3513 3425 
L 3513 0 
L 3028 0 
L 3028 2100 
Q 3028 2200 3031 2356 
Q 3034 2513 3040 2664 
Q 3047 2816 3050 2900 
L 1188 0 
L 547 0 
L 547 3425 
L 1041 3425 
z
" transform="scale(0.015625)"/>
      <path id="OpenSans-Regular-433" d="M 2625 3425 
L 2625 2984 
L 1069 2984 
L 1069 0 
L 547 0 
L 547 3425 
L 2625 3425 
z
" transform="scale(0.015625)"/>
      <path id="OpenSans-Regular-440" d="M 2156 3488 
Q 2797 3488 3178 3047 
Q 3559 2606 3559 1722 
Q 3559 1138 3384 741 
Q 3209 344 2892 140 
Q 2575 -63 2144 -63 
Q 1872 -63 1665 9 
Q 1459 81 1312 203 
Q 1166 325 1069 469 
L 1031 469 
Q 1041 347 1055 175 
Q 1069 3 1069 -125 
L 1069 -1531 
L 547 -1531 
L 547 3425 
L 975 3425 
L 1044 2919 
L 1069 2919 
Q 1169 3075 1312 3204 
Q 1456 3334 1664 3411 
Q 1872 3488 2156 3488 
z
M 2066 3050 
Q 1709 3050 1492 2912 
Q 1275 2775 1175 2501 
Q 1075 2228 1069 1816 
L 1069 1716 
Q 1069 1281 1164 981 
Q 1259 681 1479 525 
Q 1700 369 2072 369 
Q 2391 369 2603 541 
Q 2816 713 2920 1020 
Q 3025 1328 3025 1728 
Q 3025 2334 2789 2692 
Q 2553 3050 2066 3050 
z
" transform="scale(0.015625)"/>
      <path id="OpenSans-Regular-43c" d="M 4163 3425 
L 4163 0 
L 3694 0 
L 3694 2231 
Q 3694 2369 3701 2511 
Q 3709 2653 3722 2797 
L 3703 2797 
L 2566 0 
L 2125 0 
L 1016 2797 
L 997 2797 
Q 1006 2653 1011 2511 
Q 1016 2369 1016 2213 
L 1016 0 
L 544 0 
L 544 3425 
L 1241 3425 
L 2347 625 
L 3469 3425 
L 4163 3425 
z
" transform="scale(0.015625)"/>
     </defs>
     <use xlink:href="#OpenSans-Regular-422"/>
     <use xlink:href="#OpenSans-Regular-43e" x="55.078125"/>
     <use xlink:href="#OpenSans-Regular-447" x="115.234375"/>
     <use xlink:href="#OpenSans-Regular-435" x="175.927734"/>
     <use xlink:href="#OpenSans-Regular-447" x="232.080078"/>
     <use xlink:href="#OpenSans-Regular-43d" x="292.773438"/>
     <use xlink:href="#OpenSans-Regular-430" x="356.054688"/>
     <use xlink:href="#OpenSans-Regular-44f" x="411.621094"/>
     <use xlink:href="#OpenSans-Regular-20" x="466.992188"/>
     <use xlink:href="#OpenSans-Regular-434" x="492.96875"/>
     <use xlink:href="#OpenSans-Regular-438" x="550.439453"/>
     <use xlink:href="#OpenSans-Regular-430" x="614.013672"/>
     <use xlink:href="#OpenSans-Regular-433" x="669.580078"/>
     <use xlink:href="#OpenSans-Regular-440" x="712.695312"/>
     <use xlink:href="#OpenSans-Regular-430" x="773.876953"/>
     <use xlink:href="#OpenSans-Regular-43c" x="829.443359"/>
     <use xlink:href="#OpenSans-Regular-43c" x="902.783203"/>
     <use xlink:href="#OpenSans-Regular-430" x="976.123047"/>
    </g>
   </g>
  </g>
 </g>
 <defs>
  <clipPath id="pff39801893">
   <rect x="45" y="43.2" width="279" height="277.2"/>
  </clipPath>
 </defs>
</svg>
