<?xml version="1.0" encoding="utf-8" standalone="no"?>
<!DOCTYPE svg PUBLIC "-//W3C//DTD SVG 1.1//EN"
  "http://www.w3.org/Graphics/SVG/1.1/DTD/svg11.dtd">
<svg xmlns:xlink="http://www.w3.org/1999/xlink" width="360pt" height="360pt" viewBox="0 0 360 360" xmlns="http://www.w3.org/2000/svg" version="1.1">
 <metadata>
  <rdf:RDF xmlns:dc="http://purl.org/dc/elements/1.1/" xmlns:cc="http://creativecommons.org/ns#" xmlns:rdf="http://www.w3.org/1999/02/22-rdf-syntax-ns#">
   <cc:Work>
    <dc:type rdf:resource="http://purl.org/dc/dcmitype/StillImage"/>
    <dc:date>2023-11-23T18:12:22.511990</dc:date>
    <dc:format>image/svg+xml</dc:format>
    <dc:creator>
     <cc:Agent>
      <dc:title>Matplotlib v3.8.0, https://matplotlib.org/</dc:title>
     </cc:Agent>
    </dc:creator>
   </cc:Work>
  </rdf:RDF>
 </metadata>
 <defs>
  <style type="text/css">*{stroke-linejoin: round; stroke-linecap: butt}</style>
 </defs>
 <g id="figure_1">
  <g id="patch_1">
   <path d="M 0 360 
L 360 360 
L 360 0 
L 0 0 
z
" style="fill: #ffffff"/>
  </g>
  <g id="axes_1">
   <g id="patch_2">
    <path d="M 45 320.4 
L 324 320.4 
L 324 43.2 
L 45 43.2 
z
" style="fill: #ffffff"/>
   </g>
   <g id="PathCollection_1">
    <defs>
     <path id="m67d4e64d7c" d="M 0 1.870829 
C 0.49615 1.870829 0.972045 1.673706 1.322876 1.322876 
C 1.673706 0.972045 1.870829 0.49615 1.870829 0 
C 1.870829 -0.49615 1.673706 -0.972045 1.322876 -1.322876 
C 0.972045 -1.673706 0.49615 -1.870829 0 -1.870829 
C -0.49615 -1.870829 -0.972045 -1.673706 -1.322876 -1.322876 
C -1.673706 -0.972045 -1.870829 -0.49615 -1.870829 0 
C -1.870829 0.49615 -1.673706 0.972045 -1.322876 1.322876 
C -0.972045 1.673706 -0.49615 1.870829 0 1.870829 
z
" style="stroke: #000000"/>
    </defs>
    <g clip-path="url(#pbe436e3705)">
     <use xlink:href="#m67d4e64d7c" x="127.705004" y="133.334192" style="stroke: #000000"/>
     <use xlink:href="#m67d4e64d7c" x="186.619765" y="186.73804" style="stroke: #000000"/>
     <use xlink:href="#m67d4e64d7c" x="196.540638" y="186.398511" style="stroke: #000000"/>
     <use xlink:href="#m67d4e64d7c" x="179.461621" y="180.446833" style="stroke: #000000"/>
     <use xlink:href="#m67d4e64d7c" x="203.771255" y="197.187606" style="stroke: #000000"/>
     <use xlink:href="#m67d4e64d7c" x="310.335135" y="303.812265" style="stroke: #000000"/>
     <use xlink:href="#m67d4e64d7c" x="181.855902" y="175.738934" style="stroke: #000000"/>
     <use xlink:href="#m67d4e64d7c" x="182.369366" y="180.781089" style="stroke: #000000"/>
     <use xlink:href="#m67d4e64d7c" x="204.075228" y="208.351347" style="stroke: #000000"/>
     <use xlink:href="#m67d4e64d7c" x="218.634282" y="221.506299" style="stroke: #000000"/>
     <use xlink:href="#m67d4e64d7c" x="174.112951" y="173.159371" style="stroke: #000000"/>
     <use xlink:href="#m67d4e64d7c" x="228.479819" y="228.793018" style="stroke: #000000"/>
     <use xlink:href="#m67d4e64d7c" x="176.875479" y="177.54903" style="stroke: #000000"/>
     <use xlink:href="#m67d4e64d7c" x="201.621384" y="201.914429" style="stroke: #000000"/>
     <use xlink:href="#m67d4e64d7c" x="203.150197" y="205.201494" style="stroke: #000000"/>
     <use xlink:href="#m67d4e64d7c" x="200.145046" y="199.513534" style="stroke: #000000"/>
     <use xlink:href="#m67d4e64d7c" x="240.956999" y="238.974185" style="stroke: #000000"/>
     <use xlink:href="#m67d4e64d7c" x="204.209718" y="201.833488" style="stroke: #000000"/>
     <use xlink:href="#m67d4e64d7c" x="160.392091" y="159.041774" style="stroke: #000000"/>
     <use xlink:href="#m67d4e64d7c" x="158.062024" y="157.834244" style="stroke: #000000"/>
     <use xlink:href="#m67d4e64d7c" x="203.870044" y="208.129047" style="stroke: #000000"/>
     <use xlink:href="#m67d4e64d7c" x="219.393995" y="213.033088" style="stroke: #000000"/>
     <use xlink:href="#m67d4e64d7c" x="197.409705" y="191.673277" style="stroke: #000000"/>
     <use xlink:href="#m67d4e64d7c" x="176.203069" y="171.376854" style="stroke: #000000"/>
     <use xlink:href="#m67d4e64d7c" x="129.235983" y="131.771268" style="stroke: #000000"/>
     <use xlink:href="#m67d4e64d7c" x="184.211068" y="187.497062" style="stroke: #000000"/>
     <use xlink:href="#m67d4e64d7c" x="248.021119" y="250.586169" style="stroke: #000000"/>
     <use xlink:href="#m67d4e64d7c" x="272.243577" y="266.781328" style="stroke: #000000"/>
     <use xlink:href="#m67d4e64d7c" x="231.921575" y="232.041806" style="stroke: #000000"/>
     <use xlink:href="#m67d4e64d7c" x="150.816385" y="149.458805" style="stroke: #000000"/>
     <use xlink:href="#m67d4e64d7c" x="203.556461" y="201.912484" style="stroke: #000000"/>
     <use xlink:href="#m67d4e64d7c" x="196.224961" y="195.212766" style="stroke: #000000"/>
     <use xlink:href="#m67d4e64d7c" x="199.642819" y="197.544816" style="stroke: #000000"/>
     <use xlink:href="#m67d4e64d7c" x="251.041836" y="243.099768" style="stroke: #000000"/>
     <use xlink:href="#m67d4e64d7c" x="150.483167" y="155.231249" style="stroke: #000000"/>
     <use xlink:href="#m67d4e64d7c" x="145.745817" y="141.175059" style="stroke: #000000"/>
     <use xlink:href="#m67d4e64d7c" x="136.163092" y="135.649784" style="stroke: #000000"/>
     <use xlink:href="#m67d4e64d7c" x="222.090511" y="219.243777" style="stroke: #000000"/>
     <use xlink:href="#m67d4e64d7c" x="157.029064" y="147.971464" style="stroke: #000000"/>
     <use xlink:href="#m67d4e64d7c" x="121.459707" y="122.247419" style="stroke: #000000"/>
     <use xlink:href="#m67d4e64d7c" x="241.334956" y="249.100121" style="stroke: #000000"/>
     <use xlink:href="#m67d4e64d7c" x="241.256772" y="235.227105" style="stroke: #000000"/>
     <use xlink:href="#m67d4e64d7c" x="202.211325" y="198.521325" style="stroke: #000000"/>
     <use xlink:href="#m67d4e64d7c" x="188.089194" y="186.54883" style="stroke: #000000"/>
     <use xlink:href="#m67d4e64d7c" x="241.995566" y="242.219149" style="stroke: #000000"/>
     <use xlink:href="#m67d4e64d7c" x="251.983639" y="251.016321" style="stroke: #000000"/>
     <use xlink:href="#m67d4e64d7c" x="156.004161" y="155.080715" style="stroke: #000000"/>
     <use xlink:href="#m67d4e64d7c" x="157.273463" y="163.850317" style="stroke: #000000"/>
     <use xlink:href="#m67d4e64d7c" x="192.526258" y="196.224855" style="stroke: #000000"/>
     <use xlink:href="#m67d4e64d7c" x="192.024925" y="186.630206" style="stroke: #000000"/>
     <use xlink:href="#m67d4e64d7c" x="183.370373" y="183.972292" style="stroke: #000000"/>
     <use xlink:href="#m67d4e64d7c" x="203.849695" y="205.013425" style="stroke: #000000"/>
     <use xlink:href="#m67d4e64d7c" x="167.119652" y="168.557418" style="stroke: #000000"/>
     <use xlink:href="#m67d4e64d7c" x="194.438305" y="183.905924" style="stroke: #000000"/>
     <use xlink:href="#m67d4e64d7c" x="182.857516" y="179.978267" style="stroke: #000000"/>
     <use xlink:href="#m67d4e64d7c" x="195.726608" y="191.796081" style="stroke: #000000"/>
     <use xlink:href="#m67d4e64d7c" x="149.616675" y="145.288656" style="stroke: #000000"/>
     <use xlink:href="#m67d4e64d7c" x="182.480301" y="180.680231" style="stroke: #000000"/>
     <use xlink:href="#m67d4e64d7c" x="230.783828" y="230.784371" style="stroke: #000000"/>
     <use xlink:href="#m67d4e64d7c" x="243.379449" y="244.504484" style="stroke: #000000"/>
     <use xlink:href="#m67d4e64d7c" x="264.445166" y="253.652797" style="stroke: #000000"/>
     <use xlink:href="#m67d4e64d7c" x="243.621166" y="244.407287" style="stroke: #000000"/>
     <use xlink:href="#m67d4e64d7c" x="144.381789" y="140.444962" style="stroke: #000000"/>
     <use xlink:href="#m67d4e64d7c" x="209.671571" y="209.55076" style="stroke: #000000"/>
     <use xlink:href="#m67d4e64d7c" x="225.343468" y="219.342387" style="stroke: #000000"/>
     <use xlink:href="#m67d4e64d7c" x="161.506342" y="165.289165" style="stroke: #000000"/>
     <use xlink:href="#m67d4e64d7c" x="237.170707" y="231.43749" style="stroke: #000000"/>
     <use xlink:href="#m67d4e64d7c" x="146.6835" y="142.867667" style="stroke: #000000"/>
     <use xlink:href="#m67d4e64d7c" x="134.191934" y="135.744221" style="stroke: #000000"/>
     <use xlink:href="#m67d4e64d7c" x="145.788243" y="142.088271" style="stroke: #000000"/>
     <use xlink:href="#m67d4e64d7c" x="190.058287" y="189.641173" style="stroke: #000000"/>
     <use xlink:href="#m67d4e64d7c" x="178.335894" y="183.513626" style="stroke: #000000"/>
     <use xlink:href="#m67d4e64d7c" x="213.995721" y="215.838949" style="stroke: #000000"/>
     <use xlink:href="#m67d4e64d7c" x="174.348125" y="174.365574" style="stroke: #000000"/>
     <use xlink:href="#m67d4e64d7c" x="242.56581" y="239.645897" style="stroke: #000000"/>
     <use xlink:href="#m67d4e64d7c" x="191.451903" y="182.176571" style="stroke: #000000"/>
     <use xlink:href="#m67d4e64d7c" x="132.201619" y="132.701572" style="stroke: #000000"/>
     <use xlink:href="#m67d4e64d7c" x="215.917068" y="211.469124" style="stroke: #000000"/>
     <use xlink:href="#m67d4e64d7c" x="152.968259" y="154.309951" style="stroke: #000000"/>
     <use xlink:href="#m67d4e64d7c" x="221.744588" y="218.401611" style="stroke: #000000"/>
     <use xlink:href="#m67d4e64d7c" x="161.536339" y="164.462652" style="stroke: #000000"/>
     <use xlink:href="#m67d4e64d7c" x="164.761759" y="162.905757" style="stroke: #000000"/>
     <use xlink:href="#m67d4e64d7c" x="241.001883" y="236.54209" style="stroke: #000000"/>
     <use xlink:href="#m67d4e64d7c" x="189.561052" y="187.224808" style="stroke: #000000"/>
     <use xlink:href="#m67d4e64d7c" x="214.193232" y="209.096339" style="stroke: #000000"/>
     <use xlink:href="#m67d4e64d7c" x="183.085345" y="181.654499" style="stroke: #000000"/>
     <use xlink:href="#m67d4e64d7c" x="229.042237" y="229.296738" style="stroke: #000000"/>
     <use xlink:href="#m67d4e64d7c" x="201.242313" y="200.35267" style="stroke: #000000"/>
     <use xlink:href="#m67d4e64d7c" x="261.164807" y="263.26103" style="stroke: #000000"/>
     <use xlink:href="#m67d4e64d7c" x="180.090724" y="175.718284" style="stroke: #000000"/>
     <use xlink:href="#m67d4e64d7c" x="184.591376" y="183.894016" style="stroke: #000000"/>
     <use xlink:href="#m67d4e64d7c" x="140.282672" y="140.671758" style="stroke: #000000"/>
     <use xlink:href="#m67d4e64d7c" x="205.698779" y="205.927394" style="stroke: #000000"/>
     <use xlink:href="#m67d4e64d7c" x="204.668122" y="204.720397" style="stroke: #000000"/>
     <use xlink:href="#m67d4e64d7c" x="200.001266" y="199.551236" style="stroke: #000000"/>
     <use xlink:href="#m67d4e64d7c" x="163.098654" y="160.317401" style="stroke: #000000"/>
     <use xlink:href="#m67d4e64d7c" x="136.420249" y="131.909771" style="stroke: #000000"/>
     <use xlink:href="#m67d4e64d7c" x="151.070619" y="152.204689" style="stroke: #000000"/>
     <use xlink:href="#m67d4e64d7c" x="190.122137" y="195.241068" style="stroke: #000000"/>
     <use xlink:href="#m67d4e64d7c" x="258.148384" y="246.120921" style="stroke: #000000"/>
     <use xlink:href="#m67d4e64d7c" x="227.717325" y="228.674075" style="stroke: #000000"/>
     <use xlink:href="#m67d4e64d7c" x="185.9004" y="182.777482" style="stroke: #000000"/>
     <use xlink:href="#m67d4e64d7c" x="126.888212" y="128.695509" style="stroke: #000000"/>
     <use xlink:href="#m67d4e64d7c" x="194.785363" y="192.469879" style="stroke: #000000"/>
     <use xlink:href="#m67d4e64d7c" x="191.978739" y="188.360951" style="stroke: #000000"/>
     <use xlink:href="#m67d4e64d7c" x="205.787081" y="208.146885" style="stroke: #000000"/>
     <use xlink:href="#m67d4e64d7c" x="242.924938" y="243.438466" style="stroke: #000000"/>
     <use xlink:href="#m67d4e64d7c" x="225.402235" y="229.574019" style="stroke: #000000"/>
     <use xlink:href="#m67d4e64d7c" x="179.711701" y="180.054787" style="stroke: #000000"/>
     <use xlink:href="#m67d4e64d7c" x="244.034812" y="243.035799" style="stroke: #000000"/>
     <use xlink:href="#m67d4e64d7c" x="217.839729" y="220.761635" style="stroke: #000000"/>
     <use xlink:href="#m67d4e64d7c" x="254.356464" y="254.898962" style="stroke: #000000"/>
     <use xlink:href="#m67d4e64d7c" x="212.627514" y="215.255184" style="stroke: #000000"/>
     <use xlink:href="#m67d4e64d7c" x="199.291491" y="189.716084" style="stroke: #000000"/>
     <use xlink:href="#m67d4e64d7c" x="121.798832" y="130.426446" style="stroke: #000000"/>
     <use xlink:href="#m67d4e64d7c" x="166.141245" y="175.672371" style="stroke: #000000"/>
     <use xlink:href="#m67d4e64d7c" x="235.203998" y="236.403303" style="stroke: #000000"/>
     <use xlink:href="#m67d4e64d7c" x="176.54258" y="173.514776" style="stroke: #000000"/>
     <use xlink:href="#m67d4e64d7c" x="208.000366" y="208.188426" style="stroke: #000000"/>
     <use xlink:href="#m67d4e64d7c" x="233.931756" y="231.764184" style="stroke: #000000"/>
     <use xlink:href="#m67d4e64d7c" x="202.302005" y="204.777674" style="stroke: #000000"/>
     <use xlink:href="#m67d4e64d7c" x="83.341205" y="80.495719" style="stroke: #000000"/>
     <use xlink:href="#m67d4e64d7c" x="196.239788" y="195.174792" style="stroke: #000000"/>
     <use xlink:href="#m67d4e64d7c" x="211.261844" y="209.751107" style="stroke: #000000"/>
     <use xlink:href="#m67d4e64d7c" x="174.935774" y="169.344065" style="stroke: #000000"/>
     <use xlink:href="#m67d4e64d7c" x="164.525063" y="162.899078" style="stroke: #000000"/>
     <use xlink:href="#m67d4e64d7c" x="137.856548" y="145.56259" style="stroke: #000000"/>
     <use xlink:href="#m67d4e64d7c" x="183.565661" y="184.57788" style="stroke: #000000"/>
     <use xlink:href="#m67d4e64d7c" x="156.835972" y="159.696854" style="stroke: #000000"/>
     <use xlink:href="#m67d4e64d7c" x="157.85766" y="160.207556" style="stroke: #000000"/>
     <use xlink:href="#m67d4e64d7c" x="250.421551" y="248.907802" style="stroke: #000000"/>
     <use xlink:href="#m67d4e64d7c" x="232.610858" y="233.664082" style="stroke: #000000"/>
     <use xlink:href="#m67d4e64d7c" x="57.681818" y="55.8" style="stroke: #000000"/>
     <use xlink:href="#m67d4e64d7c" x="218.876283" y="222.354364" style="stroke: #000000"/>
     <use xlink:href="#m67d4e64d7c" x="291.047086" y="279.856749" style="stroke: #000000"/>
     <use xlink:href="#m67d4e64d7c" x="135.853113" y="128.59264" style="stroke: #000000"/>
     <use xlink:href="#m67d4e64d7c" x="192.507425" y="197.2425" style="stroke: #000000"/>
     <use xlink:href="#m67d4e64d7c" x="228.413345" y="233.221797" style="stroke: #000000"/>
     <use xlink:href="#m67d4e64d7c" x="161.280819" y="161.324791" style="stroke: #000000"/>
     <use xlink:href="#m67d4e64d7c" x="192.291456" y="189.393387" style="stroke: #000000"/>
     <use xlink:href="#m67d4e64d7c" x="187.035667" y="187.499389" style="stroke: #000000"/>
     <use xlink:href="#m67d4e64d7c" x="191.090774" y="189.690578" style="stroke: #000000"/>
     <use xlink:href="#m67d4e64d7c" x="277.518522" y="271.682924" style="stroke: #000000"/>
     <use xlink:href="#m67d4e64d7c" x="216.521416" y="213.957193" style="stroke: #000000"/>
     <use xlink:href="#m67d4e64d7c" x="188.740573" y="190.388132" style="stroke: #000000"/>
     <use xlink:href="#m67d4e64d7c" x="132.740228" y="130.218017" style="stroke: #000000"/>
     <use xlink:href="#m67d4e64d7c" x="163.146714" y="155.583115" style="stroke: #000000"/>
     <use xlink:href="#m67d4e64d7c" x="157.809949" y="155.978041" style="stroke: #000000"/>
     <use xlink:href="#m67d4e64d7c" x="133.276722" y="127.181015" style="stroke: #000000"/>
     <use xlink:href="#m67d4e64d7c" x="138.932578" y="138.134226" style="stroke: #000000"/>
     <use xlink:href="#m67d4e64d7c" x="133.713216" y="134.952415" style="stroke: #000000"/>
     <use xlink:href="#m67d4e64d7c" x="171.10827" y="167.334883" style="stroke: #000000"/>
     <use xlink:href="#m67d4e64d7c" x="222.591621" y="217.195614" style="stroke: #000000"/>
     <use xlink:href="#m67d4e64d7c" x="139.967633" y="133.985523" style="stroke: #000000"/>
     <use xlink:href="#m67d4e64d7c" x="278.808282" y="270.42004" style="stroke: #000000"/>
     <use xlink:href="#m67d4e64d7c" x="311.318182" y="307.8" style="stroke: #000000"/>
     <use xlink:href="#m67d4e64d7c" x="225.942863" y="232.271216" style="stroke: #000000"/>
     <use xlink:href="#m67d4e64d7c" x="157.648698" y="157.045988" style="stroke: #000000"/>
     <use xlink:href="#m67d4e64d7c" x="147.122172" y="146.487196" style="stroke: #000000"/>
     <use xlink:href="#m67d4e64d7c" x="203.227963" y="202.250775" style="stroke: #000000"/>
     <use xlink:href="#m67d4e64d7c" x="201.79846" y="202.506282" style="stroke: #000000"/>
     <use xlink:href="#m67d4e64d7c" x="282.068417" y="279.282296" style="stroke: #000000"/>
     <use xlink:href="#m67d4e64d7c" x="199.101701" y="196.039428" style="stroke: #000000"/>
     <use xlink:href="#m67d4e64d7c" x="255.674417" y="248.325191" style="stroke: #000000"/>
     <use xlink:href="#m67d4e64d7c" x="265.082021" y="262.303681" style="stroke: #000000"/>
     <use xlink:href="#m67d4e64d7c" x="161.629502" y="156.400183" style="stroke: #000000"/>
     <use xlink:href="#m67d4e64d7c" x="152.5977" y="156.64248" style="stroke: #000000"/>
     <use xlink:href="#m67d4e64d7c" x="201.789417" y="205.124752" style="stroke: #000000"/>
     <use xlink:href="#m67d4e64d7c" x="240.400575" y="234.518909" style="stroke: #000000"/>
     <use xlink:href="#m67d4e64d7c" x="168.566239" y="168.865334" style="stroke: #000000"/>
     <use xlink:href="#m67d4e64d7c" x="196.154361" y="197.958797" style="stroke: #000000"/>
     <use xlink:href="#m67d4e64d7c" x="162.870831" y="161.758441" style="stroke: #000000"/>
     <use xlink:href="#m67d4e64d7c" x="177.202391" y="177.957775" style="stroke: #000000"/>
     <use xlink:href="#m67d4e64d7c" x="266.587416" y="267.012798" style="stroke: #000000"/>
     <use xlink:href="#m67d4e64d7c" x="161.939183" y="163.182563" style="stroke: #000000"/>
     <use xlink:href="#m67d4e64d7c" x="237.49774" y="228.407334" style="stroke: #000000"/>
     <use xlink:href="#m67d4e64d7c" x="160.647852" y="162.240199" style="stroke: #000000"/>
     <use xlink:href="#m67d4e64d7c" x="245.408242" y="247.790655" style="stroke: #000000"/>
     <use xlink:href="#m67d4e64d7c" x="231.875689" y="230.281547" style="stroke: #000000"/>
     <use xlink:href="#m67d4e64d7c" x="220.051698" y="218.307995" style="stroke: #000000"/>
     <use xlink:href="#m67d4e64d7c" x="178.083507" y="179.905257" style="stroke: #000000"/>
     <use xlink:href="#m67d4e64d7c" x="171.427544" y="170.46318" style="stroke: #000000"/>
     <use xlink:href="#m67d4e64d7c" x="257.644445" y="256.399585" style="stroke: #000000"/>
     <use xlink:href="#m67d4e64d7c" x="229.174591" y="230.000334" style="stroke: #000000"/>
     <use xlink:href="#m67d4e64d7c" x="144.764425" y="140.908581" style="stroke: #000000"/>
     <use xlink:href="#m67d4e64d7c" x="187.072767" y="187.262762" style="stroke: #000000"/>
     <use xlink:href="#m67d4e64d7c" x="253.156215" y="244.262138" style="stroke: #000000"/>
     <use xlink:href="#m67d4e64d7c" x="176.911816" y="174.590419" style="stroke: #000000"/>
     <use xlink:href="#m67d4e64d7c" x="184.452164" y="184.955852" style="stroke: #000000"/>
     <use xlink:href="#m67d4e64d7c" x="256.781109" y="246.966316" style="stroke: #000000"/>
     <use xlink:href="#m67d4e64d7c" x="138.185027" y="136.229763" style="stroke: #000000"/>
     <use xlink:href="#m67d4e64d7c" x="152.540394" y="152.248049" style="stroke: #000000"/>
     <use xlink:href="#m67d4e64d7c" x="218.757922" y="210.012426" style="stroke: #000000"/>
     <use xlink:href="#m67d4e64d7c" x="217.6815" y="212.389201" style="stroke: #000000"/>
     <use xlink:href="#m67d4e64d7c" x="243.5607" y="241.055353" style="stroke: #000000"/>
     <use xlink:href="#m67d4e64d7c" x="173.263327" y="172.131418" style="stroke: #000000"/>
     <use xlink:href="#m67d4e64d7c" x="219.051449" y="215.167838" style="stroke: #000000"/>
     <use xlink:href="#m67d4e64d7c" x="195.31909" y="194.788041" style="stroke: #000000"/>
     <use xlink:href="#m67d4e64d7c" x="159.890897" y="158.74591" style="stroke: #000000"/>
     <use xlink:href="#m67d4e64d7c" x="227.105901" y="231.303142" style="stroke: #000000"/>
     <use xlink:href="#m67d4e64d7c" x="218.186202" y="214.39421" style="stroke: #000000"/>
     <use xlink:href="#m67d4e64d7c" x="180.617749" y="186.833848" style="stroke: #000000"/>
     <use xlink:href="#m67d4e64d7c" x="262.108926" y="266.789646" style="stroke: #000000"/>
     <use xlink:href="#m67d4e64d7c" x="179.495708" y="182.538542" style="stroke: #000000"/>
     <use xlink:href="#m67d4e64d7c" x="250.697823" y="249.803538" style="stroke: #000000"/>
     <use xlink:href="#m67d4e64d7c" x="184.87448" y="176.516356" style="stroke: #000000"/>
     <use xlink:href="#m67d4e64d7c" x="173.625069" y="177.376725" style="stroke: #000000"/>
     <use xlink:href="#m67d4e64d7c" x="200.097016" y="198.629208" style="stroke: #000000"/>
     <use xlink:href="#m67d4e64d7c" x="233.203234" y="229.40484" style="stroke: #000000"/>
     <use xlink:href="#m67d4e64d7c" x="271.389729" y="264.83276" style="stroke: #000000"/>
     <use xlink:href="#m67d4e64d7c" x="168.82663" y="165.482414" style="stroke: #000000"/>
     <use xlink:href="#m67d4e64d7c" x="209.167776" y="210.731849" style="stroke: #000000"/>
     <use xlink:href="#m67d4e64d7c" x="217.675094" y="217.41392" style="stroke: #000000"/>
     <use xlink:href="#m67d4e64d7c" x="225.002953" y="220.72447" style="stroke: #000000"/>
     <use xlink:href="#m67d4e64d7c" x="181.556099" y="182.710732" style="stroke: #000000"/>
     <use xlink:href="#m67d4e64d7c" x="237.286169" y="236.632684" style="stroke: #000000"/>
     <use xlink:href="#m67d4e64d7c" x="154.988315" y="149.271805" style="stroke: #000000"/>
     <use xlink:href="#m67d4e64d7c" x="155.902249" y="157.831438" style="stroke: #000000"/>
     <use xlink:href="#m67d4e64d7c" x="289.235672" y="279.098666" style="stroke: #000000"/>
     <use xlink:href="#m67d4e64d7c" x="291.440112" y="280.557256" style="stroke: #000000"/>
     <use xlink:href="#m67d4e64d7c" x="117.037145" y="115.85948" style="stroke: #000000"/>
     <use xlink:href="#m67d4e64d7c" x="183.749019" y="173.8243" style="stroke: #000000"/>
     <use xlink:href="#m67d4e64d7c" x="217.912628" y="210.463018" style="stroke: #000000"/>
     <use xlink:href="#m67d4e64d7c" x="218.459939" y="215.560521" style="stroke: #000000"/>
     <use xlink:href="#m67d4e64d7c" x="170.016412" y="169.057575" style="stroke: #000000"/>
     <use xlink:href="#m67d4e64d7c" x="263.10411" y="257.606527" style="stroke: #000000"/>
     <use xlink:href="#m67d4e64d7c" x="193.996558" y="182.374522" style="stroke: #000000"/>
     <use xlink:href="#m67d4e64d7c" x="189.926345" y="188.534575" style="stroke: #000000"/>
     <use xlink:href="#m67d4e64d7c" x="206.993836" y="198.264747" style="stroke: #000000"/>
     <use xlink:href="#m67d4e64d7c" x="148.215221" y="149.584499" style="stroke: #000000"/>
     <use xlink:href="#m67d4e64d7c" x="158.176123" y="157.221669" style="stroke: #000000"/>
     <use xlink:href="#m67d4e64d7c" x="178.470696" y="176.39176" style="stroke: #000000"/>
     <use xlink:href="#m67d4e64d7c" x="180.518524" y="180.252547" style="stroke: #000000"/>
     <use xlink:href="#m67d4e64d7c" x="164.053331" y="166.37539" style="stroke: #000000"/>
     <use xlink:href="#m67d4e64d7c" x="210.335755" y="204.434755" style="stroke: #000000"/>
     <use xlink:href="#m67d4e64d7c" x="115.139877" y="114.051707" style="stroke: #000000"/>
     <use xlink:href="#m67d4e64d7c" x="217.967484" y="216.043473" style="stroke: #000000"/>
     <use xlink:href="#m67d4e64d7c" x="180.648492" y="173.353887" style="stroke: #000000"/>
     <use xlink:href="#m67d4e64d7c" x="162.959304" y="160.452911" style="stroke: #000000"/>
     <use xlink:href="#m67d4e64d7c" x="173.369802" y="171.054263" style="stroke: #000000"/>
     <use xlink:href="#m67d4e64d7c" x="158.081477" y="156.500167" style="stroke: #000000"/>
     <use xlink:href="#m67d4e64d7c" x="128.996477" y="130.874457" style="stroke: #000000"/>
     <use xlink:href="#m67d4e64d7c" x="159.198293" y="163.300773" style="stroke: #000000"/>
     <use xlink:href="#m67d4e64d7c" x="307.173341" y="303.084381" style="stroke: #000000"/>
     <use xlink:href="#m67d4e64d7c" x="230.231106" y="228.557108" style="stroke: #000000"/>
     <use xlink:href="#m67d4e64d7c" x="239.772329" y="239.477957" style="stroke: #000000"/>
     <use xlink:href="#m67d4e64d7c" x="207.536899" y="208.27493" style="stroke: #000000"/>
     <use xlink:href="#m67d4e64d7c" x="235.986912" y="234.065141" style="stroke: #000000"/>
     <use xlink:href="#m67d4e64d7c" x="176.748142" y="163.75563" style="stroke: #000000"/>
     <use xlink:href="#m67d4e64d7c" x="193.645293" y="193.917707" style="stroke: #000000"/>
     <use xlink:href="#m67d4e64d7c" x="148.011457" y="143.343522" style="stroke: #000000"/>
     <use xlink:href="#m67d4e64d7c" x="193.959938" y="190.036538" style="stroke: #000000"/>
     <use xlink:href="#m67d4e64d7c" x="200.121534" y="199.640919" style="stroke: #000000"/>
     <use xlink:href="#m67d4e64d7c" x="248.172758" y="240.884791" style="stroke: #000000"/>
     <use xlink:href="#m67d4e64d7c" x="223.313663" y="221.94483" style="stroke: #000000"/>
     <use xlink:href="#m67d4e64d7c" x="151.177819" y="154.08359" style="stroke: #000000"/>
     <use xlink:href="#m67d4e64d7c" x="213.570761" y="217.687824" style="stroke: #000000"/>
     <use xlink:href="#m67d4e64d7c" x="201.47963" y="197.781853" style="stroke: #000000"/>
     <use xlink:href="#m67d4e64d7c" x="166.760745" y="162.842558" style="stroke: #000000"/>
     <use xlink:href="#m67d4e64d7c" x="167.249193" y="165.695274" style="stroke: #000000"/>
     <use xlink:href="#m67d4e64d7c" x="203.855213" y="197.240803" style="stroke: #000000"/>
     <use xlink:href="#m67d4e64d7c" x="215.940844" y="209.085993" style="stroke: #000000"/>
     <use xlink:href="#m67d4e64d7c" x="222.952911" y="220.900112" style="stroke: #000000"/>
     <use xlink:href="#m67d4e64d7c" x="243.104798" y="243.116051" style="stroke: #000000"/>
     <use xlink:href="#m67d4e64d7c" x="228.771164" y="232.167563" style="stroke: #000000"/>
     <use xlink:href="#m67d4e64d7c" x="196.498906" y="197.726055" style="stroke: #000000"/>
     <use xlink:href="#m67d4e64d7c" x="208.38147" y="206.604679" style="stroke: #000000"/>
     <use xlink:href="#m67d4e64d7c" x="169.784298" y="178.958466" style="stroke: #000000"/>
     <use xlink:href="#m67d4e64d7c" x="219.89141" y="218.493191" style="stroke: #000000"/>
     <use xlink:href="#m67d4e64d7c" x="190.873222" y="192.325864" style="stroke: #000000"/>
     <use xlink:href="#m67d4e64d7c" x="238.987259" y="229.929499" style="stroke: #000000"/>
     <use xlink:href="#m67d4e64d7c" x="166.801154" y="174.799046" style="stroke: #000000"/>
     <use xlink:href="#m67d4e64d7c" x="262.039752" y="262.481195" style="stroke: #000000"/>
     <use xlink:href="#m67d4e64d7c" x="229.513409" y="223.935017" style="stroke: #000000"/>
     <use xlink:href="#m67d4e64d7c" x="219.564738" y="219.087779" style="stroke: #000000"/>
     <use xlink:href="#m67d4e64d7c" x="142.24512" y="140.513541" style="stroke: #000000"/>
     <use xlink:href="#m67d4e64d7c" x="221.094188" y="213.782664" style="stroke: #000000"/>
     <use xlink:href="#m67d4e64d7c" x="196.628677" y="189.765325" style="stroke: #000000"/>
     <use xlink:href="#m67d4e64d7c" x="192.979015" y="190.42259" style="stroke: #000000"/>
     <use xlink:href="#m67d4e64d7c" x="147.382414" y="147.827949" style="stroke: #000000"/>
     <use xlink:href="#m67d4e64d7c" x="195.214873" y="191.160421" style="stroke: #000000"/>
     <use xlink:href="#m67d4e64d7c" x="186.365566" y="185.386644" style="stroke: #000000"/>
     <use xlink:href="#m67d4e64d7c" x="150.633668" y="150.557392" style="stroke: #000000"/>
     <use xlink:href="#m67d4e64d7c" x="154.745626" y="154.635524" style="stroke: #000000"/>
     <use xlink:href="#m67d4e64d7c" x="215.315161" y="220.001735" style="stroke: #000000"/>
     <use xlink:href="#m67d4e64d7c" x="188.801737" y="193.593359" style="stroke: #000000"/>
     <use xlink:href="#m67d4e64d7c" x="227.050161" y="225.864235" style="stroke: #000000"/>
     <use xlink:href="#m67d4e64d7c" x="223.51018" y="221.801797" style="stroke: #000000"/>
     <use xlink:href="#m67d4e64d7c" x="228.123052" y="221.469563" style="stroke: #000000"/>
     <use xlink:href="#m67d4e64d7c" x="182.88029" y="185.523511" style="stroke: #000000"/>
     <use xlink:href="#m67d4e64d7c" x="150.435153" y="157.690504" style="stroke: #000000"/>
     <use xlink:href="#m67d4e64d7c" x="164.145192" y="162.064648" style="stroke: #000000"/>
     <use xlink:href="#m67d4e64d7c" x="136.624414" y="139.079977" style="stroke: #000000"/>
     <use xlink:href="#m67d4e64d7c" x="167.956935" y="171.847014" style="stroke: #000000"/>
     <use xlink:href="#m67d4e64d7c" x="240.318111" y="244.179922" style="stroke: #000000"/>
     <use xlink:href="#m67d4e64d7c" x="181.732572" y="181.229507" style="stroke: #000000"/>
     <use xlink:href="#m67d4e64d7c" x="218.829387" y="215.145011" style="stroke: #000000"/>
     <use xlink:href="#m67d4e64d7c" x="246.844072" y="243.104764" style="stroke: #000000"/>
     <use xlink:href="#m67d4e64d7c" x="304.316028" y="304.397248" style="stroke: #000000"/>
     <use xlink:href="#m67d4e64d7c" x="257.117553" y="256.575909" style="stroke: #000000"/>
    </g>
   </g>
   <g id="matplotlib.axis_1">
    <g id="xtick_1">
     <g id="line2d_1">
      <defs>
       <path id="m4915c5198a" d="M 0 0 
L 0 3.5 
" style="stroke: #000000; stroke-width: 0.8"/>
      </defs>
      <g>
       <use xlink:href="#m4915c5198a" x="56.648494" y="320.4" style="stroke: #000000; stroke-width: 0.8"/>
      </g>
     </g>
     <g id="text_1">
      <!-- −30 -->
      <g transform="translate(48.072712 334.998438) scale(0.1 -0.1)">
       <defs>
        <path id="OpenSans-Regular-2212" d="M 322 2044 
L 322 2469 
L 3331 2469 
L 3331 2044 
L 322 2044 
z
" transform="scale(0.015625)"/>
        <path id="OpenSans-Regular-33" d="M 3141 3503 
Q 3141 3197 3022 2972 
Q 2903 2747 2690 2605 
Q 2478 2463 2191 2406 
L 2191 2381 
Q 2734 2313 3007 2031 
Q 3281 1750 3281 1294 
Q 3281 897 3095 590 
Q 2909 284 2526 110 
Q 2144 -63 1547 -63 
Q 1184 -63 876 -5 
Q 569 53 288 188 
L 288 675 
Q 572 534 906 454 
Q 1241 375 1553 375 
Q 2178 375 2456 623 
Q 2734 872 2734 1303 
Q 2734 1600 2579 1783 
Q 2425 1966 2136 2052 
Q 1847 2138 1441 2138 
L 984 2138 
L 984 2581 
L 1444 2581 
Q 1816 2581 2075 2690 
Q 2334 2800 2470 2998 
Q 2606 3197 2606 3469 
Q 2606 3816 2375 4005 
Q 2144 4194 1747 4194 
Q 1503 4194 1303 4144 
Q 1103 4094 928 4006 
Q 753 3919 578 3803 
L 316 4159 
Q 566 4353 925 4493 
Q 1284 4634 1741 4634 
Q 2441 4634 2791 4315 
Q 3141 3997 3141 3503 
z
" transform="scale(0.015625)"/>
        <path id="OpenSans-Regular-30" d="M 3334 2291 
Q 3334 1734 3250 1296 
Q 3166 859 2984 556 
Q 2803 253 2515 95 
Q 2228 -63 1825 -63 
Q 1316 -63 983 215 
Q 650 494 486 1020 
Q 322 1547 322 2291 
Q 322 3022 470 3548 
Q 619 4075 950 4358 
Q 1281 4641 1825 4641 
Q 2341 4641 2675 4361 
Q 3009 4081 3171 3554 
Q 3334 3028 3334 2291 
z
M 844 2291 
Q 844 1653 941 1228 
Q 1038 803 1255 592 
Q 1472 381 1825 381 
Q 2178 381 2395 590 
Q 2613 800 2711 1225 
Q 2809 1650 2809 2291 
Q 2809 2919 2712 3342 
Q 2616 3766 2400 3980 
Q 2184 4194 1825 4194 
Q 1466 4194 1250 3980 
Q 1034 3766 939 3342 
Q 844 2919 844 2291 
z
" transform="scale(0.015625)"/>
       </defs>
       <use xlink:href="#OpenSans-Regular-2212"/>
       <use xlink:href="#OpenSans-Regular-33" x="57.177734"/>
       <use xlink:href="#OpenSans-Regular-30" x="114.355469"/>
      </g>
     </g>
    </g>
    <g id="xtick_2">
     <g id="line2d_2">
      <g>
       <use xlink:href="#m4915c5198a" x="98.860093" y="320.4" style="stroke: #000000; stroke-width: 0.8"/>
      </g>
     </g>
     <g id="text_2">
      <!-- −20 -->
      <g transform="translate(90.284312 334.998438) scale(0.1 -0.1)">
       <defs>
        <path id="OpenSans-Regular-32" d="M 3309 0 
L 316 0 
L 316 434 
L 1538 1675 
Q 1878 2019 2111 2287 
Q 2344 2556 2466 2817 
Q 2588 3078 2588 3391 
Q 2588 3778 2358 3983 
Q 2128 4188 1753 4188 
Q 1425 4188 1172 4075 
Q 919 3963 653 3756 
L 375 4106 
Q 556 4259 770 4378 
Q 984 4497 1229 4565 
Q 1475 4634 1753 4634 
Q 2175 4634 2481 4487 
Q 2788 4341 2955 4069 
Q 3122 3797 3122 3422 
Q 3122 3059 2978 2748 
Q 2834 2438 2575 2133 
Q 2316 1828 1969 1488 
L 975 497 
L 975 475 
L 3309 475 
L 3309 0 
z
" transform="scale(0.015625)"/>
       </defs>
       <use xlink:href="#OpenSans-Regular-2212"/>
       <use xlink:href="#OpenSans-Regular-32" x="57.177734"/>
       <use xlink:href="#OpenSans-Regular-30" x="114.355469"/>
      </g>
     </g>
    </g>
    <g id="xtick_3">
     <g id="line2d_3">
      <g>
       <use xlink:href="#m4915c5198a" x="141.071693" y="320.4" style="stroke: #000000; stroke-width: 0.8"/>
      </g>
     </g>
     <g id="text_3">
      <!-- −10 -->
      <g transform="translate(132.495911 334.998438) scale(0.1 -0.1)">
       <defs>
        <path id="OpenSans-Regular-31" d="M 2247 0 
L 1741 0 
L 1741 3238 
Q 1741 3422 1742 3555 
Q 1744 3688 1748 3798 
Q 1753 3909 1763 4025 
Q 1666 3925 1581 3854 
Q 1497 3784 1372 3681 
L 850 3263 
L 578 3616 
L 1816 4569 
L 2247 4569 
L 2247 0 
z
" transform="scale(0.015625)"/>
       </defs>
       <use xlink:href="#OpenSans-Regular-2212"/>
       <use xlink:href="#OpenSans-Regular-31" x="57.177734"/>
       <use xlink:href="#OpenSans-Regular-30" x="114.355469"/>
      </g>
     </g>
    </g>
    <g id="xtick_4">
     <g id="line2d_4">
      <g>
       <use xlink:href="#m4915c5198a" x="183.283292" y="320.4" style="stroke: #000000; stroke-width: 0.8"/>
      </g>
     </g>
     <g id="text_4">
      <!-- 0 -->
      <g transform="translate(180.424698 334.998438) scale(0.1 -0.1)">
       <use xlink:href="#OpenSans-Regular-30"/>
      </g>
     </g>
    </g>
    <g id="xtick_5">
     <g id="line2d_5">
      <g>
       <use xlink:href="#m4915c5198a" x="225.494891" y="320.4" style="stroke: #000000; stroke-width: 0.8"/>
      </g>
     </g>
     <g id="text_5">
      <!-- 10 -->
      <g transform="translate(219.777704 334.998438) scale(0.1 -0.1)">
       <use xlink:href="#OpenSans-Regular-31"/>
       <use xlink:href="#OpenSans-Regular-30" x="57.177734"/>
      </g>
     </g>
    </g>
    <g id="xtick_6">
     <g id="line2d_6">
      <g>
       <use xlink:href="#m4915c5198a" x="267.706491" y="320.4" style="stroke: #000000; stroke-width: 0.8"/>
      </g>
     </g>
     <g id="text_6">
      <!-- 20 -->
      <g transform="translate(261.989303 334.998438) scale(0.1 -0.1)">
       <use xlink:href="#OpenSans-Regular-32"/>
       <use xlink:href="#OpenSans-Regular-30" x="57.177734"/>
      </g>
     </g>
    </g>
    <g id="xtick_7">
     <g id="line2d_7">
      <g>
       <use xlink:href="#m4915c5198a" x="309.91809" y="320.4" style="stroke: #000000; stroke-width: 0.8"/>
      </g>
     </g>
     <g id="text_7">
      <!-- 30 -->
      <g transform="translate(304.200903 334.998438) scale(0.1 -0.1)">
       <use xlink:href="#OpenSans-Regular-33"/>
       <use xlink:href="#OpenSans-Regular-30" x="57.177734"/>
      </g>
     </g>
    </g>
    <g id="text_8">
     <!-- x -->
     <g transform="translate(181.882812 348.989062) scale(0.1 -0.1)">
      <defs>
       <path id="OpenSans-Regular-78" d="M 1363 1753 
L 178 3425 
L 772 3425 
L 1675 2106 
L 2575 3425 
L 3163 3425 
L 1978 1753 
L 3228 0 
L 2634 0 
L 1675 1397 
L 709 0 
L 122 0 
L 1363 1753 
z
" transform="scale(0.015625)"/>
      </defs>
      <use xlink:href="#OpenSans-Regular-78"/>
     </g>
    </g>
   </g>
   <g id="matplotlib.axis_2">
    <g id="ytick_1">
     <g id="line2d_8">
      <defs>
       <path id="medd3c15b7a" d="M 0 0 
L -3.5 0 
" style="stroke: #000000; stroke-width: 0.8"/>
      </defs>
      <g>
       <use xlink:href="#medd3c15b7a" x="45" y="307.051311" style="stroke: #000000; stroke-width: 0.8"/>
      </g>
     </g>
     <g id="text_9">
      <!-- −20 -->
      <g transform="translate(20.848437 310.85053) scale(0.1 -0.1)">
       <use xlink:href="#OpenSans-Regular-2212"/>
       <use xlink:href="#OpenSans-Regular-32" x="57.177734"/>
       <use xlink:href="#OpenSans-Regular-30" x="114.355469"/>
      </g>
     </g>
    </g>
    <g id="ytick_2">
     <g id="line2d_9">
      <g>
       <use xlink:href="#medd3c15b7a" x="45" y="263.820584" style="stroke: #000000; stroke-width: 0.8"/>
      </g>
     </g>
     <g id="text_10">
      <!-- −10 -->
      <g transform="translate(20.848437 267.619803) scale(0.1 -0.1)">
       <use xlink:href="#OpenSans-Regular-2212"/>
       <use xlink:href="#OpenSans-Regular-31" x="57.177734"/>
       <use xlink:href="#OpenSans-Regular-30" x="114.355469"/>
      </g>
     </g>
    </g>
    <g id="ytick_3">
     <g id="line2d_10">
      <g>
       <use xlink:href="#medd3c15b7a" x="45" y="220.589856" style="stroke: #000000; stroke-width: 0.8"/>
      </g>
     </g>
     <g id="text_11">
      <!-- 0 -->
      <g transform="translate(32.282812 224.389075) scale(0.1 -0.1)">
       <use xlink:href="#OpenSans-Regular-30"/>
      </g>
     </g>
    </g>
    <g id="ytick_4">
     <g id="line2d_11">
      <g>
       <use xlink:href="#medd3c15b7a" x="45" y="177.359129" style="stroke: #000000; stroke-width: 0.8"/>
      </g>
     </g>
     <g id="text_12">
      <!-- 10 -->
      <g transform="translate(26.565625 181.158348) scale(0.1 -0.1)">
       <use xlink:href="#OpenSans-Regular-31"/>
       <use xlink:href="#OpenSans-Regular-30" x="57.177734"/>
      </g>
     </g>
    </g>
    <g id="ytick_5">
     <g id="line2d_12">
      <g>
       <use xlink:href="#medd3c15b7a" x="45" y="134.128402" style="stroke: #000000; stroke-width: 0.8"/>
      </g>
     </g>
     <g id="text_13">
      <!-- 20 -->
      <g transform="translate(26.565625 137.92762) scale(0.1 -0.1)">
       <use xlink:href="#OpenSans-Regular-32"/>
       <use xlink:href="#OpenSans-Regular-30" x="57.177734"/>
      </g>
     </g>
    </g>
    <g id="ytick_6">
     <g id="line2d_13">
      <g>
       <use xlink:href="#medd3c15b7a" x="45" y="90.897674" style="stroke: #000000; stroke-width: 0.8"/>
      </g>
     </g>
     <g id="text_14">
      <!-- 30 -->
      <g transform="translate(26.565625 94.696893) scale(0.1 -0.1)">
       <use xlink:href="#OpenSans-Regular-33"/>
       <use xlink:href="#OpenSans-Regular-30" x="57.177734"/>
      </g>
     </g>
    </g>
    <g id="ytick_7">
     <g id="line2d_14">
      <g>
       <use xlink:href="#medd3c15b7a" x="45" y="47.666947" style="stroke: #000000; stroke-width: 0.8"/>
      </g>
     </g>
     <g id="text_15">
      <!-- 40 -->
      <g transform="translate(26.565625 51.466166) scale(0.1 -0.1)">
       <defs>
        <path id="OpenSans-Regular-34" d="M 3538 1059 
L 2853 1059 
L 2853 0 
L 2347 0 
L 2347 1059 
L 138 1059 
L 138 1497 
L 2313 4594 
L 2853 4594 
L 2853 1528 
L 3538 1528 
L 3538 1059 
z
M 2347 1528 
L 2347 3022 
Q 2347 3194 2350 3333 
Q 2353 3472 2359 3592 
Q 2366 3713 2370 3822 
Q 2375 3931 2378 4038 
L 2353 4038 
Q 2294 3913 2217 3773 
Q 2141 3634 2063 3525 
L 653 1528 
L 2347 1528 
z
" transform="scale(0.015625)"/>
       </defs>
       <use xlink:href="#OpenSans-Regular-34"/>
       <use xlink:href="#OpenSans-Regular-30" x="57.177734"/>
      </g>
     </g>
    </g>
    <g id="text_16">
     <!-- y -->
     <g transform="translate(14.440625 184.304687) rotate(-90) scale(0.1 -0.1)">
      <defs>
       <path id="OpenSans-Regular-79" d="M 6 3425 
L 563 3425 
L 1319 1438 
Q 1384 1263 1440 1102 
Q 1497 941 1540 794 
Q 1584 647 1609 509 
L 1631 509 
Q 1675 666 1756 920 
Q 1838 1175 1931 1441 
L 2647 3425 
L 3206 3425 
L 1716 -503 
Q 1597 -819 1439 -1053 
Q 1281 -1288 1056 -1414 
Q 831 -1541 513 -1541 
Q 366 -1541 253 -1523 
Q 141 -1506 59 -1484 
L 59 -1069 
Q 128 -1084 226 -1096 
Q 325 -1109 431 -1109 
Q 625 -1109 767 -1036 
Q 909 -963 1012 -822 
Q 1116 -681 1191 -488 
L 1378 -6 
L 6 3425 
z
" transform="scale(0.015625)"/>
      </defs>
      <use xlink:href="#OpenSans-Regular-79"/>
     </g>
    </g>
   </g>
   <g id="patch_3">
    <path d="M 45 320.4 
L 45 43.2 
" style="fill: none; stroke: #000000; stroke-width: 0.8; stroke-linejoin: miter; stroke-linecap: square"/>
   </g>
   <g id="patch_4">
    <path d="M 324 320.4 
L 324 43.2 
" style="fill: none; stroke: #000000; stroke-width: 0.8; stroke-linejoin: miter; stroke-linecap: square"/>
   </g>
   <g id="patch_5">
    <path d="M 45 320.4 
L 324 320.4 
" style="fill: none; stroke: #000000; stroke-width: 0.8; stroke-linejoin: miter; stroke-linecap: square"/>
   </g>
   <g id="patch_6">
    <path d="M 45 43.2 
L 324 43.2 
" style="fill: none; stroke: #000000; stroke-width: 0.8; stroke-linejoin: miter; stroke-linecap: square"/>
   </g>
   <g id="text_17">
    <!-- Точечная диаграмма -->
    <g transform="translate(122.59875 37.2) scale(0.12 -0.12)">
     <defs>
      <path id="OpenSans-Regular-422" d="M 2028 0 
L 1494 0 
L 1494 4100 
L 56 4100 
L 56 4569 
L 3459 4569 
L 3459 4100 
L 2028 4100 
L 2028 0 
z
" transform="scale(0.015625)"/>
      <path id="OpenSans-Regular-43e" d="M 3500 1719 
Q 3500 1297 3390 965 
Q 3281 634 3075 406 
Q 2869 178 2576 57 
Q 2284 -63 1916 -63 
Q 1572 -63 1286 57 
Q 1000 178 792 406 
Q 584 634 470 965 
Q 356 1297 356 1719 
Q 356 2281 547 2676 
Q 738 3072 1092 3280 
Q 1447 3488 1938 3488 
Q 2406 3488 2757 3278 
Q 3109 3069 3304 2673 
Q 3500 2278 3500 1719 
z
M 894 1719 
Q 894 1306 1003 1003 
Q 1113 700 1341 534 
Q 1569 369 1928 369 
Q 2284 369 2514 534 
Q 2744 700 2853 1003 
Q 2963 1306 2963 1719 
Q 2963 2128 2853 2426 
Q 2744 2725 2516 2887 
Q 2288 3050 1925 3050 
Q 1391 3050 1142 2697 
Q 894 2344 894 1719 
z
" transform="scale(0.015625)"/>
      <path id="OpenSans-Regular-447" d="M 1000 3425 
L 1000 2194 
Q 1000 1872 1176 1719 
Q 1353 1566 1691 1566 
Q 2016 1566 2281 1666 
Q 2547 1766 2819 1938 
L 2819 3425 
L 3338 3425 
L 3338 0 
L 2819 0 
L 2819 1534 
Q 2531 1350 2253 1244 
Q 1975 1138 1588 1138 
Q 1059 1138 770 1413 
Q 481 1688 481 2156 
L 481 3425 
L 1000 3425 
z
" transform="scale(0.015625)"/>
      <path id="OpenSans-Regular-435" d="M 1866 3488 
Q 2303 3488 2615 3294 
Q 2928 3100 3093 2751 
Q 3259 2403 3259 1938 
L 3259 1616 
L 894 1616 
Q 903 1013 1193 697 
Q 1484 381 2013 381 
Q 2338 381 2588 440 
Q 2838 500 3106 616 
L 3106 159 
Q 2847 44 2592 -9 
Q 2338 -63 1991 -63 
Q 1497 -63 1130 139 
Q 763 341 559 731 
Q 356 1122 356 1688 
Q 356 2241 542 2645 
Q 728 3050 1067 3269 
Q 1406 3488 1866 3488 
z
M 1859 3063 
Q 1444 3063 1197 2791 
Q 950 2519 903 2031 
L 2716 2031 
Q 2713 2338 2620 2570 
Q 2528 2803 2340 2933 
Q 2153 3063 1859 3063 
z
" transform="scale(0.015625)"/>
      <path id="OpenSans-Regular-43d" d="M 1069 3425 
L 1069 1988 
L 2978 1988 
L 2978 3425 
L 3497 3425 
L 3497 0 
L 2978 0 
L 2978 1547 
L 1069 1547 
L 1069 0 
L 547 0 
L 547 3425 
L 1069 3425 
z
" transform="scale(0.015625)"/>
      <path id="OpenSans-Regular-430" d="M 1828 3481 
Q 2441 3481 2737 3206 
Q 3034 2931 3034 2328 
L 3034 0 
L 2656 0 
L 2556 506 
L 2531 506 
Q 2388 319 2231 192 
Q 2075 66 1870 1 
Q 1666 -63 1369 -63 
Q 1056 -63 814 46 
Q 572 156 433 378 
Q 294 600 294 941 
Q 294 1453 700 1728 
Q 1106 2003 1938 2028 
L 2528 2053 
L 2528 2263 
Q 2528 2706 2337 2884 
Q 2147 3063 1800 3063 
Q 1531 3063 1287 2984 
Q 1044 2906 825 2800 
L 666 3194 
Q 897 3313 1197 3397 
Q 1497 3481 1828 3481 
z
M 2522 1688 
L 2000 1666 
Q 1359 1641 1096 1456 
Q 834 1272 834 934 
Q 834 641 1012 500 
Q 1191 359 1484 359 
Q 1941 359 2231 612 
Q 2522 866 2522 1372 
L 2522 1688 
z
" transform="scale(0.015625)"/>
      <path id="OpenSans-Regular-44f" d="M 713 0 
L 106 0 
L 1094 1444 
Q 878 1491 693 1605 
Q 509 1719 395 1919 
Q 281 2119 281 2416 
Q 281 2909 611 3167 
Q 941 3425 1481 3425 
L 2997 3425 
L 2997 0 
L 2478 0 
L 2478 1375 
L 1609 1375 
L 713 0 
z
M 784 2413 
Q 784 2106 1003 1957 
Q 1222 1809 1628 1809 
L 2478 1809 
L 2478 2991 
L 1538 2991 
Q 1138 2991 961 2830 
Q 784 2669 784 2413 
z
" transform="scale(0.015625)"/>
      <path id="OpenSans-Regular-20" transform="scale(0.015625)"/>
      <path id="OpenSans-Regular-434" d="M 3056 3425 
L 3056 441 
L 3547 441 
L 3547 -1184 
L 3044 -1184 
L 3044 0 
L 619 0 
L 619 -1184 
L 122 -1184 
L 122 441 
L 391 441 
Q 684 847 878 1331 
Q 1072 1816 1172 2348 
Q 1272 2881 1278 3425 
L 3056 3425 
z
M 2553 3013 
L 1741 3013 
Q 1713 2556 1608 2084 
Q 1503 1613 1331 1186 
Q 1159 759 931 441 
L 2553 441 
L 2553 3013 
z
" transform="scale(0.015625)"/>
      <path id="OpenSans-Regular-438" d="M 1041 3425 
L 1041 1272 
Q 1041 1209 1037 1111 
Q 1034 1013 1028 902 
Q 1022 791 1017 689 
Q 1013 588 1006 522 
L 2875 3425 
L 3513 3425 
L 3513 0 
L 3028 0 
L 3028 2100 
Q 3028 2200 3031 2356 
Q 3034 2513 3040 2664 
Q 3047 2816 3050 2900 
L 1188 0 
L 547 0 
L 547 3425 
L 1041 3425 
z
" transform="scale(0.015625)"/>
      <path id="OpenSans-Regular-433" d="M 2625 3425 
L 2625 2984 
L 1069 2984 
L 1069 0 
L 547 0 
L 547 3425 
L 2625 3425 
z
" transform="scale(0.015625)"/>
      <path id="OpenSans-Regular-440" d="M 2156 3488 
Q 2797 3488 3178 3047 
Q 3559 2606 3559 1722 
Q 3559 1138 3384 741 
Q 3209 344 2892 140 
Q 2575 -63 2144 -63 
Q 1872 -63 1665 9 
Q 1459 81 1312 203 
Q 1166 325 1069 469 
L 1031 469 
Q 1041 347 1055 175 
Q 1069 3 1069 -125 
L 1069 -1531 
L 547 -1531 
L 547 3425 
L 975 3425 
L 1044 2919 
L 1069 2919 
Q 1169 3075 1312 3204 
Q 1456 3334 1664 3411 
Q 1872 3488 2156 3488 
z
M 2066 3050 
Q 1709 3050 1492 2912 
Q 1275 2775 1175 2501 
Q 1075 2228 1069 1816 
L 1069 1716 
Q 1069 1281 1164 981 
Q 1259 681 1479 525 
Q 1700 369 2072 369 
Q 2391 369 2603 541 
Q 2816 713 2920 1020 
Q 3025 1328 3025 1728 
Q 3025 2334 2789 2692 
Q 2553 3050 2066 3050 
z
" transform="scale(0.015625)"/>
      <path id="OpenSans-Regular-43c" d="M 4163 3425 
L 4163 0 
L 3694 0 
L 3694 2231 
Q 3694 2369 3701 2511 
Q 3709 2653 3722 2797 
L 3703 2797 
L 2566 0 
L 2125 0 
L 1016 2797 
L 997 2797 
Q 1006 2653 1011 2511 
Q 1016 2369 1016 2213 
L 1016 0 
L 544 0 
L 544 3425 
L 1241 3425 
L 2347 625 
L 3469 3425 
L 4163 3425 
z
" transform="scale(0.015625)"/>
     </defs>
     <use xlink:href="#OpenSans-Regular-422"/>
     <use xlink:href="#OpenSans-Regular-43e" x="55.078125"/>
     <use xlink:href="#OpenSans-Regular-447" x="115.234375"/>
     <use xlink:href="#OpenSans-Regular-435" x="175.927734"/>
     <use xlink:href="#OpenSans-Regular-447" x="232.080078"/>
     <use xlink:href="#OpenSans-Regular-43d" x="292.773438"/>
     <use xlink:href="#OpenSans-Regular-430" x="356.054688"/>
     <use xlink:href="#OpenSans-Regular-44f" x="411.621094"/>
     <use xlink:href="#OpenSans-Regular-20" x="466.992188"/>
     <use xlink:href="#OpenSans-Regular-434" x="492.96875"/>
     <use xlink:href="#OpenSans-Regular-438" x="550.439453"/>
     <use xlink:href="#OpenSans-Regular-430" x="614.013672"/>
     <use xlink:href="#OpenSans-Regular-433" x="669.580078"/>
     <use xlink:href="#OpenSans-Regular-440" x="712.695312"/>
     <use xlink:href="#OpenSans-Regular-430" x="773.876953"/>
     <use xlink:href="#OpenSans-Regular-43c" x="829.443359"/>
     <use xlink:href="#OpenSans-Regular-43c" x="902.783203"/>
     <use xlink:href="#OpenSans-Regular-430" x="976.123047"/>
    </g>
   </g>
  </g>
 </g>
 <defs>
  <clipPath id="pbe436e3705">
   <rect x="45" y="43.2" width="279" height="277.2"/>
  </clipPath>
 </defs>
</svg>
