<?xml version="1.0" encoding="utf-8" standalone="no"?>
<!DOCTYPE svg PUBLIC "-//W3C//DTD SVG 1.1//EN"
  "http://www.w3.org/Graphics/SVG/1.1/DTD/svg11.dtd">
<svg xmlns:xlink="http://www.w3.org/1999/xlink" width="360pt" height="360pt" viewBox="0 0 360 360" xmlns="http://www.w3.org/2000/svg" version="1.1">
 <metadata>
  <rdf:RDF xmlns:dc="http://purl.org/dc/elements/1.1/" xmlns:cc="http://creativecommons.org/ns#" xmlns:rdf="http://www.w3.org/1999/02/22-rdf-syntax-ns#">
   <cc:Work>
    <dc:type rdf:resource="http://purl.org/dc/dcmitype/StillImage"/>
    <dc:date>2023-11-21T18:53:15.776442</dc:date>
    <dc:format>image/svg+xml</dc:format>
    <dc:creator>
     <cc:Agent>
      <dc:title>Matplotlib v3.8.0, https://matplotlib.org/</dc:title>
     </cc:Agent>
    </dc:creator>
   </cc:Work>
  </rdf:RDF>
 </metadata>
 <defs>
  <style type="text/css">*{stroke-linejoin: round; stroke-linecap: butt}</style>
 </defs>
 <g id="figure_1">
  <g id="patch_1">
   <path d="M 0 360 
L 360 360 
L 360 0 
L 0 0 
z
" style="fill: #ffffff"/>
  </g>
  <g id="axes_1">
   <g id="patch_2">
    <path d="M 45 320.4 
L 324 320.4 
L 324 43.2 
L 45 43.2 
z
" style="fill: #ffffff"/>
   </g>
   <g id="PathCollection_1">
    <defs>
     <path id="mb630c2f07d" d="M 0 1.870829 
C 0.49615 1.870829 0.972045 1.673706 1.322876 1.322876 
C 1.673706 0.972045 1.870829 0.49615 1.870829 0 
C 1.870829 -0.49615 1.673706 -0.972045 1.322876 -1.322876 
C 0.972045 -1.673706 0.49615 -1.870829 0 -1.870829 
C -0.49615 -1.870829 -0.972045 -1.673706 -1.322876 -1.322876 
C -1.673706 -0.972045 -1.870829 -0.49615 -1.870829 0 
C -1.870829 0.49615 -1.673706 0.972045 -1.322876 1.322876 
C -0.972045 1.673706 -0.49615 1.870829 0 1.870829 
z
" style="stroke: #000000"/>
    </defs>
    <g clip-path="url(#pb296326256)">
     <use xlink:href="#mb630c2f07d" x="220.708074" y="254.635086" style="stroke: #000000"/>
     <use xlink:href="#mb630c2f07d" x="158.013353" y="252.779081" style="stroke: #000000"/>
     <use xlink:href="#mb630c2f07d" x="183.527773" y="271.020361" style="stroke: #000000"/>
     <use xlink:href="#mb630c2f07d" x="140.790248" y="236.644748" style="stroke: #000000"/>
     <use xlink:href="#mb630c2f07d" x="67.135503" y="89.192655" style="stroke: #000000"/>
     <use xlink:href="#mb630c2f07d" x="162.806202" y="237.318426" style="stroke: #000000"/>
     <use xlink:href="#mb630c2f07d" x="166.714614" y="259.449007" style="stroke: #000000"/>
     <use xlink:href="#mb630c2f07d" x="254.314514" y="171.62035" style="stroke: #000000"/>
     <use xlink:href="#mb630c2f07d" x="207.954477" y="289.613046" style="stroke: #000000"/>
     <use xlink:href="#mb630c2f07d" x="171.732891" y="243.395116" style="stroke: #000000"/>
     <use xlink:href="#mb630c2f07d" x="225.444403" y="249.934652" style="stroke: #000000"/>
     <use xlink:href="#mb630c2f07d" x="66.269691" y="110.62264" style="stroke: #000000"/>
     <use xlink:href="#mb630c2f07d" x="218.635884" y="231.529924" style="stroke: #000000"/>
     <use xlink:href="#mb630c2f07d" x="215.534086" y="242.068955" style="stroke: #000000"/>
     <use xlink:href="#mb630c2f07d" x="182.51571" y="260.647163" style="stroke: #000000"/>
     <use xlink:href="#mb630c2f07d" x="184.843213" y="282.418808" style="stroke: #000000"/>
     <use xlink:href="#mb630c2f07d" x="174.387664" y="248.406332" style="stroke: #000000"/>
     <use xlink:href="#mb630c2f07d" x="175.444294" y="287.952021" style="stroke: #000000"/>
     <use xlink:href="#mb630c2f07d" x="206.077199" y="238.263018" style="stroke: #000000"/>
     <use xlink:href="#mb630c2f07d" x="217.487588" y="248.630616" style="stroke: #000000"/>
     <use xlink:href="#mb630c2f07d" x="220.606462" y="249.508601" style="stroke: #000000"/>
     <use xlink:href="#mb630c2f07d" x="191.471834" y="253.080262" style="stroke: #000000"/>
     <use xlink:href="#mb630c2f07d" x="155.035965" y="238.645947" style="stroke: #000000"/>
     <use xlink:href="#mb630c2f07d" x="103.736891" y="184.927597" style="stroke: #000000"/>
     <use xlink:href="#mb630c2f07d" x="158.706511" y="243.612541" style="stroke: #000000"/>
     <use xlink:href="#mb630c2f07d" x="190.053346" y="252.505599" style="stroke: #000000"/>
     <use xlink:href="#mb630c2f07d" x="214.109406" y="246.534172" style="stroke: #000000"/>
     <use xlink:href="#mb630c2f07d" x="225.427235" y="255.96672" style="stroke: #000000"/>
     <use xlink:href="#mb630c2f07d" x="124.260138" y="185.832125" style="stroke: #000000"/>
     <use xlink:href="#mb630c2f07d" x="122.517882" y="211.350048" style="stroke: #000000"/>
     <use xlink:href="#mb630c2f07d" x="150.606485" y="230.963251" style="stroke: #000000"/>
     <use xlink:href="#mb630c2f07d" x="214.523302" y="233.44044" style="stroke: #000000"/>
     <use xlink:href="#mb630c2f07d" x="148.742701" y="243.41102" style="stroke: #000000"/>
     <use xlink:href="#mb630c2f07d" x="180.264357" y="248.955772" style="stroke: #000000"/>
     <use xlink:href="#mb630c2f07d" x="177.15752" y="242.90716" style="stroke: #000000"/>
     <use xlink:href="#mb630c2f07d" x="185.573862" y="232.311719" style="stroke: #000000"/>
     <use xlink:href="#mb630c2f07d" x="176.992989" y="259.697189" style="stroke: #000000"/>
     <use xlink:href="#mb630c2f07d" x="182.63491" y="272.100654" style="stroke: #000000"/>
     <use xlink:href="#mb630c2f07d" x="170.490328" y="244.752171" style="stroke: #000000"/>
     <use xlink:href="#mb630c2f07d" x="230.063418" y="224.803125" style="stroke: #000000"/>
     <use xlink:href="#mb630c2f07d" x="183.791966" y="245.405353" style="stroke: #000000"/>
     <use xlink:href="#mb630c2f07d" x="218.964323" y="262.11011" style="stroke: #000000"/>
     <use xlink:href="#mb630c2f07d" x="177.1682" y="243.978884" style="stroke: #000000"/>
     <use xlink:href="#mb630c2f07d" x="116.26074" y="231.775943" style="stroke: #000000"/>
     <use xlink:href="#mb630c2f07d" x="184.367509" y="260.845509" style="stroke: #000000"/>
     <use xlink:href="#mb630c2f07d" x="112.814259" y="206.275726" style="stroke: #000000"/>
     <use xlink:href="#mb630c2f07d" x="210.506842" y="240.768411" style="stroke: #000000"/>
     <use xlink:href="#mb630c2f07d" x="168.512379" y="268.827693" style="stroke: #000000"/>
     <use xlink:href="#mb630c2f07d" x="245.7619" y="198.995427" style="stroke: #000000"/>
     <use xlink:href="#mb630c2f07d" x="203.269842" y="281.462523" style="stroke: #000000"/>
     <use xlink:href="#mb630c2f07d" x="160.458251" y="247.960138" style="stroke: #000000"/>
     <use xlink:href="#mb630c2f07d" x="200.368772" y="245.556917" style="stroke: #000000"/>
     <use xlink:href="#mb630c2f07d" x="238.768844" y="210.085587" style="stroke: #000000"/>
     <use xlink:href="#mb630c2f07d" x="173.161575" y="243.852342" style="stroke: #000000"/>
     <use xlink:href="#mb630c2f07d" x="145.590841" y="230.232053" style="stroke: #000000"/>
     <use xlink:href="#mb630c2f07d" x="254.156033" y="183.356711" style="stroke: #000000"/>
     <use xlink:href="#mb630c2f07d" x="190.223522" y="263.445498" style="stroke: #000000"/>
     <use xlink:href="#mb630c2f07d" x="153.499966" y="266.209919" style="stroke: #000000"/>
     <use xlink:href="#mb630c2f07d" x="272.645624" y="161.916526" style="stroke: #000000"/>
     <use xlink:href="#mb630c2f07d" x="158.018074" y="247.69224" style="stroke: #000000"/>
     <use xlink:href="#mb630c2f07d" x="183.688507" y="257.270309" style="stroke: #000000"/>
     <use xlink:href="#mb630c2f07d" x="240.398092" y="249.13416" style="stroke: #000000"/>
     <use xlink:href="#mb630c2f07d" x="135.985872" y="225.070789" style="stroke: #000000"/>
     <use xlink:href="#mb630c2f07d" x="131.181555" y="231.160127" style="stroke: #000000"/>
     <use xlink:href="#mb630c2f07d" x="198.453947" y="237.50736" style="stroke: #000000"/>
     <use xlink:href="#mb630c2f07d" x="166.787519" y="260.328592" style="stroke: #000000"/>
     <use xlink:href="#mb630c2f07d" x="188.749231" y="243.330946" style="stroke: #000000"/>
     <use xlink:href="#mb630c2f07d" x="172.80981" y="307.8" style="stroke: #000000"/>
     <use xlink:href="#mb630c2f07d" x="182.466507" y="261.030827" style="stroke: #000000"/>
     <use xlink:href="#mb630c2f07d" x="211.744754" y="241.867373" style="stroke: #000000"/>
     <use xlink:href="#mb630c2f07d" x="169.937031" y="246.075158" style="stroke: #000000"/>
     <use xlink:href="#mb630c2f07d" x="151.765603" y="243.992343" style="stroke: #000000"/>
     <use xlink:href="#mb630c2f07d" x="173.085197" y="249.122889" style="stroke: #000000"/>
     <use xlink:href="#mb630c2f07d" x="126.490648" y="213.995373" style="stroke: #000000"/>
     <use xlink:href="#mb630c2f07d" x="206.901371" y="250.308943" style="stroke: #000000"/>
     <use xlink:href="#mb630c2f07d" x="230.119458" y="213.827021" style="stroke: #000000"/>
     <use xlink:href="#mb630c2f07d" x="257.215071" y="204.817292" style="stroke: #000000"/>
     <use xlink:href="#mb630c2f07d" x="157.739285" y="235.115149" style="stroke: #000000"/>
     <use xlink:href="#mb630c2f07d" x="217.298026" y="248.745172" style="stroke: #000000"/>
     <use xlink:href="#mb630c2f07d" x="196.83778" y="279.023746" style="stroke: #000000"/>
     <use xlink:href="#mb630c2f07d" x="200.823022" y="255.421829" style="stroke: #000000"/>
     <use xlink:href="#mb630c2f07d" x="243.398162" y="215.487606" style="stroke: #000000"/>
     <use xlink:href="#mb630c2f07d" x="221.295407" y="243.767802" style="stroke: #000000"/>
     <use xlink:href="#mb630c2f07d" x="209.808762" y="258.60374" style="stroke: #000000"/>
     <use xlink:href="#mb630c2f07d" x="247.359444" y="218.741017" style="stroke: #000000"/>
     <use xlink:href="#mb630c2f07d" x="196.936653" y="218.166759" style="stroke: #000000"/>
     <use xlink:href="#mb630c2f07d" x="202.260658" y="272.763501" style="stroke: #000000"/>
     <use xlink:href="#mb630c2f07d" x="164.806484" y="247.961766" style="stroke: #000000"/>
     <use xlink:href="#mb630c2f07d" x="200.773371" y="264.950481" style="stroke: #000000"/>
     <use xlink:href="#mb630c2f07d" x="192.146683" y="231.755701" style="stroke: #000000"/>
     <use xlink:href="#mb630c2f07d" x="72.334696" y="119.245392" style="stroke: #000000"/>
     <use xlink:href="#mb630c2f07d" x="239.392538" y="186.629345" style="stroke: #000000"/>
     <use xlink:href="#mb630c2f07d" x="150.030323" y="268.782391" style="stroke: #000000"/>
     <use xlink:href="#mb630c2f07d" x="223.665174" y="268.779375" style="stroke: #000000"/>
     <use xlink:href="#mb630c2f07d" x="174.329172" y="244.401365" style="stroke: #000000"/>
     <use xlink:href="#mb630c2f07d" x="287.673454" y="131.952345" style="stroke: #000000"/>
     <use xlink:href="#mb630c2f07d" x="217.973507" y="238.286615" style="stroke: #000000"/>
     <use xlink:href="#mb630c2f07d" x="158.133791" y="255.365139" style="stroke: #000000"/>
     <use xlink:href="#mb630c2f07d" x="159.755177" y="256.856386" style="stroke: #000000"/>
     <use xlink:href="#mb630c2f07d" x="240.576344" y="227.937541" style="stroke: #000000"/>
     <use xlink:href="#mb630c2f07d" x="166.052184" y="246.486753" style="stroke: #000000"/>
     <use xlink:href="#mb630c2f07d" x="188.692485" y="276.015836" style="stroke: #000000"/>
     <use xlink:href="#mb630c2f07d" x="249.454082" y="217.358024" style="stroke: #000000"/>
     <use xlink:href="#mb630c2f07d" x="260.280195" y="188.788063" style="stroke: #000000"/>
     <use xlink:href="#mb630c2f07d" x="204.246155" y="277.67455" style="stroke: #000000"/>
     <use xlink:href="#mb630c2f07d" x="191.062022" y="247.334382" style="stroke: #000000"/>
     <use xlink:href="#mb630c2f07d" x="143.460176" y="258.73431" style="stroke: #000000"/>
     <use xlink:href="#mb630c2f07d" x="193.915154" y="252.59113" style="stroke: #000000"/>
     <use xlink:href="#mb630c2f07d" x="167.602098" y="226.741239" style="stroke: #000000"/>
     <use xlink:href="#mb630c2f07d" x="111.12563" y="211.158408" style="stroke: #000000"/>
     <use xlink:href="#mb630c2f07d" x="218.397767" y="237.023846" style="stroke: #000000"/>
     <use xlink:href="#mb630c2f07d" x="139.874332" y="244.275879" style="stroke: #000000"/>
     <use xlink:href="#mb630c2f07d" x="179.872615" y="263.184068" style="stroke: #000000"/>
     <use xlink:href="#mb630c2f07d" x="212.037893" y="304.130616" style="stroke: #000000"/>
     <use xlink:href="#mb630c2f07d" x="156.205175" y="216.771873" style="stroke: #000000"/>
     <use xlink:href="#mb630c2f07d" x="212.909282" y="270.213434" style="stroke: #000000"/>
     <use xlink:href="#mb630c2f07d" x="113.353465" y="165.606409" style="stroke: #000000"/>
     <use xlink:href="#mb630c2f07d" x="164.315869" y="268.382764" style="stroke: #000000"/>
     <use xlink:href="#mb630c2f07d" x="229.948274" y="246.214405" style="stroke: #000000"/>
     <use xlink:href="#mb630c2f07d" x="213.584381" y="227.729096" style="stroke: #000000"/>
     <use xlink:href="#mb630c2f07d" x="254.498415" y="203.529415" style="stroke: #000000"/>
     <use xlink:href="#mb630c2f07d" x="154.577094" y="270.018077" style="stroke: #000000"/>
     <use xlink:href="#mb630c2f07d" x="243.522291" y="195.375768" style="stroke: #000000"/>
     <use xlink:href="#mb630c2f07d" x="236.559831" y="233.646814" style="stroke: #000000"/>
     <use xlink:href="#mb630c2f07d" x="232.158798" y="242.986851" style="stroke: #000000"/>
     <use xlink:href="#mb630c2f07d" x="195.793262" y="264.813657" style="stroke: #000000"/>
     <use xlink:href="#mb630c2f07d" x="57.681818" y="85.692734" style="stroke: #000000"/>
     <use xlink:href="#mb630c2f07d" x="193.858655" y="257.992224" style="stroke: #000000"/>
     <use xlink:href="#mb630c2f07d" x="178.671042" y="235.753448" style="stroke: #000000"/>
     <use xlink:href="#mb630c2f07d" x="151.47545" y="243.194491" style="stroke: #000000"/>
     <use xlink:href="#mb630c2f07d" x="173.515731" y="262.538091" style="stroke: #000000"/>
     <use xlink:href="#mb630c2f07d" x="170.369974" y="225.366839" style="stroke: #000000"/>
     <use xlink:href="#mb630c2f07d" x="169.587304" y="250.483839" style="stroke: #000000"/>
     <use xlink:href="#mb630c2f07d" x="86.924318" y="141.957213" style="stroke: #000000"/>
     <use xlink:href="#mb630c2f07d" x="112.999142" y="193.867963" style="stroke: #000000"/>
     <use xlink:href="#mb630c2f07d" x="245.010418" y="183.429115" style="stroke: #000000"/>
     <use xlink:href="#mb630c2f07d" x="142.976186" y="206.089921" style="stroke: #000000"/>
     <use xlink:href="#mb630c2f07d" x="150.865248" y="235.841778" style="stroke: #000000"/>
     <use xlink:href="#mb630c2f07d" x="311.318182" y="55.8" style="stroke: #000000"/>
     <use xlink:href="#mb630c2f07d" x="199.868719" y="279.288547" style="stroke: #000000"/>
     <use xlink:href="#mb630c2f07d" x="188.779567" y="277.107174" style="stroke: #000000"/>
     <use xlink:href="#mb630c2f07d" x="203.676842" y="243.603198" style="stroke: #000000"/>
     <use xlink:href="#mb630c2f07d" x="133.661173" y="207.063577" style="stroke: #000000"/>
     <use xlink:href="#mb630c2f07d" x="158.533257" y="273.494954" style="stroke: #000000"/>
     <use xlink:href="#mb630c2f07d" x="273.98388" y="151.640191" style="stroke: #000000"/>
     <use xlink:href="#mb630c2f07d" x="134.488093" y="210.780978" style="stroke: #000000"/>
     <use xlink:href="#mb630c2f07d" x="124.881669" y="229.30487" style="stroke: #000000"/>
     <use xlink:href="#mb630c2f07d" x="143.093561" y="262.436771" style="stroke: #000000"/>
     <use xlink:href="#mb630c2f07d" x="142.268049" y="286.395225" style="stroke: #000000"/>
     <use xlink:href="#mb630c2f07d" x="244.159819" y="214.514897" style="stroke: #000000"/>
     <use xlink:href="#mb630c2f07d" x="167.411397" y="263.435585" style="stroke: #000000"/>
     <use xlink:href="#mb630c2f07d" x="122.349515" y="201.913073" style="stroke: #000000"/>
     <use xlink:href="#mb630c2f07d" x="252.811997" y="194.795552" style="stroke: #000000"/>
     <use xlink:href="#mb630c2f07d" x="116.5237" y="188.023514" style="stroke: #000000"/>
     <use xlink:href="#mb630c2f07d" x="155.119837" y="271.21052" style="stroke: #000000"/>
     <use xlink:href="#mb630c2f07d" x="250.856029" y="205.765849" style="stroke: #000000"/>
     <use xlink:href="#mb630c2f07d" x="96.439456" y="160.796494" style="stroke: #000000"/>
     <use xlink:href="#mb630c2f07d" x="203.732798" y="263.912029" style="stroke: #000000"/>
     <use xlink:href="#mb630c2f07d" x="175.857823" y="265.493532" style="stroke: #000000"/>
     <use xlink:href="#mb630c2f07d" x="137.466406" y="225.50573" style="stroke: #000000"/>
     <use xlink:href="#mb630c2f07d" x="243.895698" y="213.958114" style="stroke: #000000"/>
     <use xlink:href="#mb630c2f07d" x="256.783664" y="179.141952" style="stroke: #000000"/>
     <use xlink:href="#mb630c2f07d" x="194.031805" y="274.476915" style="stroke: #000000"/>
     <use xlink:href="#mb630c2f07d" x="248.459649" y="208.268331" style="stroke: #000000"/>
     <use xlink:href="#mb630c2f07d" x="211.866825" y="231.628791" style="stroke: #000000"/>
     <use xlink:href="#mb630c2f07d" x="163.293141" y="238.312386" style="stroke: #000000"/>
     <use xlink:href="#mb630c2f07d" x="163.713846" y="255.541235" style="stroke: #000000"/>
     <use xlink:href="#mb630c2f07d" x="135.213667" y="229.321124" style="stroke: #000000"/>
     <use xlink:href="#mb630c2f07d" x="186.817002" y="293.196542" style="stroke: #000000"/>
     <use xlink:href="#mb630c2f07d" x="85.437215" y="113.870679" style="stroke: #000000"/>
     <use xlink:href="#mb630c2f07d" x="126.582892" y="226.537368" style="stroke: #000000"/>
     <use xlink:href="#mb630c2f07d" x="161.188334" y="258.416547" style="stroke: #000000"/>
     <use xlink:href="#mb630c2f07d" x="168.811543" y="270.700489" style="stroke: #000000"/>
     <use xlink:href="#mb630c2f07d" x="279.337952" y="127.303261" style="stroke: #000000"/>
     <use xlink:href="#mb630c2f07d" x="252.651759" y="181.717522" style="stroke: #000000"/>
     <use xlink:href="#mb630c2f07d" x="208.543532" y="229.604863" style="stroke: #000000"/>
     <use xlink:href="#mb630c2f07d" x="257.495075" y="203.875795" style="stroke: #000000"/>
     <use xlink:href="#mb630c2f07d" x="214.267641" y="244.508187" style="stroke: #000000"/>
     <use xlink:href="#mb630c2f07d" x="155.767828" y="259.684795" style="stroke: #000000"/>
     <use xlink:href="#mb630c2f07d" x="173.309862" y="254.439847" style="stroke: #000000"/>
     <use xlink:href="#mb630c2f07d" x="204.924791" y="252.549991" style="stroke: #000000"/>
     <use xlink:href="#mb630c2f07d" x="188.861831" y="242.569349" style="stroke: #000000"/>
     <use xlink:href="#mb630c2f07d" x="171.351207" y="241.76831" style="stroke: #000000"/>
     <use xlink:href="#mb630c2f07d" x="233.417657" y="240.885391" style="stroke: #000000"/>
     <use xlink:href="#mb630c2f07d" x="210.376836" y="247.011666" style="stroke: #000000"/>
     <use xlink:href="#mb630c2f07d" x="173.214651" y="257.248589" style="stroke: #000000"/>
     <use xlink:href="#mb630c2f07d" x="96.00159" y="177.129152" style="stroke: #000000"/>
     <use xlink:href="#mb630c2f07d" x="213.843634" y="243.525152" style="stroke: #000000"/>
     <use xlink:href="#mb630c2f07d" x="124.901472" y="225.386975" style="stroke: #000000"/>
     <use xlink:href="#mb630c2f07d" x="96.102779" y="168.40878" style="stroke: #000000"/>
     <use xlink:href="#mb630c2f07d" x="133.445732" y="196.044866" style="stroke: #000000"/>
     <use xlink:href="#mb630c2f07d" x="161.436221" y="263.893686" style="stroke: #000000"/>
     <use xlink:href="#mb630c2f07d" x="169.144837" y="251.626629" style="stroke: #000000"/>
     <use xlink:href="#mb630c2f07d" x="168.537327" y="262.915359" style="stroke: #000000"/>
     <use xlink:href="#mb630c2f07d" x="111.81844" y="204.592177" style="stroke: #000000"/>
     <use xlink:href="#mb630c2f07d" x="217.02571" y="262.0753" style="stroke: #000000"/>
     <use xlink:href="#mb630c2f07d" x="158.911911" y="271.733328" style="stroke: #000000"/>
     <use xlink:href="#mb630c2f07d" x="174.022951" y="278.93072" style="stroke: #000000"/>
     <use xlink:href="#mb630c2f07d" x="239.283359" y="229.433839" style="stroke: #000000"/>
     <use xlink:href="#mb630c2f07d" x="204.767645" y="267.442806" style="stroke: #000000"/>
     <use xlink:href="#mb630c2f07d" x="93.091513" y="152.332866" style="stroke: #000000"/>
     <use xlink:href="#mb630c2f07d" x="227.214955" y="251.185441" style="stroke: #000000"/>
     <use xlink:href="#mb630c2f07d" x="167.692333" y="261.479422" style="stroke: #000000"/>
     <use xlink:href="#mb630c2f07d" x="165.035567" y="262.646759" style="stroke: #000000"/>
     <use xlink:href="#mb630c2f07d" x="254.056563" y="194.58736" style="stroke: #000000"/>
     <use xlink:href="#mb630c2f07d" x="147.780219" y="227.181892" style="stroke: #000000"/>
     <use xlink:href="#mb630c2f07d" x="213.368296" y="254.366314" style="stroke: #000000"/>
     <use xlink:href="#mb630c2f07d" x="72.138882" y="101.471497" style="stroke: #000000"/>
     <use xlink:href="#mb630c2f07d" x="209.049848" y="263.017552" style="stroke: #000000"/>
     <use xlink:href="#mb630c2f07d" x="193.293281" y="281.01827" style="stroke: #000000"/>
     <use xlink:href="#mb630c2f07d" x="205.21602" y="262.820301" style="stroke: #000000"/>
     <use xlink:href="#mb630c2f07d" x="164.150691" y="249.862771" style="stroke: #000000"/>
     <use xlink:href="#mb630c2f07d" x="240.64476" y="222.963229" style="stroke: #000000"/>
     <use xlink:href="#mb630c2f07d" x="104.777622" y="200.963473" style="stroke: #000000"/>
     <use xlink:href="#mb630c2f07d" x="259.734613" y="165.088686" style="stroke: #000000"/>
     <use xlink:href="#mb630c2f07d" x="118.353781" y="220.435924" style="stroke: #000000"/>
     <use xlink:href="#mb630c2f07d" x="267.765162" y="186.235574" style="stroke: #000000"/>
     <use xlink:href="#mb630c2f07d" x="249.187314" y="227.022224" style="stroke: #000000"/>
     <use xlink:href="#mb630c2f07d" x="116.2" y="191.2933" style="stroke: #000000"/>
     <use xlink:href="#mb630c2f07d" x="100.595826" y="191.451582" style="stroke: #000000"/>
     <use xlink:href="#mb630c2f07d" x="123.747771" y="206.153838" style="stroke: #000000"/>
     <use xlink:href="#mb630c2f07d" x="198.610004" y="289.839891" style="stroke: #000000"/>
     <use xlink:href="#mb630c2f07d" x="108.450114" y="204.748604" style="stroke: #000000"/>
     <use xlink:href="#mb630c2f07d" x="138.719346" y="224.825178" style="stroke: #000000"/>
     <use xlink:href="#mb630c2f07d" x="200.992064" y="255.720603" style="stroke: #000000"/>
     <use xlink:href="#mb630c2f07d" x="241.164375" y="220.793873" style="stroke: #000000"/>
     <use xlink:href="#mb630c2f07d" x="69.403659" y="131.659222" style="stroke: #000000"/>
     <use xlink:href="#mb630c2f07d" x="267.50164" y="156.546799" style="stroke: #000000"/>
     <use xlink:href="#mb630c2f07d" x="235.194631" y="222.389645" style="stroke: #000000"/>
     <use xlink:href="#mb630c2f07d" x="199.728979" y="262.632657" style="stroke: #000000"/>
     <use xlink:href="#mb630c2f07d" x="289.011546" y="124.360497" style="stroke: #000000"/>
     <use xlink:href="#mb630c2f07d" x="188.820689" y="254.710936" style="stroke: #000000"/>
     <use xlink:href="#mb630c2f07d" x="162.268527" y="247.003214" style="stroke: #000000"/>
     <use xlink:href="#mb630c2f07d" x="174.625461" y="246.823339" style="stroke: #000000"/>
     <use xlink:href="#mb630c2f07d" x="220.88782" y="252.324926" style="stroke: #000000"/>
     <use xlink:href="#mb630c2f07d" x="239.597372" y="227.299355" style="stroke: #000000"/>
     <use xlink:href="#mb630c2f07d" x="187.894103" y="255.475582" style="stroke: #000000"/>
     <use xlink:href="#mb630c2f07d" x="151.028726" y="243.428776" style="stroke: #000000"/>
     <use xlink:href="#mb630c2f07d" x="189.134057" y="271.868424" style="stroke: #000000"/>
     <use xlink:href="#mb630c2f07d" x="167.220576" y="248.904534" style="stroke: #000000"/>
     <use xlink:href="#mb630c2f07d" x="207.759134" y="258.560793" style="stroke: #000000"/>
     <use xlink:href="#mb630c2f07d" x="142.134053" y="257.904327" style="stroke: #000000"/>
     <use xlink:href="#mb630c2f07d" x="139.144347" y="206.326573" style="stroke: #000000"/>
     <use xlink:href="#mb630c2f07d" x="258.903071" y="197.92495" style="stroke: #000000"/>
     <use xlink:href="#mb630c2f07d" x="189.736167" y="243.495391" style="stroke: #000000"/>
     <use xlink:href="#mb630c2f07d" x="133.601296" y="239.057985" style="stroke: #000000"/>
     <use xlink:href="#mb630c2f07d" x="236.321184" y="225.751746" style="stroke: #000000"/>
     <use xlink:href="#mb630c2f07d" x="161.336849" y="242.105323" style="stroke: #000000"/>
     <use xlink:href="#mb630c2f07d" x="212.404495" y="249.345873" style="stroke: #000000"/>
     <use xlink:href="#mb630c2f07d" x="147.164302" y="239.89705" style="stroke: #000000"/>
     <use xlink:href="#mb630c2f07d" x="202.564576" y="275.853323" style="stroke: #000000"/>
     <use xlink:href="#mb630c2f07d" x="192.760691" y="245.468061" style="stroke: #000000"/>
     <use xlink:href="#mb630c2f07d" x="180.654833" y="267.243518" style="stroke: #000000"/>
     <use xlink:href="#mb630c2f07d" x="126.03171" y="223.12644" style="stroke: #000000"/>
     <use xlink:href="#mb630c2f07d" x="174.170133" y="253.533852" style="stroke: #000000"/>
     <use xlink:href="#mb630c2f07d" x="216.574566" y="234.391305" style="stroke: #000000"/>
     <use xlink:href="#mb630c2f07d" x="208.557666" y="264.399089" style="stroke: #000000"/>
     <use xlink:href="#mb630c2f07d" x="134.889871" y="224.908308" style="stroke: #000000"/>
     <use xlink:href="#mb630c2f07d" x="224.278749" y="238.118595" style="stroke: #000000"/>
     <use xlink:href="#mb630c2f07d" x="189.690773" y="269.16209" style="stroke: #000000"/>
     <use xlink:href="#mb630c2f07d" x="162.870976" y="251.528068" style="stroke: #000000"/>
     <use xlink:href="#mb630c2f07d" x="237.237608" y="219.832234" style="stroke: #000000"/>
     <use xlink:href="#mb630c2f07d" x="90.162026" y="107.734349" style="stroke: #000000"/>
     <use xlink:href="#mb630c2f07d" x="94.123079" y="187.711932" style="stroke: #000000"/>
     <use xlink:href="#mb630c2f07d" x="108.962621" y="200.515125" style="stroke: #000000"/>
     <use xlink:href="#mb630c2f07d" x="261.502643" y="189.919433" style="stroke: #000000"/>
     <use xlink:href="#mb630c2f07d" x="253.033194" y="223.026184" style="stroke: #000000"/>
     <use xlink:href="#mb630c2f07d" x="208.706314" y="253.258808" style="stroke: #000000"/>
     <use xlink:href="#mb630c2f07d" x="211.261614" y="241.010939" style="stroke: #000000"/>
     <use xlink:href="#mb630c2f07d" x="243.23688" y="228.577106" style="stroke: #000000"/>
     <use xlink:href="#mb630c2f07d" x="267.950777" y="164.393455" style="stroke: #000000"/>
     <use xlink:href="#mb630c2f07d" x="191.292925" y="253.968744" style="stroke: #000000"/>
     <use xlink:href="#mb630c2f07d" x="184.501474" y="239.919329" style="stroke: #000000"/>
     <use xlink:href="#mb630c2f07d" x="111.806243" y="190.446209" style="stroke: #000000"/>
     <use xlink:href="#mb630c2f07d" x="176.79532" y="260.07129" style="stroke: #000000"/>
     <use xlink:href="#mb630c2f07d" x="101.173751" y="171.958343" style="stroke: #000000"/>
     <use xlink:href="#mb630c2f07d" x="143.429739" y="236.794855" style="stroke: #000000"/>
     <use xlink:href="#mb630c2f07d" x="206.616056" y="238.007079" style="stroke: #000000"/>
     <use xlink:href="#mb630c2f07d" x="171.511145" y="253.263273" style="stroke: #000000"/>
     <use xlink:href="#mb630c2f07d" x="145.265878" y="237.538477" style="stroke: #000000"/>
     <use xlink:href="#mb630c2f07d" x="262.75266" y="198.515649" style="stroke: #000000"/>
     <use xlink:href="#mb630c2f07d" x="139.483577" y="219.052692" style="stroke: #000000"/>
     <use xlink:href="#mb630c2f07d" x="115.088731" y="199.172893" style="stroke: #000000"/>
     <use xlink:href="#mb630c2f07d" x="196.712379" y="251.657122" style="stroke: #000000"/>
     <use xlink:href="#mb630c2f07d" x="215.107763" y="275.147733" style="stroke: #000000"/>
     <use xlink:href="#mb630c2f07d" x="166.933076" y="256.21483" style="stroke: #000000"/>
     <use xlink:href="#mb630c2f07d" x="177.473468" y="278.438386" style="stroke: #000000"/>
     <use xlink:href="#mb630c2f07d" x="233.504639" y="213.911825" style="stroke: #000000"/>
     <use xlink:href="#mb630c2f07d" x="173.72776" y="268.305779" style="stroke: #000000"/>
     <use xlink:href="#mb630c2f07d" x="196.902031" y="281.263594" style="stroke: #000000"/>
     <use xlink:href="#mb630c2f07d" x="252.000029" y="204.437244" style="stroke: #000000"/>
     <use xlink:href="#mb630c2f07d" x="241.026389" y="196.821726" style="stroke: #000000"/>
     <use xlink:href="#mb630c2f07d" x="254.899438" y="214.681468" style="stroke: #000000"/>
     <use xlink:href="#mb630c2f07d" x="238.97879" y="200.720117" style="stroke: #000000"/>
     <use xlink:href="#mb630c2f07d" x="174.356408" y="260.159611" style="stroke: #000000"/>
     <use xlink:href="#mb630c2f07d" x="145.179493" y="267.398097" style="stroke: #000000"/>
     <use xlink:href="#mb630c2f07d" x="135.423975" y="215.936293" style="stroke: #000000"/>
     <use xlink:href="#mb630c2f07d" x="209.041391" y="253.481432" style="stroke: #000000"/>
     <use xlink:href="#mb630c2f07d" x="220.873603" y="256.916342" style="stroke: #000000"/>
     <use xlink:href="#mb630c2f07d" x="94.968993" y="177.596517" style="stroke: #000000"/>
    </g>
   </g>
   <g id="matplotlib.axis_1">
    <g id="xtick_1">
     <g id="line2d_1">
      <defs>
       <path id="mf0fbbf5cc5" d="M 0 0 
L 0 3.5 
" style="stroke: #000000; stroke-width: 0.8"/>
      </defs>
      <g>
       <use xlink:href="#mf0fbbf5cc5" x="69.154291" y="320.4" style="stroke: #000000; stroke-width: 0.8"/>
      </g>
     </g>
     <g id="text_1">
      <!-- −15 -->
      <g transform="translate(60.57851 334.998438) scale(0.1 -0.1)">
       <defs>
        <path id="OpenSans-Regular-2212" d="M 322 2044 
L 322 2469 
L 3331 2469 
L 3331 2044 
L 322 2044 
z
" transform="scale(0.015625)"/>
        <path id="OpenSans-Regular-31" d="M 2247 0 
L 1741 0 
L 1741 3238 
Q 1741 3422 1742 3555 
Q 1744 3688 1748 3798 
Q 1753 3909 1763 4025 
Q 1666 3925 1581 3854 
Q 1497 3784 1372 3681 
L 850 3263 
L 578 3616 
L 1816 4569 
L 2247 4569 
L 2247 0 
z
" transform="scale(0.015625)"/>
        <path id="OpenSans-Regular-35" d="M 1759 2794 
Q 2225 2794 2569 2636 
Q 2913 2478 3102 2178 
Q 3291 1878 3291 1450 
Q 3291 981 3087 642 
Q 2884 303 2503 120 
Q 2122 -63 1591 -63 
Q 1234 -63 928 0 
Q 622 63 413 188 
L 413 681 
Q 641 544 966 462 
Q 1291 381 1597 381 
Q 1944 381 2205 492 
Q 2466 603 2611 829 
Q 2756 1056 2756 1400 
Q 2756 1856 2476 2104 
Q 2197 2353 1594 2353 
Q 1400 2353 1169 2322 
Q 938 2291 788 2253 
L 525 2425 
L 700 4569 
L 2972 4569 
L 2972 4094 
L 1144 4094 
L 1028 2716 
Q 1147 2741 1334 2767 
Q 1522 2794 1759 2794 
z
" transform="scale(0.015625)"/>
       </defs>
       <use xlink:href="#OpenSans-Regular-2212"/>
       <use xlink:href="#OpenSans-Regular-31" x="57.177734"/>
       <use xlink:href="#OpenSans-Regular-35" x="114.355469"/>
      </g>
     </g>
    </g>
    <g id="xtick_2">
     <g id="line2d_2">
      <g>
       <use xlink:href="#mf0fbbf5cc5" x="107.344099" y="320.4" style="stroke: #000000; stroke-width: 0.8"/>
      </g>
     </g>
     <g id="text_2">
      <!-- −10 -->
      <g transform="translate(98.768318 334.998438) scale(0.1 -0.1)">
       <defs>
        <path id="OpenSans-Regular-30" d="M 3334 2291 
Q 3334 1734 3250 1296 
Q 3166 859 2984 556 
Q 2803 253 2515 95 
Q 2228 -63 1825 -63 
Q 1316 -63 983 215 
Q 650 494 486 1020 
Q 322 1547 322 2291 
Q 322 3022 470 3548 
Q 619 4075 950 4358 
Q 1281 4641 1825 4641 
Q 2341 4641 2675 4361 
Q 3009 4081 3171 3554 
Q 3334 3028 3334 2291 
z
M 844 2291 
Q 844 1653 941 1228 
Q 1038 803 1255 592 
Q 1472 381 1825 381 
Q 2178 381 2395 590 
Q 2613 800 2711 1225 
Q 2809 1650 2809 2291 
Q 2809 2919 2712 3342 
Q 2616 3766 2400 3980 
Q 2184 4194 1825 4194 
Q 1466 4194 1250 3980 
Q 1034 3766 939 3342 
Q 844 2919 844 2291 
z
" transform="scale(0.015625)"/>
       </defs>
       <use xlink:href="#OpenSans-Regular-2212"/>
       <use xlink:href="#OpenSans-Regular-31" x="57.177734"/>
       <use xlink:href="#OpenSans-Regular-30" x="114.355469"/>
      </g>
     </g>
    </g>
    <g id="xtick_3">
     <g id="line2d_3">
      <g>
       <use xlink:href="#mf0fbbf5cc5" x="145.533907" y="320.4" style="stroke: #000000; stroke-width: 0.8"/>
      </g>
     </g>
     <g id="text_3">
      <!-- −5 -->
      <g transform="translate(139.81672 334.998438) scale(0.1 -0.1)">
       <use xlink:href="#OpenSans-Regular-2212"/>
       <use xlink:href="#OpenSans-Regular-35" x="57.177734"/>
      </g>
     </g>
    </g>
    <g id="xtick_4">
     <g id="line2d_4">
      <g>
       <use xlink:href="#mf0fbbf5cc5" x="183.723715" y="320.4" style="stroke: #000000; stroke-width: 0.8"/>
      </g>
     </g>
     <g id="text_4">
      <!-- 0 -->
      <g transform="translate(180.865121 334.998438) scale(0.1 -0.1)">
       <use xlink:href="#OpenSans-Regular-30"/>
      </g>
     </g>
    </g>
    <g id="xtick_5">
     <g id="line2d_5">
      <g>
       <use xlink:href="#mf0fbbf5cc5" x="221.913523" y="320.4" style="stroke: #000000; stroke-width: 0.8"/>
      </g>
     </g>
     <g id="text_5">
      <!-- 5 -->
      <g transform="translate(219.054929 334.998438) scale(0.1 -0.1)">
       <use xlink:href="#OpenSans-Regular-35"/>
      </g>
     </g>
    </g>
    <g id="xtick_6">
     <g id="line2d_6">
      <g>
       <use xlink:href="#mf0fbbf5cc5" x="260.103331" y="320.4" style="stroke: #000000; stroke-width: 0.8"/>
      </g>
     </g>
     <g id="text_6">
      <!-- 10 -->
      <g transform="translate(254.386143 334.998438) scale(0.1 -0.1)">
       <use xlink:href="#OpenSans-Regular-31"/>
       <use xlink:href="#OpenSans-Regular-30" x="57.177734"/>
      </g>
     </g>
    </g>
    <g id="xtick_7">
     <g id="line2d_7">
      <g>
       <use xlink:href="#mf0fbbf5cc5" x="298.293139" y="320.4" style="stroke: #000000; stroke-width: 0.8"/>
      </g>
     </g>
     <g id="text_7">
      <!-- 15 -->
      <g transform="translate(292.575951 334.998438) scale(0.1 -0.1)">
       <use xlink:href="#OpenSans-Regular-31"/>
       <use xlink:href="#OpenSans-Regular-35" x="57.177734"/>
      </g>
     </g>
    </g>
    <g id="text_8">
     <!-- x -->
     <g transform="translate(181.882812 348.989062) scale(0.1 -0.1)">
      <defs>
       <path id="OpenSans-Regular-78" d="M 1363 1753 
L 178 3425 
L 772 3425 
L 1675 2106 
L 2575 3425 
L 3163 3425 
L 1978 1753 
L 3228 0 
L 2634 0 
L 1675 1397 
L 709 0 
L 122 0 
L 1363 1753 
z
" transform="scale(0.015625)"/>
      </defs>
      <use xlink:href="#OpenSans-Regular-78"/>
     </g>
    </g>
   </g>
   <g id="matplotlib.axis_2">
    <g id="ytick_1">
     <g id="line2d_8">
      <defs>
       <path id="m96dfcbedec" d="M 0 0 
L -3.5 0 
" style="stroke: #000000; stroke-width: 0.8"/>
      </defs>
      <g>
       <use xlink:href="#m96dfcbedec" x="45" y="293.390015" style="stroke: #000000; stroke-width: 0.8"/>
      </g>
     </g>
     <g id="text_9">
      <!-- −25 -->
      <g transform="translate(20.848437 297.189234) scale(0.1 -0.1)">
       <defs>
        <path id="OpenSans-Regular-32" d="M 3309 0 
L 316 0 
L 316 434 
L 1538 1675 
Q 1878 2019 2111 2287 
Q 2344 2556 2466 2817 
Q 2588 3078 2588 3391 
Q 2588 3778 2358 3983 
Q 2128 4188 1753 4188 
Q 1425 4188 1172 4075 
Q 919 3963 653 3756 
L 375 4106 
Q 556 4259 770 4378 
Q 984 4497 1229 4565 
Q 1475 4634 1753 4634 
Q 2175 4634 2481 4487 
Q 2788 4341 2955 4069 
Q 3122 3797 3122 3422 
Q 3122 3059 2978 2748 
Q 2834 2438 2575 2133 
Q 2316 1828 1969 1488 
L 975 497 
L 975 475 
L 3309 475 
L 3309 0 
z
" transform="scale(0.015625)"/>
       </defs>
       <use xlink:href="#OpenSans-Regular-2212"/>
       <use xlink:href="#OpenSans-Regular-32" x="57.177734"/>
       <use xlink:href="#OpenSans-Regular-35" x="114.355469"/>
      </g>
     </g>
    </g>
    <g id="ytick_2">
     <g id="line2d_9">
      <g>
       <use xlink:href="#m96dfcbedec" x="45" y="256.733976" style="stroke: #000000; stroke-width: 0.8"/>
      </g>
     </g>
     <g id="text_10">
      <!-- 0 -->
      <g transform="translate(32.282812 260.533195) scale(0.1 -0.1)">
       <use xlink:href="#OpenSans-Regular-30"/>
      </g>
     </g>
    </g>
    <g id="ytick_3">
     <g id="line2d_10">
      <g>
       <use xlink:href="#m96dfcbedec" x="45" y="220.077938" style="stroke: #000000; stroke-width: 0.8"/>
      </g>
     </g>
     <g id="text_11">
      <!-- 25 -->
      <g transform="translate(26.565625 223.877156) scale(0.1 -0.1)">
       <use xlink:href="#OpenSans-Regular-32"/>
       <use xlink:href="#OpenSans-Regular-35" x="57.177734"/>
      </g>
     </g>
    </g>
    <g id="ytick_4">
     <g id="line2d_11">
      <g>
       <use xlink:href="#m96dfcbedec" x="45" y="183.421899" style="stroke: #000000; stroke-width: 0.8"/>
      </g>
     </g>
     <g id="text_12">
      <!-- 50 -->
      <g transform="translate(26.565625 187.221117) scale(0.1 -0.1)">
       <use xlink:href="#OpenSans-Regular-35"/>
       <use xlink:href="#OpenSans-Regular-30" x="57.177734"/>
      </g>
     </g>
    </g>
    <g id="ytick_5">
     <g id="line2d_12">
      <g>
       <use xlink:href="#m96dfcbedec" x="45" y="146.76586" style="stroke: #000000; stroke-width: 0.8"/>
      </g>
     </g>
     <g id="text_13">
      <!-- 75 -->
      <g transform="translate(26.565625 150.565079) scale(0.1 -0.1)">
       <defs>
        <path id="OpenSans-Regular-37" d="M 906 0 
L 2781 4094 
L 291 4094 
L 291 4569 
L 3338 4569 
L 3338 4169 
L 1475 0 
L 906 0 
z
" transform="scale(0.015625)"/>
       </defs>
       <use xlink:href="#OpenSans-Regular-37"/>
       <use xlink:href="#OpenSans-Regular-35" x="57.177734"/>
      </g>
     </g>
    </g>
    <g id="ytick_6">
     <g id="line2d_13">
      <g>
       <use xlink:href="#m96dfcbedec" x="45" y="110.109821" style="stroke: #000000; stroke-width: 0.8"/>
      </g>
     </g>
     <g id="text_14">
      <!-- 100 -->
      <g transform="translate(20.848437 113.90904) scale(0.1 -0.1)">
       <use xlink:href="#OpenSans-Regular-31"/>
       <use xlink:href="#OpenSans-Regular-30" x="57.177734"/>
       <use xlink:href="#OpenSans-Regular-30" x="114.355469"/>
      </g>
     </g>
    </g>
    <g id="ytick_7">
     <g id="line2d_14">
      <g>
       <use xlink:href="#m96dfcbedec" x="45" y="73.453782" style="stroke: #000000; stroke-width: 0.8"/>
      </g>
     </g>
     <g id="text_15">
      <!-- 125 -->
      <g transform="translate(20.848437 77.253001) scale(0.1 -0.1)">
       <use xlink:href="#OpenSans-Regular-31"/>
       <use xlink:href="#OpenSans-Regular-32" x="57.177734"/>
       <use xlink:href="#OpenSans-Regular-35" x="114.355469"/>
      </g>
     </g>
    </g>
    <g id="text_16">
     <!-- y -->
     <g transform="translate(14.440625 184.304687) rotate(-90) scale(0.1 -0.1)">
      <defs>
       <path id="OpenSans-Regular-79" d="M 6 3425 
L 563 3425 
L 1319 1438 
Q 1384 1263 1440 1102 
Q 1497 941 1540 794 
Q 1584 647 1609 509 
L 1631 509 
Q 1675 666 1756 920 
Q 1838 1175 1931 1441 
L 2647 3425 
L 3206 3425 
L 1716 -503 
Q 1597 -819 1439 -1053 
Q 1281 -1288 1056 -1414 
Q 831 -1541 513 -1541 
Q 366 -1541 253 -1523 
Q 141 -1506 59 -1484 
L 59 -1069 
Q 128 -1084 226 -1096 
Q 325 -1109 431 -1109 
Q 625 -1109 767 -1036 
Q 909 -963 1012 -822 
Q 1116 -681 1191 -488 
L 1378 -6 
L 6 3425 
z
" transform="scale(0.015625)"/>
      </defs>
      <use xlink:href="#OpenSans-Regular-79"/>
     </g>
    </g>
   </g>
   <g id="patch_3">
    <path d="M 45 320.4 
L 45 43.2 
" style="fill: none; stroke: #000000; stroke-width: 0.8; stroke-linejoin: miter; stroke-linecap: square"/>
   </g>
   <g id="patch_4">
    <path d="M 324 320.4 
L 324 43.2 
" style="fill: none; stroke: #000000; stroke-width: 0.8; stroke-linejoin: miter; stroke-linecap: square"/>
   </g>
   <g id="patch_5">
    <path d="M 45 320.4 
L 324 320.4 
" style="fill: none; stroke: #000000; stroke-width: 0.8; stroke-linejoin: miter; stroke-linecap: square"/>
   </g>
   <g id="patch_6">
    <path d="M 45 43.2 
L 324 43.2 
" style="fill: none; stroke: #000000; stroke-width: 0.8; stroke-linejoin: miter; stroke-linecap: square"/>
   </g>
   <g id="text_17">
    <!-- Точечная диаграмма -->
    <g transform="translate(122.59875 37.2) scale(0.12 -0.12)">
     <defs>
      <path id="OpenSans-Regular-422" d="M 2028 0 
L 1494 0 
L 1494 4100 
L 56 4100 
L 56 4569 
L 3459 4569 
L 3459 4100 
L 2028 4100 
L 2028 0 
z
" transform="scale(0.015625)"/>
      <path id="OpenSans-Regular-43e" d="M 3500 1719 
Q 3500 1297 3390 965 
Q 3281 634 3075 406 
Q 2869 178 2576 57 
Q 2284 -63 1916 -63 
Q 1572 -63 1286 57 
Q 1000 178 792 406 
Q 584 634 470 965 
Q 356 1297 356 1719 
Q 356 2281 547 2676 
Q 738 3072 1092 3280 
Q 1447 3488 1938 3488 
Q 2406 3488 2757 3278 
Q 3109 3069 3304 2673 
Q 3500 2278 3500 1719 
z
M 894 1719 
Q 894 1306 1003 1003 
Q 1113 700 1341 534 
Q 1569 369 1928 369 
Q 2284 369 2514 534 
Q 2744 700 2853 1003 
Q 2963 1306 2963 1719 
Q 2963 2128 2853 2426 
Q 2744 2725 2516 2887 
Q 2288 3050 1925 3050 
Q 1391 3050 1142 2697 
Q 894 2344 894 1719 
z
" transform="scale(0.015625)"/>
      <path id="OpenSans-Regular-447" d="M 1000 3425 
L 1000 2194 
Q 1000 1872 1176 1719 
Q 1353 1566 1691 1566 
Q 2016 1566 2281 1666 
Q 2547 1766 2819 1938 
L 2819 3425 
L 3338 3425 
L 3338 0 
L 2819 0 
L 2819 1534 
Q 2531 1350 2253 1244 
Q 1975 1138 1588 1138 
Q 1059 1138 770 1413 
Q 481 1688 481 2156 
L 481 3425 
L 1000 3425 
z
" transform="scale(0.015625)"/>
      <path id="OpenSans-Regular-435" d="M 1866 3488 
Q 2303 3488 2615 3294 
Q 2928 3100 3093 2751 
Q 3259 2403 3259 1938 
L 3259 1616 
L 894 1616 
Q 903 1013 1193 697 
Q 1484 381 2013 381 
Q 2338 381 2588 440 
Q 2838 500 3106 616 
L 3106 159 
Q 2847 44 2592 -9 
Q 2338 -63 1991 -63 
Q 1497 -63 1130 139 
Q 763 341 559 731 
Q 356 1122 356 1688 
Q 356 2241 542 2645 
Q 728 3050 1067 3269 
Q 1406 3488 1866 3488 
z
M 1859 3063 
Q 1444 3063 1197 2791 
Q 950 2519 903 2031 
L 2716 2031 
Q 2713 2338 2620 2570 
Q 2528 2803 2340 2933 
Q 2153 3063 1859 3063 
z
" transform="scale(0.015625)"/>
      <path id="OpenSans-Regular-43d" d="M 1069 3425 
L 1069 1988 
L 2978 1988 
L 2978 3425 
L 3497 3425 
L 3497 0 
L 2978 0 
L 2978 1547 
L 1069 1547 
L 1069 0 
L 547 0 
L 547 3425 
L 1069 3425 
z
" transform="scale(0.015625)"/>
      <path id="OpenSans-Regular-430" d="M 1828 3481 
Q 2441 3481 2737 3206 
Q 3034 2931 3034 2328 
L 3034 0 
L 2656 0 
L 2556 506 
L 2531 506 
Q 2388 319 2231 192 
Q 2075 66 1870 1 
Q 1666 -63 1369 -63 
Q 1056 -63 814 46 
Q 572 156 433 378 
Q 294 600 294 941 
Q 294 1453 700 1728 
Q 1106 2003 1938 2028 
L 2528 2053 
L 2528 2263 
Q 2528 2706 2337 2884 
Q 2147 3063 1800 3063 
Q 1531 3063 1287 2984 
Q 1044 2906 825 2800 
L 666 3194 
Q 897 3313 1197 3397 
Q 1497 3481 1828 3481 
z
M 2522 1688 
L 2000 1666 
Q 1359 1641 1096 1456 
Q 834 1272 834 934 
Q 834 641 1012 500 
Q 1191 359 1484 359 
Q 1941 359 2231 612 
Q 2522 866 2522 1372 
L 2522 1688 
z
" transform="scale(0.015625)"/>
      <path id="OpenSans-Regular-44f" d="M 713 0 
L 106 0 
L 1094 1444 
Q 878 1491 693 1605 
Q 509 1719 395 1919 
Q 281 2119 281 2416 
Q 281 2909 611 3167 
Q 941 3425 1481 3425 
L 2997 3425 
L 2997 0 
L 2478 0 
L 2478 1375 
L 1609 1375 
L 713 0 
z
M 784 2413 
Q 784 2106 1003 1957 
Q 1222 1809 1628 1809 
L 2478 1809 
L 2478 2991 
L 1538 2991 
Q 1138 2991 961 2830 
Q 784 2669 784 2413 
z
" transform="scale(0.015625)"/>
      <path id="OpenSans-Regular-20" transform="scale(0.015625)"/>
      <path id="OpenSans-Regular-434" d="M 3056 3425 
L 3056 441 
L 3547 441 
L 3547 -1184 
L 3044 -1184 
L 3044 0 
L 619 0 
L 619 -1184 
L 122 -1184 
L 122 441 
L 391 441 
Q 684 847 878 1331 
Q 1072 1816 1172 2348 
Q 1272 2881 1278 3425 
L 3056 3425 
z
M 2553 3013 
L 1741 3013 
Q 1713 2556 1608 2084 
Q 1503 1613 1331 1186 
Q 1159 759 931 441 
L 2553 441 
L 2553 3013 
z
" transform="scale(0.015625)"/>
      <path id="OpenSans-Regular-438" d="M 1041 3425 
L 1041 1272 
Q 1041 1209 1037 1111 
Q 1034 1013 1028 902 
Q 1022 791 1017 689 
Q 1013 588 1006 522 
L 2875 3425 
L 3513 3425 
L 3513 0 
L 3028 0 
L 3028 2100 
Q 3028 2200 3031 2356 
Q 3034 2513 3040 2664 
Q 3047 2816 3050 2900 
L 1188 0 
L 547 0 
L 547 3425 
L 1041 3425 
z
" transform="scale(0.015625)"/>
      <path id="OpenSans-Regular-433" d="M 2625 3425 
L 2625 2984 
L 1069 2984 
L 1069 0 
L 547 0 
L 547 3425 
L 2625 3425 
z
" transform="scale(0.015625)"/>
      <path id="OpenSans-Regular-440" d="M 2156 3488 
Q 2797 3488 3178 3047 
Q 3559 2606 3559 1722 
Q 3559 1138 3384 741 
Q 3209 344 2892 140 
Q 2575 -63 2144 -63 
Q 1872 -63 1665 9 
Q 1459 81 1312 203 
Q 1166 325 1069 469 
L 1031 469 
Q 1041 347 1055 175 
Q 1069 3 1069 -125 
L 1069 -1531 
L 547 -1531 
L 547 3425 
L 975 3425 
L 1044 2919 
L 1069 2919 
Q 1169 3075 1312 3204 
Q 1456 3334 1664 3411 
Q 1872 3488 2156 3488 
z
M 2066 3050 
Q 1709 3050 1492 2912 
Q 1275 2775 1175 2501 
Q 1075 2228 1069 1816 
L 1069 1716 
Q 1069 1281 1164 981 
Q 1259 681 1479 525 
Q 1700 369 2072 369 
Q 2391 369 2603 541 
Q 2816 713 2920 1020 
Q 3025 1328 3025 1728 
Q 3025 2334 2789 2692 
Q 2553 3050 2066 3050 
z
" transform="scale(0.015625)"/>
      <path id="OpenSans-Regular-43c" d="M 4163 3425 
L 4163 0 
L 3694 0 
L 3694 2231 
Q 3694 2369 3701 2511 
Q 3709 2653 3722 2797 
L 3703 2797 
L 2566 0 
L 2125 0 
L 1016 2797 
L 997 2797 
Q 1006 2653 1011 2511 
Q 1016 2369 1016 2213 
L 1016 0 
L 544 0 
L 544 3425 
L 1241 3425 
L 2347 625 
L 3469 3425 
L 4163 3425 
z
" transform="scale(0.015625)"/>
     </defs>
     <use xlink:href="#OpenSans-Regular-422"/>
     <use xlink:href="#OpenSans-Regular-43e" x="55.078125"/>
     <use xlink:href="#OpenSans-Regular-447" x="115.234375"/>
     <use xlink:href="#OpenSans-Regular-435" x="175.927734"/>
     <use xlink:href="#OpenSans-Regular-447" x="232.080078"/>
     <use xlink:href="#OpenSans-Regular-43d" x="292.773438"/>
     <use xlink:href="#OpenSans-Regular-430" x="356.054688"/>
     <use xlink:href="#OpenSans-Regular-44f" x="411.621094"/>
     <use xlink:href="#OpenSans-Regular-20" x="466.992188"/>
     <use xlink:href="#OpenSans-Regular-434" x="492.96875"/>
     <use xlink:href="#OpenSans-Regular-438" x="550.439453"/>
     <use xlink:href="#OpenSans-Regular-430" x="614.013672"/>
     <use xlink:href="#OpenSans-Regular-433" x="669.580078"/>
     <use xlink:href="#OpenSans-Regular-440" x="712.695312"/>
     <use xlink:href="#OpenSans-Regular-430" x="773.876953"/>
     <use xlink:href="#OpenSans-Regular-43c" x="829.443359"/>
     <use xlink:href="#OpenSans-Regular-43c" x="902.783203"/>
     <use xlink:href="#OpenSans-Regular-430" x="976.123047"/>
    </g>
   </g>
  </g>
 </g>
 <defs>
  <clipPath id="pb296326256">
   <rect x="45" y="43.2" width="279" height="277.2"/>
  </clipPath>
 </defs>
</svg>
