<?xml version="1.0" encoding="utf-8" standalone="no"?>
<!DOCTYPE svg PUBLIC "-//W3C//DTD SVG 1.1//EN"
  "http://www.w3.org/Graphics/SVG/1.1/DTD/svg11.dtd">
<svg xmlns:xlink="http://www.w3.org/1999/xlink" width="360pt" height="360pt" viewBox="0 0 360 360" xmlns="http://www.w3.org/2000/svg" version="1.1">
 <metadata>
  <rdf:RDF xmlns:dc="http://purl.org/dc/elements/1.1/" xmlns:cc="http://creativecommons.org/ns#" xmlns:rdf="http://www.w3.org/1999/02/22-rdf-syntax-ns#">
   <cc:Work>
    <dc:type rdf:resource="http://purl.org/dc/dcmitype/StillImage"/>
    <dc:date>2023-11-23T18:13:14.670373</dc:date>
    <dc:format>image/svg+xml</dc:format>
    <dc:creator>
     <cc:Agent>
      <dc:title>Matplotlib v3.8.0, https://matplotlib.org/</dc:title>
     </cc:Agent>
    </dc:creator>
   </cc:Work>
  </rdf:RDF>
 </metadata>
 <defs>
  <style type="text/css">*{stroke-linejoin: round; stroke-linecap: butt}</style>
 </defs>
 <g id="figure_1">
  <g id="patch_1">
   <path d="M 0 360 
L 360 360 
L 360 0 
L 0 0 
z
" style="fill: #ffffff"/>
  </g>
  <g id="axes_1">
   <g id="patch_2">
    <path d="M 45 320.4 
L 324 320.4 
L 324 43.2 
L 45 43.2 
z
" style="fill: #ffffff"/>
   </g>
   <g id="PathCollection_1">
    <defs>
     <path id="m61e30f40e7" d="M 0 1.870829 
C 0.49615 1.870829 0.972045 1.673706 1.322876 1.322876 
C 1.673706 0.972045 1.870829 0.49615 1.870829 0 
C 1.870829 -0.49615 1.673706 -0.972045 1.322876 -1.322876 
C 0.972045 -1.673706 0.49615 -1.870829 0 -1.870829 
C -0.49615 -1.870829 -0.972045 -1.673706 -1.322876 -1.322876 
C -1.673706 -0.972045 -1.870829 -0.49615 -1.870829 0 
C -1.870829 0.49615 -1.673706 0.972045 -1.322876 1.322876 
C -0.972045 1.673706 -0.49615 1.870829 0 1.870829 
z
" style="stroke: #000000"/>
    </defs>
    <g clip-path="url(#pdc45b98a22)">
     <use xlink:href="#m61e30f40e7" x="214.174187" y="76.471409" style="stroke: #000000"/>
     <use xlink:href="#m61e30f40e7" x="253.135048" y="94.410885" style="stroke: #000000"/>
     <use xlink:href="#m61e30f40e7" x="240.249401" y="86.697826" style="stroke: #000000"/>
     <use xlink:href="#m61e30f40e7" x="167.53406" y="100.700449" style="stroke: #000000"/>
     <use xlink:href="#m61e30f40e7" x="208.093523" y="81.753188" style="stroke: #000000"/>
     <use xlink:href="#m61e30f40e7" x="211.41205" y="84.431377" style="stroke: #000000"/>
     <use xlink:href="#m61e30f40e7" x="144.658805" y="121.717224" style="stroke: #000000"/>
     <use xlink:href="#m61e30f40e7" x="227.767688" y="89.464232" style="stroke: #000000"/>
     <use xlink:href="#m61e30f40e7" x="198.588989" y="72.453021" style="stroke: #000000"/>
     <use xlink:href="#m61e30f40e7" x="194.19784" y="77.774007" style="stroke: #000000"/>
     <use xlink:href="#m61e30f40e7" x="246.973008" y="94.394587" style="stroke: #000000"/>
     <use xlink:href="#m61e30f40e7" x="247.128489" y="80.857599" style="stroke: #000000"/>
     <use xlink:href="#m61e30f40e7" x="208.830278" y="78.782593" style="stroke: #000000"/>
     <use xlink:href="#m61e30f40e7" x="204.444832" y="79.14272" style="stroke: #000000"/>
     <use xlink:href="#m61e30f40e7" x="215.860083" y="80.060217" style="stroke: #000000"/>
     <use xlink:href="#m61e30f40e7" x="141.188924" y="129.122401" style="stroke: #000000"/>
     <use xlink:href="#m61e30f40e7" x="176.509681" y="95.71787" style="stroke: #000000"/>
     <use xlink:href="#m61e30f40e7" x="180.396303" y="90.158109" style="stroke: #000000"/>
     <use xlink:href="#m61e30f40e7" x="165.652253" y="99.604586" style="stroke: #000000"/>
     <use xlink:href="#m61e30f40e7" x="221.764631" y="58.765638" style="stroke: #000000"/>
     <use xlink:href="#m61e30f40e7" x="206.757166" y="70.533214" style="stroke: #000000"/>
     <use xlink:href="#m61e30f40e7" x="259.682662" y="112.900773" style="stroke: #000000"/>
     <use xlink:href="#m61e30f40e7" x="155.444247" y="107.881524" style="stroke: #000000"/>
     <use xlink:href="#m61e30f40e7" x="220.337042" y="81.713181" style="stroke: #000000"/>
     <use xlink:href="#m61e30f40e7" x="231.028959" y="68.327575" style="stroke: #000000"/>
     <use xlink:href="#m61e30f40e7" x="203.189895" y="71.531992" style="stroke: #000000"/>
     <use xlink:href="#m61e30f40e7" x="255.871406" y="93.284204" style="stroke: #000000"/>
     <use xlink:href="#m61e30f40e7" x="233.138073" y="81.197717" style="stroke: #000000"/>
     <use xlink:href="#m61e30f40e7" x="224.824916" y="75.29338" style="stroke: #000000"/>
     <use xlink:href="#m61e30f40e7" x="175.957843" y="97.976385" style="stroke: #000000"/>
     <use xlink:href="#m61e30f40e7" x="216.9833" y="83.716837" style="stroke: #000000"/>
     <use xlink:href="#m61e30f40e7" x="235.448488" y="90.222127" style="stroke: #000000"/>
     <use xlink:href="#m61e30f40e7" x="246.835597" y="74.400216" style="stroke: #000000"/>
     <use xlink:href="#m61e30f40e7" x="211.385417" y="70.477779" style="stroke: #000000"/>
     <use xlink:href="#m61e30f40e7" x="136.086604" y="144.282063" style="stroke: #000000"/>
     <use xlink:href="#m61e30f40e7" x="193.78199" y="64.532942" style="stroke: #000000"/>
     <use xlink:href="#m61e30f40e7" x="201.227142" y="81.299651" style="stroke: #000000"/>
     <use xlink:href="#m61e30f40e7" x="224.066213" y="83.064053" style="stroke: #000000"/>
     <use xlink:href="#m61e30f40e7" x="276.175776" y="111.467742" style="stroke: #000000"/>
     <use xlink:href="#m61e30f40e7" x="202.761189" y="92.814374" style="stroke: #000000"/>
     <use xlink:href="#m61e30f40e7" x="202.811842" y="76.06263" style="stroke: #000000"/>
     <use xlink:href="#m61e30f40e7" x="235.765744" y="85.498653" style="stroke: #000000"/>
     <use xlink:href="#m61e30f40e7" x="232.561344" y="67.498642" style="stroke: #000000"/>
     <use xlink:href="#m61e30f40e7" x="195.985486" y="81.583434" style="stroke: #000000"/>
     <use xlink:href="#m61e30f40e7" x="228.545061" y="77.58122" style="stroke: #000000"/>
     <use xlink:href="#m61e30f40e7" x="240.773625" y="80.34062" style="stroke: #000000"/>
     <use xlink:href="#m61e30f40e7" x="200.453572" y="99.182719" style="stroke: #000000"/>
     <use xlink:href="#m61e30f40e7" x="233.089541" y="80.018509" style="stroke: #000000"/>
     <use xlink:href="#m61e30f40e7" x="168.702592" y="90.949011" style="stroke: #000000"/>
     <use xlink:href="#m61e30f40e7" x="231.105632" y="90.463181" style="stroke: #000000"/>
     <use xlink:href="#m61e30f40e7" x="256.29828" y="91.200269" style="stroke: #000000"/>
     <use xlink:href="#m61e30f40e7" x="203.542264" y="85.276408" style="stroke: #000000"/>
     <use xlink:href="#m61e30f40e7" x="237.911077" y="80.444186" style="stroke: #000000"/>
     <use xlink:href="#m61e30f40e7" x="215.428016" y="67.511139" style="stroke: #000000"/>
     <use xlink:href="#m61e30f40e7" x="235.159572" y="63.506144" style="stroke: #000000"/>
     <use xlink:href="#m61e30f40e7" x="194.394247" y="81.734936" style="stroke: #000000"/>
     <use xlink:href="#m61e30f40e7" x="224.179534" y="74.040617" style="stroke: #000000"/>
     <use xlink:href="#m61e30f40e7" x="231.373915" y="92.005817" style="stroke: #000000"/>
     <use xlink:href="#m61e30f40e7" x="126.799609" y="138.38864" style="stroke: #000000"/>
     <use xlink:href="#m61e30f40e7" x="225.531007" y="78.077911" style="stroke: #000000"/>
     <use xlink:href="#m61e30f40e7" x="273.08841" y="117.723522" style="stroke: #000000"/>
     <use xlink:href="#m61e30f40e7" x="209.442879" y="60.996003" style="stroke: #000000"/>
     <use xlink:href="#m61e30f40e7" x="236.369922" y="86.766758" style="stroke: #000000"/>
     <use xlink:href="#m61e30f40e7" x="228.536926" y="78.837052" style="stroke: #000000"/>
     <use xlink:href="#m61e30f40e7" x="105.644356" y="173.119511" style="stroke: #000000"/>
     <use xlink:href="#m61e30f40e7" x="202.254704" y="80.194568" style="stroke: #000000"/>
     <use xlink:href="#m61e30f40e7" x="248.438216" y="98.918575" style="stroke: #000000"/>
     <use xlink:href="#m61e30f40e7" x="262.640957" y="92.380106" style="stroke: #000000"/>
     <use xlink:href="#m61e30f40e7" x="123.186566" y="154.383202" style="stroke: #000000"/>
     <use xlink:href="#m61e30f40e7" x="204.175038" y="78.998517" style="stroke: #000000"/>
     <use xlink:href="#m61e30f40e7" x="311.318182" y="186.718604" style="stroke: #000000"/>
     <use xlink:href="#m61e30f40e7" x="195.524012" y="101.275485" style="stroke: #000000"/>
     <use xlink:href="#m61e30f40e7" x="220.523667" y="95.569782" style="stroke: #000000"/>
     <use xlink:href="#m61e30f40e7" x="161.274841" y="103.136895" style="stroke: #000000"/>
     <use xlink:href="#m61e30f40e7" x="181.087024" y="84.49201" style="stroke: #000000"/>
     <use xlink:href="#m61e30f40e7" x="192.102281" y="87.863242" style="stroke: #000000"/>
     <use xlink:href="#m61e30f40e7" x="294.243108" y="146.439398" style="stroke: #000000"/>
     <use xlink:href="#m61e30f40e7" x="179.345343" y="89.905501" style="stroke: #000000"/>
     <use xlink:href="#m61e30f40e7" x="272.662779" y="107.563326" style="stroke: #000000"/>
     <use xlink:href="#m61e30f40e7" x="207.029483" y="79.755525" style="stroke: #000000"/>
     <use xlink:href="#m61e30f40e7" x="249.296419" y="86.577682" style="stroke: #000000"/>
     <use xlink:href="#m61e30f40e7" x="228.115953" y="75.994765" style="stroke: #000000"/>
     <use xlink:href="#m61e30f40e7" x="186.226566" y="87.587283" style="stroke: #000000"/>
     <use xlink:href="#m61e30f40e7" x="275.583541" y="111.691777" style="stroke: #000000"/>
     <use xlink:href="#m61e30f40e7" x="203.150159" y="67.428142" style="stroke: #000000"/>
     <use xlink:href="#m61e30f40e7" x="269.675888" y="112.675778" style="stroke: #000000"/>
     <use xlink:href="#m61e30f40e7" x="209.815428" y="95.912601" style="stroke: #000000"/>
     <use xlink:href="#m61e30f40e7" x="198.449674" y="83.317151" style="stroke: #000000"/>
     <use xlink:href="#m61e30f40e7" x="218.325429" y="80.310135" style="stroke: #000000"/>
     <use xlink:href="#m61e30f40e7" x="271.452639" y="114.399854" style="stroke: #000000"/>
     <use xlink:href="#m61e30f40e7" x="245.851921" y="102.06911" style="stroke: #000000"/>
     <use xlink:href="#m61e30f40e7" x="203.277126" y="77.129126" style="stroke: #000000"/>
     <use xlink:href="#m61e30f40e7" x="224.496026" y="79.803145" style="stroke: #000000"/>
     <use xlink:href="#m61e30f40e7" x="215.780167" y="77.737115" style="stroke: #000000"/>
     <use xlink:href="#m61e30f40e7" x="289.268862" y="135.439948" style="stroke: #000000"/>
     <use xlink:href="#m61e30f40e7" x="240.054312" y="87.581777" style="stroke: #000000"/>
     <use xlink:href="#m61e30f40e7" x="210.334046" y="72.109727" style="stroke: #000000"/>
     <use xlink:href="#m61e30f40e7" x="178.302483" y="90.574245" style="stroke: #000000"/>
     <use xlink:href="#m61e30f40e7" x="265.106918" y="103.303233" style="stroke: #000000"/>
     <use xlink:href="#m61e30f40e7" x="231.267938" y="85.087629" style="stroke: #000000"/>
     <use xlink:href="#m61e30f40e7" x="184.595165" y="73.128393" style="stroke: #000000"/>
     <use xlink:href="#m61e30f40e7" x="231.957508" y="74.619493" style="stroke: #000000"/>
     <use xlink:href="#m61e30f40e7" x="258.436452" y="98.120144" style="stroke: #000000"/>
     <use xlink:href="#m61e30f40e7" x="190.141108" y="89.78064" style="stroke: #000000"/>
     <use xlink:href="#m61e30f40e7" x="233.935251" y="83.135815" style="stroke: #000000"/>
     <use xlink:href="#m61e30f40e7" x="191.363878" y="98.664492" style="stroke: #000000"/>
     <use xlink:href="#m61e30f40e7" x="192.547551" y="74.883508" style="stroke: #000000"/>
     <use xlink:href="#m61e30f40e7" x="256.093362" y="113.80595" style="stroke: #000000"/>
     <use xlink:href="#m61e30f40e7" x="199.097579" y="84.283403" style="stroke: #000000"/>
     <use xlink:href="#m61e30f40e7" x="210.049712" y="94.528694" style="stroke: #000000"/>
     <use xlink:href="#m61e30f40e7" x="186.309498" y="79.425285" style="stroke: #000000"/>
     <use xlink:href="#m61e30f40e7" x="265.018972" y="88.202963" style="stroke: #000000"/>
     <use xlink:href="#m61e30f40e7" x="153.824803" y="112.228511" style="stroke: #000000"/>
     <use xlink:href="#m61e30f40e7" x="227.136583" y="78.886654" style="stroke: #000000"/>
     <use xlink:href="#m61e30f40e7" x="137.760784" y="126.952628" style="stroke: #000000"/>
     <use xlink:href="#m61e30f40e7" x="231.121413" y="101.407754" style="stroke: #000000"/>
     <use xlink:href="#m61e30f40e7" x="268.078107" y="131.443145" style="stroke: #000000"/>
     <use xlink:href="#m61e30f40e7" x="191.002519" y="111.629792" style="stroke: #000000"/>
     <use xlink:href="#m61e30f40e7" x="222.227775" y="73.260025" style="stroke: #000000"/>
     <use xlink:href="#m61e30f40e7" x="185.836865" y="66.389309" style="stroke: #000000"/>
     <use xlink:href="#m61e30f40e7" x="256.283678" y="89.336715" style="stroke: #000000"/>
     <use xlink:href="#m61e30f40e7" x="127.093197" y="159.839304" style="stroke: #000000"/>
     <use xlink:href="#m61e30f40e7" x="154.048031" y="110.130557" style="stroke: #000000"/>
     <use xlink:href="#m61e30f40e7" x="240.262168" y="78.934588" style="stroke: #000000"/>
     <use xlink:href="#m61e30f40e7" x="264.146734" y="96.602948" style="stroke: #000000"/>
     <use xlink:href="#m61e30f40e7" x="172.802144" y="85.207603" style="stroke: #000000"/>
     <use xlink:href="#m61e30f40e7" x="214.14411" y="80.164828" style="stroke: #000000"/>
     <use xlink:href="#m61e30f40e7" x="235.145764" y="88.046116" style="stroke: #000000"/>
     <use xlink:href="#m61e30f40e7" x="257.419438" y="105.049489" style="stroke: #000000"/>
     <use xlink:href="#m61e30f40e7" x="283.336124" y="118.98798" style="stroke: #000000"/>
     <use xlink:href="#m61e30f40e7" x="258.06164" y="116.131473" style="stroke: #000000"/>
     <use xlink:href="#m61e30f40e7" x="137.181606" y="130.246775" style="stroke: #000000"/>
     <use xlink:href="#m61e30f40e7" x="190.638273" y="89.056083" style="stroke: #000000"/>
     <use xlink:href="#m61e30f40e7" x="236.458533" y="81.886527" style="stroke: #000000"/>
     <use xlink:href="#m61e30f40e7" x="263.656751" y="98.188247" style="stroke: #000000"/>
     <use xlink:href="#m61e30f40e7" x="141.832449" y="132.334346" style="stroke: #000000"/>
     <use xlink:href="#m61e30f40e7" x="209.092146" y="73.62736" style="stroke: #000000"/>
     <use xlink:href="#m61e30f40e7" x="257.941695" y="88.244273" style="stroke: #000000"/>
     <use xlink:href="#m61e30f40e7" x="185.082899" y="90.949352" style="stroke: #000000"/>
     <use xlink:href="#m61e30f40e7" x="278.787869" y="130.846078" style="stroke: #000000"/>
     <use xlink:href="#m61e30f40e7" x="215.094116" y="77.298732" style="stroke: #000000"/>
     <use xlink:href="#m61e30f40e7" x="180.300861" y="108.929076" style="stroke: #000000"/>
     <use xlink:href="#m61e30f40e7" x="218.670433" y="69.858229" style="stroke: #000000"/>
     <use xlink:href="#m61e30f40e7" x="213.635814" y="64.480125" style="stroke: #000000"/>
     <use xlink:href="#m61e30f40e7" x="232.788282" y="82.213426" style="stroke: #000000"/>
     <use xlink:href="#m61e30f40e7" x="194.531488" y="71.605847" style="stroke: #000000"/>
     <use xlink:href="#m61e30f40e7" x="221.965703" y="78.335089" style="stroke: #000000"/>
     <use xlink:href="#m61e30f40e7" x="210.761859" y="76.149562" style="stroke: #000000"/>
     <use xlink:href="#m61e30f40e7" x="226.232091" y="59.869697" style="stroke: #000000"/>
     <use xlink:href="#m61e30f40e7" x="249.294331" y="88.945638" style="stroke: #000000"/>
     <use xlink:href="#m61e30f40e7" x="217.838407" y="64.39053" style="stroke: #000000"/>
     <use xlink:href="#m61e30f40e7" x="194.660039" y="88.461856" style="stroke: #000000"/>
     <use xlink:href="#m61e30f40e7" x="208.931525" y="74.553457" style="stroke: #000000"/>
     <use xlink:href="#m61e30f40e7" x="245.829011" y="82.327116" style="stroke: #000000"/>
     <use xlink:href="#m61e30f40e7" x="229.507232" y="72.674766" style="stroke: #000000"/>
     <use xlink:href="#m61e30f40e7" x="169.205037" y="115.028731" style="stroke: #000000"/>
     <use xlink:href="#m61e30f40e7" x="208.440466" y="94.874077" style="stroke: #000000"/>
     <use xlink:href="#m61e30f40e7" x="202.988074" y="72.518069" style="stroke: #000000"/>
     <use xlink:href="#m61e30f40e7" x="171.780453" y="97.9953" style="stroke: #000000"/>
     <use xlink:href="#m61e30f40e7" x="217.570208" y="83.29733" style="stroke: #000000"/>
     <use xlink:href="#m61e30f40e7" x="180.05595" y="60.717173" style="stroke: #000000"/>
     <use xlink:href="#m61e30f40e7" x="218.710829" y="82.663741" style="stroke: #000000"/>
     <use xlink:href="#m61e30f40e7" x="188.440511" y="84.021468" style="stroke: #000000"/>
     <use xlink:href="#m61e30f40e7" x="185.888574" y="96.720481" style="stroke: #000000"/>
     <use xlink:href="#m61e30f40e7" x="245.19564" y="78.773788" style="stroke: #000000"/>
     <use xlink:href="#m61e30f40e7" x="227.474371" y="75.28103" style="stroke: #000000"/>
     <use xlink:href="#m61e30f40e7" x="250.535689" y="82.459504" style="stroke: #000000"/>
     <use xlink:href="#m61e30f40e7" x="209.69434" y="72.545484" style="stroke: #000000"/>
     <use xlink:href="#m61e30f40e7" x="257.855513" y="106.124424" style="stroke: #000000"/>
     <use xlink:href="#m61e30f40e7" x="168.215894" y="82.056474" style="stroke: #000000"/>
     <use xlink:href="#m61e30f40e7" x="188.803406" y="66.411784" style="stroke: #000000"/>
     <use xlink:href="#m61e30f40e7" x="163.023272" y="86.700931" style="stroke: #000000"/>
     <use xlink:href="#m61e30f40e7" x="221.358603" y="67.050708" style="stroke: #000000"/>
     <use xlink:href="#m61e30f40e7" x="270.775012" y="106.013927" style="stroke: #000000"/>
     <use xlink:href="#m61e30f40e7" x="201.643728" y="92.86742" style="stroke: #000000"/>
     <use xlink:href="#m61e30f40e7" x="169.909043" y="105.475068" style="stroke: #000000"/>
     <use xlink:href="#m61e30f40e7" x="208.402617" y="87.859651" style="stroke: #000000"/>
     <use xlink:href="#m61e30f40e7" x="179.294703" y="89.858428" style="stroke: #000000"/>
     <use xlink:href="#m61e30f40e7" x="158.203935" y="94.986379" style="stroke: #000000"/>
     <use xlink:href="#m61e30f40e7" x="252.593614" y="100.589227" style="stroke: #000000"/>
     <use xlink:href="#m61e30f40e7" x="289.097409" y="133.510579" style="stroke: #000000"/>
     <use xlink:href="#m61e30f40e7" x="242.315115" y="93.552742" style="stroke: #000000"/>
     <use xlink:href="#m61e30f40e7" x="214.654392" y="75.286971" style="stroke: #000000"/>
     <use xlink:href="#m61e30f40e7" x="242.305899" y="97.129312" style="stroke: #000000"/>
     <use xlink:href="#m61e30f40e7" x="184.064761" y="87.286347" style="stroke: #000000"/>
     <use xlink:href="#m61e30f40e7" x="194.599832" y="86.850423" style="stroke: #000000"/>
     <use xlink:href="#m61e30f40e7" x="226.974629" y="86.274867" style="stroke: #000000"/>
     <use xlink:href="#m61e30f40e7" x="224.529341" y="70.943395" style="stroke: #000000"/>
     <use xlink:href="#m61e30f40e7" x="269.949346" y="115.913514" style="stroke: #000000"/>
     <use xlink:href="#m61e30f40e7" x="259.206443" y="91.07834" style="stroke: #000000"/>
     <use xlink:href="#m61e30f40e7" x="215.936869" y="68.903634" style="stroke: #000000"/>
     <use xlink:href="#m61e30f40e7" x="141.657894" y="119.040228" style="stroke: #000000"/>
     <use xlink:href="#m61e30f40e7" x="254.410536" y="110.908446" style="stroke: #000000"/>
     <use xlink:href="#m61e30f40e7" x="175.315578" y="87.696753" style="stroke: #000000"/>
     <use xlink:href="#m61e30f40e7" x="232.418511" y="91.536919" style="stroke: #000000"/>
     <use xlink:href="#m61e30f40e7" x="216.546439" y="83.761509" style="stroke: #000000"/>
     <use xlink:href="#m61e30f40e7" x="272.306595" y="118.52249" style="stroke: #000000"/>
     <use xlink:href="#m61e30f40e7" x="243.343865" y="100.152671" style="stroke: #000000"/>
     <use xlink:href="#m61e30f40e7" x="242.750113" y="83.776955" style="stroke: #000000"/>
     <use xlink:href="#m61e30f40e7" x="199.103202" y="81.928904" style="stroke: #000000"/>
     <use xlink:href="#m61e30f40e7" x="185.470736" y="76.776058" style="stroke: #000000"/>
     <use xlink:href="#m61e30f40e7" x="176.883653" y="82.328186" style="stroke: #000000"/>
     <use xlink:href="#m61e30f40e7" x="285.456565" y="140.505254" style="stroke: #000000"/>
     <use xlink:href="#m61e30f40e7" x="211.38534" y="86.804912" style="stroke: #000000"/>
     <use xlink:href="#m61e30f40e7" x="187.001971" y="71.76649" style="stroke: #000000"/>
     <use xlink:href="#m61e30f40e7" x="188.592752" y="89.272819" style="stroke: #000000"/>
     <use xlink:href="#m61e30f40e7" x="175.374481" y="93.443036" style="stroke: #000000"/>
     <use xlink:href="#m61e30f40e7" x="191.206447" y="77.118723" style="stroke: #000000"/>
     <use xlink:href="#m61e30f40e7" x="250.089374" y="97.514501" style="stroke: #000000"/>
     <use xlink:href="#m61e30f40e7" x="264.361382" y="110.50197" style="stroke: #000000"/>
     <use xlink:href="#m61e30f40e7" x="198.123755" y="78.332815" style="stroke: #000000"/>
     <use xlink:href="#m61e30f40e7" x="259.986485" y="104.943499" style="stroke: #000000"/>
     <use xlink:href="#m61e30f40e7" x="220.652089" y="61.825152" style="stroke: #000000"/>
     <use xlink:href="#m61e30f40e7" x="216.015628" y="73.116181" style="stroke: #000000"/>
     <use xlink:href="#m61e30f40e7" x="209.121038" y="55.8" style="stroke: #000000"/>
     <use xlink:href="#m61e30f40e7" x="179.102684" y="90.111532" style="stroke: #000000"/>
     <use xlink:href="#m61e30f40e7" x="254.676532" y="95.654235" style="stroke: #000000"/>
     <use xlink:href="#m61e30f40e7" x="150.798679" y="112.980282" style="stroke: #000000"/>
     <use xlink:href="#m61e30f40e7" x="206.610011" y="72.810159" style="stroke: #000000"/>
     <use xlink:href="#m61e30f40e7" x="170.748409" y="99.598523" style="stroke: #000000"/>
     <use xlink:href="#m61e30f40e7" x="195.327939" y="85.208722" style="stroke: #000000"/>
     <use xlink:href="#m61e30f40e7" x="96.498435" y="209.01599" style="stroke: #000000"/>
     <use xlink:href="#m61e30f40e7" x="197.832567" y="82.552476" style="stroke: #000000"/>
     <use xlink:href="#m61e30f40e7" x="251.945008" y="89.010221" style="stroke: #000000"/>
     <use xlink:href="#m61e30f40e7" x="205.36646" y="62.258895" style="stroke: #000000"/>
     <use xlink:href="#m61e30f40e7" x="217.273267" y="77.04229" style="stroke: #000000"/>
     <use xlink:href="#m61e30f40e7" x="218.990962" y="78.651984" style="stroke: #000000"/>
     <use xlink:href="#m61e30f40e7" x="250.868343" y="103.509239" style="stroke: #000000"/>
     <use xlink:href="#m61e30f40e7" x="196.782996" y="79.047531" style="stroke: #000000"/>
     <use xlink:href="#m61e30f40e7" x="193.166859" y="89.838641" style="stroke: #000000"/>
     <use xlink:href="#m61e30f40e7" x="256.743288" y="89.453689" style="stroke: #000000"/>
     <use xlink:href="#m61e30f40e7" x="178.497843" y="95.93103" style="stroke: #000000"/>
     <use xlink:href="#m61e30f40e7" x="195.042667" y="75.544148" style="stroke: #000000"/>
     <use xlink:href="#m61e30f40e7" x="233.869757" y="72.294451" style="stroke: #000000"/>
     <use xlink:href="#m61e30f40e7" x="247.082461" y="82.299911" style="stroke: #000000"/>
     <use xlink:href="#m61e30f40e7" x="207.249392" y="76.944154" style="stroke: #000000"/>
     <use xlink:href="#m61e30f40e7" x="157.454301" y="117.541853" style="stroke: #000000"/>
     <use xlink:href="#m61e30f40e7" x="134.068875" y="134.077818" style="stroke: #000000"/>
     <use xlink:href="#m61e30f40e7" x="217.678742" y="84.481865" style="stroke: #000000"/>
     <use xlink:href="#m61e30f40e7" x="246.110144" y="102.777677" style="stroke: #000000"/>
     <use xlink:href="#m61e30f40e7" x="143.37895" y="118.76647" style="stroke: #000000"/>
     <use xlink:href="#m61e30f40e7" x="196.446302" y="77.605292" style="stroke: #000000"/>
     <use xlink:href="#m61e30f40e7" x="157.947434" y="90.873573" style="stroke: #000000"/>
     <use xlink:href="#m61e30f40e7" x="290.487911" y="141.30682" style="stroke: #000000"/>
     <use xlink:href="#m61e30f40e7" x="191.69001" y="90.8749" style="stroke: #000000"/>
     <use xlink:href="#m61e30f40e7" x="274.64028" y="120.899169" style="stroke: #000000"/>
     <use xlink:href="#m61e30f40e7" x="234.521909" y="81.796025" style="stroke: #000000"/>
     <use xlink:href="#m61e30f40e7" x="159.629443" y="77.961072" style="stroke: #000000"/>
     <use xlink:href="#m61e30f40e7" x="224.787776" y="57.041173" style="stroke: #000000"/>
     <use xlink:href="#m61e30f40e7" x="233.449671" y="75.318766" style="stroke: #000000"/>
     <use xlink:href="#m61e30f40e7" x="247.556422" y="90.395704" style="stroke: #000000"/>
     <use xlink:href="#m61e30f40e7" x="209.038959" y="88.593158" style="stroke: #000000"/>
     <use xlink:href="#m61e30f40e7" x="240.736905" y="103.558479" style="stroke: #000000"/>
     <use xlink:href="#m61e30f40e7" x="156.03466" y="111.113023" style="stroke: #000000"/>
     <use xlink:href="#m61e30f40e7" x="220.169219" y="86.783893" style="stroke: #000000"/>
     <use xlink:href="#m61e30f40e7" x="292.409491" y="134.563325" style="stroke: #000000"/>
     <use xlink:href="#m61e30f40e7" x="198.215949" y="91.481829" style="stroke: #000000"/>
     <use xlink:href="#m61e30f40e7" x="240.04558" y="76.6903" style="stroke: #000000"/>
     <use xlink:href="#m61e30f40e7" x="238.27985" y="76.010225" style="stroke: #000000"/>
     <use xlink:href="#m61e30f40e7" x="210.922764" y="71.143694" style="stroke: #000000"/>
     <use xlink:href="#m61e30f40e7" x="182.039354" y="68.030103" style="stroke: #000000"/>
     <use xlink:href="#m61e30f40e7" x="217.565769" y="84.980166" style="stroke: #000000"/>
     <use xlink:href="#m61e30f40e7" x="200.204206" y="91.535944" style="stroke: #000000"/>
     <use xlink:href="#m61e30f40e7" x="156.030838" y="120.172558" style="stroke: #000000"/>
     <use xlink:href="#m61e30f40e7" x="232.510407" y="82.692019" style="stroke: #000000"/>
     <use xlink:href="#m61e30f40e7" x="237.146976" y="85.013646" style="stroke: #000000"/>
     <use xlink:href="#m61e30f40e7" x="213.059585" y="100.790579" style="stroke: #000000"/>
     <use xlink:href="#m61e30f40e7" x="221.800984" y="92.456001" style="stroke: #000000"/>
     <use xlink:href="#m61e30f40e7" x="217.057838" y="77.02444" style="stroke: #000000"/>
     <use xlink:href="#m61e30f40e7" x="236.018711" y="88.106179" style="stroke: #000000"/>
     <use xlink:href="#m61e30f40e7" x="245.097493" y="88.072277" style="stroke: #000000"/>
     <use xlink:href="#m61e30f40e7" x="208.611278" y="80.011124" style="stroke: #000000"/>
     <use xlink:href="#m61e30f40e7" x="181.66292" y="86.711257" style="stroke: #000000"/>
     <use xlink:href="#m61e30f40e7" x="229.995346" y="81.904834" style="stroke: #000000"/>
     <use xlink:href="#m61e30f40e7" x="235.832799" y="103.428682" style="stroke: #000000"/>
     <use xlink:href="#m61e30f40e7" x="181.151745" y="90.65241" style="stroke: #000000"/>
     <use xlink:href="#m61e30f40e7" x="235.056678" y="78.935426" style="stroke: #000000"/>
     <use xlink:href="#m61e30f40e7" x="241.854124" y="74.676768" style="stroke: #000000"/>
     <use xlink:href="#m61e30f40e7" x="238.325413" y="90.190735" style="stroke: #000000"/>
     <use xlink:href="#m61e30f40e7" x="305.960275" y="142.448106" style="stroke: #000000"/>
     <use xlink:href="#m61e30f40e7" x="168.311125" y="79.46764" style="stroke: #000000"/>
     <use xlink:href="#m61e30f40e7" x="255.557403" y="107.9393" style="stroke: #000000"/>
     <use xlink:href="#m61e30f40e7" x="198.522364" y="97.13243" style="stroke: #000000"/>
     <use xlink:href="#m61e30f40e7" x="149.020167" y="105.893955" style="stroke: #000000"/>
     <use xlink:href="#m61e30f40e7" x="170.531983" y="74.172616" style="stroke: #000000"/>
     <use xlink:href="#m61e30f40e7" x="207.647673" y="73.831985" style="stroke: #000000"/>
     <use xlink:href="#m61e30f40e7" x="205.977687" y="70.728113" style="stroke: #000000"/>
     <use xlink:href="#m61e30f40e7" x="308.222795" y="166.158676" style="stroke: #000000"/>
     <use xlink:href="#m61e30f40e7" x="231.466399" y="83.871192" style="stroke: #000000"/>
     <use xlink:href="#m61e30f40e7" x="307.994668" y="166.171327" style="stroke: #000000"/>
     <use xlink:href="#m61e30f40e7" x="57.681818" y="307.8" style="stroke: #000000"/>
     <use xlink:href="#m61e30f40e7" x="244.710897" y="90.59314" style="stroke: #000000"/>
     <use xlink:href="#m61e30f40e7" x="125.475063" y="153.268861" style="stroke: #000000"/>
     <use xlink:href="#m61e30f40e7" x="150.065288" y="106.343629" style="stroke: #000000"/>
     <use xlink:href="#m61e30f40e7" x="200.273675" y="74.646911" style="stroke: #000000"/>
     <use xlink:href="#m61e30f40e7" x="226.743347" y="85.047489" style="stroke: #000000"/>
     <use xlink:href="#m61e30f40e7" x="164.000702" y="108.749962" style="stroke: #000000"/>
     <use xlink:href="#m61e30f40e7" x="300.08119" y="144.418209" style="stroke: #000000"/>
     <use xlink:href="#m61e30f40e7" x="199.335619" y="86.143717" style="stroke: #000000"/>
     <use xlink:href="#m61e30f40e7" x="239.410628" y="90.400991" style="stroke: #000000"/>
    </g>
   </g>
   <g id="matplotlib.axis_1">
    <g id="xtick_1">
     <g id="line2d_1">
      <defs>
       <path id="m849293df15" d="M 0 0 
L 0 3.5 
" style="stroke: #000000; stroke-width: 0.8"/>
      </defs>
      <g>
       <use xlink:href="#m849293df15" x="49.900112" y="320.4" style="stroke: #000000; stroke-width: 0.8"/>
      </g>
     </g>
     <g id="text_1">
      <!-- −25 -->
      <g transform="translate(41.324331 334.998438) scale(0.1 -0.1)">
       <defs>
        <path id="OpenSans-Regular-2212" d="M 322 2044 
L 322 2469 
L 3331 2469 
L 3331 2044 
L 322 2044 
z
" transform="scale(0.015625)"/>
        <path id="OpenSans-Regular-32" d="M 3309 0 
L 316 0 
L 316 434 
L 1538 1675 
Q 1878 2019 2111 2287 
Q 2344 2556 2466 2817 
Q 2588 3078 2588 3391 
Q 2588 3778 2358 3983 
Q 2128 4188 1753 4188 
Q 1425 4188 1172 4075 
Q 919 3963 653 3756 
L 375 4106 
Q 556 4259 770 4378 
Q 984 4497 1229 4565 
Q 1475 4634 1753 4634 
Q 2175 4634 2481 4487 
Q 2788 4341 2955 4069 
Q 3122 3797 3122 3422 
Q 3122 3059 2978 2748 
Q 2834 2438 2575 2133 
Q 2316 1828 1969 1488 
L 975 497 
L 975 475 
L 3309 475 
L 3309 0 
z
" transform="scale(0.015625)"/>
        <path id="OpenSans-Regular-35" d="M 1759 2794 
Q 2225 2794 2569 2636 
Q 2913 2478 3102 2178 
Q 3291 1878 3291 1450 
Q 3291 981 3087 642 
Q 2884 303 2503 120 
Q 2122 -63 1591 -63 
Q 1234 -63 928 0 
Q 622 63 413 188 
L 413 681 
Q 641 544 966 462 
Q 1291 381 1597 381 
Q 1944 381 2205 492 
Q 2466 603 2611 829 
Q 2756 1056 2756 1400 
Q 2756 1856 2476 2104 
Q 2197 2353 1594 2353 
Q 1400 2353 1169 2322 
Q 938 2291 788 2253 
L 525 2425 
L 700 4569 
L 2972 4569 
L 2972 4094 
L 1144 4094 
L 1028 2716 
Q 1147 2741 1334 2767 
Q 1522 2794 1759 2794 
z
" transform="scale(0.015625)"/>
       </defs>
       <use xlink:href="#OpenSans-Regular-2212"/>
       <use xlink:href="#OpenSans-Regular-32" x="57.177734"/>
       <use xlink:href="#OpenSans-Regular-35" x="114.355469"/>
      </g>
     </g>
    </g>
    <g id="xtick_2">
     <g id="line2d_2">
      <g>
       <use xlink:href="#m849293df15" x="82.35864" y="320.4" style="stroke: #000000; stroke-width: 0.8"/>
      </g>
     </g>
     <g id="text_2">
      <!-- −20 -->
      <g transform="translate(73.782859 334.998438) scale(0.1 -0.1)">
       <defs>
        <path id="OpenSans-Regular-30" d="M 3334 2291 
Q 3334 1734 3250 1296 
Q 3166 859 2984 556 
Q 2803 253 2515 95 
Q 2228 -63 1825 -63 
Q 1316 -63 983 215 
Q 650 494 486 1020 
Q 322 1547 322 2291 
Q 322 3022 470 3548 
Q 619 4075 950 4358 
Q 1281 4641 1825 4641 
Q 2341 4641 2675 4361 
Q 3009 4081 3171 3554 
Q 3334 3028 3334 2291 
z
M 844 2291 
Q 844 1653 941 1228 
Q 1038 803 1255 592 
Q 1472 381 1825 381 
Q 2178 381 2395 590 
Q 2613 800 2711 1225 
Q 2809 1650 2809 2291 
Q 2809 2919 2712 3342 
Q 2616 3766 2400 3980 
Q 2184 4194 1825 4194 
Q 1466 4194 1250 3980 
Q 1034 3766 939 3342 
Q 844 2919 844 2291 
z
" transform="scale(0.015625)"/>
       </defs>
       <use xlink:href="#OpenSans-Regular-2212"/>
       <use xlink:href="#OpenSans-Regular-32" x="57.177734"/>
       <use xlink:href="#OpenSans-Regular-30" x="114.355469"/>
      </g>
     </g>
    </g>
    <g id="xtick_3">
     <g id="line2d_3">
      <g>
       <use xlink:href="#m849293df15" x="114.817168" y="320.4" style="stroke: #000000; stroke-width: 0.8"/>
      </g>
     </g>
     <g id="text_3">
      <!-- −15 -->
      <g transform="translate(106.241387 334.998438) scale(0.1 -0.1)">
       <defs>
        <path id="OpenSans-Regular-31" d="M 2247 0 
L 1741 0 
L 1741 3238 
Q 1741 3422 1742 3555 
Q 1744 3688 1748 3798 
Q 1753 3909 1763 4025 
Q 1666 3925 1581 3854 
Q 1497 3784 1372 3681 
L 850 3263 
L 578 3616 
L 1816 4569 
L 2247 4569 
L 2247 0 
z
" transform="scale(0.015625)"/>
       </defs>
       <use xlink:href="#OpenSans-Regular-2212"/>
       <use xlink:href="#OpenSans-Regular-31" x="57.177734"/>
       <use xlink:href="#OpenSans-Regular-35" x="114.355469"/>
      </g>
     </g>
    </g>
    <g id="xtick_4">
     <g id="line2d_4">
      <g>
       <use xlink:href="#m849293df15" x="147.275696" y="320.4" style="stroke: #000000; stroke-width: 0.8"/>
      </g>
     </g>
     <g id="text_4">
      <!-- −10 -->
      <g transform="translate(138.699915 334.998438) scale(0.1 -0.1)">
       <use xlink:href="#OpenSans-Regular-2212"/>
       <use xlink:href="#OpenSans-Regular-31" x="57.177734"/>
       <use xlink:href="#OpenSans-Regular-30" x="114.355469"/>
      </g>
     </g>
    </g>
    <g id="xtick_5">
     <g id="line2d_5">
      <g>
       <use xlink:href="#m849293df15" x="179.734224" y="320.4" style="stroke: #000000; stroke-width: 0.8"/>
      </g>
     </g>
     <g id="text_5">
      <!-- −5 -->
      <g transform="translate(174.017037 334.998438) scale(0.1 -0.1)">
       <use xlink:href="#OpenSans-Regular-2212"/>
       <use xlink:href="#OpenSans-Regular-35" x="57.177734"/>
      </g>
     </g>
    </g>
    <g id="xtick_6">
     <g id="line2d_6">
      <g>
       <use xlink:href="#m849293df15" x="212.192752" y="320.4" style="stroke: #000000; stroke-width: 0.8"/>
      </g>
     </g>
     <g id="text_6">
      <!-- 0 -->
      <g transform="translate(209.334159 334.998438) scale(0.1 -0.1)">
       <use xlink:href="#OpenSans-Regular-30"/>
      </g>
     </g>
    </g>
    <g id="xtick_7">
     <g id="line2d_7">
      <g>
       <use xlink:href="#m849293df15" x="244.651281" y="320.4" style="stroke: #000000; stroke-width: 0.8"/>
      </g>
     </g>
     <g id="text_7">
      <!-- 5 -->
      <g transform="translate(241.792687 334.998438) scale(0.1 -0.1)">
       <use xlink:href="#OpenSans-Regular-35"/>
      </g>
     </g>
    </g>
    <g id="xtick_8">
     <g id="line2d_8">
      <g>
       <use xlink:href="#m849293df15" x="277.109809" y="320.4" style="stroke: #000000; stroke-width: 0.8"/>
      </g>
     </g>
     <g id="text_8">
      <!-- 10 -->
      <g transform="translate(271.392621 334.998438) scale(0.1 -0.1)">
       <use xlink:href="#OpenSans-Regular-31"/>
       <use xlink:href="#OpenSans-Regular-30" x="57.177734"/>
      </g>
     </g>
    </g>
    <g id="xtick_9">
     <g id="line2d_9">
      <g>
       <use xlink:href="#m849293df15" x="309.568337" y="320.4" style="stroke: #000000; stroke-width: 0.8"/>
      </g>
     </g>
     <g id="text_9">
      <!-- 15 -->
      <g transform="translate(303.851149 334.998438) scale(0.1 -0.1)">
       <use xlink:href="#OpenSans-Regular-31"/>
       <use xlink:href="#OpenSans-Regular-35" x="57.177734"/>
      </g>
     </g>
    </g>
    <g id="text_10">
     <!-- x -->
     <g transform="translate(181.882812 348.989062) scale(0.1 -0.1)">
      <defs>
       <path id="OpenSans-Regular-78" d="M 1363 1753 
L 178 3425 
L 772 3425 
L 1675 2106 
L 2575 3425 
L 3163 3425 
L 1978 1753 
L 3228 0 
L 2634 0 
L 1675 1397 
L 709 0 
L 122 0 
L 1363 1753 
z
" transform="scale(0.015625)"/>
      </defs>
      <use xlink:href="#OpenSans-Regular-78"/>
     </g>
    </g>
   </g>
   <g id="matplotlib.axis_2">
    <g id="ytick_1">
     <g id="line2d_10">
      <defs>
       <path id="md4665d80a0" d="M 0 0 
L -3.5 0 
" style="stroke: #000000; stroke-width: 0.8"/>
      </defs>
      <g>
       <use xlink:href="#md4665d80a0" x="45" y="317.864381" style="stroke: #000000; stroke-width: 0.8"/>
      </g>
     </g>
     <g id="text_11">
      <!-- −200 -->
      <g transform="translate(15.13125 321.6636) scale(0.1 -0.1)">
       <use xlink:href="#OpenSans-Regular-2212"/>
       <use xlink:href="#OpenSans-Regular-32" x="57.177734"/>
       <use xlink:href="#OpenSans-Regular-30" x="114.355469"/>
       <use xlink:href="#OpenSans-Regular-30" x="171.533203"/>
      </g>
     </g>
    </g>
    <g id="ytick_2">
     <g id="line2d_11">
      <g>
       <use xlink:href="#md4665d80a0" x="45" y="257.992643" style="stroke: #000000; stroke-width: 0.8"/>
      </g>
     </g>
     <g id="text_12">
      <!-- −150 -->
      <g transform="translate(15.13125 261.791862) scale(0.1 -0.1)">
       <use xlink:href="#OpenSans-Regular-2212"/>
       <use xlink:href="#OpenSans-Regular-31" x="57.177734"/>
       <use xlink:href="#OpenSans-Regular-35" x="114.355469"/>
       <use xlink:href="#OpenSans-Regular-30" x="171.533203"/>
      </g>
     </g>
    </g>
    <g id="ytick_3">
     <g id="line2d_12">
      <g>
       <use xlink:href="#md4665d80a0" x="45" y="198.120906" style="stroke: #000000; stroke-width: 0.8"/>
      </g>
     </g>
     <g id="text_13">
      <!-- −100 -->
      <g transform="translate(15.13125 201.920124) scale(0.1 -0.1)">
       <use xlink:href="#OpenSans-Regular-2212"/>
       <use xlink:href="#OpenSans-Regular-31" x="57.177734"/>
       <use xlink:href="#OpenSans-Regular-30" x="114.355469"/>
       <use xlink:href="#OpenSans-Regular-30" x="171.533203"/>
      </g>
     </g>
    </g>
    <g id="ytick_4">
     <g id="line2d_13">
      <g>
       <use xlink:href="#md4665d80a0" x="45" y="138.249168" style="stroke: #000000; stroke-width: 0.8"/>
      </g>
     </g>
     <g id="text_14">
      <!-- −50 -->
      <g transform="translate(20.848437 142.048387) scale(0.1 -0.1)">
       <use xlink:href="#OpenSans-Regular-2212"/>
       <use xlink:href="#OpenSans-Regular-35" x="57.177734"/>
       <use xlink:href="#OpenSans-Regular-30" x="114.355469"/>
      </g>
     </g>
    </g>
    <g id="ytick_5">
     <g id="line2d_14">
      <g>
       <use xlink:href="#md4665d80a0" x="45" y="78.37743" style="stroke: #000000; stroke-width: 0.8"/>
      </g>
     </g>
     <g id="text_15">
      <!-- 0 -->
      <g transform="translate(32.282812 82.176649) scale(0.1 -0.1)">
       <use xlink:href="#OpenSans-Regular-30"/>
      </g>
     </g>
    </g>
    <g id="text_16">
     <!-- y -->
     <g transform="translate(8.723437 184.304687) rotate(-90) scale(0.1 -0.1)">
      <defs>
       <path id="OpenSans-Regular-79" d="M 6 3425 
L 563 3425 
L 1319 1438 
Q 1384 1263 1440 1102 
Q 1497 941 1540 794 
Q 1584 647 1609 509 
L 1631 509 
Q 1675 666 1756 920 
Q 1838 1175 1931 1441 
L 2647 3425 
L 3206 3425 
L 1716 -503 
Q 1597 -819 1439 -1053 
Q 1281 -1288 1056 -1414 
Q 831 -1541 513 -1541 
Q 366 -1541 253 -1523 
Q 141 -1506 59 -1484 
L 59 -1069 
Q 128 -1084 226 -1096 
Q 325 -1109 431 -1109 
Q 625 -1109 767 -1036 
Q 909 -963 1012 -822 
Q 1116 -681 1191 -488 
L 1378 -6 
L 6 3425 
z
" transform="scale(0.015625)"/>
      </defs>
      <use xlink:href="#OpenSans-Regular-79"/>
     </g>
    </g>
   </g>
   <g id="patch_3">
    <path d="M 45 320.4 
L 45 43.2 
" style="fill: none; stroke: #000000; stroke-width: 0.8; stroke-linejoin: miter; stroke-linecap: square"/>
   </g>
   <g id="patch_4">
    <path d="M 324 320.4 
L 324 43.2 
" style="fill: none; stroke: #000000; stroke-width: 0.8; stroke-linejoin: miter; stroke-linecap: square"/>
   </g>
   <g id="patch_5">
    <path d="M 45 320.4 
L 324 320.4 
" style="fill: none; stroke: #000000; stroke-width: 0.8; stroke-linejoin: miter; stroke-linecap: square"/>
   </g>
   <g id="patch_6">
    <path d="M 45 43.2 
L 324 43.2 
" style="fill: none; stroke: #000000; stroke-width: 0.8; stroke-linejoin: miter; stroke-linecap: square"/>
   </g>
   <g id="text_17">
    <!-- Диаграмма рассеяния -->
    <g transform="translate(119.581875 37.2) scale(0.12 -0.12)">
     <defs>
      <path id="OpenSans-Regular-414" d="M 3669 4569 
L 3669 475 
L 4231 475 
L 4231 -1194 
L 3722 -1194 
L 3722 0 
L 547 0 
L 547 -1194 
L 38 -1194 
L 38 475 
L 388 475 
Q 622 875 826 1373 
Q 1031 1872 1192 2417 
Q 1353 2963 1454 3513 
Q 1556 4063 1584 4569 
L 3669 4569 
z
M 3141 4091 
L 2053 4091 
Q 2025 3703 1928 3226 
Q 1831 2750 1679 2250 
Q 1528 1750 1342 1290 
Q 1156 831 950 475 
L 3141 475 
L 3141 4091 
z
" transform="scale(0.015625)"/>
      <path id="OpenSans-Regular-438" d="M 1041 3425 
L 1041 1272 
Q 1041 1209 1037 1111 
Q 1034 1013 1028 902 
Q 1022 791 1017 689 
Q 1013 588 1006 522 
L 2875 3425 
L 3513 3425 
L 3513 0 
L 3028 0 
L 3028 2100 
Q 3028 2200 3031 2356 
Q 3034 2513 3040 2664 
Q 3047 2816 3050 2900 
L 1188 0 
L 547 0 
L 547 3425 
L 1041 3425 
z
" transform="scale(0.015625)"/>
      <path id="OpenSans-Regular-430" d="M 1828 3481 
Q 2441 3481 2737 3206 
Q 3034 2931 3034 2328 
L 3034 0 
L 2656 0 
L 2556 506 
L 2531 506 
Q 2388 319 2231 192 
Q 2075 66 1870 1 
Q 1666 -63 1369 -63 
Q 1056 -63 814 46 
Q 572 156 433 378 
Q 294 600 294 941 
Q 294 1453 700 1728 
Q 1106 2003 1938 2028 
L 2528 2053 
L 2528 2263 
Q 2528 2706 2337 2884 
Q 2147 3063 1800 3063 
Q 1531 3063 1287 2984 
Q 1044 2906 825 2800 
L 666 3194 
Q 897 3313 1197 3397 
Q 1497 3481 1828 3481 
z
M 2522 1688 
L 2000 1666 
Q 1359 1641 1096 1456 
Q 834 1272 834 934 
Q 834 641 1012 500 
Q 1191 359 1484 359 
Q 1941 359 2231 612 
Q 2522 866 2522 1372 
L 2522 1688 
z
" transform="scale(0.015625)"/>
      <path id="OpenSans-Regular-433" d="M 2625 3425 
L 2625 2984 
L 1069 2984 
L 1069 0 
L 547 0 
L 547 3425 
L 2625 3425 
z
" transform="scale(0.015625)"/>
      <path id="OpenSans-Regular-440" d="M 2156 3488 
Q 2797 3488 3178 3047 
Q 3559 2606 3559 1722 
Q 3559 1138 3384 741 
Q 3209 344 2892 140 
Q 2575 -63 2144 -63 
Q 1872 -63 1665 9 
Q 1459 81 1312 203 
Q 1166 325 1069 469 
L 1031 469 
Q 1041 347 1055 175 
Q 1069 3 1069 -125 
L 1069 -1531 
L 547 -1531 
L 547 3425 
L 975 3425 
L 1044 2919 
L 1069 2919 
Q 1169 3075 1312 3204 
Q 1456 3334 1664 3411 
Q 1872 3488 2156 3488 
z
M 2066 3050 
Q 1709 3050 1492 2912 
Q 1275 2775 1175 2501 
Q 1075 2228 1069 1816 
L 1069 1716 
Q 1069 1281 1164 981 
Q 1259 681 1479 525 
Q 1700 369 2072 369 
Q 2391 369 2603 541 
Q 2816 713 2920 1020 
Q 3025 1328 3025 1728 
Q 3025 2334 2789 2692 
Q 2553 3050 2066 3050 
z
" transform="scale(0.015625)"/>
      <path id="OpenSans-Regular-43c" d="M 4163 3425 
L 4163 0 
L 3694 0 
L 3694 2231 
Q 3694 2369 3701 2511 
Q 3709 2653 3722 2797 
L 3703 2797 
L 2566 0 
L 2125 0 
L 1016 2797 
L 997 2797 
Q 1006 2653 1011 2511 
Q 1016 2369 1016 2213 
L 1016 0 
L 544 0 
L 544 3425 
L 1241 3425 
L 2347 625 
L 3469 3425 
L 4163 3425 
z
" transform="scale(0.015625)"/>
      <path id="OpenSans-Regular-20" transform="scale(0.015625)"/>
      <path id="OpenSans-Regular-441" d="M 1919 -63 
Q 1456 -63 1103 128 
Q 750 319 553 709 
Q 356 1100 356 1694 
Q 356 2316 564 2711 
Q 772 3106 1137 3297 
Q 1503 3488 1969 3488 
Q 2225 3488 2464 3436 
Q 2703 3384 2856 3306 
L 2700 2872 
Q 2544 2934 2339 2984 
Q 2134 3034 1956 3034 
Q 1600 3034 1364 2881 
Q 1128 2728 1011 2431 
Q 894 2134 894 1700 
Q 894 1284 1008 990 
Q 1122 697 1348 542 
Q 1575 388 1916 388 
Q 2188 388 2406 445 
Q 2625 503 2803 581 
L 2803 119 
Q 2631 31 2420 -16 
Q 2209 -63 1919 -63 
z
" transform="scale(0.015625)"/>
      <path id="OpenSans-Regular-435" d="M 1866 3488 
Q 2303 3488 2615 3294 
Q 2928 3100 3093 2751 
Q 3259 2403 3259 1938 
L 3259 1616 
L 894 1616 
Q 903 1013 1193 697 
Q 1484 381 2013 381 
Q 2338 381 2588 440 
Q 2838 500 3106 616 
L 3106 159 
Q 2847 44 2592 -9 
Q 2338 -63 1991 -63 
Q 1497 -63 1130 139 
Q 763 341 559 731 
Q 356 1122 356 1688 
Q 356 2241 542 2645 
Q 728 3050 1067 3269 
Q 1406 3488 1866 3488 
z
M 1859 3063 
Q 1444 3063 1197 2791 
Q 950 2519 903 2031 
L 2716 2031 
Q 2713 2338 2620 2570 
Q 2528 2803 2340 2933 
Q 2153 3063 1859 3063 
z
" transform="scale(0.015625)"/>
      <path id="OpenSans-Regular-44f" d="M 713 0 
L 106 0 
L 1094 1444 
Q 878 1491 693 1605 
Q 509 1719 395 1919 
Q 281 2119 281 2416 
Q 281 2909 611 3167 
Q 941 3425 1481 3425 
L 2997 3425 
L 2997 0 
L 2478 0 
L 2478 1375 
L 1609 1375 
L 713 0 
z
M 784 2413 
Q 784 2106 1003 1957 
Q 1222 1809 1628 1809 
L 2478 1809 
L 2478 2991 
L 1538 2991 
Q 1138 2991 961 2830 
Q 784 2669 784 2413 
z
" transform="scale(0.015625)"/>
      <path id="OpenSans-Regular-43d" d="M 1069 3425 
L 1069 1988 
L 2978 1988 
L 2978 3425 
L 3497 3425 
L 3497 0 
L 2978 0 
L 2978 1547 
L 1069 1547 
L 1069 0 
L 547 0 
L 547 3425 
L 1069 3425 
z
" transform="scale(0.015625)"/>
     </defs>
     <use xlink:href="#OpenSans-Regular-414"/>
     <use xlink:href="#OpenSans-Regular-438" x="68.408203"/>
     <use xlink:href="#OpenSans-Regular-430" x="131.982422"/>
     <use xlink:href="#OpenSans-Regular-433" x="187.548828"/>
     <use xlink:href="#OpenSans-Regular-440" x="230.664062"/>
     <use xlink:href="#OpenSans-Regular-430" x="291.845703"/>
     <use xlink:href="#OpenSans-Regular-43c" x="347.412109"/>
     <use xlink:href="#OpenSans-Regular-43c" x="420.751953"/>
     <use xlink:href="#OpenSans-Regular-430" x="494.091797"/>
     <use xlink:href="#OpenSans-Regular-20" x="549.658203"/>
     <use xlink:href="#OpenSans-Regular-440" x="575.634766"/>
     <use xlink:href="#OpenSans-Regular-430" x="636.816406"/>
     <use xlink:href="#OpenSans-Regular-441" x="692.382812"/>
     <use xlink:href="#OpenSans-Regular-441" x="740.283203"/>
     <use xlink:href="#OpenSans-Regular-435" x="788.183594"/>
     <use xlink:href="#OpenSans-Regular-44f" x="844.335938"/>
     <use xlink:href="#OpenSans-Regular-43d" x="899.707031"/>
     <use xlink:href="#OpenSans-Regular-438" x="962.988281"/>
     <use xlink:href="#OpenSans-Regular-44f" x="1026.5625"/>
    </g>
   </g>
  </g>
 </g>
 <defs>
  <clipPath id="pdc45b98a22">
   <rect x="45" y="43.2" width="279" height="277.2"/>
  </clipPath>
 </defs>
</svg>
