<?xml version="1.0" encoding="utf-8" standalone="no"?>
<!DOCTYPE svg PUBLIC "-//W3C//DTD SVG 1.1//EN"
  "http://www.w3.org/Graphics/SVG/1.1/DTD/svg11.dtd">
<svg xmlns:xlink="http://www.w3.org/1999/xlink" width="360pt" height="360pt" viewBox="0 0 360 360" xmlns="http://www.w3.org/2000/svg" version="1.1">
 <metadata>
  <rdf:RDF xmlns:dc="http://purl.org/dc/elements/1.1/" xmlns:cc="http://creativecommons.org/ns#" xmlns:rdf="http://www.w3.org/1999/02/22-rdf-syntax-ns#">
   <cc:Work>
    <dc:type rdf:resource="http://purl.org/dc/dcmitype/StillImage"/>
    <dc:date>2023-11-23T17:59:05.091980</dc:date>
    <dc:format>image/svg+xml</dc:format>
    <dc:creator>
     <cc:Agent>
      <dc:title>Matplotlib v3.8.0, https://matplotlib.org/</dc:title>
     </cc:Agent>
    </dc:creator>
   </cc:Work>
  </rdf:RDF>
 </metadata>
 <defs>
  <style type="text/css">*{stroke-linejoin: round; stroke-linecap: butt}</style>
 </defs>
 <g id="figure_1">
  <g id="patch_1">
   <path d="M 0 360 
L 360 360 
L 360 0 
L 0 0 
z
" style="fill: #ffffff"/>
  </g>
  <g id="axes_1">
   <g id="patch_2">
    <path d="M 45 320.4 
L 324 320.4 
L 324 43.2 
L 45 43.2 
z
" style="fill: #ffffff"/>
   </g>
   <g id="PathCollection_1">
    <defs>
     <path id="m91ae07e896" d="M 0 1.870829 
C 0.49615 1.870829 0.972045 1.673706 1.322876 1.322876 
C 1.673706 0.972045 1.870829 0.49615 1.870829 0 
C 1.870829 -0.49615 1.673706 -0.972045 1.322876 -1.322876 
C 0.972045 -1.673706 0.49615 -1.870829 0 -1.870829 
C -0.49615 -1.870829 -0.972045 -1.673706 -1.322876 -1.322876 
C -1.673706 -0.972045 -1.870829 -0.49615 -1.870829 0 
C -1.870829 0.49615 -1.673706 0.972045 -1.322876 1.322876 
C -0.972045 1.673706 -0.49615 1.870829 0 1.870829 
z
" style="stroke: #000000"/>
    </defs>
    <g clip-path="url(#p0dcb22d109)">
     <use xlink:href="#m91ae07e896" x="163.705925" y="159.409487" style="stroke: #000000"/>
     <use xlink:href="#m91ae07e896" x="212.026547" y="209.989409" style="stroke: #000000"/>
     <use xlink:href="#m91ae07e896" x="178.89728" y="161.097733" style="stroke: #000000"/>
     <use xlink:href="#m91ae07e896" x="174.926169" y="152.167706" style="stroke: #000000"/>
     <use xlink:href="#m91ae07e896" x="210.824844" y="197.418835" style="stroke: #000000"/>
     <use xlink:href="#m91ae07e896" x="217.30054" y="203.140945" style="stroke: #000000"/>
     <use xlink:href="#m91ae07e896" x="200.620916" y="194.676878" style="stroke: #000000"/>
     <use xlink:href="#m91ae07e896" x="190.804042" y="193.215068" style="stroke: #000000"/>
     <use xlink:href="#m91ae07e896" x="288.599975" y="282.607405" style="stroke: #000000"/>
     <use xlink:href="#m91ae07e896" x="154.766518" y="136.92336" style="stroke: #000000"/>
     <use xlink:href="#m91ae07e896" x="111.043769" y="108.473166" style="stroke: #000000"/>
     <use xlink:href="#m91ae07e896" x="147.948672" y="136.468917" style="stroke: #000000"/>
     <use xlink:href="#m91ae07e896" x="144.542363" y="133.712305" style="stroke: #000000"/>
     <use xlink:href="#m91ae07e896" x="211.959241" y="196.181249" style="stroke: #000000"/>
     <use xlink:href="#m91ae07e896" x="172.36403" y="162.654217" style="stroke: #000000"/>
     <use xlink:href="#m91ae07e896" x="252.5577" y="244.215081" style="stroke: #000000"/>
     <use xlink:href="#m91ae07e896" x="173.298907" y="167.413474" style="stroke: #000000"/>
     <use xlink:href="#m91ae07e896" x="180.289894" y="169.874396" style="stroke: #000000"/>
     <use xlink:href="#m91ae07e896" x="143.129223" y="120.585748" style="stroke: #000000"/>
     <use xlink:href="#m91ae07e896" x="169.120502" y="157.361082" style="stroke: #000000"/>
     <use xlink:href="#m91ae07e896" x="234.296065" y="228.900059" style="stroke: #000000"/>
     <use xlink:href="#m91ae07e896" x="187.46487" y="172.959539" style="stroke: #000000"/>
     <use xlink:href="#m91ae07e896" x="145.820551" y="121.196757" style="stroke: #000000"/>
     <use xlink:href="#m91ae07e896" x="212.1256" y="209.696898" style="stroke: #000000"/>
     <use xlink:href="#m91ae07e896" x="197.211517" y="193.549492" style="stroke: #000000"/>
     <use xlink:href="#m91ae07e896" x="238.72232" y="227.768698" style="stroke: #000000"/>
     <use xlink:href="#m91ae07e896" x="96.544469" y="80.728347" style="stroke: #000000"/>
     <use xlink:href="#m91ae07e896" x="202.703498" y="201.110616" style="stroke: #000000"/>
     <use xlink:href="#m91ae07e896" x="235.798064" y="228.692079" style="stroke: #000000"/>
     <use xlink:href="#m91ae07e896" x="244.784401" y="234.459776" style="stroke: #000000"/>
     <use xlink:href="#m91ae07e896" x="182.737979" y="162.30157" style="stroke: #000000"/>
     <use xlink:href="#m91ae07e896" x="228.672156" y="216.05852" style="stroke: #000000"/>
     <use xlink:href="#m91ae07e896" x="159.89655" y="145.917205" style="stroke: #000000"/>
     <use xlink:href="#m91ae07e896" x="206.379762" y="196.654365" style="stroke: #000000"/>
     <use xlink:href="#m91ae07e896" x="203.514412" y="193.950939" style="stroke: #000000"/>
     <use xlink:href="#m91ae07e896" x="241.226" y="240.053557" style="stroke: #000000"/>
     <use xlink:href="#m91ae07e896" x="197.383728" y="182.034067" style="stroke: #000000"/>
     <use xlink:href="#m91ae07e896" x="182.531113" y="172.246757" style="stroke: #000000"/>
     <use xlink:href="#m91ae07e896" x="176.051075" y="163.164204" style="stroke: #000000"/>
     <use xlink:href="#m91ae07e896" x="218.594075" y="201.7051" style="stroke: #000000"/>
     <use xlink:href="#m91ae07e896" x="181.21154" y="180.297752" style="stroke: #000000"/>
     <use xlink:href="#m91ae07e896" x="127.954119" y="108.865915" style="stroke: #000000"/>
     <use xlink:href="#m91ae07e896" x="167.149643" y="152.920392" style="stroke: #000000"/>
     <use xlink:href="#m91ae07e896" x="231.684677" y="217.598063" style="stroke: #000000"/>
     <use xlink:href="#m91ae07e896" x="163.432206" y="148.921765" style="stroke: #000000"/>
     <use xlink:href="#m91ae07e896" x="198.360359" y="191.099378" style="stroke: #000000"/>
     <use xlink:href="#m91ae07e896" x="176.261019" y="155.570627" style="stroke: #000000"/>
     <use xlink:href="#m91ae07e896" x="123.431209" y="116.50139" style="stroke: #000000"/>
     <use xlink:href="#m91ae07e896" x="230.797543" y="216.226507" style="stroke: #000000"/>
     <use xlink:href="#m91ae07e896" x="241.315753" y="230.497295" style="stroke: #000000"/>
     <use xlink:href="#m91ae07e896" x="118.718712" y="111.985904" style="stroke: #000000"/>
     <use xlink:href="#m91ae07e896" x="189.10773" y="182.902112" style="stroke: #000000"/>
     <use xlink:href="#m91ae07e896" x="130.173436" y="114.573741" style="stroke: #000000"/>
     <use xlink:href="#m91ae07e896" x="202.430123" y="185.900878" style="stroke: #000000"/>
     <use xlink:href="#m91ae07e896" x="171.200665" y="162.824774" style="stroke: #000000"/>
     <use xlink:href="#m91ae07e896" x="194.383345" y="169.159" style="stroke: #000000"/>
     <use xlink:href="#m91ae07e896" x="163.208687" y="158.033842" style="stroke: #000000"/>
     <use xlink:href="#m91ae07e896" x="208.891549" y="191.912848" style="stroke: #000000"/>
     <use xlink:href="#m91ae07e896" x="201.618121" y="191.936962" style="stroke: #000000"/>
     <use xlink:href="#m91ae07e896" x="219.771695" y="208.853262" style="stroke: #000000"/>
     <use xlink:href="#m91ae07e896" x="157.684378" y="141.948806" style="stroke: #000000"/>
     <use xlink:href="#m91ae07e896" x="244.9993" y="249.783975" style="stroke: #000000"/>
     <use xlink:href="#m91ae07e896" x="151.025561" y="128.798944" style="stroke: #000000"/>
     <use xlink:href="#m91ae07e896" x="219.932998" y="218.925015" style="stroke: #000000"/>
     <use xlink:href="#m91ae07e896" x="193.000253" y="189.562762" style="stroke: #000000"/>
     <use xlink:href="#m91ae07e896" x="209.960251" y="203.601882" style="stroke: #000000"/>
     <use xlink:href="#m91ae07e896" x="57.681818" y="55.8" style="stroke: #000000"/>
     <use xlink:href="#m91ae07e896" x="156.170147" y="135.488773" style="stroke: #000000"/>
     <use xlink:href="#m91ae07e896" x="166.733014" y="147.919749" style="stroke: #000000"/>
     <use xlink:href="#m91ae07e896" x="211.061249" y="207.956158" style="stroke: #000000"/>
     <use xlink:href="#m91ae07e896" x="202.17822" y="194.085412" style="stroke: #000000"/>
     <use xlink:href="#m91ae07e896" x="255.574885" y="249.736715" style="stroke: #000000"/>
     <use xlink:href="#m91ae07e896" x="199.327463" y="177.500279" style="stroke: #000000"/>
     <use xlink:href="#m91ae07e896" x="259.198209" y="260.965647" style="stroke: #000000"/>
     <use xlink:href="#m91ae07e896" x="185.386721" y="184.86257" style="stroke: #000000"/>
     <use xlink:href="#m91ae07e896" x="204.553767" y="191.86285" style="stroke: #000000"/>
     <use xlink:href="#m91ae07e896" x="262.158195" y="251.648618" style="stroke: #000000"/>
     <use xlink:href="#m91ae07e896" x="196.724898" y="181.867514" style="stroke: #000000"/>
     <use xlink:href="#m91ae07e896" x="158.373696" y="142.659245" style="stroke: #000000"/>
     <use xlink:href="#m91ae07e896" x="230.76893" y="209.658841" style="stroke: #000000"/>
     <use xlink:href="#m91ae07e896" x="121.058654" y="113.782802" style="stroke: #000000"/>
     <use xlink:href="#m91ae07e896" x="168.076568" y="152.414753" style="stroke: #000000"/>
     <use xlink:href="#m91ae07e896" x="209.910361" y="197.012016" style="stroke: #000000"/>
     <use xlink:href="#m91ae07e896" x="172.38787" y="158.222124" style="stroke: #000000"/>
     <use xlink:href="#m91ae07e896" x="133.386033" y="124.79099" style="stroke: #000000"/>
     <use xlink:href="#m91ae07e896" x="128.8899" y="105.126704" style="stroke: #000000"/>
     <use xlink:href="#m91ae07e896" x="170.494304" y="163.630073" style="stroke: #000000"/>
     <use xlink:href="#m91ae07e896" x="191.83591" y="181.625626" style="stroke: #000000"/>
     <use xlink:href="#m91ae07e896" x="137.829566" y="122.982787" style="stroke: #000000"/>
     <use xlink:href="#m91ae07e896" x="151.537651" y="134.295695" style="stroke: #000000"/>
     <use xlink:href="#m91ae07e896" x="200.345041" y="193.734845" style="stroke: #000000"/>
     <use xlink:href="#m91ae07e896" x="165.450964" y="158.362302" style="stroke: #000000"/>
     <use xlink:href="#m91ae07e896" x="179.812004" y="155.432238" style="stroke: #000000"/>
     <use xlink:href="#m91ae07e896" x="166.610634" y="146.102285" style="stroke: #000000"/>
     <use xlink:href="#m91ae07e896" x="131.850924" y="110.723889" style="stroke: #000000"/>
     <use xlink:href="#m91ae07e896" x="256.479699" y="240.555793" style="stroke: #000000"/>
     <use xlink:href="#m91ae07e896" x="128.424408" y="126.024172" style="stroke: #000000"/>
     <use xlink:href="#m91ae07e896" x="232.927965" y="220.699637" style="stroke: #000000"/>
     <use xlink:href="#m91ae07e896" x="252.978422" y="251.035677" style="stroke: #000000"/>
     <use xlink:href="#m91ae07e896" x="201.009789" y="191.028871" style="stroke: #000000"/>
     <use xlink:href="#m91ae07e896" x="208.14488" y="186.823282" style="stroke: #000000"/>
     <use xlink:href="#m91ae07e896" x="257.62627" y="247.761446" style="stroke: #000000"/>
     <use xlink:href="#m91ae07e896" x="133.696805" y="121.736984" style="stroke: #000000"/>
     <use xlink:href="#m91ae07e896" x="239.513769" y="231.32927" style="stroke: #000000"/>
     <use xlink:href="#m91ae07e896" x="216.188393" y="207.612346" style="stroke: #000000"/>
     <use xlink:href="#m91ae07e896" x="199.218576" y="187.83255" style="stroke: #000000"/>
     <use xlink:href="#m91ae07e896" x="216.520565" y="215.853451" style="stroke: #000000"/>
     <use xlink:href="#m91ae07e896" x="216.08869" y="200.990783" style="stroke: #000000"/>
     <use xlink:href="#m91ae07e896" x="145.677526" y="129.682441" style="stroke: #000000"/>
     <use xlink:href="#m91ae07e896" x="155.247251" y="129.210227" style="stroke: #000000"/>
     <use xlink:href="#m91ae07e896" x="141.682245" y="129.185465" style="stroke: #000000"/>
     <use xlink:href="#m91ae07e896" x="254.886936" y="246.017952" style="stroke: #000000"/>
     <use xlink:href="#m91ae07e896" x="231.954075" y="216.695503" style="stroke: #000000"/>
     <use xlink:href="#m91ae07e896" x="205.640504" y="191.011949" style="stroke: #000000"/>
     <use xlink:href="#m91ae07e896" x="157.991861" y="150.261106" style="stroke: #000000"/>
     <use xlink:href="#m91ae07e896" x="224.48792" y="209.431883" style="stroke: #000000"/>
     <use xlink:href="#m91ae07e896" x="162.001062" y="149.695438" style="stroke: #000000"/>
     <use xlink:href="#m91ae07e896" x="129.147498" y="106.438493" style="stroke: #000000"/>
     <use xlink:href="#m91ae07e896" x="194.965077" y="188.656986" style="stroke: #000000"/>
     <use xlink:href="#m91ae07e896" x="165.346226" y="155.698013" style="stroke: #000000"/>
     <use xlink:href="#m91ae07e896" x="153.600458" y="129.443405" style="stroke: #000000"/>
     <use xlink:href="#m91ae07e896" x="184.907466" y="174.830077" style="stroke: #000000"/>
     <use xlink:href="#m91ae07e896" x="277.613567" y="263.377084" style="stroke: #000000"/>
     <use xlink:href="#m91ae07e896" x="197.920501" y="193.012205" style="stroke: #000000"/>
     <use xlink:href="#m91ae07e896" x="216.812961" y="201.815039" style="stroke: #000000"/>
     <use xlink:href="#m91ae07e896" x="187.190785" y="170.646538" style="stroke: #000000"/>
     <use xlink:href="#m91ae07e896" x="163.81859" y="157.756188" style="stroke: #000000"/>
     <use xlink:href="#m91ae07e896" x="237.781656" y="228.899928" style="stroke: #000000"/>
     <use xlink:href="#m91ae07e896" x="210.838956" y="204.801517" style="stroke: #000000"/>
     <use xlink:href="#m91ae07e896" x="195.236324" y="186.431052" style="stroke: #000000"/>
     <use xlink:href="#m91ae07e896" x="189.244251" y="181.780417" style="stroke: #000000"/>
     <use xlink:href="#m91ae07e896" x="248.090565" y="245.166202" style="stroke: #000000"/>
     <use xlink:href="#m91ae07e896" x="164.247457" y="154.885906" style="stroke: #000000"/>
     <use xlink:href="#m91ae07e896" x="158.022811" y="142.970214" style="stroke: #000000"/>
     <use xlink:href="#m91ae07e896" x="157.142133" y="142.845645" style="stroke: #000000"/>
     <use xlink:href="#m91ae07e896" x="208.933768" y="201.560931" style="stroke: #000000"/>
     <use xlink:href="#m91ae07e896" x="221.266048" y="211.329032" style="stroke: #000000"/>
     <use xlink:href="#m91ae07e896" x="232.426304" y="224.277679" style="stroke: #000000"/>
     <use xlink:href="#m91ae07e896" x="237.293541" y="221.239312" style="stroke: #000000"/>
     <use xlink:href="#m91ae07e896" x="176.723033" y="161.296055" style="stroke: #000000"/>
     <use xlink:href="#m91ae07e896" x="192.94711" y="186.66843" style="stroke: #000000"/>
     <use xlink:href="#m91ae07e896" x="209.65134" y="197.303106" style="stroke: #000000"/>
     <use xlink:href="#m91ae07e896" x="202.254157" y="188.937069" style="stroke: #000000"/>
     <use xlink:href="#m91ae07e896" x="189.614517" y="178.237273" style="stroke: #000000"/>
     <use xlink:href="#m91ae07e896" x="155.506411" y="136.000105" style="stroke: #000000"/>
     <use xlink:href="#m91ae07e896" x="209.203417" y="201.990675" style="stroke: #000000"/>
     <use xlink:href="#m91ae07e896" x="238.59903" y="235.048258" style="stroke: #000000"/>
     <use xlink:href="#m91ae07e896" x="213.599719" y="202.341055" style="stroke: #000000"/>
     <use xlink:href="#m91ae07e896" x="180.506499" y="160.567975" style="stroke: #000000"/>
     <use xlink:href="#m91ae07e896" x="207.288206" y="192.805702" style="stroke: #000000"/>
     <use xlink:href="#m91ae07e896" x="230.436018" y="237.138041" style="stroke: #000000"/>
     <use xlink:href="#m91ae07e896" x="246.018232" y="221.481767" style="stroke: #000000"/>
     <use xlink:href="#m91ae07e896" x="237.406274" y="223.585937" style="stroke: #000000"/>
     <use xlink:href="#m91ae07e896" x="235.841806" y="215.26336" style="stroke: #000000"/>
     <use xlink:href="#m91ae07e896" x="168.847916" y="152.525864" style="stroke: #000000"/>
     <use xlink:href="#m91ae07e896" x="217.64824" y="199.818629" style="stroke: #000000"/>
     <use xlink:href="#m91ae07e896" x="158.23122" y="151.821598" style="stroke: #000000"/>
     <use xlink:href="#m91ae07e896" x="180.777639" y="173.402104" style="stroke: #000000"/>
     <use xlink:href="#m91ae07e896" x="279.716988" y="278.324406" style="stroke: #000000"/>
     <use xlink:href="#m91ae07e896" x="170.272412" y="148.551601" style="stroke: #000000"/>
     <use xlink:href="#m91ae07e896" x="248.527192" y="235.069035" style="stroke: #000000"/>
     <use xlink:href="#m91ae07e896" x="195.53725" y="184.016238" style="stroke: #000000"/>
     <use xlink:href="#m91ae07e896" x="204.7142" y="175.194824" style="stroke: #000000"/>
     <use xlink:href="#m91ae07e896" x="206.706507" y="195.093525" style="stroke: #000000"/>
     <use xlink:href="#m91ae07e896" x="162.604658" y="143.876453" style="stroke: #000000"/>
     <use xlink:href="#m91ae07e896" x="262.176599" y="247.111505" style="stroke: #000000"/>
     <use xlink:href="#m91ae07e896" x="224.906999" y="220.760467" style="stroke: #000000"/>
     <use xlink:href="#m91ae07e896" x="218.422527" y="212.914962" style="stroke: #000000"/>
     <use xlink:href="#m91ae07e896" x="93.639476" y="80.220504" style="stroke: #000000"/>
     <use xlink:href="#m91ae07e896" x="254.011376" y="237.62966" style="stroke: #000000"/>
     <use xlink:href="#m91ae07e896" x="208.562961" y="197.878417" style="stroke: #000000"/>
     <use xlink:href="#m91ae07e896" x="205.122081" y="196.472108" style="stroke: #000000"/>
     <use xlink:href="#m91ae07e896" x="150.159403" y="125.364934" style="stroke: #000000"/>
     <use xlink:href="#m91ae07e896" x="184.513467" y="169.467972" style="stroke: #000000"/>
     <use xlink:href="#m91ae07e896" x="170.720699" y="163.636717" style="stroke: #000000"/>
     <use xlink:href="#m91ae07e896" x="311.318182" y="307.8" style="stroke: #000000"/>
     <use xlink:href="#m91ae07e896" x="191.52413" y="165.224121" style="stroke: #000000"/>
     <use xlink:href="#m91ae07e896" x="232.319277" y="236.344378" style="stroke: #000000"/>
     <use xlink:href="#m91ae07e896" x="251.834723" y="240.229484" style="stroke: #000000"/>
     <use xlink:href="#m91ae07e896" x="192.054088" y="174.640094" style="stroke: #000000"/>
     <use xlink:href="#m91ae07e896" x="188.704032" y="180.609587" style="stroke: #000000"/>
     <use xlink:href="#m91ae07e896" x="126.958639" y="122.80715" style="stroke: #000000"/>
     <use xlink:href="#m91ae07e896" x="195.076739" y="181.88327" style="stroke: #000000"/>
     <use xlink:href="#m91ae07e896" x="196.655017" y="177.232479" style="stroke: #000000"/>
     <use xlink:href="#m91ae07e896" x="189.882844" y="173.747403" style="stroke: #000000"/>
     <use xlink:href="#m91ae07e896" x="251.900916" y="240.727982" style="stroke: #000000"/>
     <use xlink:href="#m91ae07e896" x="186.293315" y="192.627409" style="stroke: #000000"/>
     <use xlink:href="#m91ae07e896" x="241.913618" y="231.533483" style="stroke: #000000"/>
     <use xlink:href="#m91ae07e896" x="234.136886" y="230.370292" style="stroke: #000000"/>
     <use xlink:href="#m91ae07e896" x="188.364295" y="176.626301" style="stroke: #000000"/>
     <use xlink:href="#m91ae07e896" x="216.745986" y="207.525605" style="stroke: #000000"/>
     <use xlink:href="#m91ae07e896" x="209.556545" y="195.257958" style="stroke: #000000"/>
     <use xlink:href="#m91ae07e896" x="213.709349" y="210.248516" style="stroke: #000000"/>
     <use xlink:href="#m91ae07e896" x="198.976938" y="178.200318" style="stroke: #000000"/>
     <use xlink:href="#m91ae07e896" x="184.167896" y="190.906477" style="stroke: #000000"/>
     <use xlink:href="#m91ae07e896" x="221.264053" y="224.527874" style="stroke: #000000"/>
     <use xlink:href="#m91ae07e896" x="241.413173" y="238.452852" style="stroke: #000000"/>
     <use xlink:href="#m91ae07e896" x="232.141289" y="209.898099" style="stroke: #000000"/>
     <use xlink:href="#m91ae07e896" x="214.024965" y="194.032844" style="stroke: #000000"/>
     <use xlink:href="#m91ae07e896" x="100.839505" y="83.310457" style="stroke: #000000"/>
     <use xlink:href="#m91ae07e896" x="136.425281" y="133.828839" style="stroke: #000000"/>
     <use xlink:href="#m91ae07e896" x="162.748032" y="154.107792" style="stroke: #000000"/>
     <use xlink:href="#m91ae07e896" x="212.719624" y="197.135025" style="stroke: #000000"/>
     <use xlink:href="#m91ae07e896" x="155.103645" y="155.270384" style="stroke: #000000"/>
     <use xlink:href="#m91ae07e896" x="202.544711" y="192.973667" style="stroke: #000000"/>
     <use xlink:href="#m91ae07e896" x="158.433448" y="152.178197" style="stroke: #000000"/>
     <use xlink:href="#m91ae07e896" x="189.019818" y="172.660985" style="stroke: #000000"/>
     <use xlink:href="#m91ae07e896" x="162.712026" y="161.358389" style="stroke: #000000"/>
     <use xlink:href="#m91ae07e896" x="204.389612" y="193.034005" style="stroke: #000000"/>
     <use xlink:href="#m91ae07e896" x="200.896437" y="196.692775" style="stroke: #000000"/>
     <use xlink:href="#m91ae07e896" x="126.027185" y="112.552112" style="stroke: #000000"/>
     <use xlink:href="#m91ae07e896" x="144.750034" y="126.032293" style="stroke: #000000"/>
     <use xlink:href="#m91ae07e896" x="214.639227" y="225.215734" style="stroke: #000000"/>
     <use xlink:href="#m91ae07e896" x="201.306702" y="190.881933" style="stroke: #000000"/>
     <use xlink:href="#m91ae07e896" x="174.216905" y="159.570562" style="stroke: #000000"/>
     <use xlink:href="#m91ae07e896" x="287.412809" y="266.469756" style="stroke: #000000"/>
     <use xlink:href="#m91ae07e896" x="250.065114" y="248.755856" style="stroke: #000000"/>
     <use xlink:href="#m91ae07e896" x="211.869725" y="189.917611" style="stroke: #000000"/>
     <use xlink:href="#m91ae07e896" x="253.385013" y="245.008701" style="stroke: #000000"/>
     <use xlink:href="#m91ae07e896" x="221.097067" y="215.240593" style="stroke: #000000"/>
     <use xlink:href="#m91ae07e896" x="192.366322" y="180.710164" style="stroke: #000000"/>
     <use xlink:href="#m91ae07e896" x="236.594538" y="232.739819" style="stroke: #000000"/>
     <use xlink:href="#m91ae07e896" x="211.402265" y="194.333302" style="stroke: #000000"/>
     <use xlink:href="#m91ae07e896" x="230.397662" y="206.961901" style="stroke: #000000"/>
     <use xlink:href="#m91ae07e896" x="184.018923" y="178.216069" style="stroke: #000000"/>
     <use xlink:href="#m91ae07e896" x="188.204391" y="175.789353" style="stroke: #000000"/>
     <use xlink:href="#m91ae07e896" x="230.79016" y="221.862778" style="stroke: #000000"/>
     <use xlink:href="#m91ae07e896" x="183.062433" y="181.505686" style="stroke: #000000"/>
     <use xlink:href="#m91ae07e896" x="198.264942" y="181.873364" style="stroke: #000000"/>
     <use xlink:href="#m91ae07e896" x="190.005076" y="183.403336" style="stroke: #000000"/>
     <use xlink:href="#m91ae07e896" x="191.459816" y="176.023939" style="stroke: #000000"/>
     <use xlink:href="#m91ae07e896" x="176.696329" y="176.346948" style="stroke: #000000"/>
     <use xlink:href="#m91ae07e896" x="253.255434" y="239.664295" style="stroke: #000000"/>
     <use xlink:href="#m91ae07e896" x="215.457806" y="205.70891" style="stroke: #000000"/>
     <use xlink:href="#m91ae07e896" x="186.568882" y="167.124135" style="stroke: #000000"/>
     <use xlink:href="#m91ae07e896" x="165.980442" y="153.687986" style="stroke: #000000"/>
     <use xlink:href="#m91ae07e896" x="260.660528" y="248.291019" style="stroke: #000000"/>
     <use xlink:href="#m91ae07e896" x="248.662083" y="242.192707" style="stroke: #000000"/>
     <use xlink:href="#m91ae07e896" x="195.502784" y="189.945743" style="stroke: #000000"/>
     <use xlink:href="#m91ae07e896" x="210.839892" y="198.042067" style="stroke: #000000"/>
     <use xlink:href="#m91ae07e896" x="264.624308" y="261.837988" style="stroke: #000000"/>
     <use xlink:href="#m91ae07e896" x="217.39125" y="206.222118" style="stroke: #000000"/>
     <use xlink:href="#m91ae07e896" x="215.359852" y="198.884312" style="stroke: #000000"/>
     <use xlink:href="#m91ae07e896" x="252.596539" y="241.585507" style="stroke: #000000"/>
     <use xlink:href="#m91ae07e896" x="263.836044" y="264.429278" style="stroke: #000000"/>
     <use xlink:href="#m91ae07e896" x="204.105221" y="201.026129" style="stroke: #000000"/>
     <use xlink:href="#m91ae07e896" x="158.286535" y="145.252296" style="stroke: #000000"/>
     <use xlink:href="#m91ae07e896" x="215.058867" y="216.157906" style="stroke: #000000"/>
     <use xlink:href="#m91ae07e896" x="151.859513" y="140.322873" style="stroke: #000000"/>
     <use xlink:href="#m91ae07e896" x="209.179167" y="193.211168" style="stroke: #000000"/>
     <use xlink:href="#m91ae07e896" x="165.961551" y="153.059471" style="stroke: #000000"/>
     <use xlink:href="#m91ae07e896" x="252.802654" y="250.236584" style="stroke: #000000"/>
     <use xlink:href="#m91ae07e896" x="211.880592" y="192.917403" style="stroke: #000000"/>
     <use xlink:href="#m91ae07e896" x="182.895405" y="180.136667" style="stroke: #000000"/>
     <use xlink:href="#m91ae07e896" x="224.222475" y="219.38727" style="stroke: #000000"/>
     <use xlink:href="#m91ae07e896" x="149.184565" y="127.645149" style="stroke: #000000"/>
     <use xlink:href="#m91ae07e896" x="231.903669" y="221.183735" style="stroke: #000000"/>
     <use xlink:href="#m91ae07e896" x="227.611111" y="220.197091" style="stroke: #000000"/>
     <use xlink:href="#m91ae07e896" x="177.294338" y="173.367728" style="stroke: #000000"/>
     <use xlink:href="#m91ae07e896" x="240.525184" y="226.655493" style="stroke: #000000"/>
     <use xlink:href="#m91ae07e896" x="217.220081" y="213.359047" style="stroke: #000000"/>
     <use xlink:href="#m91ae07e896" x="248.677118" y="231.094982" style="stroke: #000000"/>
     <use xlink:href="#m91ae07e896" x="106.3297" y="92.909435" style="stroke: #000000"/>
     <use xlink:href="#m91ae07e896" x="190.640384" y="171.394589" style="stroke: #000000"/>
     <use xlink:href="#m91ae07e896" x="265.426995" y="259.437465" style="stroke: #000000"/>
     <use xlink:href="#m91ae07e896" x="183.269421" y="174.756862" style="stroke: #000000"/>
     <use xlink:href="#m91ae07e896" x="201.561794" y="182.825299" style="stroke: #000000"/>
     <use xlink:href="#m91ae07e896" x="229.738536" y="227.616272" style="stroke: #000000"/>
     <use xlink:href="#m91ae07e896" x="147.536254" y="132.439449" style="stroke: #000000"/>
     <use xlink:href="#m91ae07e896" x="94.090767" y="74.439015" style="stroke: #000000"/>
     <use xlink:href="#m91ae07e896" x="210.883637" y="203.712406" style="stroke: #000000"/>
     <use xlink:href="#m91ae07e896" x="251.887982" y="240.265489" style="stroke: #000000"/>
     <use xlink:href="#m91ae07e896" x="224.585867" y="220.730552" style="stroke: #000000"/>
     <use xlink:href="#m91ae07e896" x="166.392103" y="159.890968" style="stroke: #000000"/>
     <use xlink:href="#m91ae07e896" x="241.40433" y="235.911779" style="stroke: #000000"/>
     <use xlink:href="#m91ae07e896" x="189.941938" y="187.200784" style="stroke: #000000"/>
     <use xlink:href="#m91ae07e896" x="255.840277" y="252.231708" style="stroke: #000000"/>
     <use xlink:href="#m91ae07e896" x="199.571352" y="200.081221" style="stroke: #000000"/>
     <use xlink:href="#m91ae07e896" x="226.05846" y="213.536541" style="stroke: #000000"/>
     <use xlink:href="#m91ae07e896" x="242.773049" y="238.267733" style="stroke: #000000"/>
     <use xlink:href="#m91ae07e896" x="242.670991" y="233.092432" style="stroke: #000000"/>
     <use xlink:href="#m91ae07e896" x="217.025461" y="222.384408" style="stroke: #000000"/>
     <use xlink:href="#m91ae07e896" x="228.949983" y="224.885961" style="stroke: #000000"/>
     <use xlink:href="#m91ae07e896" x="195.624257" y="180.641265" style="stroke: #000000"/>
     <use xlink:href="#m91ae07e896" x="135.866197" y="123.005907" style="stroke: #000000"/>
     <use xlink:href="#m91ae07e896" x="184.008575" y="158.328511" style="stroke: #000000"/>
     <use xlink:href="#m91ae07e896" x="204.067811" y="184.358144" style="stroke: #000000"/>
     <use xlink:href="#m91ae07e896" x="180.622207" y="162.943384" style="stroke: #000000"/>
     <use xlink:href="#m91ae07e896" x="200.954276" y="198.042273" style="stroke: #000000"/>
     <use xlink:href="#m91ae07e896" x="204.334833" y="191.076365" style="stroke: #000000"/>
     <use xlink:href="#m91ae07e896" x="169.843601" y="164.932644" style="stroke: #000000"/>
     <use xlink:href="#m91ae07e896" x="167.961526" y="173.33751" style="stroke: #000000"/>
     <use xlink:href="#m91ae07e896" x="187.708549" y="190.93009" style="stroke: #000000"/>
     <use xlink:href="#m91ae07e896" x="191.503449" y="176.192771" style="stroke: #000000"/>
     <use xlink:href="#m91ae07e896" x="229.080801" y="219.067441" style="stroke: #000000"/>
     <use xlink:href="#m91ae07e896" x="220.932496" y="211.792212" style="stroke: #000000"/>
     <use xlink:href="#m91ae07e896" x="262.97452" y="256.659846" style="stroke: #000000"/>
     <use xlink:href="#m91ae07e896" x="207.676982" y="207.188046" style="stroke: #000000"/>
     <use xlink:href="#m91ae07e896" x="181.887412" y="174.307614" style="stroke: #000000"/>
     <use xlink:href="#m91ae07e896" x="191.171673" y="184.169633" style="stroke: #000000"/>
    </g>
   </g>
   <g id="matplotlib.axis_1">
    <g id="xtick_1">
     <g id="line2d_1">
      <defs>
       <path id="ma1d4d921c8" d="M 0 0 
L 0 3.5 
" style="stroke: #000000; stroke-width: 0.8"/>
      </defs>
      <g>
       <use xlink:href="#ma1d4d921c8" x="82.16456" y="320.4" style="stroke: #000000; stroke-width: 0.8"/>
      </g>
     </g>
     <g id="text_1">
      <!-- −30 -->
      <g transform="translate(73.588779 334.998438) scale(0.1 -0.1)">
       <defs>
        <path id="OpenSans-Regular-2212" d="M 322 2044 
L 322 2469 
L 3331 2469 
L 3331 2044 
L 322 2044 
z
" transform="scale(0.015625)"/>
        <path id="OpenSans-Regular-33" d="M 3141 3503 
Q 3141 3197 3022 2972 
Q 2903 2747 2690 2605 
Q 2478 2463 2191 2406 
L 2191 2381 
Q 2734 2313 3007 2031 
Q 3281 1750 3281 1294 
Q 3281 897 3095 590 
Q 2909 284 2526 110 
Q 2144 -63 1547 -63 
Q 1184 -63 876 -5 
Q 569 53 288 188 
L 288 675 
Q 572 534 906 454 
Q 1241 375 1553 375 
Q 2178 375 2456 623 
Q 2734 872 2734 1303 
Q 2734 1600 2579 1783 
Q 2425 1966 2136 2052 
Q 1847 2138 1441 2138 
L 984 2138 
L 984 2581 
L 1444 2581 
Q 1816 2581 2075 2690 
Q 2334 2800 2470 2998 
Q 2606 3197 2606 3469 
Q 2606 3816 2375 4005 
Q 2144 4194 1747 4194 
Q 1503 4194 1303 4144 
Q 1103 4094 928 4006 
Q 753 3919 578 3803 
L 316 4159 
Q 566 4353 925 4493 
Q 1284 4634 1741 4634 
Q 2441 4634 2791 4315 
Q 3141 3997 3141 3503 
z
" transform="scale(0.015625)"/>
        <path id="OpenSans-Regular-30" d="M 3334 2291 
Q 3334 1734 3250 1296 
Q 3166 859 2984 556 
Q 2803 253 2515 95 
Q 2228 -63 1825 -63 
Q 1316 -63 983 215 
Q 650 494 486 1020 
Q 322 1547 322 2291 
Q 322 3022 470 3548 
Q 619 4075 950 4358 
Q 1281 4641 1825 4641 
Q 2341 4641 2675 4361 
Q 3009 4081 3171 3554 
Q 3334 3028 3334 2291 
z
M 844 2291 
Q 844 1653 941 1228 
Q 1038 803 1255 592 
Q 1472 381 1825 381 
Q 2178 381 2395 590 
Q 2613 800 2711 1225 
Q 2809 1650 2809 2291 
Q 2809 2919 2712 3342 
Q 2616 3766 2400 3980 
Q 2184 4194 1825 4194 
Q 1466 4194 1250 3980 
Q 1034 3766 939 3342 
Q 844 2919 844 2291 
z
" transform="scale(0.015625)"/>
       </defs>
       <use xlink:href="#OpenSans-Regular-2212"/>
       <use xlink:href="#OpenSans-Regular-33" x="57.177734"/>
       <use xlink:href="#OpenSans-Regular-30" x="114.355469"/>
      </g>
     </g>
    </g>
    <g id="xtick_2">
     <g id="line2d_2">
      <g>
       <use xlink:href="#ma1d4d921c8" x="122.721932" y="320.4" style="stroke: #000000; stroke-width: 0.8"/>
      </g>
     </g>
     <g id="text_2">
      <!-- −20 -->
      <g transform="translate(114.146151 334.998438) scale(0.1 -0.1)">
       <defs>
        <path id="OpenSans-Regular-32" d="M 3309 0 
L 316 0 
L 316 434 
L 1538 1675 
Q 1878 2019 2111 2287 
Q 2344 2556 2466 2817 
Q 2588 3078 2588 3391 
Q 2588 3778 2358 3983 
Q 2128 4188 1753 4188 
Q 1425 4188 1172 4075 
Q 919 3963 653 3756 
L 375 4106 
Q 556 4259 770 4378 
Q 984 4497 1229 4565 
Q 1475 4634 1753 4634 
Q 2175 4634 2481 4487 
Q 2788 4341 2955 4069 
Q 3122 3797 3122 3422 
Q 3122 3059 2978 2748 
Q 2834 2438 2575 2133 
Q 2316 1828 1969 1488 
L 975 497 
L 975 475 
L 3309 475 
L 3309 0 
z
" transform="scale(0.015625)"/>
       </defs>
       <use xlink:href="#OpenSans-Regular-2212"/>
       <use xlink:href="#OpenSans-Regular-32" x="57.177734"/>
       <use xlink:href="#OpenSans-Regular-30" x="114.355469"/>
      </g>
     </g>
    </g>
    <g id="xtick_3">
     <g id="line2d_3">
      <g>
       <use xlink:href="#ma1d4d921c8" x="163.279304" y="320.4" style="stroke: #000000; stroke-width: 0.8"/>
      </g>
     </g>
     <g id="text_3">
      <!-- −10 -->
      <g transform="translate(154.703523 334.998438) scale(0.1 -0.1)">
       <defs>
        <path id="OpenSans-Regular-31" d="M 2247 0 
L 1741 0 
L 1741 3238 
Q 1741 3422 1742 3555 
Q 1744 3688 1748 3798 
Q 1753 3909 1763 4025 
Q 1666 3925 1581 3854 
Q 1497 3784 1372 3681 
L 850 3263 
L 578 3616 
L 1816 4569 
L 2247 4569 
L 2247 0 
z
" transform="scale(0.015625)"/>
       </defs>
       <use xlink:href="#OpenSans-Regular-2212"/>
       <use xlink:href="#OpenSans-Regular-31" x="57.177734"/>
       <use xlink:href="#OpenSans-Regular-30" x="114.355469"/>
      </g>
     </g>
    </g>
    <g id="xtick_4">
     <g id="line2d_4">
      <g>
       <use xlink:href="#ma1d4d921c8" x="203.836676" y="320.4" style="stroke: #000000; stroke-width: 0.8"/>
      </g>
     </g>
     <g id="text_4">
      <!-- 0 -->
      <g transform="translate(200.978083 334.998438) scale(0.1 -0.1)">
       <use xlink:href="#OpenSans-Regular-30"/>
      </g>
     </g>
    </g>
    <g id="xtick_5">
     <g id="line2d_5">
      <g>
       <use xlink:href="#ma1d4d921c8" x="244.394048" y="320.4" style="stroke: #000000; stroke-width: 0.8"/>
      </g>
     </g>
     <g id="text_5">
      <!-- 10 -->
      <g transform="translate(238.676861 334.998438) scale(0.1 -0.1)">
       <use xlink:href="#OpenSans-Regular-31"/>
       <use xlink:href="#OpenSans-Regular-30" x="57.177734"/>
      </g>
     </g>
    </g>
    <g id="xtick_6">
     <g id="line2d_6">
      <g>
       <use xlink:href="#ma1d4d921c8" x="284.95142" y="320.4" style="stroke: #000000; stroke-width: 0.8"/>
      </g>
     </g>
     <g id="text_6">
      <!-- 20 -->
      <g transform="translate(279.234233 334.998438) scale(0.1 -0.1)">
       <use xlink:href="#OpenSans-Regular-32"/>
       <use xlink:href="#OpenSans-Regular-30" x="57.177734"/>
      </g>
     </g>
    </g>
    <g id="text_7">
     <!-- x -->
     <g transform="translate(181.882812 348.989062) scale(0.1 -0.1)">
      <defs>
       <path id="OpenSans-Regular-78" d="M 1363 1753 
L 178 3425 
L 772 3425 
L 1675 2106 
L 2575 3425 
L 3163 3425 
L 1978 1753 
L 3228 0 
L 2634 0 
L 1675 1397 
L 709 0 
L 122 0 
L 1363 1753 
z
" transform="scale(0.015625)"/>
      </defs>
      <use xlink:href="#OpenSans-Regular-78"/>
     </g>
    </g>
   </g>
   <g id="matplotlib.axis_2">
    <g id="ytick_1">
     <g id="line2d_7">
      <defs>
       <path id="m929d28c751" d="M 0 0 
L -3.5 0 
" style="stroke: #000000; stroke-width: 0.8"/>
      </defs>
      <g>
       <use xlink:href="#m929d28c751" x="45" y="315.347428" style="stroke: #000000; stroke-width: 0.8"/>
      </g>
     </g>
     <g id="text_8">
      <!-- −15 -->
      <g transform="translate(20.848437 319.146647) scale(0.1 -0.1)">
       <defs>
        <path id="OpenSans-Regular-35" d="M 1759 2794 
Q 2225 2794 2569 2636 
Q 2913 2478 3102 2178 
Q 3291 1878 3291 1450 
Q 3291 981 3087 642 
Q 2884 303 2503 120 
Q 2122 -63 1591 -63 
Q 1234 -63 928 0 
Q 622 63 413 188 
L 413 681 
Q 641 544 966 462 
Q 1291 381 1597 381 
Q 1944 381 2205 492 
Q 2466 603 2611 829 
Q 2756 1056 2756 1400 
Q 2756 1856 2476 2104 
Q 2197 2353 1594 2353 
Q 1400 2353 1169 2322 
Q 938 2291 788 2253 
L 525 2425 
L 700 4569 
L 2972 4569 
L 2972 4094 
L 1144 4094 
L 1028 2716 
Q 1147 2741 1334 2767 
Q 1522 2794 1759 2794 
z
" transform="scale(0.015625)"/>
       </defs>
       <use xlink:href="#OpenSans-Regular-2212"/>
       <use xlink:href="#OpenSans-Regular-31" x="57.177734"/>
       <use xlink:href="#OpenSans-Regular-35" x="114.355469"/>
      </g>
     </g>
    </g>
    <g id="ytick_2">
     <g id="line2d_8">
      <g>
       <use xlink:href="#m929d28c751" x="45" y="279.403661" style="stroke: #000000; stroke-width: 0.8"/>
      </g>
     </g>
     <g id="text_9">
      <!-- −10 -->
      <g transform="translate(20.848437 283.20288) scale(0.1 -0.1)">
       <use xlink:href="#OpenSans-Regular-2212"/>
       <use xlink:href="#OpenSans-Regular-31" x="57.177734"/>
       <use xlink:href="#OpenSans-Regular-30" x="114.355469"/>
      </g>
     </g>
    </g>
    <g id="ytick_3">
     <g id="line2d_9">
      <g>
       <use xlink:href="#m929d28c751" x="45" y="243.459894" style="stroke: #000000; stroke-width: 0.8"/>
      </g>
     </g>
     <g id="text_10">
      <!-- −5 -->
      <g transform="translate(26.565625 247.259113) scale(0.1 -0.1)">
       <use xlink:href="#OpenSans-Regular-2212"/>
       <use xlink:href="#OpenSans-Regular-35" x="57.177734"/>
      </g>
     </g>
    </g>
    <g id="ytick_4">
     <g id="line2d_10">
      <g>
       <use xlink:href="#m929d28c751" x="45" y="207.516128" style="stroke: #000000; stroke-width: 0.8"/>
      </g>
     </g>
     <g id="text_11">
      <!-- 0 -->
      <g transform="translate(32.282812 211.315346) scale(0.1 -0.1)">
       <use xlink:href="#OpenSans-Regular-30"/>
      </g>
     </g>
    </g>
    <g id="ytick_5">
     <g id="line2d_11">
      <g>
       <use xlink:href="#m929d28c751" x="45" y="171.572361" style="stroke: #000000; stroke-width: 0.8"/>
      </g>
     </g>
     <g id="text_12">
      <!-- 5 -->
      <g transform="translate(32.282812 175.37158) scale(0.1 -0.1)">
       <use xlink:href="#OpenSans-Regular-35"/>
      </g>
     </g>
    </g>
    <g id="ytick_6">
     <g id="line2d_12">
      <g>
       <use xlink:href="#m929d28c751" x="45" y="135.628594" style="stroke: #000000; stroke-width: 0.8"/>
      </g>
     </g>
     <g id="text_13">
      <!-- 10 -->
      <g transform="translate(26.565625 139.427813) scale(0.1 -0.1)">
       <use xlink:href="#OpenSans-Regular-31"/>
       <use xlink:href="#OpenSans-Regular-30" x="57.177734"/>
      </g>
     </g>
    </g>
    <g id="ytick_7">
     <g id="line2d_13">
      <g>
       <use xlink:href="#m929d28c751" x="45" y="99.684828" style="stroke: #000000; stroke-width: 0.8"/>
      </g>
     </g>
     <g id="text_14">
      <!-- 15 -->
      <g transform="translate(26.565625 103.484046) scale(0.1 -0.1)">
       <use xlink:href="#OpenSans-Regular-31"/>
       <use xlink:href="#OpenSans-Regular-35" x="57.177734"/>
      </g>
     </g>
    </g>
    <g id="ytick_8">
     <g id="line2d_14">
      <g>
       <use xlink:href="#m929d28c751" x="45" y="63.741061" style="stroke: #000000; stroke-width: 0.8"/>
      </g>
     </g>
     <g id="text_15">
      <!-- 20 -->
      <g transform="translate(26.565625 67.54028) scale(0.1 -0.1)">
       <use xlink:href="#OpenSans-Regular-32"/>
       <use xlink:href="#OpenSans-Regular-30" x="57.177734"/>
      </g>
     </g>
    </g>
    <g id="text_16">
     <!-- y -->
     <g transform="translate(14.440625 184.304687) rotate(-90) scale(0.1 -0.1)">
      <defs>
       <path id="OpenSans-Regular-79" d="M 6 3425 
L 563 3425 
L 1319 1438 
Q 1384 1263 1440 1102 
Q 1497 941 1540 794 
Q 1584 647 1609 509 
L 1631 509 
Q 1675 666 1756 920 
Q 1838 1175 1931 1441 
L 2647 3425 
L 3206 3425 
L 1716 -503 
Q 1597 -819 1439 -1053 
Q 1281 -1288 1056 -1414 
Q 831 -1541 513 -1541 
Q 366 -1541 253 -1523 
Q 141 -1506 59 -1484 
L 59 -1069 
Q 128 -1084 226 -1096 
Q 325 -1109 431 -1109 
Q 625 -1109 767 -1036 
Q 909 -963 1012 -822 
Q 1116 -681 1191 -488 
L 1378 -6 
L 6 3425 
z
" transform="scale(0.015625)"/>
      </defs>
      <use xlink:href="#OpenSans-Regular-79"/>
     </g>
    </g>
   </g>
   <g id="patch_3">
    <path d="M 45 320.4 
L 45 43.2 
" style="fill: none; stroke: #000000; stroke-width: 0.8; stroke-linejoin: miter; stroke-linecap: square"/>
   </g>
   <g id="patch_4">
    <path d="M 324 320.4 
L 324 43.2 
" style="fill: none; stroke: #000000; stroke-width: 0.8; stroke-linejoin: miter; stroke-linecap: square"/>
   </g>
   <g id="patch_5">
    <path d="M 45 320.4 
L 324 320.4 
" style="fill: none; stroke: #000000; stroke-width: 0.8; stroke-linejoin: miter; stroke-linecap: square"/>
   </g>
   <g id="patch_6">
    <path d="M 45 43.2 
L 324 43.2 
" style="fill: none; stroke: #000000; stroke-width: 0.8; stroke-linejoin: miter; stroke-linecap: square"/>
   </g>
   <g id="text_17">
    <!-- Точечная диаграмма -->
    <g transform="translate(122.59875 37.2) scale(0.12 -0.12)">
     <defs>
      <path id="OpenSans-Regular-422" d="M 2028 0 
L 1494 0 
L 1494 4100 
L 56 4100 
L 56 4569 
L 3459 4569 
L 3459 4100 
L 2028 4100 
L 2028 0 
z
" transform="scale(0.015625)"/>
      <path id="OpenSans-Regular-43e" d="M 3500 1719 
Q 3500 1297 3390 965 
Q 3281 634 3075 406 
Q 2869 178 2576 57 
Q 2284 -63 1916 -63 
Q 1572 -63 1286 57 
Q 1000 178 792 406 
Q 584 634 470 965 
Q 356 1297 356 1719 
Q 356 2281 547 2676 
Q 738 3072 1092 3280 
Q 1447 3488 1938 3488 
Q 2406 3488 2757 3278 
Q 3109 3069 3304 2673 
Q 3500 2278 3500 1719 
z
M 894 1719 
Q 894 1306 1003 1003 
Q 1113 700 1341 534 
Q 1569 369 1928 369 
Q 2284 369 2514 534 
Q 2744 700 2853 1003 
Q 2963 1306 2963 1719 
Q 2963 2128 2853 2426 
Q 2744 2725 2516 2887 
Q 2288 3050 1925 3050 
Q 1391 3050 1142 2697 
Q 894 2344 894 1719 
z
" transform="scale(0.015625)"/>
      <path id="OpenSans-Regular-447" d="M 1000 3425 
L 1000 2194 
Q 1000 1872 1176 1719 
Q 1353 1566 1691 1566 
Q 2016 1566 2281 1666 
Q 2547 1766 2819 1938 
L 2819 3425 
L 3338 3425 
L 3338 0 
L 2819 0 
L 2819 1534 
Q 2531 1350 2253 1244 
Q 1975 1138 1588 1138 
Q 1059 1138 770 1413 
Q 481 1688 481 2156 
L 481 3425 
L 1000 3425 
z
" transform="scale(0.015625)"/>
      <path id="OpenSans-Regular-435" d="M 1866 3488 
Q 2303 3488 2615 3294 
Q 2928 3100 3093 2751 
Q 3259 2403 3259 1938 
L 3259 1616 
L 894 1616 
Q 903 1013 1193 697 
Q 1484 381 2013 381 
Q 2338 381 2588 440 
Q 2838 500 3106 616 
L 3106 159 
Q 2847 44 2592 -9 
Q 2338 -63 1991 -63 
Q 1497 -63 1130 139 
Q 763 341 559 731 
Q 356 1122 356 1688 
Q 356 2241 542 2645 
Q 728 3050 1067 3269 
Q 1406 3488 1866 3488 
z
M 1859 3063 
Q 1444 3063 1197 2791 
Q 950 2519 903 2031 
L 2716 2031 
Q 2713 2338 2620 2570 
Q 2528 2803 2340 2933 
Q 2153 3063 1859 3063 
z
" transform="scale(0.015625)"/>
      <path id="OpenSans-Regular-43d" d="M 1069 3425 
L 1069 1988 
L 2978 1988 
L 2978 3425 
L 3497 3425 
L 3497 0 
L 2978 0 
L 2978 1547 
L 1069 1547 
L 1069 0 
L 547 0 
L 547 3425 
L 1069 3425 
z
" transform="scale(0.015625)"/>
      <path id="OpenSans-Regular-430" d="M 1828 3481 
Q 2441 3481 2737 3206 
Q 3034 2931 3034 2328 
L 3034 0 
L 2656 0 
L 2556 506 
L 2531 506 
Q 2388 319 2231 192 
Q 2075 66 1870 1 
Q 1666 -63 1369 -63 
Q 1056 -63 814 46 
Q 572 156 433 378 
Q 294 600 294 941 
Q 294 1453 700 1728 
Q 1106 2003 1938 2028 
L 2528 2053 
L 2528 2263 
Q 2528 2706 2337 2884 
Q 2147 3063 1800 3063 
Q 1531 3063 1287 2984 
Q 1044 2906 825 2800 
L 666 3194 
Q 897 3313 1197 3397 
Q 1497 3481 1828 3481 
z
M 2522 1688 
L 2000 1666 
Q 1359 1641 1096 1456 
Q 834 1272 834 934 
Q 834 641 1012 500 
Q 1191 359 1484 359 
Q 1941 359 2231 612 
Q 2522 866 2522 1372 
L 2522 1688 
z
" transform="scale(0.015625)"/>
      <path id="OpenSans-Regular-44f" d="M 713 0 
L 106 0 
L 1094 1444 
Q 878 1491 693 1605 
Q 509 1719 395 1919 
Q 281 2119 281 2416 
Q 281 2909 611 3167 
Q 941 3425 1481 3425 
L 2997 3425 
L 2997 0 
L 2478 0 
L 2478 1375 
L 1609 1375 
L 713 0 
z
M 784 2413 
Q 784 2106 1003 1957 
Q 1222 1809 1628 1809 
L 2478 1809 
L 2478 2991 
L 1538 2991 
Q 1138 2991 961 2830 
Q 784 2669 784 2413 
z
" transform="scale(0.015625)"/>
      <path id="OpenSans-Regular-20" transform="scale(0.015625)"/>
      <path id="OpenSans-Regular-434" d="M 3056 3425 
L 3056 441 
L 3547 441 
L 3547 -1184 
L 3044 -1184 
L 3044 0 
L 619 0 
L 619 -1184 
L 122 -1184 
L 122 441 
L 391 441 
Q 684 847 878 1331 
Q 1072 1816 1172 2348 
Q 1272 2881 1278 3425 
L 3056 3425 
z
M 2553 3013 
L 1741 3013 
Q 1713 2556 1608 2084 
Q 1503 1613 1331 1186 
Q 1159 759 931 441 
L 2553 441 
L 2553 3013 
z
" transform="scale(0.015625)"/>
      <path id="OpenSans-Regular-438" d="M 1041 3425 
L 1041 1272 
Q 1041 1209 1037 1111 
Q 1034 1013 1028 902 
Q 1022 791 1017 689 
Q 1013 588 1006 522 
L 2875 3425 
L 3513 3425 
L 3513 0 
L 3028 0 
L 3028 2100 
Q 3028 2200 3031 2356 
Q 3034 2513 3040 2664 
Q 3047 2816 3050 2900 
L 1188 0 
L 547 0 
L 547 3425 
L 1041 3425 
z
" transform="scale(0.015625)"/>
      <path id="OpenSans-Regular-433" d="M 2625 3425 
L 2625 2984 
L 1069 2984 
L 1069 0 
L 547 0 
L 547 3425 
L 2625 3425 
z
" transform="scale(0.015625)"/>
      <path id="OpenSans-Regular-440" d="M 2156 3488 
Q 2797 3488 3178 3047 
Q 3559 2606 3559 1722 
Q 3559 1138 3384 741 
Q 3209 344 2892 140 
Q 2575 -63 2144 -63 
Q 1872 -63 1665 9 
Q 1459 81 1312 203 
Q 1166 325 1069 469 
L 1031 469 
Q 1041 347 1055 175 
Q 1069 3 1069 -125 
L 1069 -1531 
L 547 -1531 
L 547 3425 
L 975 3425 
L 1044 2919 
L 1069 2919 
Q 1169 3075 1312 3204 
Q 1456 3334 1664 3411 
Q 1872 3488 2156 3488 
z
M 2066 3050 
Q 1709 3050 1492 2912 
Q 1275 2775 1175 2501 
Q 1075 2228 1069 1816 
L 1069 1716 
Q 1069 1281 1164 981 
Q 1259 681 1479 525 
Q 1700 369 2072 369 
Q 2391 369 2603 541 
Q 2816 713 2920 1020 
Q 3025 1328 3025 1728 
Q 3025 2334 2789 2692 
Q 2553 3050 2066 3050 
z
" transform="scale(0.015625)"/>
      <path id="OpenSans-Regular-43c" d="M 4163 3425 
L 4163 0 
L 3694 0 
L 3694 2231 
Q 3694 2369 3701 2511 
Q 3709 2653 3722 2797 
L 3703 2797 
L 2566 0 
L 2125 0 
L 1016 2797 
L 997 2797 
Q 1006 2653 1011 2511 
Q 1016 2369 1016 2213 
L 1016 0 
L 544 0 
L 544 3425 
L 1241 3425 
L 2347 625 
L 3469 3425 
L 4163 3425 
z
" transform="scale(0.015625)"/>
     </defs>
     <use xlink:href="#OpenSans-Regular-422"/>
     <use xlink:href="#OpenSans-Regular-43e" x="55.078125"/>
     <use xlink:href="#OpenSans-Regular-447" x="115.234375"/>
     <use xlink:href="#OpenSans-Regular-435" x="175.927734"/>
     <use xlink:href="#OpenSans-Regular-447" x="232.080078"/>
     <use xlink:href="#OpenSans-Regular-43d" x="292.773438"/>
     <use xlink:href="#OpenSans-Regular-430" x="356.054688"/>
     <use xlink:href="#OpenSans-Regular-44f" x="411.621094"/>
     <use xlink:href="#OpenSans-Regular-20" x="466.992188"/>
     <use xlink:href="#OpenSans-Regular-434" x="492.96875"/>
     <use xlink:href="#OpenSans-Regular-438" x="550.439453"/>
     <use xlink:href="#OpenSans-Regular-430" x="614.013672"/>
     <use xlink:href="#OpenSans-Regular-433" x="669.580078"/>
     <use xlink:href="#OpenSans-Regular-440" x="712.695312"/>
     <use xlink:href="#OpenSans-Regular-430" x="773.876953"/>
     <use xlink:href="#OpenSans-Regular-43c" x="829.443359"/>
     <use xlink:href="#OpenSans-Regular-43c" x="902.783203"/>
     <use xlink:href="#OpenSans-Regular-430" x="976.123047"/>
    </g>
   </g>
  </g>
 </g>
 <defs>
  <clipPath id="p0dcb22d109">
   <rect x="45" y="43.2" width="279" height="277.2"/>
  </clipPath>
 </defs>
</svg>
