<?xml version="1.0" encoding="utf-8" standalone="no"?>
<!DOCTYPE svg PUBLIC "-//W3C//DTD SVG 1.1//EN"
  "http://www.w3.org/Graphics/SVG/1.1/DTD/svg11.dtd">
<svg xmlns:xlink="http://www.w3.org/1999/xlink" width="360pt" height="360pt" viewBox="0 0 360 360" xmlns="http://www.w3.org/2000/svg" version="1.1">
 <metadata>
  <rdf:RDF xmlns:dc="http://purl.org/dc/elements/1.1/" xmlns:cc="http://creativecommons.org/ns#" xmlns:rdf="http://www.w3.org/1999/02/22-rdf-syntax-ns#">
   <cc:Work>
    <dc:type rdf:resource="http://purl.org/dc/dcmitype/StillImage"/>
    <dc:date>2023-11-23T17:48:33.248013</dc:date>
    <dc:format>image/svg+xml</dc:format>
    <dc:creator>
     <cc:Agent>
      <dc:title>Matplotlib v3.8.0, https://matplotlib.org/</dc:title>
     </cc:Agent>
    </dc:creator>
   </cc:Work>
  </rdf:RDF>
 </metadata>
 <defs>
  <style type="text/css">*{stroke-linejoin: round; stroke-linecap: butt}</style>
 </defs>
 <g id="figure_1">
  <g id="patch_1">
   <path d="M 0 360 
L 360 360 
L 360 0 
L 0 0 
z
" style="fill: #ffffff"/>
  </g>
  <g id="axes_1">
   <g id="patch_2">
    <path d="M 45 320.4 
L 324 320.4 
L 324 43.2 
L 45 43.2 
z
" style="fill: #ffffff"/>
   </g>
   <g id="PathCollection_1">
    <defs>
     <path id="mbdd982a2f6" d="M 0 1.870829 
C 0.49615 1.870829 0.972045 1.673706 1.322876 1.322876 
C 1.673706 0.972045 1.870829 0.49615 1.870829 0 
C 1.870829 -0.49615 1.673706 -0.972045 1.322876 -1.322876 
C 0.972045 -1.673706 0.49615 -1.870829 0 -1.870829 
C -0.49615 -1.870829 -0.972045 -1.673706 -1.322876 -1.322876 
C -1.673706 -0.972045 -1.870829 -0.49615 -1.870829 0 
C -1.870829 0.49615 -1.673706 0.972045 -1.322876 1.322876 
C -0.972045 1.673706 -0.49615 1.870829 0 1.870829 
z
" style="stroke: #000000"/>
    </defs>
    <g clip-path="url(#pd7d766924f)">
     <use xlink:href="#mbdd982a2f6" x="233.823558" y="123.353316" style="stroke: #000000"/>
     <use xlink:href="#mbdd982a2f6" x="195.26063" y="190.283377" style="stroke: #000000"/>
     <use xlink:href="#mbdd982a2f6" x="172.599372" y="213.505937" style="stroke: #000000"/>
     <use xlink:href="#mbdd982a2f6" x="184.534614" y="205.504326" style="stroke: #000000"/>
     <use xlink:href="#mbdd982a2f6" x="183.620253" y="194.75881" style="stroke: #000000"/>
     <use xlink:href="#mbdd982a2f6" x="157.413697" y="198.470273" style="stroke: #000000"/>
     <use xlink:href="#mbdd982a2f6" x="117.113892" y="226.967562" style="stroke: #000000"/>
     <use xlink:href="#mbdd982a2f6" x="117.152128" y="250.513045" style="stroke: #000000"/>
     <use xlink:href="#mbdd982a2f6" x="106.500922" y="269.559788" style="stroke: #000000"/>
     <use xlink:href="#mbdd982a2f6" x="128.792731" y="217.035542" style="stroke: #000000"/>
     <use xlink:href="#mbdd982a2f6" x="251.477438" y="96.240165" style="stroke: #000000"/>
     <use xlink:href="#mbdd982a2f6" x="202.534358" y="168.489281" style="stroke: #000000"/>
     <use xlink:href="#mbdd982a2f6" x="214.74262" y="157.581522" style="stroke: #000000"/>
     <use xlink:href="#mbdd982a2f6" x="190.788893" y="173.740763" style="stroke: #000000"/>
     <use xlink:href="#mbdd982a2f6" x="196.41086" y="183.460752" style="stroke: #000000"/>
     <use xlink:href="#mbdd982a2f6" x="145.62691" y="214.706417" style="stroke: #000000"/>
     <use xlink:href="#mbdd982a2f6" x="226.840443" y="156.024365" style="stroke: #000000"/>
     <use xlink:href="#mbdd982a2f6" x="229.84684" y="134.940264" style="stroke: #000000"/>
     <use xlink:href="#mbdd982a2f6" x="229.181757" y="127.501956" style="stroke: #000000"/>
     <use xlink:href="#mbdd982a2f6" x="233.049597" y="115.029596" style="stroke: #000000"/>
     <use xlink:href="#mbdd982a2f6" x="148.209123" y="206.181055" style="stroke: #000000"/>
     <use xlink:href="#mbdd982a2f6" x="190.380937" y="201.480274" style="stroke: #000000"/>
     <use xlink:href="#mbdd982a2f6" x="223.959278" y="115.421163" style="stroke: #000000"/>
     <use xlink:href="#mbdd982a2f6" x="181.454484" y="171.632187" style="stroke: #000000"/>
     <use xlink:href="#mbdd982a2f6" x="202.875438" y="177.286007" style="stroke: #000000"/>
     <use xlink:href="#mbdd982a2f6" x="208.648826" y="174.498336" style="stroke: #000000"/>
     <use xlink:href="#mbdd982a2f6" x="75.83131" y="281.216689" style="stroke: #000000"/>
     <use xlink:href="#mbdd982a2f6" x="184.404325" y="184.181942" style="stroke: #000000"/>
     <use xlink:href="#mbdd982a2f6" x="205.959888" y="163.152082" style="stroke: #000000"/>
     <use xlink:href="#mbdd982a2f6" x="185.801824" y="164.513226" style="stroke: #000000"/>
     <use xlink:href="#mbdd982a2f6" x="218.257531" y="149.915239" style="stroke: #000000"/>
     <use xlink:href="#mbdd982a2f6" x="195.812062" y="175.915345" style="stroke: #000000"/>
     <use xlink:href="#mbdd982a2f6" x="286.905082" y="91.17978" style="stroke: #000000"/>
     <use xlink:href="#mbdd982a2f6" x="266.113572" y="111.976623" style="stroke: #000000"/>
     <use xlink:href="#mbdd982a2f6" x="230.862537" y="132.263189" style="stroke: #000000"/>
     <use xlink:href="#mbdd982a2f6" x="223.250536" y="135.029071" style="stroke: #000000"/>
     <use xlink:href="#mbdd982a2f6" x="201.418973" y="175.317071" style="stroke: #000000"/>
     <use xlink:href="#mbdd982a2f6" x="238.556024" y="137.012603" style="stroke: #000000"/>
     <use xlink:href="#mbdd982a2f6" x="261.16086" y="131.676239" style="stroke: #000000"/>
     <use xlink:href="#mbdd982a2f6" x="91.729564" y="297.172488" style="stroke: #000000"/>
     <use xlink:href="#mbdd982a2f6" x="185.854512" y="177.504224" style="stroke: #000000"/>
     <use xlink:href="#mbdd982a2f6" x="214.219956" y="111.511587" style="stroke: #000000"/>
     <use xlink:href="#mbdd982a2f6" x="188.847548" y="185.487596" style="stroke: #000000"/>
     <use xlink:href="#mbdd982a2f6" x="181.950034" y="185.470414" style="stroke: #000000"/>
     <use xlink:href="#mbdd982a2f6" x="228.008671" y="126.18778" style="stroke: #000000"/>
     <use xlink:href="#mbdd982a2f6" x="270.763328" y="94.428972" style="stroke: #000000"/>
     <use xlink:href="#mbdd982a2f6" x="212.231488" y="150.493652" style="stroke: #000000"/>
     <use xlink:href="#mbdd982a2f6" x="258.100799" y="124.459694" style="stroke: #000000"/>
     <use xlink:href="#mbdd982a2f6" x="186.403988" y="174.398922" style="stroke: #000000"/>
     <use xlink:href="#mbdd982a2f6" x="194.436157" y="182.111042" style="stroke: #000000"/>
     <use xlink:href="#mbdd982a2f6" x="181.653395" y="200.258798" style="stroke: #000000"/>
     <use xlink:href="#mbdd982a2f6" x="131.096302" y="245.450928" style="stroke: #000000"/>
     <use xlink:href="#mbdd982a2f6" x="244.854764" y="124.981945" style="stroke: #000000"/>
     <use xlink:href="#mbdd982a2f6" x="137.556859" y="237.412376" style="stroke: #000000"/>
     <use xlink:href="#mbdd982a2f6" x="199.802253" y="158.770392" style="stroke: #000000"/>
     <use xlink:href="#mbdd982a2f6" x="160.253283" y="212.792669" style="stroke: #000000"/>
     <use xlink:href="#mbdd982a2f6" x="181.695559" y="189.141408" style="stroke: #000000"/>
     <use xlink:href="#mbdd982a2f6" x="198.331476" y="185.897367" style="stroke: #000000"/>
     <use xlink:href="#mbdd982a2f6" x="235.813697" y="130.822359" style="stroke: #000000"/>
     <use xlink:href="#mbdd982a2f6" x="225.978663" y="132.448118" style="stroke: #000000"/>
     <use xlink:href="#mbdd982a2f6" x="238.041006" y="131.201763" style="stroke: #000000"/>
     <use xlink:href="#mbdd982a2f6" x="210.937065" y="166.742697" style="stroke: #000000"/>
     <use xlink:href="#mbdd982a2f6" x="191.792879" y="174.669789" style="stroke: #000000"/>
     <use xlink:href="#mbdd982a2f6" x="125.404344" y="242.20033" style="stroke: #000000"/>
     <use xlink:href="#mbdd982a2f6" x="248.489888" y="110.127824" style="stroke: #000000"/>
     <use xlink:href="#mbdd982a2f6" x="239.354877" y="126.941141" style="stroke: #000000"/>
     <use xlink:href="#mbdd982a2f6" x="202.644838" y="178.019088" style="stroke: #000000"/>
     <use xlink:href="#mbdd982a2f6" x="260.319648" y="103.902579" style="stroke: #000000"/>
     <use xlink:href="#mbdd982a2f6" x="208.543005" y="172.224752" style="stroke: #000000"/>
     <use xlink:href="#mbdd982a2f6" x="293.311382" y="104.217308" style="stroke: #000000"/>
     <use xlink:href="#mbdd982a2f6" x="119.873361" y="233.064642" style="stroke: #000000"/>
     <use xlink:href="#mbdd982a2f6" x="144.228927" y="211.18227" style="stroke: #000000"/>
     <use xlink:href="#mbdd982a2f6" x="224.889498" y="170.288504" style="stroke: #000000"/>
     <use xlink:href="#mbdd982a2f6" x="169.943064" y="217.60169" style="stroke: #000000"/>
     <use xlink:href="#mbdd982a2f6" x="191.810337" y="165.501112" style="stroke: #000000"/>
     <use xlink:href="#mbdd982a2f6" x="179.854116" y="180.368646" style="stroke: #000000"/>
     <use xlink:href="#mbdd982a2f6" x="230.30355" y="125.364115" style="stroke: #000000"/>
     <use xlink:href="#mbdd982a2f6" x="157.561326" y="215.535228" style="stroke: #000000"/>
     <use xlink:href="#mbdd982a2f6" x="196.213695" y="169.309515" style="stroke: #000000"/>
     <use xlink:href="#mbdd982a2f6" x="177.208783" y="201.34327" style="stroke: #000000"/>
     <use xlink:href="#mbdd982a2f6" x="194.624424" y="169.405448" style="stroke: #000000"/>
     <use xlink:href="#mbdd982a2f6" x="137.572099" y="229.071614" style="stroke: #000000"/>
     <use xlink:href="#mbdd982a2f6" x="106.275201" y="266.12196" style="stroke: #000000"/>
     <use xlink:href="#mbdd982a2f6" x="250.874854" y="111.610879" style="stroke: #000000"/>
     <use xlink:href="#mbdd982a2f6" x="265.110406" y="110.009155" style="stroke: #000000"/>
     <use xlink:href="#mbdd982a2f6" x="197.492123" y="166.826461" style="stroke: #000000"/>
     <use xlink:href="#mbdd982a2f6" x="147.177382" y="224.520414" style="stroke: #000000"/>
     <use xlink:href="#mbdd982a2f6" x="122.951407" y="292.610222" style="stroke: #000000"/>
     <use xlink:href="#mbdd982a2f6" x="148.201259" y="207.973691" style="stroke: #000000"/>
     <use xlink:href="#mbdd982a2f6" x="165.548885" y="197.330067" style="stroke: #000000"/>
     <use xlink:href="#mbdd982a2f6" x="111.211799" y="249.890036" style="stroke: #000000"/>
     <use xlink:href="#mbdd982a2f6" x="163.46344" y="210.713868" style="stroke: #000000"/>
     <use xlink:href="#mbdd982a2f6" x="175.863923" y="180.555785" style="stroke: #000000"/>
     <use xlink:href="#mbdd982a2f6" x="191.273278" y="180.878395" style="stroke: #000000"/>
     <use xlink:href="#mbdd982a2f6" x="271.915882" y="76.239493" style="stroke: #000000"/>
     <use xlink:href="#mbdd982a2f6" x="119.481768" y="233.919986" style="stroke: #000000"/>
     <use xlink:href="#mbdd982a2f6" x="285.487912" y="86.066017" style="stroke: #000000"/>
     <use xlink:href="#mbdd982a2f6" x="208.103689" y="172.231895" style="stroke: #000000"/>
     <use xlink:href="#mbdd982a2f6" x="164.796284" y="168.408732" style="stroke: #000000"/>
     <use xlink:href="#mbdd982a2f6" x="208.274103" y="201.179422" style="stroke: #000000"/>
     <use xlink:href="#mbdd982a2f6" x="144.53779" y="232.926034" style="stroke: #000000"/>
     <use xlink:href="#mbdd982a2f6" x="161.669" y="223.510674" style="stroke: #000000"/>
     <use xlink:href="#mbdd982a2f6" x="188.732523" y="213.491202" style="stroke: #000000"/>
     <use xlink:href="#mbdd982a2f6" x="263.782175" y="120.636723" style="stroke: #000000"/>
     <use xlink:href="#mbdd982a2f6" x="217.988129" y="151.883571" style="stroke: #000000"/>
     <use xlink:href="#mbdd982a2f6" x="202.601758" y="184.771699" style="stroke: #000000"/>
     <use xlink:href="#mbdd982a2f6" x="245.460171" y="133.934933" style="stroke: #000000"/>
     <use xlink:href="#mbdd982a2f6" x="190.4508" y="184.332219" style="stroke: #000000"/>
     <use xlink:href="#mbdd982a2f6" x="230.102939" y="119.24028" style="stroke: #000000"/>
     <use xlink:href="#mbdd982a2f6" x="207.517077" y="161.63547" style="stroke: #000000"/>
     <use xlink:href="#mbdd982a2f6" x="195.519036" y="180.980249" style="stroke: #000000"/>
     <use xlink:href="#mbdd982a2f6" x="83.676625" y="261.980842" style="stroke: #000000"/>
     <use xlink:href="#mbdd982a2f6" x="153.491017" y="227.653538" style="stroke: #000000"/>
     <use xlink:href="#mbdd982a2f6" x="290.135668" y="92.573178" style="stroke: #000000"/>
     <use xlink:href="#mbdd982a2f6" x="156.823457" y="193.804593" style="stroke: #000000"/>
     <use xlink:href="#mbdd982a2f6" x="183.912698" y="188.189916" style="stroke: #000000"/>
     <use xlink:href="#mbdd982a2f6" x="257.575014" y="96.884852" style="stroke: #000000"/>
     <use xlink:href="#mbdd982a2f6" x="183.346835" y="193.899846" style="stroke: #000000"/>
     <use xlink:href="#mbdd982a2f6" x="232.456974" y="137.33835" style="stroke: #000000"/>
     <use xlink:href="#mbdd982a2f6" x="57.681818" y="307.8" style="stroke: #000000"/>
     <use xlink:href="#mbdd982a2f6" x="194.512936" y="179.902814" style="stroke: #000000"/>
     <use xlink:href="#mbdd982a2f6" x="164.53971" y="188.64079" style="stroke: #000000"/>
     <use xlink:href="#mbdd982a2f6" x="126.030103" y="239.027964" style="stroke: #000000"/>
     <use xlink:href="#mbdd982a2f6" x="224.085596" y="174.19983" style="stroke: #000000"/>
     <use xlink:href="#mbdd982a2f6" x="87.071633" y="292.970566" style="stroke: #000000"/>
     <use xlink:href="#mbdd982a2f6" x="214.506514" y="175.815937" style="stroke: #000000"/>
     <use xlink:href="#mbdd982a2f6" x="126.616238" y="246.630112" style="stroke: #000000"/>
     <use xlink:href="#mbdd982a2f6" x="191.21243" y="181.756367" style="stroke: #000000"/>
     <use xlink:href="#mbdd982a2f6" x="197.431385" y="169.95397" style="stroke: #000000"/>
     <use xlink:href="#mbdd982a2f6" x="138.809313" y="246.972589" style="stroke: #000000"/>
     <use xlink:href="#mbdd982a2f6" x="213.800398" y="143.364044" style="stroke: #000000"/>
     <use xlink:href="#mbdd982a2f6" x="139.871296" y="231.290538" style="stroke: #000000"/>
     <use xlink:href="#mbdd982a2f6" x="238.043808" y="135.264716" style="stroke: #000000"/>
     <use xlink:href="#mbdd982a2f6" x="151.236088" y="202.528048" style="stroke: #000000"/>
     <use xlink:href="#mbdd982a2f6" x="215.159862" y="130.903841" style="stroke: #000000"/>
     <use xlink:href="#mbdd982a2f6" x="236.717753" y="121.7468" style="stroke: #000000"/>
     <use xlink:href="#mbdd982a2f6" x="196.148996" y="160.006379" style="stroke: #000000"/>
     <use xlink:href="#mbdd982a2f6" x="171.909704" y="209.677972" style="stroke: #000000"/>
     <use xlink:href="#mbdd982a2f6" x="228.28722" y="137.539947" style="stroke: #000000"/>
     <use xlink:href="#mbdd982a2f6" x="210.907608" y="172.239358" style="stroke: #000000"/>
     <use xlink:href="#mbdd982a2f6" x="223.957722" y="120.215042" style="stroke: #000000"/>
     <use xlink:href="#mbdd982a2f6" x="98.31154" y="273.88214" style="stroke: #000000"/>
     <use xlink:href="#mbdd982a2f6" x="241.846807" y="116.951571" style="stroke: #000000"/>
     <use xlink:href="#mbdd982a2f6" x="216.603653" y="143.93506" style="stroke: #000000"/>
     <use xlink:href="#mbdd982a2f6" x="217.582531" y="184.669074" style="stroke: #000000"/>
     <use xlink:href="#mbdd982a2f6" x="167.466948" y="204.133063" style="stroke: #000000"/>
     <use xlink:href="#mbdd982a2f6" x="164.878417" y="198.993309" style="stroke: #000000"/>
     <use xlink:href="#mbdd982a2f6" x="144.698249" y="206.755331" style="stroke: #000000"/>
     <use xlink:href="#mbdd982a2f6" x="224.530818" y="164.532711" style="stroke: #000000"/>
     <use xlink:href="#mbdd982a2f6" x="258.287422" y="125.183929" style="stroke: #000000"/>
     <use xlink:href="#mbdd982a2f6" x="147.266297" y="249.018507" style="stroke: #000000"/>
     <use xlink:href="#mbdd982a2f6" x="181.183399" y="190.28828" style="stroke: #000000"/>
     <use xlink:href="#mbdd982a2f6" x="118.815458" y="237.883568" style="stroke: #000000"/>
     <use xlink:href="#mbdd982a2f6" x="200.198949" y="186.020071" style="stroke: #000000"/>
     <use xlink:href="#mbdd982a2f6" x="157.323078" y="202.357234" style="stroke: #000000"/>
     <use xlink:href="#mbdd982a2f6" x="196.217905" y="187.836877" style="stroke: #000000"/>
     <use xlink:href="#mbdd982a2f6" x="184.999783" y="176.433348" style="stroke: #000000"/>
     <use xlink:href="#mbdd982a2f6" x="105.261127" y="258.271772" style="stroke: #000000"/>
     <use xlink:href="#mbdd982a2f6" x="125.253727" y="292.000493" style="stroke: #000000"/>
     <use xlink:href="#mbdd982a2f6" x="208.300848" y="179.849949" style="stroke: #000000"/>
     <use xlink:href="#mbdd982a2f6" x="161.647293" y="216.932637" style="stroke: #000000"/>
     <use xlink:href="#mbdd982a2f6" x="189.889032" y="200.587884" style="stroke: #000000"/>
     <use xlink:href="#mbdd982a2f6" x="197.246618" y="181.992369" style="stroke: #000000"/>
     <use xlink:href="#mbdd982a2f6" x="192.786254" y="194.285007" style="stroke: #000000"/>
     <use xlink:href="#mbdd982a2f6" x="274.398118" y="101.125673" style="stroke: #000000"/>
     <use xlink:href="#mbdd982a2f6" x="205.289618" y="166.063184" style="stroke: #000000"/>
     <use xlink:href="#mbdd982a2f6" x="173.328248" y="209.378254" style="stroke: #000000"/>
     <use xlink:href="#mbdd982a2f6" x="200.501117" y="178.247294" style="stroke: #000000"/>
     <use xlink:href="#mbdd982a2f6" x="185.207949" y="178.291476" style="stroke: #000000"/>
     <use xlink:href="#mbdd982a2f6" x="168.43523" y="206.098841" style="stroke: #000000"/>
     <use xlink:href="#mbdd982a2f6" x="145.75924" y="205.748143" style="stroke: #000000"/>
     <use xlink:href="#mbdd982a2f6" x="122.162722" y="225.90311" style="stroke: #000000"/>
     <use xlink:href="#mbdd982a2f6" x="229.803965" y="118.93024" style="stroke: #000000"/>
     <use xlink:href="#mbdd982a2f6" x="122.608374" y="203.380866" style="stroke: #000000"/>
     <use xlink:href="#mbdd982a2f6" x="177.407331" y="194.218063" style="stroke: #000000"/>
     <use xlink:href="#mbdd982a2f6" x="192.904767" y="177.706558" style="stroke: #000000"/>
     <use xlink:href="#mbdd982a2f6" x="220.700352" y="136.70342" style="stroke: #000000"/>
     <use xlink:href="#mbdd982a2f6" x="196.70296" y="159.018681" style="stroke: #000000"/>
     <use xlink:href="#mbdd982a2f6" x="254.90409" y="125.054031" style="stroke: #000000"/>
     <use xlink:href="#mbdd982a2f6" x="240.8666" y="129.976672" style="stroke: #000000"/>
     <use xlink:href="#mbdd982a2f6" x="139.232727" y="220.186201" style="stroke: #000000"/>
     <use xlink:href="#mbdd982a2f6" x="229.033367" y="162.815656" style="stroke: #000000"/>
     <use xlink:href="#mbdd982a2f6" x="161.582655" y="190.629613" style="stroke: #000000"/>
     <use xlink:href="#mbdd982a2f6" x="106.353634" y="275.068443" style="stroke: #000000"/>
     <use xlink:href="#mbdd982a2f6" x="205.088784" y="172.031381" style="stroke: #000000"/>
     <use xlink:href="#mbdd982a2f6" x="271.346196" y="89.958932" style="stroke: #000000"/>
     <use xlink:href="#mbdd982a2f6" x="135.41628" y="236.246858" style="stroke: #000000"/>
     <use xlink:href="#mbdd982a2f6" x="158.925551" y="206.188663" style="stroke: #000000"/>
     <use xlink:href="#mbdd982a2f6" x="289.19776" y="67.388223" style="stroke: #000000"/>
     <use xlink:href="#mbdd982a2f6" x="131.531454" y="213.313922" style="stroke: #000000"/>
     <use xlink:href="#mbdd982a2f6" x="137.571585" y="244.734833" style="stroke: #000000"/>
     <use xlink:href="#mbdd982a2f6" x="163.942045" y="212.318026" style="stroke: #000000"/>
     <use xlink:href="#mbdd982a2f6" x="131.126346" y="235.131548" style="stroke: #000000"/>
     <use xlink:href="#mbdd982a2f6" x="210.57169" y="167.332332" style="stroke: #000000"/>
     <use xlink:href="#mbdd982a2f6" x="208.135172" y="159.971404" style="stroke: #000000"/>
     <use xlink:href="#mbdd982a2f6" x="288.815188" y="91.473192" style="stroke: #000000"/>
     <use xlink:href="#mbdd982a2f6" x="224.836376" y="178.120396" style="stroke: #000000"/>
     <use xlink:href="#mbdd982a2f6" x="171.08298" y="185.705623" style="stroke: #000000"/>
     <use xlink:href="#mbdd982a2f6" x="198.144942" y="187.074739" style="stroke: #000000"/>
     <use xlink:href="#mbdd982a2f6" x="223.792209" y="152.505338" style="stroke: #000000"/>
     <use xlink:href="#mbdd982a2f6" x="227.375907" y="143.233077" style="stroke: #000000"/>
     <use xlink:href="#mbdd982a2f6" x="222.870975" y="155.065929" style="stroke: #000000"/>
     <use xlink:href="#mbdd982a2f6" x="157.065274" y="218.170049" style="stroke: #000000"/>
     <use xlink:href="#mbdd982a2f6" x="216.277538" y="159.801135" style="stroke: #000000"/>
     <use xlink:href="#mbdd982a2f6" x="224.034663" y="138.514782" style="stroke: #000000"/>
     <use xlink:href="#mbdd982a2f6" x="204.607838" y="161.599758" style="stroke: #000000"/>
     <use xlink:href="#mbdd982a2f6" x="202.383436" y="195.032021" style="stroke: #000000"/>
     <use xlink:href="#mbdd982a2f6" x="182.924454" y="180.167977" style="stroke: #000000"/>
     <use xlink:href="#mbdd982a2f6" x="200.647015" y="164.907784" style="stroke: #000000"/>
     <use xlink:href="#mbdd982a2f6" x="298.93441" y="89.294746" style="stroke: #000000"/>
     <use xlink:href="#mbdd982a2f6" x="224.253584" y="168.79407" style="stroke: #000000"/>
     <use xlink:href="#mbdd982a2f6" x="165.846395" y="206.954122" style="stroke: #000000"/>
     <use xlink:href="#mbdd982a2f6" x="160.734956" y="236.40724" style="stroke: #000000"/>
     <use xlink:href="#mbdd982a2f6" x="226.355227" y="129.110389" style="stroke: #000000"/>
     <use xlink:href="#mbdd982a2f6" x="222.82933" y="160.996912" style="stroke: #000000"/>
     <use xlink:href="#mbdd982a2f6" x="173.661115" y="176.40049" style="stroke: #000000"/>
     <use xlink:href="#mbdd982a2f6" x="136.15524" y="240.216057" style="stroke: #000000"/>
     <use xlink:href="#mbdd982a2f6" x="180.650328" y="196.182717" style="stroke: #000000"/>
     <use xlink:href="#mbdd982a2f6" x="230.146654" y="109.696051" style="stroke: #000000"/>
     <use xlink:href="#mbdd982a2f6" x="217.423769" y="147.652277" style="stroke: #000000"/>
     <use xlink:href="#mbdd982a2f6" x="290.535414" y="75.987082" style="stroke: #000000"/>
     <use xlink:href="#mbdd982a2f6" x="257.964927" y="88.031109" style="stroke: #000000"/>
     <use xlink:href="#mbdd982a2f6" x="231.74563" y="153.844742" style="stroke: #000000"/>
     <use xlink:href="#mbdd982a2f6" x="166.413879" y="204.706421" style="stroke: #000000"/>
     <use xlink:href="#mbdd982a2f6" x="113.612045" y="274.570114" style="stroke: #000000"/>
     <use xlink:href="#mbdd982a2f6" x="120.35372" y="255.363091" style="stroke: #000000"/>
     <use xlink:href="#mbdd982a2f6" x="148.609014" y="201.261146" style="stroke: #000000"/>
     <use xlink:href="#mbdd982a2f6" x="223.241962" y="182.804097" style="stroke: #000000"/>
     <use xlink:href="#mbdd982a2f6" x="302.489" y="77.759748" style="stroke: #000000"/>
     <use xlink:href="#mbdd982a2f6" x="219.908934" y="163.515487" style="stroke: #000000"/>
     <use xlink:href="#mbdd982a2f6" x="112.065317" y="281.759668" style="stroke: #000000"/>
     <use xlink:href="#mbdd982a2f6" x="123.011534" y="246.782945" style="stroke: #000000"/>
     <use xlink:href="#mbdd982a2f6" x="150.468561" y="219.155557" style="stroke: #000000"/>
     <use xlink:href="#mbdd982a2f6" x="222.167712" y="146.858557" style="stroke: #000000"/>
     <use xlink:href="#mbdd982a2f6" x="200.476771" y="162.075327" style="stroke: #000000"/>
     <use xlink:href="#mbdd982a2f6" x="127.068342" y="240.100354" style="stroke: #000000"/>
     <use xlink:href="#mbdd982a2f6" x="164.435597" y="203.633223" style="stroke: #000000"/>
     <use xlink:href="#mbdd982a2f6" x="206.956177" y="172.491968" style="stroke: #000000"/>
     <use xlink:href="#mbdd982a2f6" x="231.90272" y="120.557159" style="stroke: #000000"/>
     <use xlink:href="#mbdd982a2f6" x="272.371194" y="88.289382" style="stroke: #000000"/>
     <use xlink:href="#mbdd982a2f6" x="261.172027" y="129.093477" style="stroke: #000000"/>
     <use xlink:href="#mbdd982a2f6" x="171.152102" y="198.807248" style="stroke: #000000"/>
     <use xlink:href="#mbdd982a2f6" x="178.030592" y="208.61207" style="stroke: #000000"/>
     <use xlink:href="#mbdd982a2f6" x="110.319069" y="269.673684" style="stroke: #000000"/>
     <use xlink:href="#mbdd982a2f6" x="168.706764" y="188.451777" style="stroke: #000000"/>
     <use xlink:href="#mbdd982a2f6" x="232.608179" y="164.969747" style="stroke: #000000"/>
     <use xlink:href="#mbdd982a2f6" x="161.054671" y="197.714074" style="stroke: #000000"/>
     <use xlink:href="#mbdd982a2f6" x="300.418759" y="80.905135" style="stroke: #000000"/>
     <use xlink:href="#mbdd982a2f6" x="249.955944" y="117.009686" style="stroke: #000000"/>
     <use xlink:href="#mbdd982a2f6" x="231.361266" y="142.118939" style="stroke: #000000"/>
     <use xlink:href="#mbdd982a2f6" x="201.657011" y="141.977958" style="stroke: #000000"/>
     <use xlink:href="#mbdd982a2f6" x="165.429831" y="206.983017" style="stroke: #000000"/>
     <use xlink:href="#mbdd982a2f6" x="222.513766" y="160.225256" style="stroke: #000000"/>
     <use xlink:href="#mbdd982a2f6" x="150.341047" y="226.658398" style="stroke: #000000"/>
     <use xlink:href="#mbdd982a2f6" x="197.717666" y="175.276239" style="stroke: #000000"/>
     <use xlink:href="#mbdd982a2f6" x="118.956852" y="231.762539" style="stroke: #000000"/>
     <use xlink:href="#mbdd982a2f6" x="90.729253" y="273.482179" style="stroke: #000000"/>
     <use xlink:href="#mbdd982a2f6" x="194.542628" y="174.152839" style="stroke: #000000"/>
     <use xlink:href="#mbdd982a2f6" x="153.376168" y="234.90181" style="stroke: #000000"/>
     <use xlink:href="#mbdd982a2f6" x="164.78985" y="189.324878" style="stroke: #000000"/>
     <use xlink:href="#mbdd982a2f6" x="311.318182" y="62.091701" style="stroke: #000000"/>
     <use xlink:href="#mbdd982a2f6" x="195.644187" y="200.808026" style="stroke: #000000"/>
     <use xlink:href="#mbdd982a2f6" x="127.301437" y="265.786633" style="stroke: #000000"/>
     <use xlink:href="#mbdd982a2f6" x="118.072237" y="262.119379" style="stroke: #000000"/>
     <use xlink:href="#mbdd982a2f6" x="157.660444" y="228.983737" style="stroke: #000000"/>
     <use xlink:href="#mbdd982a2f6" x="174.937432" y="186.187404" style="stroke: #000000"/>
     <use xlink:href="#mbdd982a2f6" x="199.009584" y="143.967277" style="stroke: #000000"/>
     <use xlink:href="#mbdd982a2f6" x="192.409137" y="177.425424" style="stroke: #000000"/>
     <use xlink:href="#mbdd982a2f6" x="150.027553" y="235.228062" style="stroke: #000000"/>
     <use xlink:href="#mbdd982a2f6" x="120.121911" y="236.548657" style="stroke: #000000"/>
     <use xlink:href="#mbdd982a2f6" x="192.103109" y="167.45882" style="stroke: #000000"/>
     <use xlink:href="#mbdd982a2f6" x="221.086551" y="140.782653" style="stroke: #000000"/>
     <use xlink:href="#mbdd982a2f6" x="127.502057" y="251.882099" style="stroke: #000000"/>
     <use xlink:href="#mbdd982a2f6" x="147.521451" y="193.532764" style="stroke: #000000"/>
     <use xlink:href="#mbdd982a2f6" x="208.574918" y="141.415971" style="stroke: #000000"/>
     <use xlink:href="#mbdd982a2f6" x="251.252316" y="115.993491" style="stroke: #000000"/>
     <use xlink:href="#mbdd982a2f6" x="106.585417" y="239.051423" style="stroke: #000000"/>
     <use xlink:href="#mbdd982a2f6" x="197.98918" y="162.752127" style="stroke: #000000"/>
     <use xlink:href="#mbdd982a2f6" x="284.941005" y="121.471995" style="stroke: #000000"/>
     <use xlink:href="#mbdd982a2f6" x="81.077232" y="284.861824" style="stroke: #000000"/>
     <use xlink:href="#mbdd982a2f6" x="207.339162" y="167.179708" style="stroke: #000000"/>
     <use xlink:href="#mbdd982a2f6" x="167.327966" y="196.3112" style="stroke: #000000"/>
     <use xlink:href="#mbdd982a2f6" x="204.931003" y="146.155241" style="stroke: #000000"/>
     <use xlink:href="#mbdd982a2f6" x="207.877861" y="142.536345" style="stroke: #000000"/>
     <use xlink:href="#mbdd982a2f6" x="174.64926" y="198.239462" style="stroke: #000000"/>
     <use xlink:href="#mbdd982a2f6" x="275.097178" y="109.16098" style="stroke: #000000"/>
     <use xlink:href="#mbdd982a2f6" x="168.690148" y="205.360022" style="stroke: #000000"/>
     <use xlink:href="#mbdd982a2f6" x="238.740722" y="133.003754" style="stroke: #000000"/>
     <use xlink:href="#mbdd982a2f6" x="179.376303" y="200.843922" style="stroke: #000000"/>
     <use xlink:href="#mbdd982a2f6" x="139.080854" y="245.691392" style="stroke: #000000"/>
     <use xlink:href="#mbdd982a2f6" x="235.244039" y="120.578326" style="stroke: #000000"/>
     <use xlink:href="#mbdd982a2f6" x="213.904571" y="145.396092" style="stroke: #000000"/>
     <use xlink:href="#mbdd982a2f6" x="177.526779" y="199.007385" style="stroke: #000000"/>
     <use xlink:href="#mbdd982a2f6" x="249.941982" y="90.664728" style="stroke: #000000"/>
     <use xlink:href="#mbdd982a2f6" x="225.836458" y="129.556939" style="stroke: #000000"/>
     <use xlink:href="#mbdd982a2f6" x="250.968246" y="109.515726" style="stroke: #000000"/>
     <use xlink:href="#mbdd982a2f6" x="158.408021" y="207.363271" style="stroke: #000000"/>
     <use xlink:href="#mbdd982a2f6" x="126.549767" y="228.840542" style="stroke: #000000"/>
     <use xlink:href="#mbdd982a2f6" x="304.64509" y="55.8" style="stroke: #000000"/>
     <use xlink:href="#mbdd982a2f6" x="233.234114" y="138.787658" style="stroke: #000000"/>
    </g>
   </g>
   <g id="matplotlib.axis_1">
    <g id="xtick_1">
     <g id="line2d_1">
      <defs>
       <path id="m92316abc44" d="M 0 0 
L 0 3.5 
" style="stroke: #000000; stroke-width: 0.8"/>
      </defs>
      <g>
       <use xlink:href="#m92316abc44" x="57.392658" y="320.4" style="stroke: #000000; stroke-width: 0.8"/>
      </g>
     </g>
     <g id="text_1">
      <!-- −10 -->
      <g transform="translate(48.816877 334.998438) scale(0.1 -0.1)">
       <defs>
        <path id="OpenSans-Regular-2212" d="M 322 2044 
L 322 2469 
L 3331 2469 
L 3331 2044 
L 322 2044 
z
" transform="scale(0.015625)"/>
        <path id="OpenSans-Regular-31" d="M 2247 0 
L 1741 0 
L 1741 3238 
Q 1741 3422 1742 3555 
Q 1744 3688 1748 3798 
Q 1753 3909 1763 4025 
Q 1666 3925 1581 3854 
Q 1497 3784 1372 3681 
L 850 3263 
L 578 3616 
L 1816 4569 
L 2247 4569 
L 2247 0 
z
" transform="scale(0.015625)"/>
        <path id="OpenSans-Regular-30" d="M 3334 2291 
Q 3334 1734 3250 1296 
Q 3166 859 2984 556 
Q 2803 253 2515 95 
Q 2228 -63 1825 -63 
Q 1316 -63 983 215 
Q 650 494 486 1020 
Q 322 1547 322 2291 
Q 322 3022 470 3548 
Q 619 4075 950 4358 
Q 1281 4641 1825 4641 
Q 2341 4641 2675 4361 
Q 3009 4081 3171 3554 
Q 3334 3028 3334 2291 
z
M 844 2291 
Q 844 1653 941 1228 
Q 1038 803 1255 592 
Q 1472 381 1825 381 
Q 2178 381 2395 590 
Q 2613 800 2711 1225 
Q 2809 1650 2809 2291 
Q 2809 2919 2712 3342 
Q 2616 3766 2400 3980 
Q 2184 4194 1825 4194 
Q 1466 4194 1250 3980 
Q 1034 3766 939 3342 
Q 844 2919 844 2291 
z
" transform="scale(0.015625)"/>
       </defs>
       <use xlink:href="#OpenSans-Regular-2212"/>
       <use xlink:href="#OpenSans-Regular-31" x="57.177734"/>
       <use xlink:href="#OpenSans-Regular-30" x="114.355469"/>
      </g>
     </g>
    </g>
    <g id="xtick_2">
     <g id="line2d_2">
      <g>
       <use xlink:href="#m92316abc44" x="108.288036" y="320.4" style="stroke: #000000; stroke-width: 0.8"/>
      </g>
     </g>
     <g id="text_2">
      <!-- 0 -->
      <g transform="translate(105.429442 334.998438) scale(0.1 -0.1)">
       <use xlink:href="#OpenSans-Regular-30"/>
      </g>
     </g>
    </g>
    <g id="xtick_3">
     <g id="line2d_3">
      <g>
       <use xlink:href="#m92316abc44" x="159.183413" y="320.4" style="stroke: #000000; stroke-width: 0.8"/>
      </g>
     </g>
     <g id="text_3">
      <!-- 10 -->
      <g transform="translate(153.466226 334.998438) scale(0.1 -0.1)">
       <use xlink:href="#OpenSans-Regular-31"/>
       <use xlink:href="#OpenSans-Regular-30" x="57.177734"/>
      </g>
     </g>
    </g>
    <g id="xtick_4">
     <g id="line2d_4">
      <g>
       <use xlink:href="#m92316abc44" x="210.078791" y="320.4" style="stroke: #000000; stroke-width: 0.8"/>
      </g>
     </g>
     <g id="text_4">
      <!-- 20 -->
      <g transform="translate(204.361604 334.998438) scale(0.1 -0.1)">
       <defs>
        <path id="OpenSans-Regular-32" d="M 3309 0 
L 316 0 
L 316 434 
L 1538 1675 
Q 1878 2019 2111 2287 
Q 2344 2556 2466 2817 
Q 2588 3078 2588 3391 
Q 2588 3778 2358 3983 
Q 2128 4188 1753 4188 
Q 1425 4188 1172 4075 
Q 919 3963 653 3756 
L 375 4106 
Q 556 4259 770 4378 
Q 984 4497 1229 4565 
Q 1475 4634 1753 4634 
Q 2175 4634 2481 4487 
Q 2788 4341 2955 4069 
Q 3122 3797 3122 3422 
Q 3122 3059 2978 2748 
Q 2834 2438 2575 2133 
Q 2316 1828 1969 1488 
L 975 497 
L 975 475 
L 3309 475 
L 3309 0 
z
" transform="scale(0.015625)"/>
       </defs>
       <use xlink:href="#OpenSans-Regular-32"/>
       <use xlink:href="#OpenSans-Regular-30" x="57.177734"/>
      </g>
     </g>
    </g>
    <g id="xtick_5">
     <g id="line2d_5">
      <g>
       <use xlink:href="#m92316abc44" x="260.974169" y="320.4" style="stroke: #000000; stroke-width: 0.8"/>
      </g>
     </g>
     <g id="text_5">
      <!-- 30 -->
      <g transform="translate(255.256981 334.998438) scale(0.1 -0.1)">
       <defs>
        <path id="OpenSans-Regular-33" d="M 3141 3503 
Q 3141 3197 3022 2972 
Q 2903 2747 2690 2605 
Q 2478 2463 2191 2406 
L 2191 2381 
Q 2734 2313 3007 2031 
Q 3281 1750 3281 1294 
Q 3281 897 3095 590 
Q 2909 284 2526 110 
Q 2144 -63 1547 -63 
Q 1184 -63 876 -5 
Q 569 53 288 188 
L 288 675 
Q 572 534 906 454 
Q 1241 375 1553 375 
Q 2178 375 2456 623 
Q 2734 872 2734 1303 
Q 2734 1600 2579 1783 
Q 2425 1966 2136 2052 
Q 1847 2138 1441 2138 
L 984 2138 
L 984 2581 
L 1444 2581 
Q 1816 2581 2075 2690 
Q 2334 2800 2470 2998 
Q 2606 3197 2606 3469 
Q 2606 3816 2375 4005 
Q 2144 4194 1747 4194 
Q 1503 4194 1303 4144 
Q 1103 4094 928 4006 
Q 753 3919 578 3803 
L 316 4159 
Q 566 4353 925 4493 
Q 1284 4634 1741 4634 
Q 2441 4634 2791 4315 
Q 3141 3997 3141 3503 
z
" transform="scale(0.015625)"/>
       </defs>
       <use xlink:href="#OpenSans-Regular-33"/>
       <use xlink:href="#OpenSans-Regular-30" x="57.177734"/>
      </g>
     </g>
    </g>
    <g id="xtick_6">
     <g id="line2d_6">
      <g>
       <use xlink:href="#m92316abc44" x="311.869547" y="320.4" style="stroke: #000000; stroke-width: 0.8"/>
      </g>
     </g>
     <g id="text_6">
      <!-- 40 -->
      <g transform="translate(306.152359 334.998438) scale(0.1 -0.1)">
       <defs>
        <path id="OpenSans-Regular-34" d="M 3538 1059 
L 2853 1059 
L 2853 0 
L 2347 0 
L 2347 1059 
L 138 1059 
L 138 1497 
L 2313 4594 
L 2853 4594 
L 2853 1528 
L 3538 1528 
L 3538 1059 
z
M 2347 1528 
L 2347 3022 
Q 2347 3194 2350 3333 
Q 2353 3472 2359 3592 
Q 2366 3713 2370 3822 
Q 2375 3931 2378 4038 
L 2353 4038 
Q 2294 3913 2217 3773 
Q 2141 3634 2063 3525 
L 653 1528 
L 2347 1528 
z
" transform="scale(0.015625)"/>
       </defs>
       <use xlink:href="#OpenSans-Regular-34"/>
       <use xlink:href="#OpenSans-Regular-30" x="57.177734"/>
      </g>
     </g>
    </g>
    <g id="text_7">
     <!-- x -->
     <g transform="translate(181.882812 348.989062) scale(0.1 -0.1)">
      <defs>
       <path id="OpenSans-Regular-78" d="M 1363 1753 
L 178 3425 
L 772 3425 
L 1675 2106 
L 2575 3425 
L 3163 3425 
L 1978 1753 
L 3228 0 
L 2634 0 
L 1675 1397 
L 709 0 
L 122 0 
L 1363 1753 
z
" transform="scale(0.015625)"/>
      </defs>
      <use xlink:href="#OpenSans-Regular-78"/>
     </g>
    </g>
   </g>
   <g id="matplotlib.axis_2">
    <g id="ytick_1">
     <g id="line2d_7">
      <defs>
       <path id="m8983e49f49" d="M 0 0 
L -3.5 0 
" style="stroke: #000000; stroke-width: 0.8"/>
      </defs>
      <g>
       <use xlink:href="#m8983e49f49" x="45" y="294.855035" style="stroke: #000000; stroke-width: 0.8"/>
      </g>
     </g>
     <g id="text_8">
      <!-- −10 -->
      <g transform="translate(20.848437 298.654253) scale(0.1 -0.1)">
       <use xlink:href="#OpenSans-Regular-2212"/>
       <use xlink:href="#OpenSans-Regular-31" x="57.177734"/>
       <use xlink:href="#OpenSans-Regular-30" x="114.355469"/>
      </g>
     </g>
    </g>
    <g id="ytick_2">
     <g id="line2d_8">
      <g>
       <use xlink:href="#m8983e49f49" x="45" y="244.321448" style="stroke: #000000; stroke-width: 0.8"/>
      </g>
     </g>
     <g id="text_9">
      <!-- 0 -->
      <g transform="translate(32.282812 248.120667) scale(0.1 -0.1)">
       <use xlink:href="#OpenSans-Regular-30"/>
      </g>
     </g>
    </g>
    <g id="ytick_3">
     <g id="line2d_9">
      <g>
       <use xlink:href="#m8983e49f49" x="45" y="193.787862" style="stroke: #000000; stroke-width: 0.8"/>
      </g>
     </g>
     <g id="text_10">
      <!-- 10 -->
      <g transform="translate(26.565625 197.587081) scale(0.1 -0.1)">
       <use xlink:href="#OpenSans-Regular-31"/>
       <use xlink:href="#OpenSans-Regular-30" x="57.177734"/>
      </g>
     </g>
    </g>
    <g id="ytick_4">
     <g id="line2d_10">
      <g>
       <use xlink:href="#m8983e49f49" x="45" y="143.254276" style="stroke: #000000; stroke-width: 0.8"/>
      </g>
     </g>
     <g id="text_11">
      <!-- 20 -->
      <g transform="translate(26.565625 147.053495) scale(0.1 -0.1)">
       <use xlink:href="#OpenSans-Regular-32"/>
       <use xlink:href="#OpenSans-Regular-30" x="57.177734"/>
      </g>
     </g>
    </g>
    <g id="ytick_5">
     <g id="line2d_11">
      <g>
       <use xlink:href="#m8983e49f49" x="45" y="92.72069" style="stroke: #000000; stroke-width: 0.8"/>
      </g>
     </g>
     <g id="text_12">
      <!-- 30 -->
      <g transform="translate(26.565625 96.519908) scale(0.1 -0.1)">
       <use xlink:href="#OpenSans-Regular-33"/>
       <use xlink:href="#OpenSans-Regular-30" x="57.177734"/>
      </g>
     </g>
    </g>
    <g id="text_13">
     <!-- y -->
     <g transform="translate(14.440625 184.304687) rotate(-90) scale(0.1 -0.1)">
      <defs>
       <path id="OpenSans-Regular-79" d="M 6 3425 
L 563 3425 
L 1319 1438 
Q 1384 1263 1440 1102 
Q 1497 941 1540 794 
Q 1584 647 1609 509 
L 1631 509 
Q 1675 666 1756 920 
Q 1838 1175 1931 1441 
L 2647 3425 
L 3206 3425 
L 1716 -503 
Q 1597 -819 1439 -1053 
Q 1281 -1288 1056 -1414 
Q 831 -1541 513 -1541 
Q 366 -1541 253 -1523 
Q 141 -1506 59 -1484 
L 59 -1069 
Q 128 -1084 226 -1096 
Q 325 -1109 431 -1109 
Q 625 -1109 767 -1036 
Q 909 -963 1012 -822 
Q 1116 -681 1191 -488 
L 1378 -6 
L 6 3425 
z
" transform="scale(0.015625)"/>
      </defs>
      <use xlink:href="#OpenSans-Regular-79"/>
     </g>
    </g>
   </g>
   <g id="patch_3">
    <path d="M 45 320.4 
L 45 43.2 
" style="fill: none; stroke: #000000; stroke-width: 0.8; stroke-linejoin: miter; stroke-linecap: square"/>
   </g>
   <g id="patch_4">
    <path d="M 324 320.4 
L 324 43.2 
" style="fill: none; stroke: #000000; stroke-width: 0.8; stroke-linejoin: miter; stroke-linecap: square"/>
   </g>
   <g id="patch_5">
    <path d="M 45 320.4 
L 324 320.4 
" style="fill: none; stroke: #000000; stroke-width: 0.8; stroke-linejoin: miter; stroke-linecap: square"/>
   </g>
   <g id="patch_6">
    <path d="M 45 43.2 
L 324 43.2 
" style="fill: none; stroke: #000000; stroke-width: 0.8; stroke-linejoin: miter; stroke-linecap: square"/>
   </g>
   <g id="text_14">
    <!-- Диаграмма рассеяния -->
    <g transform="translate(119.581875 37.2) scale(0.12 -0.12)">
     <defs>
      <path id="OpenSans-Regular-414" d="M 3669 4569 
L 3669 475 
L 4231 475 
L 4231 -1194 
L 3722 -1194 
L 3722 0 
L 547 0 
L 547 -1194 
L 38 -1194 
L 38 475 
L 388 475 
Q 622 875 826 1373 
Q 1031 1872 1192 2417 
Q 1353 2963 1454 3513 
Q 1556 4063 1584 4569 
L 3669 4569 
z
M 3141 4091 
L 2053 4091 
Q 2025 3703 1928 3226 
Q 1831 2750 1679 2250 
Q 1528 1750 1342 1290 
Q 1156 831 950 475 
L 3141 475 
L 3141 4091 
z
" transform="scale(0.015625)"/>
      <path id="OpenSans-Regular-438" d="M 1041 3425 
L 1041 1272 
Q 1041 1209 1037 1111 
Q 1034 1013 1028 902 
Q 1022 791 1017 689 
Q 1013 588 1006 522 
L 2875 3425 
L 3513 3425 
L 3513 0 
L 3028 0 
L 3028 2100 
Q 3028 2200 3031 2356 
Q 3034 2513 3040 2664 
Q 3047 2816 3050 2900 
L 1188 0 
L 547 0 
L 547 3425 
L 1041 3425 
z
" transform="scale(0.015625)"/>
      <path id="OpenSans-Regular-430" d="M 1828 3481 
Q 2441 3481 2737 3206 
Q 3034 2931 3034 2328 
L 3034 0 
L 2656 0 
L 2556 506 
L 2531 506 
Q 2388 319 2231 192 
Q 2075 66 1870 1 
Q 1666 -63 1369 -63 
Q 1056 -63 814 46 
Q 572 156 433 378 
Q 294 600 294 941 
Q 294 1453 700 1728 
Q 1106 2003 1938 2028 
L 2528 2053 
L 2528 2263 
Q 2528 2706 2337 2884 
Q 2147 3063 1800 3063 
Q 1531 3063 1287 2984 
Q 1044 2906 825 2800 
L 666 3194 
Q 897 3313 1197 3397 
Q 1497 3481 1828 3481 
z
M 2522 1688 
L 2000 1666 
Q 1359 1641 1096 1456 
Q 834 1272 834 934 
Q 834 641 1012 500 
Q 1191 359 1484 359 
Q 1941 359 2231 612 
Q 2522 866 2522 1372 
L 2522 1688 
z
" transform="scale(0.015625)"/>
      <path id="OpenSans-Regular-433" d="M 2625 3425 
L 2625 2984 
L 1069 2984 
L 1069 0 
L 547 0 
L 547 3425 
L 2625 3425 
z
" transform="scale(0.015625)"/>
      <path id="OpenSans-Regular-440" d="M 2156 3488 
Q 2797 3488 3178 3047 
Q 3559 2606 3559 1722 
Q 3559 1138 3384 741 
Q 3209 344 2892 140 
Q 2575 -63 2144 -63 
Q 1872 -63 1665 9 
Q 1459 81 1312 203 
Q 1166 325 1069 469 
L 1031 469 
Q 1041 347 1055 175 
Q 1069 3 1069 -125 
L 1069 -1531 
L 547 -1531 
L 547 3425 
L 975 3425 
L 1044 2919 
L 1069 2919 
Q 1169 3075 1312 3204 
Q 1456 3334 1664 3411 
Q 1872 3488 2156 3488 
z
M 2066 3050 
Q 1709 3050 1492 2912 
Q 1275 2775 1175 2501 
Q 1075 2228 1069 1816 
L 1069 1716 
Q 1069 1281 1164 981 
Q 1259 681 1479 525 
Q 1700 369 2072 369 
Q 2391 369 2603 541 
Q 2816 713 2920 1020 
Q 3025 1328 3025 1728 
Q 3025 2334 2789 2692 
Q 2553 3050 2066 3050 
z
" transform="scale(0.015625)"/>
      <path id="OpenSans-Regular-43c" d="M 4163 3425 
L 4163 0 
L 3694 0 
L 3694 2231 
Q 3694 2369 3701 2511 
Q 3709 2653 3722 2797 
L 3703 2797 
L 2566 0 
L 2125 0 
L 1016 2797 
L 997 2797 
Q 1006 2653 1011 2511 
Q 1016 2369 1016 2213 
L 1016 0 
L 544 0 
L 544 3425 
L 1241 3425 
L 2347 625 
L 3469 3425 
L 4163 3425 
z
" transform="scale(0.015625)"/>
      <path id="OpenSans-Regular-20" transform="scale(0.015625)"/>
      <path id="OpenSans-Regular-441" d="M 1919 -63 
Q 1456 -63 1103 128 
Q 750 319 553 709 
Q 356 1100 356 1694 
Q 356 2316 564 2711 
Q 772 3106 1137 3297 
Q 1503 3488 1969 3488 
Q 2225 3488 2464 3436 
Q 2703 3384 2856 3306 
L 2700 2872 
Q 2544 2934 2339 2984 
Q 2134 3034 1956 3034 
Q 1600 3034 1364 2881 
Q 1128 2728 1011 2431 
Q 894 2134 894 1700 
Q 894 1284 1008 990 
Q 1122 697 1348 542 
Q 1575 388 1916 388 
Q 2188 388 2406 445 
Q 2625 503 2803 581 
L 2803 119 
Q 2631 31 2420 -16 
Q 2209 -63 1919 -63 
z
" transform="scale(0.015625)"/>
      <path id="OpenSans-Regular-435" d="M 1866 3488 
Q 2303 3488 2615 3294 
Q 2928 3100 3093 2751 
Q 3259 2403 3259 1938 
L 3259 1616 
L 894 1616 
Q 903 1013 1193 697 
Q 1484 381 2013 381 
Q 2338 381 2588 440 
Q 2838 500 3106 616 
L 3106 159 
Q 2847 44 2592 -9 
Q 2338 -63 1991 -63 
Q 1497 -63 1130 139 
Q 763 341 559 731 
Q 356 1122 356 1688 
Q 356 2241 542 2645 
Q 728 3050 1067 3269 
Q 1406 3488 1866 3488 
z
M 1859 3063 
Q 1444 3063 1197 2791 
Q 950 2519 903 2031 
L 2716 2031 
Q 2713 2338 2620 2570 
Q 2528 2803 2340 2933 
Q 2153 3063 1859 3063 
z
" transform="scale(0.015625)"/>
      <path id="OpenSans-Regular-44f" d="M 713 0 
L 106 0 
L 1094 1444 
Q 878 1491 693 1605 
Q 509 1719 395 1919 
Q 281 2119 281 2416 
Q 281 2909 611 3167 
Q 941 3425 1481 3425 
L 2997 3425 
L 2997 0 
L 2478 0 
L 2478 1375 
L 1609 1375 
L 713 0 
z
M 784 2413 
Q 784 2106 1003 1957 
Q 1222 1809 1628 1809 
L 2478 1809 
L 2478 2991 
L 1538 2991 
Q 1138 2991 961 2830 
Q 784 2669 784 2413 
z
" transform="scale(0.015625)"/>
      <path id="OpenSans-Regular-43d" d="M 1069 3425 
L 1069 1988 
L 2978 1988 
L 2978 3425 
L 3497 3425 
L 3497 0 
L 2978 0 
L 2978 1547 
L 1069 1547 
L 1069 0 
L 547 0 
L 547 3425 
L 1069 3425 
z
" transform="scale(0.015625)"/>
     </defs>
     <use xlink:href="#OpenSans-Regular-414"/>
     <use xlink:href="#OpenSans-Regular-438" x="68.408203"/>
     <use xlink:href="#OpenSans-Regular-430" x="131.982422"/>
     <use xlink:href="#OpenSans-Regular-433" x="187.548828"/>
     <use xlink:href="#OpenSans-Regular-440" x="230.664062"/>
     <use xlink:href="#OpenSans-Regular-430" x="291.845703"/>
     <use xlink:href="#OpenSans-Regular-43c" x="347.412109"/>
     <use xlink:href="#OpenSans-Regular-43c" x="420.751953"/>
     <use xlink:href="#OpenSans-Regular-430" x="494.091797"/>
     <use xlink:href="#OpenSans-Regular-20" x="549.658203"/>
     <use xlink:href="#OpenSans-Regular-440" x="575.634766"/>
     <use xlink:href="#OpenSans-Regular-430" x="636.816406"/>
     <use xlink:href="#OpenSans-Regular-441" x="692.382812"/>
     <use xlink:href="#OpenSans-Regular-441" x="740.283203"/>
     <use xlink:href="#OpenSans-Regular-435" x="788.183594"/>
     <use xlink:href="#OpenSans-Regular-44f" x="844.335938"/>
     <use xlink:href="#OpenSans-Regular-43d" x="899.707031"/>
     <use xlink:href="#OpenSans-Regular-438" x="962.988281"/>
     <use xlink:href="#OpenSans-Regular-44f" x="1026.5625"/>
    </g>
   </g>
  </g>
 </g>
 <defs>
  <clipPath id="pd7d766924f">
   <rect x="45" y="43.2" width="279" height="277.2"/>
  </clipPath>
 </defs>
</svg>
