<?xml version="1.0" encoding="utf-8" standalone="no"?>
<!DOCTYPE svg PUBLIC "-//W3C//DTD SVG 1.1//EN"
  "http://www.w3.org/Graphics/SVG/1.1/DTD/svg11.dtd">
<svg xmlns:xlink="http://www.w3.org/1999/xlink" width="360pt" height="360pt" viewBox="0 0 360 360" xmlns="http://www.w3.org/2000/svg" version="1.1">
 <metadata>
  <rdf:RDF xmlns:dc="http://purl.org/dc/elements/1.1/" xmlns:cc="http://creativecommons.org/ns#" xmlns:rdf="http://www.w3.org/1999/02/22-rdf-syntax-ns#">
   <cc:Work>
    <dc:type rdf:resource="http://purl.org/dc/dcmitype/StillImage"/>
    <dc:date>2023-11-21T18:55:08.383474</dc:date>
    <dc:format>image/svg+xml</dc:format>
    <dc:creator>
     <cc:Agent>
      <dc:title>Matplotlib v3.8.0, https://matplotlib.org/</dc:title>
     </cc:Agent>
    </dc:creator>
   </cc:Work>
  </rdf:RDF>
 </metadata>
 <defs>
  <style type="text/css">*{stroke-linejoin: round; stroke-linecap: butt}</style>
 </defs>
 <g id="figure_1">
  <g id="patch_1">
   <path d="M 0 360 
L 360 360 
L 360 0 
L 0 0 
z
" style="fill: #ffffff"/>
  </g>
  <g id="axes_1">
   <g id="patch_2">
    <path d="M 45 320.4 
L 324 320.4 
L 324 43.2 
L 45 43.2 
z
" style="fill: #ffffff"/>
   </g>
   <g id="PathCollection_1">
    <defs>
     <path id="m4c67cf1657" d="M 0 1.870829 
C 0.49615 1.870829 0.972045 1.673706 1.322876 1.322876 
C 1.673706 0.972045 1.870829 0.49615 1.870829 0 
C 1.870829 -0.49615 1.673706 -0.972045 1.322876 -1.322876 
C 0.972045 -1.673706 0.49615 -1.870829 0 -1.870829 
C -0.49615 -1.870829 -0.972045 -1.673706 -1.322876 -1.322876 
C -1.673706 -0.972045 -1.870829 -0.49615 -1.870829 0 
C -1.870829 0.49615 -1.673706 0.972045 -1.322876 1.322876 
C -0.972045 1.673706 -0.49615 1.870829 0 1.870829 
z
" style="stroke: #000000"/>
    </defs>
    <g clip-path="url(#pacee435b92)">
     <use xlink:href="#m4c67cf1657" x="206.751244" y="287.171168" style="stroke: #000000"/>
     <use xlink:href="#m4c67cf1657" x="191.133732" y="285.81075" style="stroke: #000000"/>
     <use xlink:href="#m4c67cf1657" x="139.488084" y="271.900651" style="stroke: #000000"/>
     <use xlink:href="#m4c67cf1657" x="140.664968" y="267.191574" style="stroke: #000000"/>
     <use xlink:href="#m4c67cf1657" x="193.168396" y="294.336754" style="stroke: #000000"/>
     <use xlink:href="#m4c67cf1657" x="193.773394" y="288.237304" style="stroke: #000000"/>
     <use xlink:href="#m4c67cf1657" x="181.466261" y="295.382524" style="stroke: #000000"/>
     <use xlink:href="#m4c67cf1657" x="149.044032" y="291.813663" style="stroke: #000000"/>
     <use xlink:href="#m4c67cf1657" x="191.896675" y="291.738453" style="stroke: #000000"/>
     <use xlink:href="#m4c67cf1657" x="181.247759" y="297.395265" style="stroke: #000000"/>
     <use xlink:href="#m4c67cf1657" x="197.664218" y="274.778896" style="stroke: #000000"/>
     <use xlink:href="#m4c67cf1657" x="135.127284" y="270.688005" style="stroke: #000000"/>
     <use xlink:href="#m4c67cf1657" x="114.825169" y="236.304724" style="stroke: #000000"/>
     <use xlink:href="#m4c67cf1657" x="200.543685" y="294.54206" style="stroke: #000000"/>
     <use xlink:href="#m4c67cf1657" x="189.559146" y="291.347092" style="stroke: #000000"/>
     <use xlink:href="#m4c67cf1657" x="199.401914" y="288.383085" style="stroke: #000000"/>
     <use xlink:href="#m4c67cf1657" x="268.530144" y="186.453121" style="stroke: #000000"/>
     <use xlink:href="#m4c67cf1657" x="210.537191" y="273.140893" style="stroke: #000000"/>
     <use xlink:href="#m4c67cf1657" x="162.187951" y="293.997301" style="stroke: #000000"/>
     <use xlink:href="#m4c67cf1657" x="183.856553" y="295.989167" style="stroke: #000000"/>
     <use xlink:href="#m4c67cf1657" x="175.8078" y="294.642978" style="stroke: #000000"/>
     <use xlink:href="#m4c67cf1657" x="141.899966" y="279.210263" style="stroke: #000000"/>
     <use xlink:href="#m4c67cf1657" x="145.858473" y="288.641974" style="stroke: #000000"/>
     <use xlink:href="#m4c67cf1657" x="201.862618" y="283.683085" style="stroke: #000000"/>
     <use xlink:href="#m4c67cf1657" x="113.638674" y="250.931955" style="stroke: #000000"/>
     <use xlink:href="#m4c67cf1657" x="84.001156" y="176.849378" style="stroke: #000000"/>
     <use xlink:href="#m4c67cf1657" x="186.154891" y="289.502186" style="stroke: #000000"/>
     <use xlink:href="#m4c67cf1657" x="172.320022" y="293.062869" style="stroke: #000000"/>
     <use xlink:href="#m4c67cf1657" x="202.344979" y="274.241607" style="stroke: #000000"/>
     <use xlink:href="#m4c67cf1657" x="146.665122" y="280.371618" style="stroke: #000000"/>
     <use xlink:href="#m4c67cf1657" x="131.97096" y="272.724073" style="stroke: #000000"/>
     <use xlink:href="#m4c67cf1657" x="195.142187" y="296.552946" style="stroke: #000000"/>
     <use xlink:href="#m4c67cf1657" x="243.326077" y="239.623016" style="stroke: #000000"/>
     <use xlink:href="#m4c67cf1657" x="136.66496" y="278.669469" style="stroke: #000000"/>
     <use xlink:href="#m4c67cf1657" x="176.638901" y="290.827071" style="stroke: #000000"/>
     <use xlink:href="#m4c67cf1657" x="187.825863" y="291.762368" style="stroke: #000000"/>
     <use xlink:href="#m4c67cf1657" x="175.934292" y="297.600064" style="stroke: #000000"/>
     <use xlink:href="#m4c67cf1657" x="175.544145" y="295.198385" style="stroke: #000000"/>
     <use xlink:href="#m4c67cf1657" x="165.509378" y="296.093495" style="stroke: #000000"/>
     <use xlink:href="#m4c67cf1657" x="180.93072" y="293.716671" style="stroke: #000000"/>
     <use xlink:href="#m4c67cf1657" x="191.951585" y="283.572723" style="stroke: #000000"/>
     <use xlink:href="#m4c67cf1657" x="104.706127" y="224.816668" style="stroke: #000000"/>
     <use xlink:href="#m4c67cf1657" x="208.511143" y="282.622939" style="stroke: #000000"/>
     <use xlink:href="#m4c67cf1657" x="150.023118" y="285.838972" style="stroke: #000000"/>
     <use xlink:href="#m4c67cf1657" x="139.613961" y="268.770216" style="stroke: #000000"/>
     <use xlink:href="#m4c67cf1657" x="233.920795" y="245.379033" style="stroke: #000000"/>
     <use xlink:href="#m4c67cf1657" x="173.405354" y="295.274646" style="stroke: #000000"/>
     <use xlink:href="#m4c67cf1657" x="151.921592" y="292.057238" style="stroke: #000000"/>
     <use xlink:href="#m4c67cf1657" x="155.369243" y="295.850826" style="stroke: #000000"/>
     <use xlink:href="#m4c67cf1657" x="185.154641" y="278.974223" style="stroke: #000000"/>
     <use xlink:href="#m4c67cf1657" x="138.123496" y="265.502556" style="stroke: #000000"/>
     <use xlink:href="#m4c67cf1657" x="165.944043" y="295.504064" style="stroke: #000000"/>
     <use xlink:href="#m4c67cf1657" x="175.504011" y="292.229708" style="stroke: #000000"/>
     <use xlink:href="#m4c67cf1657" x="225.645132" y="269.624134" style="stroke: #000000"/>
     <use xlink:href="#m4c67cf1657" x="121.798382" y="258.695681" style="stroke: #000000"/>
     <use xlink:href="#m4c67cf1657" x="171.358272" y="296.614623" style="stroke: #000000"/>
     <use xlink:href="#m4c67cf1657" x="198.724498" y="288.236866" style="stroke: #000000"/>
     <use xlink:href="#m4c67cf1657" x="192.839451" y="288.87163" style="stroke: #000000"/>
     <use xlink:href="#m4c67cf1657" x="211.787767" y="276.203761" style="stroke: #000000"/>
     <use xlink:href="#m4c67cf1657" x="222.722044" y="261.280996" style="stroke: #000000"/>
     <use xlink:href="#m4c67cf1657" x="174.048984" y="293.85642" style="stroke: #000000"/>
     <use xlink:href="#m4c67cf1657" x="166.746575" y="296.327166" style="stroke: #000000"/>
     <use xlink:href="#m4c67cf1657" x="175.970772" y="299.773022" style="stroke: #000000"/>
     <use xlink:href="#m4c67cf1657" x="161.072879" y="292.410904" style="stroke: #000000"/>
     <use xlink:href="#m4c67cf1657" x="216.705261" y="268.871053" style="stroke: #000000"/>
     <use xlink:href="#m4c67cf1657" x="133.036197" y="264.960121" style="stroke: #000000"/>
     <use xlink:href="#m4c67cf1657" x="248.491646" y="232.9581" style="stroke: #000000"/>
     <use xlink:href="#m4c67cf1657" x="118.364864" y="239.157237" style="stroke: #000000"/>
     <use xlink:href="#m4c67cf1657" x="137.957958" y="283.822861" style="stroke: #000000"/>
     <use xlink:href="#m4c67cf1657" x="189.568593" y="291.733008" style="stroke: #000000"/>
     <use xlink:href="#m4c67cf1657" x="311.318182" y="55.8" style="stroke: #000000"/>
     <use xlink:href="#m4c67cf1657" x="228.402639" y="258.61668" style="stroke: #000000"/>
     <use xlink:href="#m4c67cf1657" x="272.773547" y="176.842662" style="stroke: #000000"/>
     <use xlink:href="#m4c67cf1657" x="148.979704" y="279.15545" style="stroke: #000000"/>
     <use xlink:href="#m4c67cf1657" x="123.786809" y="259.823505" style="stroke: #000000"/>
     <use xlink:href="#m4c67cf1657" x="207.515636" y="289.238016" style="stroke: #000000"/>
     <use xlink:href="#m4c67cf1657" x="207.568083" y="287.662813" style="stroke: #000000"/>
     <use xlink:href="#m4c67cf1657" x="174.175543" y="297.177028" style="stroke: #000000"/>
     <use xlink:href="#m4c67cf1657" x="242.943732" y="237.991074" style="stroke: #000000"/>
     <use xlink:href="#m4c67cf1657" x="205.072112" y="289.580822" style="stroke: #000000"/>
     <use xlink:href="#m4c67cf1657" x="193.597444" y="288.80771" style="stroke: #000000"/>
     <use xlink:href="#m4c67cf1657" x="166.300154" y="290.479919" style="stroke: #000000"/>
     <use xlink:href="#m4c67cf1657" x="187.768616" y="298.141217" style="stroke: #000000"/>
     <use xlink:href="#m4c67cf1657" x="255.888382" y="215.225762" style="stroke: #000000"/>
     <use xlink:href="#m4c67cf1657" x="170.197474" y="285.623036" style="stroke: #000000"/>
     <use xlink:href="#m4c67cf1657" x="221.011329" y="268.283716" style="stroke: #000000"/>
     <use xlink:href="#m4c67cf1657" x="194.14081" y="301.839814" style="stroke: #000000"/>
     <use xlink:href="#m4c67cf1657" x="169.013678" y="296.039753" style="stroke: #000000"/>
     <use xlink:href="#m4c67cf1657" x="134.582054" y="268.102295" style="stroke: #000000"/>
     <use xlink:href="#m4c67cf1657" x="171.448975" y="300.534473" style="stroke: #000000"/>
     <use xlink:href="#m4c67cf1657" x="192.767275" y="292.658485" style="stroke: #000000"/>
     <use xlink:href="#m4c67cf1657" x="101.932114" y="221.309843" style="stroke: #000000"/>
     <use xlink:href="#m4c67cf1657" x="222.133124" y="267.311758" style="stroke: #000000"/>
     <use xlink:href="#m4c67cf1657" x="179.999228" y="305.184198" style="stroke: #000000"/>
     <use xlink:href="#m4c67cf1657" x="249.502823" y="227.554414" style="stroke: #000000"/>
     <use xlink:href="#m4c67cf1657" x="112.812502" y="240.398611" style="stroke: #000000"/>
     <use xlink:href="#m4c67cf1657" x="161.486989" y="289.045463" style="stroke: #000000"/>
     <use xlink:href="#m4c67cf1657" x="234.813336" y="253.64216" style="stroke: #000000"/>
     <use xlink:href="#m4c67cf1657" x="147.674483" y="274.722396" style="stroke: #000000"/>
     <use xlink:href="#m4c67cf1657" x="195.84619" y="295.475433" style="stroke: #000000"/>
     <use xlink:href="#m4c67cf1657" x="195.402758" y="295.429154" style="stroke: #000000"/>
     <use xlink:href="#m4c67cf1657" x="130.042046" y="274.276233" style="stroke: #000000"/>
     <use xlink:href="#m4c67cf1657" x="143.734634" y="279.671922" style="stroke: #000000"/>
     <use xlink:href="#m4c67cf1657" x="118.843519" y="251.942417" style="stroke: #000000"/>
     <use xlink:href="#m4c67cf1657" x="171.92685" y="294.513268" style="stroke: #000000"/>
     <use xlink:href="#m4c67cf1657" x="226.889593" y="268.644212" style="stroke: #000000"/>
     <use xlink:href="#m4c67cf1657" x="202.75119" y="285.164375" style="stroke: #000000"/>
     <use xlink:href="#m4c67cf1657" x="108.8224" y="226.578467" style="stroke: #000000"/>
     <use xlink:href="#m4c67cf1657" x="144.207993" y="270.561625" style="stroke: #000000"/>
     <use xlink:href="#m4c67cf1657" x="184.797778" y="293.141636" style="stroke: #000000"/>
     <use xlink:href="#m4c67cf1657" x="172.841113" y="294.337493" style="stroke: #000000"/>
     <use xlink:href="#m4c67cf1657" x="152.38519" y="292.12414" style="stroke: #000000"/>
     <use xlink:href="#m4c67cf1657" x="149.668577" y="289.837326" style="stroke: #000000"/>
     <use xlink:href="#m4c67cf1657" x="144.725791" y="278.853738" style="stroke: #000000"/>
     <use xlink:href="#m4c67cf1657" x="205.896003" y="281.292454" style="stroke: #000000"/>
     <use xlink:href="#m4c67cf1657" x="205.36893" y="288.131927" style="stroke: #000000"/>
     <use xlink:href="#m4c67cf1657" x="171.754062" y="296.172609" style="stroke: #000000"/>
     <use xlink:href="#m4c67cf1657" x="136.114193" y="280.426159" style="stroke: #000000"/>
     <use xlink:href="#m4c67cf1657" x="165.314772" y="286.522401" style="stroke: #000000"/>
     <use xlink:href="#m4c67cf1657" x="187.871391" y="290.224824" style="stroke: #000000"/>
     <use xlink:href="#m4c67cf1657" x="246.69979" y="222.121049" style="stroke: #000000"/>
     <use xlink:href="#m4c67cf1657" x="158.986896" y="287.108204" style="stroke: #000000"/>
     <use xlink:href="#m4c67cf1657" x="252.187842" y="218.159396" style="stroke: #000000"/>
     <use xlink:href="#m4c67cf1657" x="187.647652" y="290.616914" style="stroke: #000000"/>
     <use xlink:href="#m4c67cf1657" x="172.607957" y="290.478097" style="stroke: #000000"/>
     <use xlink:href="#m4c67cf1657" x="196.137894" y="285.144563" style="stroke: #000000"/>
     <use xlink:href="#m4c67cf1657" x="148.854756" y="281.712075" style="stroke: #000000"/>
     <use xlink:href="#m4c67cf1657" x="196.83893" y="288.140828" style="stroke: #000000"/>
     <use xlink:href="#m4c67cf1657" x="165.214337" y="292.435562" style="stroke: #000000"/>
     <use xlink:href="#m4c67cf1657" x="155.488832" y="289.609834" style="stroke: #000000"/>
     <use xlink:href="#m4c67cf1657" x="206.482507" y="285.561174" style="stroke: #000000"/>
     <use xlink:href="#m4c67cf1657" x="139.763097" y="271.218846" style="stroke: #000000"/>
     <use xlink:href="#m4c67cf1657" x="213.198359" y="277.650363" style="stroke: #000000"/>
     <use xlink:href="#m4c67cf1657" x="240.664425" y="245.987191" style="stroke: #000000"/>
     <use xlink:href="#m4c67cf1657" x="217.615267" y="276.743771" style="stroke: #000000"/>
     <use xlink:href="#m4c67cf1657" x="175.604481" y="290.553244" style="stroke: #000000"/>
     <use xlink:href="#m4c67cf1657" x="106.838399" y="229.528658" style="stroke: #000000"/>
     <use xlink:href="#m4c67cf1657" x="163.631972" y="289.573033" style="stroke: #000000"/>
     <use xlink:href="#m4c67cf1657" x="231.477649" y="254.212254" style="stroke: #000000"/>
     <use xlink:href="#m4c67cf1657" x="140.738654" y="271.955109" style="stroke: #000000"/>
     <use xlink:href="#m4c67cf1657" x="97.132902" y="218.954993" style="stroke: #000000"/>
     <use xlink:href="#m4c67cf1657" x="163.426711" y="293.380644" style="stroke: #000000"/>
     <use xlink:href="#m4c67cf1657" x="112.385231" y="242.301513" style="stroke: #000000"/>
     <use xlink:href="#m4c67cf1657" x="211.729034" y="277.965339" style="stroke: #000000"/>
     <use xlink:href="#m4c67cf1657" x="222.274266" y="272.737133" style="stroke: #000000"/>
     <use xlink:href="#m4c67cf1657" x="177.43778" y="293.129046" style="stroke: #000000"/>
     <use xlink:href="#m4c67cf1657" x="148.948052" y="287.627737" style="stroke: #000000"/>
     <use xlink:href="#m4c67cf1657" x="147.928271" y="286.904268" style="stroke: #000000"/>
     <use xlink:href="#m4c67cf1657" x="95.024895" y="194.187134" style="stroke: #000000"/>
     <use xlink:href="#m4c67cf1657" x="118.086436" y="244.585581" style="stroke: #000000"/>
     <use xlink:href="#m4c67cf1657" x="193.814017" y="298.234706" style="stroke: #000000"/>
     <use xlink:href="#m4c67cf1657" x="204.00985" y="278.83219" style="stroke: #000000"/>
     <use xlink:href="#m4c67cf1657" x="186.417783" y="291.591218" style="stroke: #000000"/>
     <use xlink:href="#m4c67cf1657" x="194.991057" y="296.629353" style="stroke: #000000"/>
     <use xlink:href="#m4c67cf1657" x="216.099504" y="287.500087" style="stroke: #000000"/>
     <use xlink:href="#m4c67cf1657" x="265.438343" y="185.685943" style="stroke: #000000"/>
     <use xlink:href="#m4c67cf1657" x="132.020458" y="273.343494" style="stroke: #000000"/>
     <use xlink:href="#m4c67cf1657" x="177.853743" y="297.650153" style="stroke: #000000"/>
     <use xlink:href="#m4c67cf1657" x="218.204153" y="272.876359" style="stroke: #000000"/>
     <use xlink:href="#m4c67cf1657" x="253.675972" y="217.046305" style="stroke: #000000"/>
     <use xlink:href="#m4c67cf1657" x="155.61462" y="292.586619" style="stroke: #000000"/>
     <use xlink:href="#m4c67cf1657" x="170.734495" y="293.88008" style="stroke: #000000"/>
     <use xlink:href="#m4c67cf1657" x="185.508752" y="286.85837" style="stroke: #000000"/>
     <use xlink:href="#m4c67cf1657" x="175.447606" y="298.642258" style="stroke: #000000"/>
     <use xlink:href="#m4c67cf1657" x="115.83569" y="240.212713" style="stroke: #000000"/>
     <use xlink:href="#m4c67cf1657" x="228.98789" y="256.434371" style="stroke: #000000"/>
     <use xlink:href="#m4c67cf1657" x="202.830368" y="294.049516" style="stroke: #000000"/>
     <use xlink:href="#m4c67cf1657" x="138.253167" y="274.537008" style="stroke: #000000"/>
     <use xlink:href="#m4c67cf1657" x="200.260957" y="292.732899" style="stroke: #000000"/>
     <use xlink:href="#m4c67cf1657" x="139.173961" y="276.27175" style="stroke: #000000"/>
     <use xlink:href="#m4c67cf1657" x="167.813176" y="298.131442" style="stroke: #000000"/>
     <use xlink:href="#m4c67cf1657" x="193.843707" y="292.107444" style="stroke: #000000"/>
     <use xlink:href="#m4c67cf1657" x="147.824346" y="277.905089" style="stroke: #000000"/>
     <use xlink:href="#m4c67cf1657" x="206.28186" y="290.880617" style="stroke: #000000"/>
     <use xlink:href="#m4c67cf1657" x="177.354901" y="307.8" style="stroke: #000000"/>
     <use xlink:href="#m4c67cf1657" x="226.430811" y="262.055692" style="stroke: #000000"/>
     <use xlink:href="#m4c67cf1657" x="137.382457" y="272.425853" style="stroke: #000000"/>
     <use xlink:href="#m4c67cf1657" x="205.455731" y="280.878416" style="stroke: #000000"/>
     <use xlink:href="#m4c67cf1657" x="140.777953" y="277.288157" style="stroke: #000000"/>
     <use xlink:href="#m4c67cf1657" x="208.667314" y="289.673226" style="stroke: #000000"/>
     <use xlink:href="#m4c67cf1657" x="119.650809" y="250.035595" style="stroke: #000000"/>
     <use xlink:href="#m4c67cf1657" x="222.349019" y="270.483724" style="stroke: #000000"/>
     <use xlink:href="#m4c67cf1657" x="171.587923" y="288.67359" style="stroke: #000000"/>
     <use xlink:href="#m4c67cf1657" x="258.308508" y="203.799" style="stroke: #000000"/>
     <use xlink:href="#m4c67cf1657" x="227.538795" y="260.809862" style="stroke: #000000"/>
     <use xlink:href="#m4c67cf1657" x="88.169216" y="189.400738" style="stroke: #000000"/>
     <use xlink:href="#m4c67cf1657" x="188.055776" y="288.139861" style="stroke: #000000"/>
     <use xlink:href="#m4c67cf1657" x="150.842443" y="293.758421" style="stroke: #000000"/>
     <use xlink:href="#m4c67cf1657" x="119.151383" y="252.437725" style="stroke: #000000"/>
     <use xlink:href="#m4c67cf1657" x="178.572672" y="283.719672" style="stroke: #000000"/>
     <use xlink:href="#m4c67cf1657" x="163.211851" y="287.472543" style="stroke: #000000"/>
     <use xlink:href="#m4c67cf1657" x="238.728706" y="245.766924" style="stroke: #000000"/>
     <use xlink:href="#m4c67cf1657" x="193.140262" y="301.801647" style="stroke: #000000"/>
     <use xlink:href="#m4c67cf1657" x="206.191546" y="282.637946" style="stroke: #000000"/>
     <use xlink:href="#m4c67cf1657" x="182.405946" y="300.201709" style="stroke: #000000"/>
     <use xlink:href="#m4c67cf1657" x="150.176096" y="284.001848" style="stroke: #000000"/>
     <use xlink:href="#m4c67cf1657" x="148.133563" y="277.838285" style="stroke: #000000"/>
     <use xlink:href="#m4c67cf1657" x="136.807765" y="281.058229" style="stroke: #000000"/>
     <use xlink:href="#m4c67cf1657" x="204.90993" y="285.101492" style="stroke: #000000"/>
     <use xlink:href="#m4c67cf1657" x="139.376061" y="277.391025" style="stroke: #000000"/>
     <use xlink:href="#m4c67cf1657" x="170.877364" y="295.291258" style="stroke: #000000"/>
     <use xlink:href="#m4c67cf1657" x="126.122703" y="264.206004" style="stroke: #000000"/>
     <use xlink:href="#m4c67cf1657" x="146.370651" y="278.513414" style="stroke: #000000"/>
     <use xlink:href="#m4c67cf1657" x="204.751093" y="283.12625" style="stroke: #000000"/>
     <use xlink:href="#m4c67cf1657" x="212.632873" y="285.564016" style="stroke: #000000"/>
     <use xlink:href="#m4c67cf1657" x="174.099235" y="293.015639" style="stroke: #000000"/>
     <use xlink:href="#m4c67cf1657" x="173.183287" y="295.901104" style="stroke: #000000"/>
     <use xlink:href="#m4c67cf1657" x="100.079477" y="216.352229" style="stroke: #000000"/>
     <use xlink:href="#m4c67cf1657" x="112.932434" y="236.20994" style="stroke: #000000"/>
     <use xlink:href="#m4c67cf1657" x="194.399701" y="290.01125" style="stroke: #000000"/>
     <use xlink:href="#m4c67cf1657" x="112.812221" y="239.260044" style="stroke: #000000"/>
     <use xlink:href="#m4c67cf1657" x="141.518246" y="278.925903" style="stroke: #000000"/>
     <use xlink:href="#m4c67cf1657" x="167.451558" y="297.216813" style="stroke: #000000"/>
     <use xlink:href="#m4c67cf1657" x="157.589981" y="290.90838" style="stroke: #000000"/>
     <use xlink:href="#m4c67cf1657" x="159.893247" y="300.231679" style="stroke: #000000"/>
     <use xlink:href="#m4c67cf1657" x="227.817776" y="251.446946" style="stroke: #000000"/>
     <use xlink:href="#m4c67cf1657" x="100.168364" y="223.701542" style="stroke: #000000"/>
     <use xlink:href="#m4c67cf1657" x="57.681818" y="105.606792" style="stroke: #000000"/>
     <use xlink:href="#m4c67cf1657" x="127.986911" y="264.525978" style="stroke: #000000"/>
     <use xlink:href="#m4c67cf1657" x="206.06956" y="284.300248" style="stroke: #000000"/>
     <use xlink:href="#m4c67cf1657" x="192.131547" y="292.519688" style="stroke: #000000"/>
     <use xlink:href="#m4c67cf1657" x="131.327704" y="265.919295" style="stroke: #000000"/>
     <use xlink:href="#m4c67cf1657" x="241.96498" y="238.999054" style="stroke: #000000"/>
     <use xlink:href="#m4c67cf1657" x="164.070125" y="293.073337" style="stroke: #000000"/>
     <use xlink:href="#m4c67cf1657" x="226.321224" y="262.532457" style="stroke: #000000"/>
     <use xlink:href="#m4c67cf1657" x="107.76124" y="231.745289" style="stroke: #000000"/>
     <use xlink:href="#m4c67cf1657" x="247.230826" y="216.718149" style="stroke: #000000"/>
     <use xlink:href="#m4c67cf1657" x="175.088538" y="296.084098" style="stroke: #000000"/>
     <use xlink:href="#m4c67cf1657" x="187.795869" y="294.79024" style="stroke: #000000"/>
     <use xlink:href="#m4c67cf1657" x="190.454556" y="294.123213" style="stroke: #000000"/>
     <use xlink:href="#m4c67cf1657" x="228.890103" y="265.435187" style="stroke: #000000"/>
     <use xlink:href="#m4c67cf1657" x="195.666204" y="289.299549" style="stroke: #000000"/>
     <use xlink:href="#m4c67cf1657" x="213.308177" y="258.496754" style="stroke: #000000"/>
     <use xlink:href="#m4c67cf1657" x="237.074378" y="248.470569" style="stroke: #000000"/>
     <use xlink:href="#m4c67cf1657" x="142.331862" y="286.459651" style="stroke: #000000"/>
     <use xlink:href="#m4c67cf1657" x="212.871031" y="279.199402" style="stroke: #000000"/>
     <use xlink:href="#m4c67cf1657" x="116.169687" y="249.902317" style="stroke: #000000"/>
     <use xlink:href="#m4c67cf1657" x="150.358699" y="276.868937" style="stroke: #000000"/>
     <use xlink:href="#m4c67cf1657" x="249.750405" y="215.177757" style="stroke: #000000"/>
     <use xlink:href="#m4c67cf1657" x="126.42116" y="266.291021" style="stroke: #000000"/>
     <use xlink:href="#m4c67cf1657" x="225.007638" y="256.283286" style="stroke: #000000"/>
     <use xlink:href="#m4c67cf1657" x="122.249303" y="251.179901" style="stroke: #000000"/>
     <use xlink:href="#m4c67cf1657" x="261.69858" y="195.37321" style="stroke: #000000"/>
     <use xlink:href="#m4c67cf1657" x="196.770299" y="290.078334" style="stroke: #000000"/>
     <use xlink:href="#m4c67cf1657" x="149.902516" y="291.614308" style="stroke: #000000"/>
     <use xlink:href="#m4c67cf1657" x="254.017044" y="220.355109" style="stroke: #000000"/>
     <use xlink:href="#m4c67cf1657" x="187.142315" y="295.955553" style="stroke: #000000"/>
     <use xlink:href="#m4c67cf1657" x="233.571472" y="251.749757" style="stroke: #000000"/>
     <use xlink:href="#m4c67cf1657" x="156.065597" y="293.295683" style="stroke: #000000"/>
     <use xlink:href="#m4c67cf1657" x="147.574747" y="286.262616" style="stroke: #000000"/>
     <use xlink:href="#m4c67cf1657" x="221.029194" y="273.069604" style="stroke: #000000"/>
     <use xlink:href="#m4c67cf1657" x="216.290354" y="271.015602" style="stroke: #000000"/>
     <use xlink:href="#m4c67cf1657" x="199.513414" y="282.282327" style="stroke: #000000"/>
     <use xlink:href="#m4c67cf1657" x="164.848454" y="288.736159" style="stroke: #000000"/>
     <use xlink:href="#m4c67cf1657" x="293.111289" y="112.347884" style="stroke: #000000"/>
     <use xlink:href="#m4c67cf1657" x="195.461619" y="293.665268" style="stroke: #000000"/>
     <use xlink:href="#m4c67cf1657" x="222.798503" y="266.639481" style="stroke: #000000"/>
     <use xlink:href="#m4c67cf1657" x="179.641639" y="294.245265" style="stroke: #000000"/>
     <use xlink:href="#m4c67cf1657" x="209.993112" y="284.984712" style="stroke: #000000"/>
     <use xlink:href="#m4c67cf1657" x="135.382735" y="278.626064" style="stroke: #000000"/>
     <use xlink:href="#m4c67cf1657" x="154.442531" y="289.649399" style="stroke: #000000"/>
     <use xlink:href="#m4c67cf1657" x="253.480443" y="219.128418" style="stroke: #000000"/>
     <use xlink:href="#m4c67cf1657" x="153.023599" y="290.879804" style="stroke: #000000"/>
     <use xlink:href="#m4c67cf1657" x="185.306045" y="295.046895" style="stroke: #000000"/>
     <use xlink:href="#m4c67cf1657" x="166.896706" y="294.995204" style="stroke: #000000"/>
     <use xlink:href="#m4c67cf1657" x="170.647472" y="290.016345" style="stroke: #000000"/>
     <use xlink:href="#m4c67cf1657" x="126.177669" y="264.834094" style="stroke: #000000"/>
     <use xlink:href="#m4c67cf1657" x="222.488421" y="263.082034" style="stroke: #000000"/>
     <use xlink:href="#m4c67cf1657" x="156.403341" y="282.127974" style="stroke: #000000"/>
     <use xlink:href="#m4c67cf1657" x="158.127687" y="294.010401" style="stroke: #000000"/>
     <use xlink:href="#m4c67cf1657" x="188.094247" y="289.123187" style="stroke: #000000"/>
     <use xlink:href="#m4c67cf1657" x="131.391811" y="262.902971" style="stroke: #000000"/>
     <use xlink:href="#m4c67cf1657" x="115.342511" y="245.357258" style="stroke: #000000"/>
     <use xlink:href="#m4c67cf1657" x="168.414211" y="284.708376" style="stroke: #000000"/>
     <use xlink:href="#m4c67cf1657" x="191.734727" y="296.76845" style="stroke: #000000"/>
     <use xlink:href="#m4c67cf1657" x="183.062205" y="291.552609" style="stroke: #000000"/>
     <use xlink:href="#m4c67cf1657" x="152.517928" y="288.167252" style="stroke: #000000"/>
     <use xlink:href="#m4c67cf1657" x="206.370104" y="278.677702" style="stroke: #000000"/>
     <use xlink:href="#m4c67cf1657" x="163.300377" y="298.046194" style="stroke: #000000"/>
     <use xlink:href="#m4c67cf1657" x="149.110627" y="285.438398" style="stroke: #000000"/>
     <use xlink:href="#m4c67cf1657" x="147.479834" y="286.837646" style="stroke: #000000"/>
     <use xlink:href="#m4c67cf1657" x="167.036243" y="295.598196" style="stroke: #000000"/>
     <use xlink:href="#m4c67cf1657" x="218.834106" y="272.782484" style="stroke: #000000"/>
     <use xlink:href="#m4c67cf1657" x="213.041295" y="281.030826" style="stroke: #000000"/>
     <use xlink:href="#m4c67cf1657" x="139.472212" y="270.067657" style="stroke: #000000"/>
     <use xlink:href="#m4c67cf1657" x="237.56415" y="243.512274" style="stroke: #000000"/>
     <use xlink:href="#m4c67cf1657" x="154.312167" y="283.585563" style="stroke: #000000"/>
     <use xlink:href="#m4c67cf1657" x="195.648887" y="292.217307" style="stroke: #000000"/>
     <use xlink:href="#m4c67cf1657" x="205.810018" y="288.013157" style="stroke: #000000"/>
     <use xlink:href="#m4c67cf1657" x="221.986171" y="264.77318" style="stroke: #000000"/>
     <use xlink:href="#m4c67cf1657" x="216.715291" y="264.316557" style="stroke: #000000"/>
     <use xlink:href="#m4c67cf1657" x="225.581164" y="268.75632" style="stroke: #000000"/>
     <use xlink:href="#m4c67cf1657" x="202.932838" y="286.109072" style="stroke: #000000"/>
     <use xlink:href="#m4c67cf1657" x="144.458322" y="287.543442" style="stroke: #000000"/>
     <use xlink:href="#m4c67cf1657" x="168.191521" y="300.100717" style="stroke: #000000"/>
     <use xlink:href="#m4c67cf1657" x="151.400527" y="289.213502" style="stroke: #000000"/>
     <use xlink:href="#m4c67cf1657" x="249.665285" y="226.095342" style="stroke: #000000"/>
     <use xlink:href="#m4c67cf1657" x="160.61645" y="287.062412" style="stroke: #000000"/>
     <use xlink:href="#m4c67cf1657" x="176.831537" y="292.721224" style="stroke: #000000"/>
     <use xlink:href="#m4c67cf1657" x="208.327103" y="288.440465" style="stroke: #000000"/>
    </g>
   </g>
   <g id="matplotlib.axis_1">
    <g id="xtick_1">
     <g id="line2d_1">
      <defs>
       <path id="m71557989b2" d="M 0 0 
L 0 3.5 
" style="stroke: #000000; stroke-width: 0.8"/>
      </defs>
      <g>
       <use xlink:href="#m71557989b2" x="68.703022" y="320.4" style="stroke: #000000; stroke-width: 0.8"/>
      </g>
     </g>
     <g id="text_1">
      <!-- −75 -->
      <g transform="translate(60.12724 334.998438) scale(0.1 -0.1)">
       <defs>
        <path id="OpenSans-Regular-2212" d="M 322 2044 
L 322 2469 
L 3331 2469 
L 3331 2044 
L 322 2044 
z
" transform="scale(0.015625)"/>
        <path id="OpenSans-Regular-37" d="M 906 0 
L 2781 4094 
L 291 4094 
L 291 4569 
L 3338 4569 
L 3338 4169 
L 1475 0 
L 906 0 
z
" transform="scale(0.015625)"/>
        <path id="OpenSans-Regular-35" d="M 1759 2794 
Q 2225 2794 2569 2636 
Q 2913 2478 3102 2178 
Q 3291 1878 3291 1450 
Q 3291 981 3087 642 
Q 2884 303 2503 120 
Q 2122 -63 1591 -63 
Q 1234 -63 928 0 
Q 622 63 413 188 
L 413 681 
Q 641 544 966 462 
Q 1291 381 1597 381 
Q 1944 381 2205 492 
Q 2466 603 2611 829 
Q 2756 1056 2756 1400 
Q 2756 1856 2476 2104 
Q 2197 2353 1594 2353 
Q 1400 2353 1169 2322 
Q 938 2291 788 2253 
L 525 2425 
L 700 4569 
L 2972 4569 
L 2972 4094 
L 1144 4094 
L 1028 2716 
Q 1147 2741 1334 2767 
Q 1522 2794 1759 2794 
z
" transform="scale(0.015625)"/>
       </defs>
       <use xlink:href="#OpenSans-Regular-2212"/>
       <use xlink:href="#OpenSans-Regular-37" x="57.177734"/>
       <use xlink:href="#OpenSans-Regular-35" x="114.355469"/>
      </g>
     </g>
    </g>
    <g id="xtick_2">
     <g id="line2d_2">
      <g>
       <use xlink:href="#m71557989b2" x="104.739849" y="320.4" style="stroke: #000000; stroke-width: 0.8"/>
      </g>
     </g>
     <g id="text_2">
      <!-- −50 -->
      <g transform="translate(96.164068 334.998438) scale(0.1 -0.1)">
       <defs>
        <path id="OpenSans-Regular-30" d="M 3334 2291 
Q 3334 1734 3250 1296 
Q 3166 859 2984 556 
Q 2803 253 2515 95 
Q 2228 -63 1825 -63 
Q 1316 -63 983 215 
Q 650 494 486 1020 
Q 322 1547 322 2291 
Q 322 3022 470 3548 
Q 619 4075 950 4358 
Q 1281 4641 1825 4641 
Q 2341 4641 2675 4361 
Q 3009 4081 3171 3554 
Q 3334 3028 3334 2291 
z
M 844 2291 
Q 844 1653 941 1228 
Q 1038 803 1255 592 
Q 1472 381 1825 381 
Q 2178 381 2395 590 
Q 2613 800 2711 1225 
Q 2809 1650 2809 2291 
Q 2809 2919 2712 3342 
Q 2616 3766 2400 3980 
Q 2184 4194 1825 4194 
Q 1466 4194 1250 3980 
Q 1034 3766 939 3342 
Q 844 2919 844 2291 
z
" transform="scale(0.015625)"/>
       </defs>
       <use xlink:href="#OpenSans-Regular-2212"/>
       <use xlink:href="#OpenSans-Regular-35" x="57.177734"/>
       <use xlink:href="#OpenSans-Regular-30" x="114.355469"/>
      </g>
     </g>
    </g>
    <g id="xtick_3">
     <g id="line2d_3">
      <g>
       <use xlink:href="#m71557989b2" x="140.776677" y="320.4" style="stroke: #000000; stroke-width: 0.8"/>
      </g>
     </g>
     <g id="text_3">
      <!-- −25 -->
      <g transform="translate(132.200896 334.998438) scale(0.1 -0.1)">
       <defs>
        <path id="OpenSans-Regular-32" d="M 3309 0 
L 316 0 
L 316 434 
L 1538 1675 
Q 1878 2019 2111 2287 
Q 2344 2556 2466 2817 
Q 2588 3078 2588 3391 
Q 2588 3778 2358 3983 
Q 2128 4188 1753 4188 
Q 1425 4188 1172 4075 
Q 919 3963 653 3756 
L 375 4106 
Q 556 4259 770 4378 
Q 984 4497 1229 4565 
Q 1475 4634 1753 4634 
Q 2175 4634 2481 4487 
Q 2788 4341 2955 4069 
Q 3122 3797 3122 3422 
Q 3122 3059 2978 2748 
Q 2834 2438 2575 2133 
Q 2316 1828 1969 1488 
L 975 497 
L 975 475 
L 3309 475 
L 3309 0 
z
" transform="scale(0.015625)"/>
       </defs>
       <use xlink:href="#OpenSans-Regular-2212"/>
       <use xlink:href="#OpenSans-Regular-32" x="57.177734"/>
       <use xlink:href="#OpenSans-Regular-35" x="114.355469"/>
      </g>
     </g>
    </g>
    <g id="xtick_4">
     <g id="line2d_4">
      <g>
       <use xlink:href="#m71557989b2" x="176.813505" y="320.4" style="stroke: #000000; stroke-width: 0.8"/>
      </g>
     </g>
     <g id="text_4">
      <!-- 0 -->
      <g transform="translate(173.954911 334.998438) scale(0.1 -0.1)">
       <use xlink:href="#OpenSans-Regular-30"/>
      </g>
     </g>
    </g>
    <g id="xtick_5">
     <g id="line2d_5">
      <g>
       <use xlink:href="#m71557989b2" x="212.850333" y="320.4" style="stroke: #000000; stroke-width: 0.8"/>
      </g>
     </g>
     <g id="text_5">
      <!-- 25 -->
      <g transform="translate(207.133145 334.998438) scale(0.1 -0.1)">
       <use xlink:href="#OpenSans-Regular-32"/>
       <use xlink:href="#OpenSans-Regular-35" x="57.177734"/>
      </g>
     </g>
    </g>
    <g id="xtick_6">
     <g id="line2d_6">
      <g>
       <use xlink:href="#m71557989b2" x="248.887161" y="320.4" style="stroke: #000000; stroke-width: 0.8"/>
      </g>
     </g>
     <g id="text_6">
      <!-- 50 -->
      <g transform="translate(243.169973 334.998438) scale(0.1 -0.1)">
       <use xlink:href="#OpenSans-Regular-35"/>
       <use xlink:href="#OpenSans-Regular-30" x="57.177734"/>
      </g>
     </g>
    </g>
    <g id="xtick_7">
     <g id="line2d_7">
      <g>
       <use xlink:href="#m71557989b2" x="284.923988" y="320.4" style="stroke: #000000; stroke-width: 0.8"/>
      </g>
     </g>
     <g id="text_7">
      <!-- 75 -->
      <g transform="translate(279.206801 334.998438) scale(0.1 -0.1)">
       <use xlink:href="#OpenSans-Regular-37"/>
       <use xlink:href="#OpenSans-Regular-35" x="57.177734"/>
      </g>
     </g>
    </g>
    <g id="xtick_8">
     <g id="line2d_8">
      <g>
       <use xlink:href="#m71557989b2" x="320.960816" y="320.4" style="stroke: #000000; stroke-width: 0.8"/>
      </g>
     </g>
     <g id="text_8">
      <!-- 100 -->
      <g transform="translate(312.385035 334.998438) scale(0.1 -0.1)">
       <defs>
        <path id="OpenSans-Regular-31" d="M 2247 0 
L 1741 0 
L 1741 3238 
Q 1741 3422 1742 3555 
Q 1744 3688 1748 3798 
Q 1753 3909 1763 4025 
Q 1666 3925 1581 3854 
Q 1497 3784 1372 3681 
L 850 3263 
L 578 3616 
L 1816 4569 
L 2247 4569 
L 2247 0 
z
" transform="scale(0.015625)"/>
       </defs>
       <use xlink:href="#OpenSans-Regular-31"/>
       <use xlink:href="#OpenSans-Regular-30" x="57.177734"/>
       <use xlink:href="#OpenSans-Regular-30" x="114.355469"/>
      </g>
     </g>
    </g>
    <g id="text_9">
     <!-- x -->
     <g transform="translate(181.882812 348.989062) scale(0.1 -0.1)">
      <defs>
       <path id="OpenSans-Regular-78" d="M 1363 1753 
L 178 3425 
L 772 3425 
L 1675 2106 
L 2575 3425 
L 3163 3425 
L 1978 1753 
L 3228 0 
L 2634 0 
L 1675 1397 
L 709 0 
L 122 0 
L 1363 1753 
z
" transform="scale(0.015625)"/>
      </defs>
      <use xlink:href="#OpenSans-Regular-78"/>
     </g>
    </g>
   </g>
   <g id="matplotlib.axis_2">
    <g id="ytick_1">
     <g id="line2d_9">
      <defs>
       <path id="m373d5fb9bc" d="M 0 0 
L -3.5 0 
" style="stroke: #000000; stroke-width: 0.8"/>
      </defs>
      <g>
       <use xlink:href="#m373d5fb9bc" x="45" y="295.073985" style="stroke: #000000; stroke-width: 0.8"/>
      </g>
     </g>
     <g id="text_10">
      <!-- 0 -->
      <g transform="translate(32.282812 298.873204) scale(0.1 -0.1)">
       <use xlink:href="#OpenSans-Regular-30"/>
      </g>
     </g>
    </g>
    <g id="ytick_2">
     <g id="line2d_10">
      <g>
       <use xlink:href="#m373d5fb9bc" x="45" y="252.735395" style="stroke: #000000; stroke-width: 0.8"/>
      </g>
     </g>
     <g id="text_11">
      <!-- 50 -->
      <g transform="translate(26.565625 256.534614) scale(0.1 -0.1)">
       <use xlink:href="#OpenSans-Regular-35"/>
       <use xlink:href="#OpenSans-Regular-30" x="57.177734"/>
      </g>
     </g>
    </g>
    <g id="ytick_3">
     <g id="line2d_11">
      <g>
       <use xlink:href="#m373d5fb9bc" x="45" y="210.396804" style="stroke: #000000; stroke-width: 0.8"/>
      </g>
     </g>
     <g id="text_12">
      <!-- 100 -->
      <g transform="translate(20.848437 214.196023) scale(0.1 -0.1)">
       <use xlink:href="#OpenSans-Regular-31"/>
       <use xlink:href="#OpenSans-Regular-30" x="57.177734"/>
       <use xlink:href="#OpenSans-Regular-30" x="114.355469"/>
      </g>
     </g>
    </g>
    <g id="ytick_4">
     <g id="line2d_12">
      <g>
       <use xlink:href="#m373d5fb9bc" x="45" y="168.058214" style="stroke: #000000; stroke-width: 0.8"/>
      </g>
     </g>
     <g id="text_13">
      <!-- 150 -->
      <g transform="translate(20.848437 171.857433) scale(0.1 -0.1)">
       <use xlink:href="#OpenSans-Regular-31"/>
       <use xlink:href="#OpenSans-Regular-35" x="57.177734"/>
       <use xlink:href="#OpenSans-Regular-30" x="114.355469"/>
      </g>
     </g>
    </g>
    <g id="ytick_5">
     <g id="line2d_13">
      <g>
       <use xlink:href="#m373d5fb9bc" x="45" y="125.719624" style="stroke: #000000; stroke-width: 0.8"/>
      </g>
     </g>
     <g id="text_14">
      <!-- 200 -->
      <g transform="translate(20.848437 129.518842) scale(0.1 -0.1)">
       <use xlink:href="#OpenSans-Regular-32"/>
       <use xlink:href="#OpenSans-Regular-30" x="57.177734"/>
       <use xlink:href="#OpenSans-Regular-30" x="114.355469"/>
      </g>
     </g>
    </g>
    <g id="ytick_6">
     <g id="line2d_14">
      <g>
       <use xlink:href="#m373d5fb9bc" x="45" y="83.381033" style="stroke: #000000; stroke-width: 0.8"/>
      </g>
     </g>
     <g id="text_15">
      <!-- 250 -->
      <g transform="translate(20.848437 87.180252) scale(0.1 -0.1)">
       <use xlink:href="#OpenSans-Regular-32"/>
       <use xlink:href="#OpenSans-Regular-35" x="57.177734"/>
       <use xlink:href="#OpenSans-Regular-30" x="114.355469"/>
      </g>
     </g>
    </g>
    <g id="text_16">
     <!-- y -->
     <g transform="translate(14.440625 184.304687) rotate(-90) scale(0.1 -0.1)">
      <defs>
       <path id="OpenSans-Regular-79" d="M 6 3425 
L 563 3425 
L 1319 1438 
Q 1384 1263 1440 1102 
Q 1497 941 1540 794 
Q 1584 647 1609 509 
L 1631 509 
Q 1675 666 1756 920 
Q 1838 1175 1931 1441 
L 2647 3425 
L 3206 3425 
L 1716 -503 
Q 1597 -819 1439 -1053 
Q 1281 -1288 1056 -1414 
Q 831 -1541 513 -1541 
Q 366 -1541 253 -1523 
Q 141 -1506 59 -1484 
L 59 -1069 
Q 128 -1084 226 -1096 
Q 325 -1109 431 -1109 
Q 625 -1109 767 -1036 
Q 909 -963 1012 -822 
Q 1116 -681 1191 -488 
L 1378 -6 
L 6 3425 
z
" transform="scale(0.015625)"/>
      </defs>
      <use xlink:href="#OpenSans-Regular-79"/>
     </g>
    </g>
   </g>
   <g id="patch_3">
    <path d="M 45 320.4 
L 45 43.2 
" style="fill: none; stroke: #000000; stroke-width: 0.8; stroke-linejoin: miter; stroke-linecap: square"/>
   </g>
   <g id="patch_4">
    <path d="M 324 320.4 
L 324 43.2 
" style="fill: none; stroke: #000000; stroke-width: 0.8; stroke-linejoin: miter; stroke-linecap: square"/>
   </g>
   <g id="patch_5">
    <path d="M 45 320.4 
L 324 320.4 
" style="fill: none; stroke: #000000; stroke-width: 0.8; stroke-linejoin: miter; stroke-linecap: square"/>
   </g>
   <g id="patch_6">
    <path d="M 45 43.2 
L 324 43.2 
" style="fill: none; stroke: #000000; stroke-width: 0.8; stroke-linejoin: miter; stroke-linecap: square"/>
   </g>
   <g id="text_17">
    <!-- Диаграмма рассеяния -->
    <g transform="translate(119.581875 37.2) scale(0.12 -0.12)">
     <defs>
      <path id="OpenSans-Regular-414" d="M 3669 4569 
L 3669 475 
L 4231 475 
L 4231 -1194 
L 3722 -1194 
L 3722 0 
L 547 0 
L 547 -1194 
L 38 -1194 
L 38 475 
L 388 475 
Q 622 875 826 1373 
Q 1031 1872 1192 2417 
Q 1353 2963 1454 3513 
Q 1556 4063 1584 4569 
L 3669 4569 
z
M 3141 4091 
L 2053 4091 
Q 2025 3703 1928 3226 
Q 1831 2750 1679 2250 
Q 1528 1750 1342 1290 
Q 1156 831 950 475 
L 3141 475 
L 3141 4091 
z
" transform="scale(0.015625)"/>
      <path id="OpenSans-Regular-438" d="M 1041 3425 
L 1041 1272 
Q 1041 1209 1037 1111 
Q 1034 1013 1028 902 
Q 1022 791 1017 689 
Q 1013 588 1006 522 
L 2875 3425 
L 3513 3425 
L 3513 0 
L 3028 0 
L 3028 2100 
Q 3028 2200 3031 2356 
Q 3034 2513 3040 2664 
Q 3047 2816 3050 2900 
L 1188 0 
L 547 0 
L 547 3425 
L 1041 3425 
z
" transform="scale(0.015625)"/>
      <path id="OpenSans-Regular-430" d="M 1828 3481 
Q 2441 3481 2737 3206 
Q 3034 2931 3034 2328 
L 3034 0 
L 2656 0 
L 2556 506 
L 2531 506 
Q 2388 319 2231 192 
Q 2075 66 1870 1 
Q 1666 -63 1369 -63 
Q 1056 -63 814 46 
Q 572 156 433 378 
Q 294 600 294 941 
Q 294 1453 700 1728 
Q 1106 2003 1938 2028 
L 2528 2053 
L 2528 2263 
Q 2528 2706 2337 2884 
Q 2147 3063 1800 3063 
Q 1531 3063 1287 2984 
Q 1044 2906 825 2800 
L 666 3194 
Q 897 3313 1197 3397 
Q 1497 3481 1828 3481 
z
M 2522 1688 
L 2000 1666 
Q 1359 1641 1096 1456 
Q 834 1272 834 934 
Q 834 641 1012 500 
Q 1191 359 1484 359 
Q 1941 359 2231 612 
Q 2522 866 2522 1372 
L 2522 1688 
z
" transform="scale(0.015625)"/>
      <path id="OpenSans-Regular-433" d="M 2625 3425 
L 2625 2984 
L 1069 2984 
L 1069 0 
L 547 0 
L 547 3425 
L 2625 3425 
z
" transform="scale(0.015625)"/>
      <path id="OpenSans-Regular-440" d="M 2156 3488 
Q 2797 3488 3178 3047 
Q 3559 2606 3559 1722 
Q 3559 1138 3384 741 
Q 3209 344 2892 140 
Q 2575 -63 2144 -63 
Q 1872 -63 1665 9 
Q 1459 81 1312 203 
Q 1166 325 1069 469 
L 1031 469 
Q 1041 347 1055 175 
Q 1069 3 1069 -125 
L 1069 -1531 
L 547 -1531 
L 547 3425 
L 975 3425 
L 1044 2919 
L 1069 2919 
Q 1169 3075 1312 3204 
Q 1456 3334 1664 3411 
Q 1872 3488 2156 3488 
z
M 2066 3050 
Q 1709 3050 1492 2912 
Q 1275 2775 1175 2501 
Q 1075 2228 1069 1816 
L 1069 1716 
Q 1069 1281 1164 981 
Q 1259 681 1479 525 
Q 1700 369 2072 369 
Q 2391 369 2603 541 
Q 2816 713 2920 1020 
Q 3025 1328 3025 1728 
Q 3025 2334 2789 2692 
Q 2553 3050 2066 3050 
z
" transform="scale(0.015625)"/>
      <path id="OpenSans-Regular-43c" d="M 4163 3425 
L 4163 0 
L 3694 0 
L 3694 2231 
Q 3694 2369 3701 2511 
Q 3709 2653 3722 2797 
L 3703 2797 
L 2566 0 
L 2125 0 
L 1016 2797 
L 997 2797 
Q 1006 2653 1011 2511 
Q 1016 2369 1016 2213 
L 1016 0 
L 544 0 
L 544 3425 
L 1241 3425 
L 2347 625 
L 3469 3425 
L 4163 3425 
z
" transform="scale(0.015625)"/>
      <path id="OpenSans-Regular-20" transform="scale(0.015625)"/>
      <path id="OpenSans-Regular-441" d="M 1919 -63 
Q 1456 -63 1103 128 
Q 750 319 553 709 
Q 356 1100 356 1694 
Q 356 2316 564 2711 
Q 772 3106 1137 3297 
Q 1503 3488 1969 3488 
Q 2225 3488 2464 3436 
Q 2703 3384 2856 3306 
L 2700 2872 
Q 2544 2934 2339 2984 
Q 2134 3034 1956 3034 
Q 1600 3034 1364 2881 
Q 1128 2728 1011 2431 
Q 894 2134 894 1700 
Q 894 1284 1008 990 
Q 1122 697 1348 542 
Q 1575 388 1916 388 
Q 2188 388 2406 445 
Q 2625 503 2803 581 
L 2803 119 
Q 2631 31 2420 -16 
Q 2209 -63 1919 -63 
z
" transform="scale(0.015625)"/>
      <path id="OpenSans-Regular-435" d="M 1866 3488 
Q 2303 3488 2615 3294 
Q 2928 3100 3093 2751 
Q 3259 2403 3259 1938 
L 3259 1616 
L 894 1616 
Q 903 1013 1193 697 
Q 1484 381 2013 381 
Q 2338 381 2588 440 
Q 2838 500 3106 616 
L 3106 159 
Q 2847 44 2592 -9 
Q 2338 -63 1991 -63 
Q 1497 -63 1130 139 
Q 763 341 559 731 
Q 356 1122 356 1688 
Q 356 2241 542 2645 
Q 728 3050 1067 3269 
Q 1406 3488 1866 3488 
z
M 1859 3063 
Q 1444 3063 1197 2791 
Q 950 2519 903 2031 
L 2716 2031 
Q 2713 2338 2620 2570 
Q 2528 2803 2340 2933 
Q 2153 3063 1859 3063 
z
" transform="scale(0.015625)"/>
      <path id="OpenSans-Regular-44f" d="M 713 0 
L 106 0 
L 1094 1444 
Q 878 1491 693 1605 
Q 509 1719 395 1919 
Q 281 2119 281 2416 
Q 281 2909 611 3167 
Q 941 3425 1481 3425 
L 2997 3425 
L 2997 0 
L 2478 0 
L 2478 1375 
L 1609 1375 
L 713 0 
z
M 784 2413 
Q 784 2106 1003 1957 
Q 1222 1809 1628 1809 
L 2478 1809 
L 2478 2991 
L 1538 2991 
Q 1138 2991 961 2830 
Q 784 2669 784 2413 
z
" transform="scale(0.015625)"/>
      <path id="OpenSans-Regular-43d" d="M 1069 3425 
L 1069 1988 
L 2978 1988 
L 2978 3425 
L 3497 3425 
L 3497 0 
L 2978 0 
L 2978 1547 
L 1069 1547 
L 1069 0 
L 547 0 
L 547 3425 
L 1069 3425 
z
" transform="scale(0.015625)"/>
     </defs>
     <use xlink:href="#OpenSans-Regular-414"/>
     <use xlink:href="#OpenSans-Regular-438" x="68.408203"/>
     <use xlink:href="#OpenSans-Regular-430" x="131.982422"/>
     <use xlink:href="#OpenSans-Regular-433" x="187.548828"/>
     <use xlink:href="#OpenSans-Regular-440" x="230.664062"/>
     <use xlink:href="#OpenSans-Regular-430" x="291.845703"/>
     <use xlink:href="#OpenSans-Regular-43c" x="347.412109"/>
     <use xlink:href="#OpenSans-Regular-43c" x="420.751953"/>
     <use xlink:href="#OpenSans-Regular-430" x="494.091797"/>
     <use xlink:href="#OpenSans-Regular-20" x="549.658203"/>
     <use xlink:href="#OpenSans-Regular-440" x="575.634766"/>
     <use xlink:href="#OpenSans-Regular-430" x="636.816406"/>
     <use xlink:href="#OpenSans-Regular-441" x="692.382812"/>
     <use xlink:href="#OpenSans-Regular-441" x="740.283203"/>
     <use xlink:href="#OpenSans-Regular-435" x="788.183594"/>
     <use xlink:href="#OpenSans-Regular-44f" x="844.335938"/>
     <use xlink:href="#OpenSans-Regular-43d" x="899.707031"/>
     <use xlink:href="#OpenSans-Regular-438" x="962.988281"/>
     <use xlink:href="#OpenSans-Regular-44f" x="1026.5625"/>
    </g>
   </g>
  </g>
 </g>
 <defs>
  <clipPath id="pacee435b92">
   <rect x="45" y="43.2" width="279" height="277.2"/>
  </clipPath>
 </defs>
</svg>
