<?xml version="1.0" encoding="utf-8" standalone="no"?>
<!DOCTYPE svg PUBLIC "-//W3C//DTD SVG 1.1//EN"
  "http://www.w3.org/Graphics/SVG/1.1/DTD/svg11.dtd">
<svg xmlns:xlink="http://www.w3.org/1999/xlink" width="360pt" height="360pt" viewBox="0 0 360 360" xmlns="http://www.w3.org/2000/svg" version="1.1">
 <metadata>
  <rdf:RDF xmlns:dc="http://purl.org/dc/elements/1.1/" xmlns:cc="http://creativecommons.org/ns#" xmlns:rdf="http://www.w3.org/1999/02/22-rdf-syntax-ns#">
   <cc:Work>
    <dc:type rdf:resource="http://purl.org/dc/dcmitype/StillImage"/>
    <dc:date>2023-11-23T17:59:57.468565</dc:date>
    <dc:format>image/svg+xml</dc:format>
    <dc:creator>
     <cc:Agent>
      <dc:title>Matplotlib v3.8.0, https://matplotlib.org/</dc:title>
     </cc:Agent>
    </dc:creator>
   </cc:Work>
  </rdf:RDF>
 </metadata>
 <defs>
  <style type="text/css">*{stroke-linejoin: round; stroke-linecap: butt}</style>
 </defs>
 <g id="figure_1">
  <g id="patch_1">
   <path d="M 0 360 
L 360 360 
L 360 0 
L 0 0 
z
" style="fill: #ffffff"/>
  </g>
  <g id="axes_1">
   <g id="patch_2">
    <path d="M 45 320.4 
L 324 320.4 
L 324 43.2 
L 45 43.2 
z
" style="fill: #ffffff"/>
   </g>
   <g id="PathCollection_1">
    <defs>
     <path id="m3dd61b26ae" d="M 0 1.870829 
C 0.49615 1.870829 0.972045 1.673706 1.322876 1.322876 
C 1.673706 0.972045 1.870829 0.49615 1.870829 0 
C 1.870829 -0.49615 1.673706 -0.972045 1.322876 -1.322876 
C 0.972045 -1.673706 0.49615 -1.870829 0 -1.870829 
C -0.49615 -1.870829 -0.972045 -1.673706 -1.322876 -1.322876 
C -1.673706 -0.972045 -1.870829 -0.49615 -1.870829 0 
C -1.870829 0.49615 -1.673706 0.972045 -1.322876 1.322876 
C -0.972045 1.673706 -0.49615 1.870829 0 1.870829 
z
" style="stroke: #000000"/>
    </defs>
    <g clip-path="url(#p1d62b2b303)">
     <use xlink:href="#m3dd61b26ae" x="195.930783" y="60.453314" style="stroke: #000000"/>
     <use xlink:href="#m3dd61b26ae" x="235.781263" y="100.542706" style="stroke: #000000"/>
     <use xlink:href="#m3dd61b26ae" x="97.873317" y="160.012068" style="stroke: #000000"/>
     <use xlink:href="#m3dd61b26ae" x="209.810568" y="68.260465" style="stroke: #000000"/>
     <use xlink:href="#m3dd61b26ae" x="164.888546" y="60.935446" style="stroke: #000000"/>
     <use xlink:href="#m3dd61b26ae" x="133.078862" y="91.867003" style="stroke: #000000"/>
     <use xlink:href="#m3dd61b26ae" x="205.862383" y="65.685932" style="stroke: #000000"/>
     <use xlink:href="#m3dd61b26ae" x="208.420544" y="68.468431" style="stroke: #000000"/>
     <use xlink:href="#m3dd61b26ae" x="152.117202" y="69.278469" style="stroke: #000000"/>
     <use xlink:href="#m3dd61b26ae" x="212.488776" y="70.576871" style="stroke: #000000"/>
     <use xlink:href="#m3dd61b26ae" x="136.929699" y="86.285999" style="stroke: #000000"/>
     <use xlink:href="#m3dd61b26ae" x="188.717013" y="57.894511" style="stroke: #000000"/>
     <use xlink:href="#m3dd61b26ae" x="77.394525" y="217.842196" style="stroke: #000000"/>
     <use xlink:href="#m3dd61b26ae" x="189.335032" y="57.473938" style="stroke: #000000"/>
     <use xlink:href="#m3dd61b26ae" x="213.119006" y="71.434906" style="stroke: #000000"/>
     <use xlink:href="#m3dd61b26ae" x="216.942299" y="75.663135" style="stroke: #000000"/>
     <use xlink:href="#m3dd61b26ae" x="163.204174" y="62.103955" style="stroke: #000000"/>
     <use xlink:href="#m3dd61b26ae" x="246.674945" y="119.719999" style="stroke: #000000"/>
     <use xlink:href="#m3dd61b26ae" x="173.914616" y="57.72234" style="stroke: #000000"/>
     <use xlink:href="#m3dd61b26ae" x="193.303166" y="59.440777" style="stroke: #000000"/>
     <use xlink:href="#m3dd61b26ae" x="139.995993" y="83.069874" style="stroke: #000000"/>
     <use xlink:href="#m3dd61b26ae" x="213.992585" y="72.651118" style="stroke: #000000"/>
     <use xlink:href="#m3dd61b26ae" x="202.918022" y="63.36257" style="stroke: #000000"/>
     <use xlink:href="#m3dd61b26ae" x="167.262153" y="58.731088" style="stroke: #000000"/>
     <use xlink:href="#m3dd61b26ae" x="199.086833" y="61.119947" style="stroke: #000000"/>
     <use xlink:href="#m3dd61b26ae" x="163.404729" y="61.79817" style="stroke: #000000"/>
     <use xlink:href="#m3dd61b26ae" x="102.83977" y="148.145087" style="stroke: #000000"/>
     <use xlink:href="#m3dd61b26ae" x="160.055781" y="63.852975" style="stroke: #000000"/>
     <use xlink:href="#m3dd61b26ae" x="212.114349" y="69.883917" style="stroke: #000000"/>
     <use xlink:href="#m3dd61b26ae" x="222.787704" y="81.871046" style="stroke: #000000"/>
     <use xlink:href="#m3dd61b26ae" x="160.811417" y="63.64377" style="stroke: #000000"/>
     <use xlink:href="#m3dd61b26ae" x="196.313664" y="60.445546" style="stroke: #000000"/>
     <use xlink:href="#m3dd61b26ae" x="134.310083" y="89.508751" style="stroke: #000000"/>
     <use xlink:href="#m3dd61b26ae" x="160.400117" y="62.823101" style="stroke: #000000"/>
     <use xlink:href="#m3dd61b26ae" x="151.825612" y="70.085678" style="stroke: #000000"/>
     <use xlink:href="#m3dd61b26ae" x="218.850401" y="77.476511" style="stroke: #000000"/>
     <use xlink:href="#m3dd61b26ae" x="262.567366" y="154.687472" style="stroke: #000000"/>
     <use xlink:href="#m3dd61b26ae" x="237.588855" y="104.437228" style="stroke: #000000"/>
     <use xlink:href="#m3dd61b26ae" x="174.430698" y="58.180265" style="stroke: #000000"/>
     <use xlink:href="#m3dd61b26ae" x="198.339705" y="61.100997" style="stroke: #000000"/>
     <use xlink:href="#m3dd61b26ae" x="172.505703" y="57.916067" style="stroke: #000000"/>
     <use xlink:href="#m3dd61b26ae" x="200.185422" y="62.139999" style="stroke: #000000"/>
     <use xlink:href="#m3dd61b26ae" x="167.036973" y="60.106023" style="stroke: #000000"/>
     <use xlink:href="#m3dd61b26ae" x="147.698673" y="73.439807" style="stroke: #000000"/>
     <use xlink:href="#m3dd61b26ae" x="125.707468" y="102.488745" style="stroke: #000000"/>
     <use xlink:href="#m3dd61b26ae" x="170.976899" y="59.066843" style="stroke: #000000"/>
     <use xlink:href="#m3dd61b26ae" x="147.912781" y="74.591092" style="stroke: #000000"/>
     <use xlink:href="#m3dd61b26ae" x="212.557571" y="70.969408" style="stroke: #000000"/>
     <use xlink:href="#m3dd61b26ae" x="138.446781" y="84.977496" style="stroke: #000000"/>
     <use xlink:href="#m3dd61b26ae" x="103.503104" y="148.056588" style="stroke: #000000"/>
     <use xlink:href="#m3dd61b26ae" x="236.564381" y="101.324961" style="stroke: #000000"/>
     <use xlink:href="#m3dd61b26ae" x="229.82233" y="90.443898" style="stroke: #000000"/>
     <use xlink:href="#m3dd61b26ae" x="294.710182" y="246.920263" style="stroke: #000000"/>
     <use xlink:href="#m3dd61b26ae" x="188.966539" y="57.462936" style="stroke: #000000"/>
     <use xlink:href="#m3dd61b26ae" x="240.622205" y="109.038631" style="stroke: #000000"/>
     <use xlink:href="#m3dd61b26ae" x="258.532236" y="144.26694" style="stroke: #000000"/>
     <use xlink:href="#m3dd61b26ae" x="226.487929" y="87.198975" style="stroke: #000000"/>
     <use xlink:href="#m3dd61b26ae" x="191.87321" y="57.983884" style="stroke: #000000"/>
     <use xlink:href="#m3dd61b26ae" x="185.531854" y="56.360208" style="stroke: #000000"/>
     <use xlink:href="#m3dd61b26ae" x="206.744719" y="64.737246" style="stroke: #000000"/>
     <use xlink:href="#m3dd61b26ae" x="264.262003" y="157.940209" style="stroke: #000000"/>
     <use xlink:href="#m3dd61b26ae" x="182.144252" y="56.252187" style="stroke: #000000"/>
     <use xlink:href="#m3dd61b26ae" x="144.3697" y="77.83493" style="stroke: #000000"/>
     <use xlink:href="#m3dd61b26ae" x="219.514734" y="79.089487" style="stroke: #000000"/>
     <use xlink:href="#m3dd61b26ae" x="125.377352" y="103.482414" style="stroke: #000000"/>
     <use xlink:href="#m3dd61b26ae" x="155.247679" y="66.766065" style="stroke: #000000"/>
     <use xlink:href="#m3dd61b26ae" x="178.255536" y="57.10899" style="stroke: #000000"/>
     <use xlink:href="#m3dd61b26ae" x="248.738846" y="124.042937" style="stroke: #000000"/>
     <use xlink:href="#m3dd61b26ae" x="160.392682" y="63.447356" style="stroke: #000000"/>
     <use xlink:href="#m3dd61b26ae" x="207.866476" y="67.37634" style="stroke: #000000"/>
     <use xlink:href="#m3dd61b26ae" x="159.226186" y="64.23452" style="stroke: #000000"/>
     <use xlink:href="#m3dd61b26ae" x="181.775322" y="56.963774" style="stroke: #000000"/>
     <use xlink:href="#m3dd61b26ae" x="188.721239" y="57.473875" style="stroke: #000000"/>
     <use xlink:href="#m3dd61b26ae" x="138.779383" y="83.207678" style="stroke: #000000"/>
     <use xlink:href="#m3dd61b26ae" x="250.93843" y="127.895194" style="stroke: #000000"/>
     <use xlink:href="#m3dd61b26ae" x="220.810564" y="79.543988" style="stroke: #000000"/>
     <use xlink:href="#m3dd61b26ae" x="163.327223" y="61.800023" style="stroke: #000000"/>
     <use xlink:href="#m3dd61b26ae" x="169.973003" y="58.774768" style="stroke: #000000"/>
     <use xlink:href="#m3dd61b26ae" x="122.8984" y="107.969739" style="stroke: #000000"/>
     <use xlink:href="#m3dd61b26ae" x="158.800883" y="63.986397" style="stroke: #000000"/>
     <use xlink:href="#m3dd61b26ae" x="194.918178" y="59.49844" style="stroke: #000000"/>
     <use xlink:href="#m3dd61b26ae" x="166.928527" y="60.260082" style="stroke: #000000"/>
     <use xlink:href="#m3dd61b26ae" x="127.503642" y="100.629317" style="stroke: #000000"/>
     <use xlink:href="#m3dd61b26ae" x="199.762903" y="62.042584" style="stroke: #000000"/>
     <use xlink:href="#m3dd61b26ae" x="122.354674" y="110.204938" style="stroke: #000000"/>
     <use xlink:href="#m3dd61b26ae" x="180.940275" y="56.451783" style="stroke: #000000"/>
     <use xlink:href="#m3dd61b26ae" x="196.552371" y="60.150387" style="stroke: #000000"/>
     <use xlink:href="#m3dd61b26ae" x="231.883718" y="94.250839" style="stroke: #000000"/>
     <use xlink:href="#m3dd61b26ae" x="246.251714" y="119.105516" style="stroke: #000000"/>
     <use xlink:href="#m3dd61b26ae" x="203.130567" y="63.636605" style="stroke: #000000"/>
     <use xlink:href="#m3dd61b26ae" x="235.262812" y="100.333114" style="stroke: #000000"/>
     <use xlink:href="#m3dd61b26ae" x="209.212998" y="68.071416" style="stroke: #000000"/>
     <use xlink:href="#m3dd61b26ae" x="138.63975" y="85.118679" style="stroke: #000000"/>
     <use xlink:href="#m3dd61b26ae" x="185.240107" y="56.782643" style="stroke: #000000"/>
     <use xlink:href="#m3dd61b26ae" x="208.986333" y="67.010852" style="stroke: #000000"/>
     <use xlink:href="#m3dd61b26ae" x="124.104996" y="106.360864" style="stroke: #000000"/>
     <use xlink:href="#m3dd61b26ae" x="157.672264" y="65.495514" style="stroke: #000000"/>
     <use xlink:href="#m3dd61b26ae" x="197.82579" y="61.195565" style="stroke: #000000"/>
     <use xlink:href="#m3dd61b26ae" x="228.138982" y="89.26584" style="stroke: #000000"/>
     <use xlink:href="#m3dd61b26ae" x="189.691212" y="58.28821" style="stroke: #000000"/>
     <use xlink:href="#m3dd61b26ae" x="252.578077" y="130.974017" style="stroke: #000000"/>
     <use xlink:href="#m3dd61b26ae" x="222.750793" y="82.014424" style="stroke: #000000"/>
     <use xlink:href="#m3dd61b26ae" x="160.560369" y="63.713161" style="stroke: #000000"/>
     <use xlink:href="#m3dd61b26ae" x="167.981651" y="59.673611" style="stroke: #000000"/>
     <use xlink:href="#m3dd61b26ae" x="203.695629" y="63.011833" style="stroke: #000000"/>
     <use xlink:href="#m3dd61b26ae" x="212.208899" y="71.476125" style="stroke: #000000"/>
     <use xlink:href="#m3dd61b26ae" x="311.318182" y="307.8" style="stroke: #000000"/>
     <use xlink:href="#m3dd61b26ae" x="215.900719" y="76.113551" style="stroke: #000000"/>
     <use xlink:href="#m3dd61b26ae" x="202.579523" y="63.660084" style="stroke: #000000"/>
     <use xlink:href="#m3dd61b26ae" x="148.658065" y="73.83805" style="stroke: #000000"/>
     <use xlink:href="#m3dd61b26ae" x="165.35695" y="60.941343" style="stroke: #000000"/>
     <use xlink:href="#m3dd61b26ae" x="146.074945" y="75.041321" style="stroke: #000000"/>
     <use xlink:href="#m3dd61b26ae" x="217.620901" y="76.498218" style="stroke: #000000"/>
     <use xlink:href="#m3dd61b26ae" x="167.984884" y="59.353292" style="stroke: #000000"/>
     <use xlink:href="#m3dd61b26ae" x="136.617209" y="86.262182" style="stroke: #000000"/>
     <use xlink:href="#m3dd61b26ae" x="198.27331" y="60.717198" style="stroke: #000000"/>
     <use xlink:href="#m3dd61b26ae" x="124.239452" y="105.620965" style="stroke: #000000"/>
     <use xlink:href="#m3dd61b26ae" x="250.883489" y="127.954069" style="stroke: #000000"/>
     <use xlink:href="#m3dd61b26ae" x="196.019063" y="58.587426" style="stroke: #000000"/>
     <use xlink:href="#m3dd61b26ae" x="102.952314" y="149.101372" style="stroke: #000000"/>
     <use xlink:href="#m3dd61b26ae" x="177.126613" y="57.19585" style="stroke: #000000"/>
     <use xlink:href="#m3dd61b26ae" x="187.2525" y="56.942851" style="stroke: #000000"/>
     <use xlink:href="#m3dd61b26ae" x="162.222138" y="62.657383" style="stroke: #000000"/>
     <use xlink:href="#m3dd61b26ae" x="155.063717" y="67.958548" style="stroke: #000000"/>
     <use xlink:href="#m3dd61b26ae" x="164.735707" y="60.447585" style="stroke: #000000"/>
     <use xlink:href="#m3dd61b26ae" x="158.457419" y="65.193846" style="stroke: #000000"/>
     <use xlink:href="#m3dd61b26ae" x="143.382963" y="78.491011" style="stroke: #000000"/>
     <use xlink:href="#m3dd61b26ae" x="145.298811" y="76.127586" style="stroke: #000000"/>
     <use xlink:href="#m3dd61b26ae" x="236.609495" y="101.53124" style="stroke: #000000"/>
     <use xlink:href="#m3dd61b26ae" x="134.746255" y="89.785218" style="stroke: #000000"/>
     <use xlink:href="#m3dd61b26ae" x="181.743126" y="55.8" style="stroke: #000000"/>
     <use xlink:href="#m3dd61b26ae" x="126.157127" y="102.640851" style="stroke: #000000"/>
     <use xlink:href="#m3dd61b26ae" x="171.530868" y="58.597756" style="stroke: #000000"/>
     <use xlink:href="#m3dd61b26ae" x="216.928669" y="75.68871" style="stroke: #000000"/>
     <use xlink:href="#m3dd61b26ae" x="191.645587" y="58.109359" style="stroke: #000000"/>
     <use xlink:href="#m3dd61b26ae" x="174.857111" y="56.624254" style="stroke: #000000"/>
     <use xlink:href="#m3dd61b26ae" x="228.37948" y="89.472324" style="stroke: #000000"/>
     <use xlink:href="#m3dd61b26ae" x="175.49213" y="58.430807" style="stroke: #000000"/>
     <use xlink:href="#m3dd61b26ae" x="232.186094" y="94.478081" style="stroke: #000000"/>
     <use xlink:href="#m3dd61b26ae" x="273.627838" y="182.916457" style="stroke: #000000"/>
     <use xlink:href="#m3dd61b26ae" x="157.883546" y="65.183942" style="stroke: #000000"/>
     <use xlink:href="#m3dd61b26ae" x="265.308194" y="161.092193" style="stroke: #000000"/>
     <use xlink:href="#m3dd61b26ae" x="248.686764" y="122.949379" style="stroke: #000000"/>
     <use xlink:href="#m3dd61b26ae" x="267.531572" y="166.921121" style="stroke: #000000"/>
     <use xlink:href="#m3dd61b26ae" x="165.265285" y="61.338769" style="stroke: #000000"/>
     <use xlink:href="#m3dd61b26ae" x="268.61503" y="170.067327" style="stroke: #000000"/>
     <use xlink:href="#m3dd61b26ae" x="95.959044" y="164.954019" style="stroke: #000000"/>
     <use xlink:href="#m3dd61b26ae" x="230.91722" y="92.922052" style="stroke: #000000"/>
     <use xlink:href="#m3dd61b26ae" x="84.4881" y="196.452908" style="stroke: #000000"/>
     <use xlink:href="#m3dd61b26ae" x="129.579387" y="98.836987" style="stroke: #000000"/>
     <use xlink:href="#m3dd61b26ae" x="101.817419" y="152.214449" style="stroke: #000000"/>
     <use xlink:href="#m3dd61b26ae" x="164.234007" y="61.511821" style="stroke: #000000"/>
     <use xlink:href="#m3dd61b26ae" x="161.297092" y="62.978292" style="stroke: #000000"/>
     <use xlink:href="#m3dd61b26ae" x="114.77421" y="123.418302" style="stroke: #000000"/>
     <use xlink:href="#m3dd61b26ae" x="157.141221" y="65.783056" style="stroke: #000000"/>
     <use xlink:href="#m3dd61b26ae" x="186.12692" y="57.344244" style="stroke: #000000"/>
     <use xlink:href="#m3dd61b26ae" x="175.021628" y="57.513771" style="stroke: #000000"/>
     <use xlink:href="#m3dd61b26ae" x="153.115914" y="68.366325" style="stroke: #000000"/>
     <use xlink:href="#m3dd61b26ae" x="127.722169" y="99.734231" style="stroke: #000000"/>
     <use xlink:href="#m3dd61b26ae" x="215.957608" y="75.34252" style="stroke: #000000"/>
     <use xlink:href="#m3dd61b26ae" x="211.925901" y="69.942975" style="stroke: #000000"/>
     <use xlink:href="#m3dd61b26ae" x="216.803735" y="75.124733" style="stroke: #000000"/>
     <use xlink:href="#m3dd61b26ae" x="120.465166" y="112.013181" style="stroke: #000000"/>
     <use xlink:href="#m3dd61b26ae" x="134.936995" y="89.316978" style="stroke: #000000"/>
     <use xlink:href="#m3dd61b26ae" x="180.23566" y="57.313141" style="stroke: #000000"/>
     <use xlink:href="#m3dd61b26ae" x="280.135884" y="201.293531" style="stroke: #000000"/>
     <use xlink:href="#m3dd61b26ae" x="168.182601" y="60.034959" style="stroke: #000000"/>
     <use xlink:href="#m3dd61b26ae" x="174.437283" y="57.666313" style="stroke: #000000"/>
     <use xlink:href="#m3dd61b26ae" x="174.282179" y="57.617661" style="stroke: #000000"/>
     <use xlink:href="#m3dd61b26ae" x="162.267414" y="62.045964" style="stroke: #000000"/>
     <use xlink:href="#m3dd61b26ae" x="123.870343" y="106.269037" style="stroke: #000000"/>
     <use xlink:href="#m3dd61b26ae" x="210.426662" y="69.095782" style="stroke: #000000"/>
     <use xlink:href="#m3dd61b26ae" x="191.623697" y="58.691425" style="stroke: #000000"/>
     <use xlink:href="#m3dd61b26ae" x="157.842777" y="65.506123" style="stroke: #000000"/>
     <use xlink:href="#m3dd61b26ae" x="177.089474" y="56.92611" style="stroke: #000000"/>
     <use xlink:href="#m3dd61b26ae" x="189.238941" y="57.724426" style="stroke: #000000"/>
     <use xlink:href="#m3dd61b26ae" x="117.265981" y="118.435083" style="stroke: #000000"/>
     <use xlink:href="#m3dd61b26ae" x="207.907488" y="66.768017" style="stroke: #000000"/>
     <use xlink:href="#m3dd61b26ae" x="185.539493" y="57.181452" style="stroke: #000000"/>
     <use xlink:href="#m3dd61b26ae" x="197.545711" y="61.031143" style="stroke: #000000"/>
     <use xlink:href="#m3dd61b26ae" x="230.000755" y="91.331957" style="stroke: #000000"/>
     <use xlink:href="#m3dd61b26ae" x="178.36923" y="57.665268" style="stroke: #000000"/>
     <use xlink:href="#m3dd61b26ae" x="243.578406" y="114.81104" style="stroke: #000000"/>
     <use xlink:href="#m3dd61b26ae" x="207.253912" y="65.968062" style="stroke: #000000"/>
     <use xlink:href="#m3dd61b26ae" x="229.491702" y="91.081736" style="stroke: #000000"/>
     <use xlink:href="#m3dd61b26ae" x="183.809745" y="56.613363" style="stroke: #000000"/>
     <use xlink:href="#m3dd61b26ae" x="202.647303" y="63.65845" style="stroke: #000000"/>
     <use xlink:href="#m3dd61b26ae" x="164.083503" y="60.943515" style="stroke: #000000"/>
     <use xlink:href="#m3dd61b26ae" x="158.18377" y="64.911624" style="stroke: #000000"/>
     <use xlink:href="#m3dd61b26ae" x="229.099321" y="90.25838" style="stroke: #000000"/>
     <use xlink:href="#m3dd61b26ae" x="245.900916" y="118.186106" style="stroke: #000000"/>
     <use xlink:href="#m3dd61b26ae" x="197.839508" y="60.591907" style="stroke: #000000"/>
     <use xlink:href="#m3dd61b26ae" x="164.766413" y="60.643962" style="stroke: #000000"/>
     <use xlink:href="#m3dd61b26ae" x="156.4742" y="65.532908" style="stroke: #000000"/>
     <use xlink:href="#m3dd61b26ae" x="144.183316" y="77.555119" style="stroke: #000000"/>
     <use xlink:href="#m3dd61b26ae" x="169.483647" y="60.020795" style="stroke: #000000"/>
     <use xlink:href="#m3dd61b26ae" x="151.175111" y="69.570456" style="stroke: #000000"/>
     <use xlink:href="#m3dd61b26ae" x="223.280413" y="82.947401" style="stroke: #000000"/>
     <use xlink:href="#m3dd61b26ae" x="150.857496" y="71.588753" style="stroke: #000000"/>
     <use xlink:href="#m3dd61b26ae" x="291.00774" y="235.385008" style="stroke: #000000"/>
     <use xlink:href="#m3dd61b26ae" x="219.984865" y="79.501765" style="stroke: #000000"/>
     <use xlink:href="#m3dd61b26ae" x="237.10119" y="102.443709" style="stroke: #000000"/>
     <use xlink:href="#m3dd61b26ae" x="193.337992" y="58.602725" style="stroke: #000000"/>
     <use xlink:href="#m3dd61b26ae" x="163.224371" y="60.775686" style="stroke: #000000"/>
     <use xlink:href="#m3dd61b26ae" x="192.922571" y="58.300175" style="stroke: #000000"/>
     <use xlink:href="#m3dd61b26ae" x="172.911973" y="56.908508" style="stroke: #000000"/>
     <use xlink:href="#m3dd61b26ae" x="204.684488" y="64.461759" style="stroke: #000000"/>
     <use xlink:href="#m3dd61b26ae" x="198.38635" y="59.887423" style="stroke: #000000"/>
     <use xlink:href="#m3dd61b26ae" x="175.471896" y="57.198623" style="stroke: #000000"/>
     <use xlink:href="#m3dd61b26ae" x="190.670108" y="58.872912" style="stroke: #000000"/>
     <use xlink:href="#m3dd61b26ae" x="171.555964" y="58.622704" style="stroke: #000000"/>
     <use xlink:href="#m3dd61b26ae" x="97.619747" y="161.183302" style="stroke: #000000"/>
     <use xlink:href="#m3dd61b26ae" x="207.167439" y="66.983165" style="stroke: #000000"/>
     <use xlink:href="#m3dd61b26ae" x="173.853112" y="57.814049" style="stroke: #000000"/>
     <use xlink:href="#m3dd61b26ae" x="206.151479" y="65.524237" style="stroke: #000000"/>
     <use xlink:href="#m3dd61b26ae" x="123.243735" y="106.354382" style="stroke: #000000"/>
     <use xlink:href="#m3dd61b26ae" x="216.245768" y="74.044982" style="stroke: #000000"/>
     <use xlink:href="#m3dd61b26ae" x="215.960336" y="74.374037" style="stroke: #000000"/>
     <use xlink:href="#m3dd61b26ae" x="216.917393" y="76.093799" style="stroke: #000000"/>
     <use xlink:href="#m3dd61b26ae" x="151.64994" y="70.218816" style="stroke: #000000"/>
     <use xlink:href="#m3dd61b26ae" x="115.947348" y="120.558343" style="stroke: #000000"/>
     <use xlink:href="#m3dd61b26ae" x="189.551082" y="57.493735" style="stroke: #000000"/>
     <use xlink:href="#m3dd61b26ae" x="188.431478" y="56.068087" style="stroke: #000000"/>
     <use xlink:href="#m3dd61b26ae" x="189.596398" y="57.840371" style="stroke: #000000"/>
     <use xlink:href="#m3dd61b26ae" x="133.484094" y="91.566843" style="stroke: #000000"/>
     <use xlink:href="#m3dd61b26ae" x="141.662848" y="80.546375" style="stroke: #000000"/>
     <use xlink:href="#m3dd61b26ae" x="137.629757" y="85.210782" style="stroke: #000000"/>
     <use xlink:href="#m3dd61b26ae" x="208.479177" y="68.344387" style="stroke: #000000"/>
     <use xlink:href="#m3dd61b26ae" x="57.681818" y="285.350663" style="stroke: #000000"/>
     <use xlink:href="#m3dd61b26ae" x="161.370859" y="62.213269" style="stroke: #000000"/>
     <use xlink:href="#m3dd61b26ae" x="150.283835" y="71.807229" style="stroke: #000000"/>
     <use xlink:href="#m3dd61b26ae" x="162.003347" y="62.028538" style="stroke: #000000"/>
     <use xlink:href="#m3dd61b26ae" x="243.136238" y="113.412525" style="stroke: #000000"/>
     <use xlink:href="#m3dd61b26ae" x="193.748086" y="59.100882" style="stroke: #000000"/>
     <use xlink:href="#m3dd61b26ae" x="188.919481" y="57.226511" style="stroke: #000000"/>
     <use xlink:href="#m3dd61b26ae" x="177.116712" y="56.996707" style="stroke: #000000"/>
     <use xlink:href="#m3dd61b26ae" x="197.720921" y="62.126813" style="stroke: #000000"/>
     <use xlink:href="#m3dd61b26ae" x="115.373535" y="121.496023" style="stroke: #000000"/>
     <use xlink:href="#m3dd61b26ae" x="145.892351" y="75.680906" style="stroke: #000000"/>
     <use xlink:href="#m3dd61b26ae" x="158.973692" y="64.805449" style="stroke: #000000"/>
     <use xlink:href="#m3dd61b26ae" x="213.762601" y="71.956781" style="stroke: #000000"/>
     <use xlink:href="#m3dd61b26ae" x="200.487649" y="62.879557" style="stroke: #000000"/>
     <use xlink:href="#m3dd61b26ae" x="164.120578" y="60.693349" style="stroke: #000000"/>
     <use xlink:href="#m3dd61b26ae" x="123.311788" y="107.260752" style="stroke: #000000"/>
     <use xlink:href="#m3dd61b26ae" x="177.537742" y="56.895596" style="stroke: #000000"/>
     <use xlink:href="#m3dd61b26ae" x="195.513624" y="59.808992" style="stroke: #000000"/>
     <use xlink:href="#m3dd61b26ae" x="235.718826" y="100.226755" style="stroke: #000000"/>
     <use xlink:href="#m3dd61b26ae" x="215.417361" y="74.388768" style="stroke: #000000"/>
     <use xlink:href="#m3dd61b26ae" x="167.081131" y="59.363609" style="stroke: #000000"/>
     <use xlink:href="#m3dd61b26ae" x="236.156618" y="100.547994" style="stroke: #000000"/>
     <use xlink:href="#m3dd61b26ae" x="168.865556" y="60.278638" style="stroke: #000000"/>
     <use xlink:href="#m3dd61b26ae" x="232.028021" y="94.635473" style="stroke: #000000"/>
     <use xlink:href="#m3dd61b26ae" x="169.479843" y="58.801172" style="stroke: #000000"/>
     <use xlink:href="#m3dd61b26ae" x="206.742002" y="66.024718" style="stroke: #000000"/>
     <use xlink:href="#m3dd61b26ae" x="98.067449" y="159.878742" style="stroke: #000000"/>
     <use xlink:href="#m3dd61b26ae" x="196.885522" y="60.010186" style="stroke: #000000"/>
     <use xlink:href="#m3dd61b26ae" x="110.600705" y="131.798593" style="stroke: #000000"/>
     <use xlink:href="#m3dd61b26ae" x="147.73094" y="73.770127" style="stroke: #000000"/>
     <use xlink:href="#m3dd61b26ae" x="205.097365" y="64.524051" style="stroke: #000000"/>
     <use xlink:href="#m3dd61b26ae" x="80.752446" y="207.899114" style="stroke: #000000"/>
     <use xlink:href="#m3dd61b26ae" x="138.126685" y="85.374999" style="stroke: #000000"/>
     <use xlink:href="#m3dd61b26ae" x="141.57452" y="79.890496" style="stroke: #000000"/>
     <use xlink:href="#m3dd61b26ae" x="93.511121" y="172.010274" style="stroke: #000000"/>
     <use xlink:href="#m3dd61b26ae" x="151.603729" y="69.487149" style="stroke: #000000"/>
     <use xlink:href="#m3dd61b26ae" x="127.701312" y="99.397205" style="stroke: #000000"/>
     <use xlink:href="#m3dd61b26ae" x="215.415894" y="74.602614" style="stroke: #000000"/>
     <use xlink:href="#m3dd61b26ae" x="188.703002" y="58.2983" style="stroke: #000000"/>
     <use xlink:href="#m3dd61b26ae" x="183.586669" y="56.598334" style="stroke: #000000"/>
     <use xlink:href="#m3dd61b26ae" x="156.099179" y="66.391695" style="stroke: #000000"/>
     <use xlink:href="#m3dd61b26ae" x="130.649398" y="94.939933" style="stroke: #000000"/>
     <use xlink:href="#m3dd61b26ae" x="170.102532" y="58.31279" style="stroke: #000000"/>
     <use xlink:href="#m3dd61b26ae" x="173.237494" y="58.844719" style="stroke: #000000"/>
     <use xlink:href="#m3dd61b26ae" x="212.268979" y="70.111755" style="stroke: #000000"/>
     <use xlink:href="#m3dd61b26ae" x="227.251382" y="87.897727" style="stroke: #000000"/>
     <use xlink:href="#m3dd61b26ae" x="166.604156" y="60.378264" style="stroke: #000000"/>
     <use xlink:href="#m3dd61b26ae" x="151.670546" y="70.004142" style="stroke: #000000"/>
     <use xlink:href="#m3dd61b26ae" x="133.725935" y="90.759652" style="stroke: #000000"/>
     <use xlink:href="#m3dd61b26ae" x="187.322308" y="57.375031" style="stroke: #000000"/>
     <use xlink:href="#m3dd61b26ae" x="234.224307" y="98.69558" style="stroke: #000000"/>
     <use xlink:href="#m3dd61b26ae" x="175.776837" y="57.094972" style="stroke: #000000"/>
     <use xlink:href="#m3dd61b26ae" x="228.277264" y="89.594096" style="stroke: #000000"/>
     <use xlink:href="#m3dd61b26ae" x="212.431645" y="71.594173" style="stroke: #000000"/>
     <use xlink:href="#m3dd61b26ae" x="203.298712" y="64.228983" style="stroke: #000000"/>
     <use xlink:href="#m3dd61b26ae" x="154.477362" y="68.182166" style="stroke: #000000"/>
     <use xlink:href="#m3dd61b26ae" x="144.370314" y="76.209538" style="stroke: #000000"/>
     <use xlink:href="#m3dd61b26ae" x="120.17453" y="111.547986" style="stroke: #000000"/>
     <use xlink:href="#m3dd61b26ae" x="152.478396" y="68.250242" style="stroke: #000000"/>
     <use xlink:href="#m3dd61b26ae" x="145.122061" y="76.491416" style="stroke: #000000"/>
     <use xlink:href="#m3dd61b26ae" x="105.615908" y="142.516597" style="stroke: #000000"/>
     <use xlink:href="#m3dd61b26ae" x="216.995997" y="75.161846" style="stroke: #000000"/>
     <use xlink:href="#m3dd61b26ae" x="139.674716" y="82.441345" style="stroke: #000000"/>
     <use xlink:href="#m3dd61b26ae" x="232.99634" y="95.71518" style="stroke: #000000"/>
     <use xlink:href="#m3dd61b26ae" x="148.929098" y="72.447088" style="stroke: #000000"/>
     <use xlink:href="#m3dd61b26ae" x="208.176423" y="68.368627" style="stroke: #000000"/>
     <use xlink:href="#m3dd61b26ae" x="174.528099" y="58.159476" style="stroke: #000000"/>
     <use xlink:href="#m3dd61b26ae" x="82.514213" y="201.763559" style="stroke: #000000"/>
     <use xlink:href="#m3dd61b26ae" x="244.080771" y="115.062295" style="stroke: #000000"/>
     <use xlink:href="#m3dd61b26ae" x="185.336336" y="57.043025" style="stroke: #000000"/>
     <use xlink:href="#m3dd61b26ae" x="159.479368" y="64.573908" style="stroke: #000000"/>
     <use xlink:href="#m3dd61b26ae" x="161.760728" y="62.592484" style="stroke: #000000"/>
    </g>
   </g>
   <g id="matplotlib.axis_1">
    <g id="xtick_1">
     <g id="line2d_1">
      <defs>
       <path id="m97de9abdd3" d="M 0 0 
L 0 3.5 
" style="stroke: #000000; stroke-width: 0.8"/>
      </defs>
      <g>
       <use xlink:href="#m97de9abdd3" x="85.191542" y="320.4" style="stroke: #000000; stroke-width: 0.8"/>
      </g>
     </g>
     <g id="text_1">
      <!-- −40 -->
      <g transform="translate(76.615761 334.998438) scale(0.1 -0.1)">
       <defs>
        <path id="OpenSans-Regular-2212" d="M 322 2044 
L 322 2469 
L 3331 2469 
L 3331 2044 
L 322 2044 
z
" transform="scale(0.015625)"/>
        <path id="OpenSans-Regular-34" d="M 3538 1059 
L 2853 1059 
L 2853 0 
L 2347 0 
L 2347 1059 
L 138 1059 
L 138 1497 
L 2313 4594 
L 2853 4594 
L 2853 1528 
L 3538 1528 
L 3538 1059 
z
M 2347 1528 
L 2347 3022 
Q 2347 3194 2350 3333 
Q 2353 3472 2359 3592 
Q 2366 3713 2370 3822 
Q 2375 3931 2378 4038 
L 2353 4038 
Q 2294 3913 2217 3773 
Q 2141 3634 2063 3525 
L 653 1528 
L 2347 1528 
z
" transform="scale(0.015625)"/>
        <path id="OpenSans-Regular-30" d="M 3334 2291 
Q 3334 1734 3250 1296 
Q 3166 859 2984 556 
Q 2803 253 2515 95 
Q 2228 -63 1825 -63 
Q 1316 -63 983 215 
Q 650 494 486 1020 
Q 322 1547 322 2291 
Q 322 3022 470 3548 
Q 619 4075 950 4358 
Q 1281 4641 1825 4641 
Q 2341 4641 2675 4361 
Q 3009 4081 3171 3554 
Q 3334 3028 3334 2291 
z
M 844 2291 
Q 844 1653 941 1228 
Q 1038 803 1255 592 
Q 1472 381 1825 381 
Q 2178 381 2395 590 
Q 2613 800 2711 1225 
Q 2809 1650 2809 2291 
Q 2809 2919 2712 3342 
Q 2616 3766 2400 3980 
Q 2184 4194 1825 4194 
Q 1466 4194 1250 3980 
Q 1034 3766 939 3342 
Q 844 2919 844 2291 
z
" transform="scale(0.015625)"/>
       </defs>
       <use xlink:href="#OpenSans-Regular-2212"/>
       <use xlink:href="#OpenSans-Regular-34" x="57.177734"/>
       <use xlink:href="#OpenSans-Regular-30" x="114.355469"/>
      </g>
     </g>
    </g>
    <g id="xtick_2">
     <g id="line2d_2">
      <g>
       <use xlink:href="#m97de9abdd3" x="133.351616" y="320.4" style="stroke: #000000; stroke-width: 0.8"/>
      </g>
     </g>
     <g id="text_2">
      <!-- −20 -->
      <g transform="translate(124.775835 334.998438) scale(0.1 -0.1)">
       <defs>
        <path id="OpenSans-Regular-32" d="M 3309 0 
L 316 0 
L 316 434 
L 1538 1675 
Q 1878 2019 2111 2287 
Q 2344 2556 2466 2817 
Q 2588 3078 2588 3391 
Q 2588 3778 2358 3983 
Q 2128 4188 1753 4188 
Q 1425 4188 1172 4075 
Q 919 3963 653 3756 
L 375 4106 
Q 556 4259 770 4378 
Q 984 4497 1229 4565 
Q 1475 4634 1753 4634 
Q 2175 4634 2481 4487 
Q 2788 4341 2955 4069 
Q 3122 3797 3122 3422 
Q 3122 3059 2978 2748 
Q 2834 2438 2575 2133 
Q 2316 1828 1969 1488 
L 975 497 
L 975 475 
L 3309 475 
L 3309 0 
z
" transform="scale(0.015625)"/>
       </defs>
       <use xlink:href="#OpenSans-Regular-2212"/>
       <use xlink:href="#OpenSans-Regular-32" x="57.177734"/>
       <use xlink:href="#OpenSans-Regular-30" x="114.355469"/>
      </g>
     </g>
    </g>
    <g id="xtick_3">
     <g id="line2d_3">
      <g>
       <use xlink:href="#m97de9abdd3" x="181.51169" y="320.4" style="stroke: #000000; stroke-width: 0.8"/>
      </g>
     </g>
     <g id="text_3">
      <!-- 0 -->
      <g transform="translate(178.653096 334.998438) scale(0.1 -0.1)">
       <use xlink:href="#OpenSans-Regular-30"/>
      </g>
     </g>
    </g>
    <g id="xtick_4">
     <g id="line2d_4">
      <g>
       <use xlink:href="#m97de9abdd3" x="229.671764" y="320.4" style="stroke: #000000; stroke-width: 0.8"/>
      </g>
     </g>
     <g id="text_4">
      <!-- 20 -->
      <g transform="translate(223.954576 334.998438) scale(0.1 -0.1)">
       <use xlink:href="#OpenSans-Regular-32"/>
       <use xlink:href="#OpenSans-Regular-30" x="57.177734"/>
      </g>
     </g>
    </g>
    <g id="xtick_5">
     <g id="line2d_5">
      <g>
       <use xlink:href="#m97de9abdd3" x="277.831838" y="320.4" style="stroke: #000000; stroke-width: 0.8"/>
      </g>
     </g>
     <g id="text_5">
      <!-- 40 -->
      <g transform="translate(272.11465 334.998438) scale(0.1 -0.1)">
       <use xlink:href="#OpenSans-Regular-34"/>
       <use xlink:href="#OpenSans-Regular-30" x="57.177734"/>
      </g>
     </g>
    </g>
    <g id="text_6">
     <!-- x -->
     <g transform="translate(181.882812 348.989062) scale(0.1 -0.1)">
      <defs>
       <path id="OpenSans-Regular-78" d="M 1363 1753 
L 178 3425 
L 772 3425 
L 1675 2106 
L 2575 3425 
L 3163 3425 
L 1978 1753 
L 3228 0 
L 2634 0 
L 1675 1397 
L 709 0 
L 122 0 
L 1363 1753 
z
" transform="scale(0.015625)"/>
      </defs>
      <use xlink:href="#OpenSans-Regular-78"/>
     </g>
    </g>
   </g>
   <g id="matplotlib.axis_2">
    <g id="ytick_1">
     <g id="line2d_6">
      <defs>
       <path id="m97f6753a86" d="M 0 0 
L -3.5 0 
" style="stroke: #000000; stroke-width: 0.8"/>
      </defs>
      <g>
       <use xlink:href="#m97f6753a86" x="45" y="277.421828" style="stroke: #000000; stroke-width: 0.8"/>
      </g>
     </g>
     <g id="text_7">
      <!-- −2500 -->
      <g transform="translate(9.414062 281.221046) scale(0.1 -0.1)">
       <defs>
        <path id="OpenSans-Regular-35" d="M 1759 2794 
Q 2225 2794 2569 2636 
Q 2913 2478 3102 2178 
Q 3291 1878 3291 1450 
Q 3291 981 3087 642 
Q 2884 303 2503 120 
Q 2122 -63 1591 -63 
Q 1234 -63 928 0 
Q 622 63 413 188 
L 413 681 
Q 641 544 966 462 
Q 1291 381 1597 381 
Q 1944 381 2205 492 
Q 2466 603 2611 829 
Q 2756 1056 2756 1400 
Q 2756 1856 2476 2104 
Q 2197 2353 1594 2353 
Q 1400 2353 1169 2322 
Q 938 2291 788 2253 
L 525 2425 
L 700 4569 
L 2972 4569 
L 2972 4094 
L 1144 4094 
L 1028 2716 
Q 1147 2741 1334 2767 
Q 1522 2794 1759 2794 
z
" transform="scale(0.015625)"/>
       </defs>
       <use xlink:href="#OpenSans-Regular-2212"/>
       <use xlink:href="#OpenSans-Regular-32" x="57.177734"/>
       <use xlink:href="#OpenSans-Regular-35" x="114.355469"/>
       <use xlink:href="#OpenSans-Regular-30" x="171.533203"/>
       <use xlink:href="#OpenSans-Regular-30" x="228.710938"/>
      </g>
     </g>
    </g>
    <g id="ytick_2">
     <g id="line2d_7">
      <g>
       <use xlink:href="#m97f6753a86" x="45" y="233.302001" style="stroke: #000000; stroke-width: 0.8"/>
      </g>
     </g>
     <g id="text_8">
      <!-- −2000 -->
      <g transform="translate(9.414062 237.101219) scale(0.1 -0.1)">
       <use xlink:href="#OpenSans-Regular-2212"/>
       <use xlink:href="#OpenSans-Regular-32" x="57.177734"/>
       <use xlink:href="#OpenSans-Regular-30" x="114.355469"/>
       <use xlink:href="#OpenSans-Regular-30" x="171.533203"/>
       <use xlink:href="#OpenSans-Regular-30" x="228.710938"/>
      </g>
     </g>
    </g>
    <g id="ytick_3">
     <g id="line2d_8">
      <g>
       <use xlink:href="#m97f6753a86" x="45" y="189.182174" style="stroke: #000000; stroke-width: 0.8"/>
      </g>
     </g>
     <g id="text_9">
      <!-- −1500 -->
      <g transform="translate(9.414062 192.981392) scale(0.1 -0.1)">
       <defs>
        <path id="OpenSans-Regular-31" d="M 2247 0 
L 1741 0 
L 1741 3238 
Q 1741 3422 1742 3555 
Q 1744 3688 1748 3798 
Q 1753 3909 1763 4025 
Q 1666 3925 1581 3854 
Q 1497 3784 1372 3681 
L 850 3263 
L 578 3616 
L 1816 4569 
L 2247 4569 
L 2247 0 
z
" transform="scale(0.015625)"/>
       </defs>
       <use xlink:href="#OpenSans-Regular-2212"/>
       <use xlink:href="#OpenSans-Regular-31" x="57.177734"/>
       <use xlink:href="#OpenSans-Regular-35" x="114.355469"/>
       <use xlink:href="#OpenSans-Regular-30" x="171.533203"/>
       <use xlink:href="#OpenSans-Regular-30" x="228.710938"/>
      </g>
     </g>
    </g>
    <g id="ytick_4">
     <g id="line2d_9">
      <g>
       <use xlink:href="#m97f6753a86" x="45" y="145.062346" style="stroke: #000000; stroke-width: 0.8"/>
      </g>
     </g>
     <g id="text_10">
      <!-- −1000 -->
      <g transform="translate(9.414062 148.861565) scale(0.1 -0.1)">
       <use xlink:href="#OpenSans-Regular-2212"/>
       <use xlink:href="#OpenSans-Regular-31" x="57.177734"/>
       <use xlink:href="#OpenSans-Regular-30" x="114.355469"/>
       <use xlink:href="#OpenSans-Regular-30" x="171.533203"/>
       <use xlink:href="#OpenSans-Regular-30" x="228.710938"/>
      </g>
     </g>
    </g>
    <g id="ytick_5">
     <g id="line2d_10">
      <g>
       <use xlink:href="#m97f6753a86" x="45" y="100.942519" style="stroke: #000000; stroke-width: 0.8"/>
      </g>
     </g>
     <g id="text_11">
      <!-- −500 -->
      <g transform="translate(15.13125 104.741738) scale(0.1 -0.1)">
       <use xlink:href="#OpenSans-Regular-2212"/>
       <use xlink:href="#OpenSans-Regular-35" x="57.177734"/>
       <use xlink:href="#OpenSans-Regular-30" x="114.355469"/>
       <use xlink:href="#OpenSans-Regular-30" x="171.533203"/>
      </g>
     </g>
    </g>
    <g id="ytick_6">
     <g id="line2d_11">
      <g>
       <use xlink:href="#m97f6753a86" x="45" y="56.822692" style="stroke: #000000; stroke-width: 0.8"/>
      </g>
     </g>
     <g id="text_12">
      <!-- 0 -->
      <g transform="translate(32.282812 60.621911) scale(0.1 -0.1)">
       <use xlink:href="#OpenSans-Regular-30"/>
      </g>
     </g>
    </g>
    <g id="text_13">
     <!-- y -->
     <g transform="translate(3.00625 184.304687) rotate(-90) scale(0.1 -0.1)">
      <defs>
       <path id="OpenSans-Regular-79" d="M 6 3425 
L 563 3425 
L 1319 1438 
Q 1384 1263 1440 1102 
Q 1497 941 1540 794 
Q 1584 647 1609 509 
L 1631 509 
Q 1675 666 1756 920 
Q 1838 1175 1931 1441 
L 2647 3425 
L 3206 3425 
L 1716 -503 
Q 1597 -819 1439 -1053 
Q 1281 -1288 1056 -1414 
Q 831 -1541 513 -1541 
Q 366 -1541 253 -1523 
Q 141 -1506 59 -1484 
L 59 -1069 
Q 128 -1084 226 -1096 
Q 325 -1109 431 -1109 
Q 625 -1109 767 -1036 
Q 909 -963 1012 -822 
Q 1116 -681 1191 -488 
L 1378 -6 
L 6 3425 
z
" transform="scale(0.015625)"/>
      </defs>
      <use xlink:href="#OpenSans-Regular-79"/>
     </g>
    </g>
   </g>
   <g id="patch_3">
    <path d="M 45 320.4 
L 45 43.2 
" style="fill: none; stroke: #000000; stroke-width: 0.8; stroke-linejoin: miter; stroke-linecap: square"/>
   </g>
   <g id="patch_4">
    <path d="M 324 320.4 
L 324 43.2 
" style="fill: none; stroke: #000000; stroke-width: 0.8; stroke-linejoin: miter; stroke-linecap: square"/>
   </g>
   <g id="patch_5">
    <path d="M 45 320.4 
L 324 320.4 
" style="fill: none; stroke: #000000; stroke-width: 0.8; stroke-linejoin: miter; stroke-linecap: square"/>
   </g>
   <g id="patch_6">
    <path d="M 45 43.2 
L 324 43.2 
" style="fill: none; stroke: #000000; stroke-width: 0.8; stroke-linejoin: miter; stroke-linecap: square"/>
   </g>
   <g id="text_14">
    <!-- Диаграмма рассеяния -->
    <g transform="translate(119.581875 37.2) scale(0.12 -0.12)">
     <defs>
      <path id="OpenSans-Regular-414" d="M 3669 4569 
L 3669 475 
L 4231 475 
L 4231 -1194 
L 3722 -1194 
L 3722 0 
L 547 0 
L 547 -1194 
L 38 -1194 
L 38 475 
L 388 475 
Q 622 875 826 1373 
Q 1031 1872 1192 2417 
Q 1353 2963 1454 3513 
Q 1556 4063 1584 4569 
L 3669 4569 
z
M 3141 4091 
L 2053 4091 
Q 2025 3703 1928 3226 
Q 1831 2750 1679 2250 
Q 1528 1750 1342 1290 
Q 1156 831 950 475 
L 3141 475 
L 3141 4091 
z
" transform="scale(0.015625)"/>
      <path id="OpenSans-Regular-438" d="M 1041 3425 
L 1041 1272 
Q 1041 1209 1037 1111 
Q 1034 1013 1028 902 
Q 1022 791 1017 689 
Q 1013 588 1006 522 
L 2875 3425 
L 3513 3425 
L 3513 0 
L 3028 0 
L 3028 2100 
Q 3028 2200 3031 2356 
Q 3034 2513 3040 2664 
Q 3047 2816 3050 2900 
L 1188 0 
L 547 0 
L 547 3425 
L 1041 3425 
z
" transform="scale(0.015625)"/>
      <path id="OpenSans-Regular-430" d="M 1828 3481 
Q 2441 3481 2737 3206 
Q 3034 2931 3034 2328 
L 3034 0 
L 2656 0 
L 2556 506 
L 2531 506 
Q 2388 319 2231 192 
Q 2075 66 1870 1 
Q 1666 -63 1369 -63 
Q 1056 -63 814 46 
Q 572 156 433 378 
Q 294 600 294 941 
Q 294 1453 700 1728 
Q 1106 2003 1938 2028 
L 2528 2053 
L 2528 2263 
Q 2528 2706 2337 2884 
Q 2147 3063 1800 3063 
Q 1531 3063 1287 2984 
Q 1044 2906 825 2800 
L 666 3194 
Q 897 3313 1197 3397 
Q 1497 3481 1828 3481 
z
M 2522 1688 
L 2000 1666 
Q 1359 1641 1096 1456 
Q 834 1272 834 934 
Q 834 641 1012 500 
Q 1191 359 1484 359 
Q 1941 359 2231 612 
Q 2522 866 2522 1372 
L 2522 1688 
z
" transform="scale(0.015625)"/>
      <path id="OpenSans-Regular-433" d="M 2625 3425 
L 2625 2984 
L 1069 2984 
L 1069 0 
L 547 0 
L 547 3425 
L 2625 3425 
z
" transform="scale(0.015625)"/>
      <path id="OpenSans-Regular-440" d="M 2156 3488 
Q 2797 3488 3178 3047 
Q 3559 2606 3559 1722 
Q 3559 1138 3384 741 
Q 3209 344 2892 140 
Q 2575 -63 2144 -63 
Q 1872 -63 1665 9 
Q 1459 81 1312 203 
Q 1166 325 1069 469 
L 1031 469 
Q 1041 347 1055 175 
Q 1069 3 1069 -125 
L 1069 -1531 
L 547 -1531 
L 547 3425 
L 975 3425 
L 1044 2919 
L 1069 2919 
Q 1169 3075 1312 3204 
Q 1456 3334 1664 3411 
Q 1872 3488 2156 3488 
z
M 2066 3050 
Q 1709 3050 1492 2912 
Q 1275 2775 1175 2501 
Q 1075 2228 1069 1816 
L 1069 1716 
Q 1069 1281 1164 981 
Q 1259 681 1479 525 
Q 1700 369 2072 369 
Q 2391 369 2603 541 
Q 2816 713 2920 1020 
Q 3025 1328 3025 1728 
Q 3025 2334 2789 2692 
Q 2553 3050 2066 3050 
z
" transform="scale(0.015625)"/>
      <path id="OpenSans-Regular-43c" d="M 4163 3425 
L 4163 0 
L 3694 0 
L 3694 2231 
Q 3694 2369 3701 2511 
Q 3709 2653 3722 2797 
L 3703 2797 
L 2566 0 
L 2125 0 
L 1016 2797 
L 997 2797 
Q 1006 2653 1011 2511 
Q 1016 2369 1016 2213 
L 1016 0 
L 544 0 
L 544 3425 
L 1241 3425 
L 2347 625 
L 3469 3425 
L 4163 3425 
z
" transform="scale(0.015625)"/>
      <path id="OpenSans-Regular-20" transform="scale(0.015625)"/>
      <path id="OpenSans-Regular-441" d="M 1919 -63 
Q 1456 -63 1103 128 
Q 750 319 553 709 
Q 356 1100 356 1694 
Q 356 2316 564 2711 
Q 772 3106 1137 3297 
Q 1503 3488 1969 3488 
Q 2225 3488 2464 3436 
Q 2703 3384 2856 3306 
L 2700 2872 
Q 2544 2934 2339 2984 
Q 2134 3034 1956 3034 
Q 1600 3034 1364 2881 
Q 1128 2728 1011 2431 
Q 894 2134 894 1700 
Q 894 1284 1008 990 
Q 1122 697 1348 542 
Q 1575 388 1916 388 
Q 2188 388 2406 445 
Q 2625 503 2803 581 
L 2803 119 
Q 2631 31 2420 -16 
Q 2209 -63 1919 -63 
z
" transform="scale(0.015625)"/>
      <path id="OpenSans-Regular-435" d="M 1866 3488 
Q 2303 3488 2615 3294 
Q 2928 3100 3093 2751 
Q 3259 2403 3259 1938 
L 3259 1616 
L 894 1616 
Q 903 1013 1193 697 
Q 1484 381 2013 381 
Q 2338 381 2588 440 
Q 2838 500 3106 616 
L 3106 159 
Q 2847 44 2592 -9 
Q 2338 -63 1991 -63 
Q 1497 -63 1130 139 
Q 763 341 559 731 
Q 356 1122 356 1688 
Q 356 2241 542 2645 
Q 728 3050 1067 3269 
Q 1406 3488 1866 3488 
z
M 1859 3063 
Q 1444 3063 1197 2791 
Q 950 2519 903 2031 
L 2716 2031 
Q 2713 2338 2620 2570 
Q 2528 2803 2340 2933 
Q 2153 3063 1859 3063 
z
" transform="scale(0.015625)"/>
      <path id="OpenSans-Regular-44f" d="M 713 0 
L 106 0 
L 1094 1444 
Q 878 1491 693 1605 
Q 509 1719 395 1919 
Q 281 2119 281 2416 
Q 281 2909 611 3167 
Q 941 3425 1481 3425 
L 2997 3425 
L 2997 0 
L 2478 0 
L 2478 1375 
L 1609 1375 
L 713 0 
z
M 784 2413 
Q 784 2106 1003 1957 
Q 1222 1809 1628 1809 
L 2478 1809 
L 2478 2991 
L 1538 2991 
Q 1138 2991 961 2830 
Q 784 2669 784 2413 
z
" transform="scale(0.015625)"/>
      <path id="OpenSans-Regular-43d" d="M 1069 3425 
L 1069 1988 
L 2978 1988 
L 2978 3425 
L 3497 3425 
L 3497 0 
L 2978 0 
L 2978 1547 
L 1069 1547 
L 1069 0 
L 547 0 
L 547 3425 
L 1069 3425 
z
" transform="scale(0.015625)"/>
     </defs>
     <use xlink:href="#OpenSans-Regular-414"/>
     <use xlink:href="#OpenSans-Regular-438" x="68.408203"/>
     <use xlink:href="#OpenSans-Regular-430" x="131.982422"/>
     <use xlink:href="#OpenSans-Regular-433" x="187.548828"/>
     <use xlink:href="#OpenSans-Regular-440" x="230.664062"/>
     <use xlink:href="#OpenSans-Regular-430" x="291.845703"/>
     <use xlink:href="#OpenSans-Regular-43c" x="347.412109"/>
     <use xlink:href="#OpenSans-Regular-43c" x="420.751953"/>
     <use xlink:href="#OpenSans-Regular-430" x="494.091797"/>
     <use xlink:href="#OpenSans-Regular-20" x="549.658203"/>
     <use xlink:href="#OpenSans-Regular-440" x="575.634766"/>
     <use xlink:href="#OpenSans-Regular-430" x="636.816406"/>
     <use xlink:href="#OpenSans-Regular-441" x="692.382812"/>
     <use xlink:href="#OpenSans-Regular-441" x="740.283203"/>
     <use xlink:href="#OpenSans-Regular-435" x="788.183594"/>
     <use xlink:href="#OpenSans-Regular-44f" x="844.335938"/>
     <use xlink:href="#OpenSans-Regular-43d" x="899.707031"/>
     <use xlink:href="#OpenSans-Regular-438" x="962.988281"/>
     <use xlink:href="#OpenSans-Regular-44f" x="1026.5625"/>
    </g>
   </g>
  </g>
 </g>
 <defs>
  <clipPath id="p1d62b2b303">
   <rect x="45" y="43.2" width="279" height="277.2"/>
  </clipPath>
 </defs>
</svg>
